<svg xmlns="http://www.w3.org/2000/svg" xmlns:xlink="http://www.w3.org/1999/xlink" preserveAspectRatio="xMidYMid" width="238" height="239.031" viewBox="0 0 238 239.031">
  <defs>
    <style>
      .cls-1 {
        fill: #da0405;
      }

      .cls-2 {
        fill: #da0106;
      }

      .cls-10, .cls-12, .cls-14, .cls-16, .cls-18, .cls-2, .cls-3, .cls-5, .cls-8 {
        fill-rule: evenodd;
      }

      .cls-3 {
        fill: #fff;
      }

      .cls-4, .cls-5 {
        fill: #e7983e;
      }

      .cls-6, .cls-7 {
        font-size: 10px;
      }

      .cls-7 {
        font-family: "HelveticaNeue-Bold";
        font-weight: bold;
      }

      .cls-8 {
        fill: #000;
      }

      .cls-10, .cls-9 {
        fill: #f1cb30;
      }

      .cls-11 {
        fill: #ffff3c;
      }

      .cls-12 {
        fill: #fffe3d;
      }

      .cls-13 {
        fill: #dafe4e;
      }

      .cls-14 {
        fill: #dafe4c;
      }

      .cls-15 {
        fill: #7acb46;
      }

      .cls-16 {
        fill: #7aca45;
      }

      .cls-17, .cls-18 {
        fill: #60993e;
      }
    </style>
  </defs>
  <g>
    <g>
      <rect y="210.031" width="224" height="29" class="cls-1"/>
      <path d="M237.995,224.507 L223.994,239.005 L223.994,210.010 L237.995,224.507 Z" class="cls-2"/>
      <path d="M219.853,231.053 C219.241,231.311 218.623,231.440 217.999,231.440 C217.015,231.440 216.130,231.269 215.344,230.927 C214.558,230.585 213.895,230.114 213.355,229.514 C212.815,228.914 212.401,228.208 212.113,227.398 C211.825,226.588 211.681,225.715 211.681,224.779 C211.681,223.819 211.825,222.928 212.113,222.106 C212.401,221.284 212.815,220.567 213.355,219.954 C213.895,219.342 214.558,218.862 215.344,218.514 C216.130,218.166 217.015,217.992 217.999,217.992 C218.659,217.992 219.298,218.091 219.916,218.289 C220.534,218.487 221.092,218.778 221.590,219.162 C222.088,219.547 222.499,220.021 222.823,220.585 C223.147,221.149 223.345,221.797 223.417,222.529 L220.717,222.529 C220.549,221.809 220.225,221.269 219.745,220.909 C219.265,220.549 218.683,220.368 217.999,220.368 C217.363,220.368 216.823,220.492 216.379,220.738 C215.935,220.984 215.575,221.314 215.299,221.728 C215.023,222.142 214.822,222.613 214.696,223.141 C214.570,223.669 214.507,224.215 214.507,224.779 C214.507,225.319 214.570,225.844 214.696,226.354 C214.822,226.864 215.023,227.324 215.299,227.731 C215.575,228.139 215.935,228.467 216.379,228.712 C216.823,228.959 217.363,229.082 217.999,229.082 C218.935,229.082 219.658,228.845 220.168,228.370 C220.678,227.896 220.975,227.209 221.059,226.309 L218.215,226.309 L218.215,224.203 L223.615,224.203 L223.615,231.152 L221.815,231.152 L221.527,229.694 C221.023,230.342 220.465,230.795 219.853,231.053 Z" class="cls-3"/>
      <path d="M38.645,226.124 C38.508,226.594 38.322,226.969 38.085,227.249 C37.848,227.529 37.575,227.729 37.265,227.849 C36.955,227.969 36.623,228.029 36.270,228.029 C35.923,228.029 35.595,227.969 35.285,227.849 C34.975,227.729 34.703,227.529 34.470,227.249 C34.237,226.969 34.052,226.594 33.915,226.124 C33.778,225.654 33.710,225.069 33.710,224.369 C33.710,223.689 33.778,223.117 33.915,222.654 C34.052,222.190 34.237,221.819 34.470,221.539 C34.703,221.259 34.975,221.059 35.285,220.939 C35.595,220.819 35.923,220.759 36.270,220.759 C36.623,220.759 36.955,220.819 37.265,220.939 C37.575,221.059 37.848,221.259 38.085,221.539 C38.322,221.819 38.508,222.190 38.645,222.654 C38.782,223.117 38.850,223.689 38.850,224.369 C38.850,225.069 38.782,225.654 38.645,226.124 ZM37.425,223.934 C37.422,223.764 37.408,223.589 37.385,223.409 C37.362,223.229 37.328,223.051 37.285,222.874 C37.242,222.697 37.177,222.539 37.090,222.399 C37.003,222.259 36.893,222.145 36.760,222.059 C36.627,221.972 36.463,221.929 36.270,221.929 C36.077,221.929 35.915,221.972 35.785,222.059 C35.655,222.145 35.548,222.259 35.465,222.399 C35.382,222.539 35.317,222.697 35.270,222.874 C35.223,223.051 35.190,223.229 35.170,223.409 C35.150,223.589 35.138,223.764 35.135,223.934 C35.132,224.104 35.130,224.249 35.130,224.369 C35.130,224.569 35.137,224.811 35.150,225.094 C35.163,225.378 35.205,225.651 35.275,225.914 C35.345,226.178 35.457,226.403 35.610,226.589 C35.763,226.776 35.983,226.869 36.270,226.869 C36.563,226.869 36.788,226.776 36.945,226.589 C37.102,226.403 37.215,226.178 37.285,225.914 C37.355,225.651 37.397,225.378 37.410,225.094 C37.423,224.811 37.430,224.569 37.430,224.369 C37.430,224.249 37.428,224.104 37.425,223.934 ZM32.545,227.329 C32.308,227.556 32.033,227.731 31.720,227.854 C31.407,227.978 31.073,228.036 30.720,228.029 C30.380,228.029 30.055,227.984 29.745,227.894 C29.435,227.804 29.160,227.666 28.920,227.479 C28.680,227.293 28.488,227.061 28.345,226.784 C28.202,226.508 28.127,226.186 28.120,225.819 L29.540,225.819 C29.573,226.139 29.693,226.394 29.900,226.584 C30.107,226.774 30.370,226.869 30.690,226.869 C30.877,226.869 31.045,226.831 31.195,226.754 C31.345,226.678 31.472,226.578 31.575,226.454 C31.678,226.331 31.758,226.188 31.815,226.024 C31.872,225.861 31.900,225.693 31.900,225.519 C31.900,225.339 31.873,225.169 31.820,225.009 C31.767,224.849 31.687,224.709 31.580,224.589 C31.473,224.469 31.347,224.376 31.200,224.309 C31.053,224.242 30.883,224.209 30.690,224.209 C30.437,224.209 30.230,224.254 30.070,224.344 C29.910,224.434 29.760,224.576 29.620,224.769 L28.340,224.769 L29.030,220.899 L32.940,220.899 L32.940,222.069 L30.050,222.069 L29.770,223.659 L29.790,223.679 C29.983,223.486 30.190,223.347 30.410,223.264 C30.630,223.181 30.880,223.139 31.160,223.139 C31.507,223.139 31.813,223.202 32.080,223.329 C32.347,223.456 32.572,223.626 32.755,223.839 C32.938,224.052 33.078,224.304 33.175,224.594 C33.272,224.884 33.320,225.193 33.320,225.519 C33.320,225.879 33.250,226.214 33.110,226.524 C32.970,226.834 32.782,227.103 32.545,227.329 ZM26.850,227.899 L25.500,227.899 L25.500,226.279 L22.540,226.279 L22.540,224.979 L25.580,220.899 L26.850,220.899 L26.850,225.109 L27.780,225.109 L27.780,226.279 L26.850,226.279 L26.850,227.899 ZM25.500,222.679 L25.470,222.679 L23.660,225.109 L25.500,225.109 L25.500,222.679 ZM14.060,226.829 L17.730,225.369 L14.060,223.909 L14.060,222.759 L19.140,224.779 L19.140,225.959 L14.060,227.969 L14.060,226.829 Z" class="cls-3"/>
    </g>
    <g>
      <rect y="175" width="196" height="29.031" class="cls-4"/>
      <path d="M209.995,189.504 L195.994,204.001 L195.994,175.006 L209.995,189.504 Z" class="cls-5"/>
      <text transform="translate(10 194.22)" class="cls-6"><tspan class="cls-7">331 - 450</tspan></text>
      <path d="M195.275,183.294 L195.275,185.670 L189.065,185.670 L189.065,188.641 L194.447,188.641 L194.447,190.837 L189.065,190.837 L189.065,196.148 L186.239,196.148 L186.239,183.294 L195.275,183.294 Z" class="cls-8"/>
    </g>
    <g>
      <rect y="140" width="168" height="29" class="cls-9"/>
      <path d="M181.995,154.499 L167.994,168.997 L167.994,140.002 L181.995,154.499 Z" class="cls-10"/>
      <text transform="translate(10 159.22)" class="cls-6"><tspan class="cls-7">231 - 330</tspan></text>
      <path d="M167.851,148.290 L167.851,150.666 L161.065,150.666 L161.065,153.421 L167.293,153.421 L167.293,155.617 L161.065,155.617 L161.065,158.767 L167.995,158.767 L167.995,161.143 L158.239,161.143 L158.239,148.290 L167.851,148.290 Z" class="cls-8"/>
    </g>
    <g>
      <rect y="105" width="141" height="29" class="cls-11"/>
      <path d="M154.995,119.495 L140.994,133.993 L140.994,104.997 L154.995,119.495 Z" class="cls-12"/>
      <text transform="translate(10 124.22)" class="cls-6"><tspan class="cls-7">151 - 230</tspan></text>
      <path d="M134.585,123.763 C134.993,123.763 135.389,123.697 135.773,123.565 C136.157,123.433 136.499,123.214 136.799,122.908 C137.099,122.602 137.339,122.203 137.519,121.711 C137.699,121.219 137.789,120.619 137.789,119.911 C137.789,119.263 137.726,118.677 137.600,118.155 C137.474,117.633 137.267,117.186 136.979,116.814 C136.691,116.442 136.310,116.157 135.836,115.959 C135.362,115.761 134.777,115.662 134.081,115.662 L132.065,115.662 L132.065,123.763 L134.585,123.763 ZM134.783,113.286 C135.611,113.286 136.382,113.418 137.096,113.682 C137.810,113.946 138.428,114.342 138.950,114.870 C139.472,115.398 139.880,116.058 140.174,116.850 C140.468,117.642 140.615,118.573 140.615,119.641 C140.615,120.577 140.495,121.441 140.255,122.233 C140.015,123.025 139.652,123.709 139.166,124.285 C138.680,124.861 138.074,125.314 137.348,125.644 C136.622,125.974 135.767,126.139 134.783,126.139 L129.239,126.139 L129.239,113.286 L134.783,113.286 Z" class="cls-8"/>
    </g>
    <g>
      <rect y="70" width="114" height="29" class="cls-13"/>
      <path d="M127.995,84.491 L113.994,98.989 L113.994,69.993 L127.995,84.491 Z" class="cls-14"/>
      <text transform="translate(10 89.22)" class="cls-6"><tspan class="cls-7">91 - 150</tspan></text>
      <path d="M110.483,81.711 C110.315,81.441 110.105,81.204 109.853,81.000 C109.601,80.796 109.316,80.637 108.998,80.523 C108.680,80.409 108.347,80.352 107.999,80.352 C107.363,80.352 106.823,80.475 106.379,80.721 C105.935,80.967 105.575,81.297 105.299,81.711 C105.023,82.125 104.822,82.596 104.696,83.124 C104.570,83.652 104.507,84.198 104.507,84.762 C104.507,85.303 104.570,85.828 104.696,86.338 C104.822,86.848 105.023,87.307 105.299,87.715 C105.575,88.123 105.935,88.450 106.379,88.696 C106.823,88.942 107.363,89.065 107.999,89.065 C108.863,89.065 109.538,88.801 110.024,88.273 C110.510,87.745 110.807,87.049 110.915,86.185 L113.651,86.185 C113.579,86.989 113.393,87.715 113.093,88.363 C112.793,89.011 112.397,89.563 111.905,90.019 C111.413,90.475 110.837,90.823 110.177,91.063 C109.517,91.303 108.791,91.423 107.999,91.423 C107.015,91.423 106.130,91.252 105.344,90.910 C104.558,90.568 103.895,90.097 103.355,89.497 C102.815,88.897 102.401,88.192 102.113,87.382 C101.825,86.572 101.681,85.699 101.681,84.762 C101.681,83.802 101.825,82.911 102.113,82.089 C102.401,81.267 102.815,80.550 103.355,79.938 C103.895,79.326 104.558,78.846 105.344,78.498 C106.130,78.150 107.015,77.976 107.999,77.976 C108.707,77.976 109.376,78.078 110.006,78.282 C110.636,78.486 111.200,78.783 111.698,79.173 C112.196,79.563 112.607,80.046 112.931,80.622 C113.255,81.198 113.459,81.858 113.543,82.602 L110.807,82.602 C110.759,82.278 110.651,81.981 110.483,81.711 Z" class="cls-8"/>
    </g>
    <g>
      <rect y="35" width="84" height="29" class="cls-15"/>
      <path d="M97.995,49.487 L83.994,63.985 L83.994,34.989 L97.995,49.487 Z" class="cls-16"/>
      <text transform="translate(10 54.22)" class="cls-6"><tspan class="cls-7">51 - 90</tspan></text>
      <path d="M78.927,48.480 C79.431,48.480 79.845,48.360 80.169,48.120 C80.493,47.880 80.655,47.490 80.655,46.950 C80.655,46.650 80.601,46.404 80.493,46.212 C80.385,46.020 80.241,45.870 80.061,45.762 C79.881,45.654 79.674,45.579 79.440,45.537 C79.206,45.495 78.963,45.474 78.711,45.474 L76.065,45.474 L76.065,48.480 L78.927,48.480 ZM79.287,43.278 C79.899,43.278 80.457,43.332 80.961,43.440 C81.465,43.548 81.897,43.725 82.257,43.971 C82.617,44.217 82.896,44.544 83.094,44.952 C83.292,45.360 83.391,45.864 83.391,46.464 C83.391,47.112 83.244,47.652 82.950,48.084 C82.656,48.516 82.221,48.870 81.645,49.146 C82.437,49.374 83.028,49.773 83.418,50.343 C83.808,50.914 84.003,51.601 84.003,52.405 C84.003,53.053 83.877,53.614 83.625,54.088 C83.373,54.562 83.034,54.949 82.608,55.249 C82.182,55.549 81.696,55.771 81.150,55.915 C80.604,56.059 80.043,56.131 79.467,56.131 L73.239,56.131 L73.239,43.278 L79.287,43.278 ZM79.089,53.935 C79.365,53.935 79.629,53.908 79.881,53.854 C80.133,53.800 80.355,53.710 80.547,53.584 C80.739,53.458 80.892,53.287 81.006,53.071 C81.120,52.855 81.177,52.579 81.177,52.243 C81.177,51.583 80.991,51.112 80.619,50.829 C80.247,50.548 79.755,50.406 79.143,50.406 L76.065,50.406 L76.065,53.935 L79.089,53.935 Z" class="cls-8"/>
    </g>
    <g>
      <rect width="57" height="29" class="cls-17"/>
      <path d="M70.995,14.483 L56.994,28.980 L56.994,-0.015 L70.995,14.483 Z" class="cls-18"/>
      <path d="M52.809,15.158 L51.189,10.442 L51.153,10.442 L49.479,15.158 L52.809,15.158 ZM52.647,7.273 L57.453,20.127 L54.519,20.127 L53.547,17.264 L48.741,17.264 L47.733,20.127 L44.889,20.127 L49.749,7.273 L52.647,7.273 Z" class="cls-8"/>
      <path d="M35.085,16.099 C34.948,16.569 34.762,16.944 34.525,17.224 C34.288,17.504 34.015,17.705 33.705,17.825 C33.395,17.945 33.063,18.005 32.710,18.005 C32.363,18.005 32.035,17.945 31.725,17.825 C31.415,17.705 31.143,17.504 30.910,17.224 C30.677,16.944 30.492,16.569 30.355,16.099 C30.218,15.629 30.150,15.044 30.150,14.344 C30.150,13.664 30.218,13.092 30.355,12.629 C30.492,12.166 30.677,11.794 30.910,11.514 C31.143,11.234 31.415,11.034 31.725,10.914 C32.035,10.794 32.363,10.734 32.710,10.734 C33.063,10.734 33.395,10.794 33.705,10.914 C34.015,11.034 34.288,11.234 34.525,11.514 C34.762,11.794 34.948,12.166 35.085,12.629 C35.222,13.092 35.290,13.664 35.290,14.344 C35.290,15.044 35.222,15.629 35.085,16.099 ZM33.865,13.909 C33.862,13.739 33.848,13.564 33.825,13.384 C33.802,13.204 33.768,13.026 33.725,12.849 C33.682,12.672 33.617,12.514 33.530,12.374 C33.443,12.234 33.333,12.121 33.200,12.034 C33.067,11.947 32.903,11.904 32.710,11.904 C32.517,11.904 32.355,11.947 32.225,12.034 C32.095,12.121 31.988,12.234 31.905,12.374 C31.822,12.514 31.757,12.672 31.710,12.849 C31.663,13.026 31.630,13.204 31.610,13.384 C31.590,13.564 31.578,13.739 31.575,13.909 C31.572,14.079 31.570,14.224 31.570,14.344 C31.570,14.544 31.577,14.786 31.590,15.069 C31.603,15.353 31.645,15.626 31.715,15.889 C31.785,16.153 31.897,16.378 32.050,16.564 C32.203,16.751 32.423,16.844 32.710,16.844 C33.003,16.844 33.228,16.751 33.385,16.564 C33.542,16.378 33.655,16.153 33.725,15.889 C33.795,15.626 33.837,15.353 33.850,15.069 C33.863,14.786 33.870,14.544 33.870,14.344 C33.870,14.224 33.868,14.079 33.865,13.909 ZM28.985,17.304 C28.748,17.531 28.473,17.706 28.160,17.830 C27.847,17.953 27.513,18.011 27.160,18.005 C26.820,18.005 26.495,17.960 26.185,17.870 C25.875,17.780 25.600,17.641 25.360,17.455 C25.120,17.268 24.928,17.036 24.785,16.759 C24.642,16.483 24.567,16.161 24.560,15.794 L25.980,15.794 C26.013,16.114 26.133,16.369 26.340,16.559 C26.547,16.749 26.810,16.844 27.130,16.844 C27.317,16.844 27.485,16.806 27.635,16.729 C27.785,16.653 27.912,16.553 28.015,16.429 C28.118,16.306 28.198,16.163 28.255,15.999 C28.312,15.836 28.340,15.668 28.340,15.494 C28.340,15.314 28.313,15.144 28.260,14.984 C28.207,14.824 28.127,14.684 28.020,14.564 C27.913,14.444 27.787,14.351 27.640,14.284 C27.493,14.218 27.323,14.184 27.130,14.184 C26.877,14.184 26.670,14.229 26.510,14.319 C26.350,14.409 26.200,14.551 26.060,14.744 L24.780,14.744 L25.470,10.874 L29.380,10.874 L29.380,12.044 L26.490,12.044 L26.210,13.634 L26.230,13.654 C26.423,13.461 26.630,13.322 26.850,13.239 C27.070,13.156 27.320,13.114 27.600,13.114 C27.947,13.114 28.253,13.177 28.520,13.304 C28.787,13.431 29.012,13.601 29.195,13.814 C29.378,14.028 29.518,14.279 29.615,14.569 C29.712,14.859 29.760,15.168 29.760,15.494 C29.760,15.854 29.690,16.189 29.550,16.499 C29.410,16.809 29.222,17.078 28.985,17.304 ZM16.080,15.884 L21.130,15.884 L21.130,16.954 L16.080,16.954 L16.080,15.884 ZM16.080,13.744 L21.130,13.744 L21.130,14.814 L16.080,14.814 L16.080,13.744 ZM10.060,14.754 L15.140,12.734 L15.140,13.884 L11.470,15.344 L15.140,16.804 L15.140,17.945 L10.060,15.934 L10.060,14.754 Z" class="cls-8"/>
    </g>
  </g>
</svg>
