<svg xmlns="http://www.w3.org/2000/svg" xmlns:xlink="http://www.w3.org/1999/xlink" preserveAspectRatio="xMidYMid" width="238" height="239.032" viewBox="0 0 238 239.032">
  <defs>
    <style>
      .cls-1 {
        fill: #510480;
      }

      .cls-2 {
        fill: #fff;
      }

      .cls-2, .cls-6 {
        fill-rule: evenodd;
      }

      .cls-3 {
        fill: #730080;
      }

      .cls-4, .cls-5 {
        font-size: 10px;
      }

      .cls-5 {
        font-family: "HelveticaNeue-Bold";
        font-weight: bold;
      }

      .cls-6 {
        fill: #000;
      }

      .cls-7 {
        fill: #9e24fe;
      }

      .cls-8 {
        fill: #ae4bff;
      }

      .cls-9 {
        fill: #be72fe;
      }

      .cls-10 {
        fill: #ce99fe;
      }

      .cls-11 {
        fill: #dec0fe;
      }
    </style>
  </defs>
  <g>
    <g>
      <rect y="210.032" width="238" height="29" class="cls-1"/>
      <path d="M226.853,231.070 C226.241,231.328 225.623,231.457 224.999,231.457 C224.015,231.457 223.130,231.286 222.344,230.944 C221.558,230.602 220.895,230.131 220.355,229.531 C219.815,228.931 219.401,228.226 219.113,227.416 C218.825,226.606 218.681,225.732 218.681,224.796 C218.681,223.836 218.825,222.945 219.113,222.123 C219.401,221.301 219.815,220.584 220.355,219.972 C220.895,219.360 221.558,218.880 222.344,218.532 C223.130,218.184 224.015,218.010 224.999,218.010 C225.659,218.010 226.298,218.109 226.916,218.307 C227.534,218.505 228.092,218.796 228.590,219.180 C229.088,219.564 229.499,220.038 229.823,220.602 C230.147,221.166 230.345,221.814 230.417,222.546 L227.717,222.546 C227.549,221.826 227.225,221.286 226.745,220.926 C226.265,220.566 225.683,220.386 224.999,220.386 C224.363,220.386 223.823,220.509 223.379,220.755 C222.935,221.001 222.575,221.331 222.299,221.745 C222.023,222.159 221.822,222.630 221.696,223.158 C221.570,223.686 221.507,224.232 221.507,224.796 C221.507,225.336 221.570,225.862 221.696,226.372 C221.822,226.882 222.023,227.341 222.299,227.749 C222.575,228.157 222.935,228.484 223.379,228.730 C223.823,228.976 224.363,229.099 224.999,229.099 C225.935,229.099 226.658,228.862 227.168,228.388 C227.678,227.914 227.975,227.227 228.059,226.327 L225.215,226.327 L225.215,224.220 L230.615,224.220 L230.615,231.169 L228.815,231.169 L228.527,229.711 C228.023,230.359 227.465,230.812 226.853,231.070 Z" class="cls-2"/>
      <path d="M33.085,226.142 C32.948,226.612 32.762,226.987 32.525,227.267 C32.288,227.547 32.015,227.747 31.705,227.867 C31.395,227.987 31.063,228.047 30.710,228.047 C30.363,228.047 30.035,227.987 29.725,227.867 C29.415,227.747 29.143,227.547 28.910,227.267 C28.677,226.987 28.492,226.612 28.355,226.142 C28.218,225.671 28.150,225.086 28.150,224.386 C28.150,223.706 28.218,223.135 28.355,222.671 C28.492,222.208 28.677,221.836 28.910,221.556 C29.143,221.276 29.415,221.076 29.725,220.956 C30.035,220.836 30.363,220.776 30.710,220.776 C31.063,220.776 31.395,220.836 31.705,220.956 C32.015,221.076 32.288,221.276 32.525,221.556 C32.762,221.836 32.948,222.208 33.085,222.671 C33.222,223.135 33.290,223.706 33.290,224.386 C33.290,225.086 33.222,225.671 33.085,226.142 ZM31.865,223.951 C31.862,223.781 31.848,223.606 31.825,223.426 C31.802,223.246 31.768,223.068 31.725,222.891 C31.682,222.715 31.617,222.556 31.530,222.416 C31.443,222.276 31.333,222.163 31.200,222.076 C31.067,221.989 30.903,221.946 30.710,221.946 C30.517,221.946 30.355,221.989 30.225,222.076 C30.095,222.163 29.988,222.276 29.905,222.416 C29.822,222.556 29.757,222.715 29.710,222.891 C29.663,223.068 29.630,223.246 29.610,223.426 C29.590,223.606 29.578,223.781 29.575,223.951 C29.572,224.121 29.570,224.266 29.570,224.386 C29.570,224.586 29.577,224.828 29.590,225.111 C29.603,225.395 29.645,225.668 29.715,225.932 C29.785,226.195 29.897,226.420 30.050,226.607 C30.203,226.793 30.423,226.887 30.710,226.887 C31.003,226.887 31.228,226.793 31.385,226.607 C31.542,226.420 31.655,226.195 31.725,225.932 C31.795,225.668 31.837,225.395 31.850,225.111 C31.863,224.828 31.870,224.586 31.870,224.386 C31.870,224.266 31.868,224.121 31.865,223.951 ZM27.460,224.741 C27.687,225.045 27.800,225.416 27.800,225.857 C27.800,226.230 27.725,226.553 27.575,226.827 C27.425,227.100 27.227,227.327 26.980,227.507 C26.733,227.687 26.453,227.822 26.140,227.912 C25.827,228.002 25.507,228.047 25.180,228.047 C24.840,228.047 24.512,228.005 24.195,227.922 C23.878,227.838 23.595,227.707 23.345,227.527 C23.095,227.347 22.895,227.120 22.745,226.847 C22.595,226.573 22.520,226.247 22.520,225.867 C22.520,225.420 22.635,225.046 22.865,224.746 C23.095,224.446 23.420,224.246 23.840,224.146 L23.840,224.126 C23.500,224.033 23.243,223.856 23.070,223.596 C22.897,223.336 22.810,223.033 22.810,222.686 C22.810,222.373 22.880,222.096 23.020,221.856 C23.160,221.616 23.342,221.416 23.565,221.256 C23.788,221.096 24.040,220.976 24.320,220.896 C24.600,220.816 24.883,220.776 25.170,220.776 C25.603,220.776 25.970,220.843 26.270,220.976 C26.570,221.109 26.812,221.271 26.995,221.461 C27.178,221.651 27.310,221.854 27.390,222.071 C27.470,222.288 27.510,222.483 27.510,222.656 C27.510,223.003 27.425,223.306 27.255,223.566 C27.085,223.826 26.830,224.013 26.490,224.126 L26.490,224.146 C26.910,224.240 27.233,224.438 27.460,224.741 ZM26.180,222.511 C26.153,222.401 26.102,222.296 26.025,222.196 C25.948,222.096 25.842,222.013 25.705,221.946 C25.568,221.879 25.390,221.846 25.170,221.846 C25.030,221.846 24.895,221.868 24.765,221.911 C24.635,221.954 24.520,222.016 24.420,222.096 C24.320,222.176 24.242,222.276 24.185,222.396 C24.128,222.516 24.100,222.656 24.100,222.816 C24.100,223.116 24.207,223.345 24.420,223.501 C24.633,223.658 24.883,223.736 25.170,223.736 C25.470,223.736 25.720,223.658 25.920,223.501 C26.120,223.345 26.220,223.116 26.220,222.816 C26.220,222.723 26.207,222.621 26.180,222.511 ZM26.285,225.351 C26.222,225.215 26.135,225.096 26.025,224.996 C25.915,224.896 25.788,224.820 25.645,224.766 C25.502,224.713 25.347,224.686 25.180,224.686 C24.833,224.686 24.540,224.781 24.300,224.971 C24.060,225.161 23.940,225.436 23.940,225.796 C23.940,225.976 23.973,226.140 24.040,226.287 C24.107,226.433 24.195,226.558 24.305,226.662 C24.415,226.765 24.547,226.845 24.700,226.902 C24.853,226.958 25.013,226.987 25.180,226.987 C25.353,226.987 25.512,226.958 25.655,226.902 C25.798,226.845 25.925,226.765 26.035,226.662 C26.145,226.558 26.230,226.433 26.290,226.287 C26.350,226.140 26.380,225.980 26.380,225.806 C26.380,225.640 26.348,225.488 26.285,225.351 ZM14.060,226.847 L17.730,225.386 L14.060,223.926 L14.060,222.776 L19.140,224.796 L19.140,225.976 L14.060,227.987 L14.060,226.847 Z" class="cls-2"/>
    </g>
    <g>
      <rect y="175.032" width="210" height="29" class="cls-3"/>
      <text transform="translate(10 194.19)" class="cls-4"><tspan class="cls-5">56 - 80</tspan></text>
      <path d="M203.275,183.311 L203.275,185.688 L197.065,185.688 L197.065,188.658 L202.447,188.658 L202.447,190.854 L197.065,190.854 L197.065,196.165 L194.239,196.165 L194.239,183.311 L203.275,183.311 Z" class="cls-6"/>
    </g>
    <g>
      <rect y="140.032" width="182" height="29" class="cls-7"/>
      <text transform="translate(10 159.19)" class="cls-4"><tspan class="cls-5">36 - 55</tspan></text>
      <path d="M174.851,148.307 L174.851,150.684 L168.065,150.684 L168.065,153.438 L174.293,153.438 L174.293,155.634 L168.065,155.634 L168.065,158.785 L174.995,158.785 L174.995,161.161 L165.239,161.161 L165.239,148.307 L174.851,148.307 Z" class="cls-6"/>
    </g>
    <g>
      <rect y="105.032" width="155" height="29" class="cls-8"/>
      <text transform="translate(10 124.19)" class="cls-4"><tspan class="cls-5">21 - 35</tspan></text>
      <path d="M141.585,123.780 C141.993,123.780 142.389,123.715 142.773,123.582 C143.157,123.450 143.499,123.231 143.799,122.925 C144.099,122.619 144.339,122.220 144.519,121.728 C144.699,121.236 144.789,120.636 144.789,119.928 C144.789,119.280 144.726,118.695 144.600,118.173 C144.474,117.651 144.267,117.204 143.979,116.832 C143.691,116.460 143.310,116.174 142.836,115.976 C142.362,115.778 141.777,115.679 141.081,115.679 L139.065,115.679 L139.065,123.780 L141.585,123.780 ZM141.783,113.303 C142.611,113.303 143.382,113.435 144.096,113.699 C144.810,113.963 145.428,114.359 145.950,114.887 C146.472,115.416 146.880,116.075 147.174,116.868 C147.468,117.660 147.615,118.590 147.615,119.658 C147.615,120.594 147.495,121.458 147.255,122.250 C147.015,123.042 146.652,123.726 146.166,124.302 C145.680,124.879 145.074,125.332 144.348,125.662 C143.622,125.992 142.767,126.157 141.783,126.157 L136.239,126.157 L136.239,113.303 L141.783,113.303 Z" class="cls-6"/>
    </g>
    <g>
      <rect y="70.032" width="128" height="29" class="cls-9"/>
      <text transform="translate(10 89.19)" class="cls-4"><tspan class="cls-5">11 - 20</tspan></text>
      <path d="M117.483,81.728 C117.315,81.458 117.105,81.222 116.853,81.017 C116.601,80.813 116.316,80.654 115.998,80.540 C115.680,80.426 115.347,80.369 114.999,80.369 C114.363,80.369 113.823,80.492 113.379,80.738 C112.935,80.984 112.575,81.314 112.299,81.728 C112.023,82.142 111.822,82.614 111.696,83.142 C111.570,83.670 111.507,84.216 111.507,84.780 C111.507,85.320 111.570,85.845 111.696,86.355 C111.822,86.865 112.023,87.324 112.299,87.732 C112.575,88.140 112.935,88.467 113.379,88.713 C113.823,88.959 114.363,89.082 114.999,89.082 C115.863,89.082 116.538,88.818 117.024,88.290 C117.510,87.762 117.807,87.066 117.915,86.202 L120.651,86.202 C120.579,87.006 120.393,87.732 120.093,88.380 C119.793,89.028 119.397,89.580 118.905,90.036 C118.413,90.493 117.837,90.841 117.177,91.081 C116.517,91.320 115.791,91.441 114.999,91.441 C114.015,91.441 113.130,91.270 112.344,90.927 C111.558,90.585 110.895,90.115 110.355,89.514 C109.815,88.914 109.401,88.209 109.113,87.399 C108.825,86.589 108.681,85.716 108.681,84.780 C108.681,83.820 108.825,82.929 109.113,82.106 C109.401,81.285 109.815,80.567 110.355,79.955 C110.895,79.343 111.558,78.863 112.344,78.515 C113.130,78.167 114.015,77.993 114.999,77.993 C115.707,77.993 116.376,78.095 117.006,78.299 C117.636,78.503 118.200,78.800 118.698,79.190 C119.196,79.580 119.607,80.063 119.931,80.639 C120.255,81.215 120.459,81.876 120.543,82.620 L117.807,82.620 C117.759,82.295 117.651,81.998 117.483,81.728 Z" class="cls-6"/>
    </g>
    <g>
      <rect y="35" width="98" height="29.032" class="cls-10"/>
      <text transform="translate(10 54.19)" class="cls-4"><tspan class="cls-5">6 - 10</tspan></text>
      <path d="M85.927,48.498 C86.431,48.498 86.845,48.378 87.169,48.137 C87.493,47.898 87.655,47.507 87.655,46.967 C87.655,46.667 87.601,46.421 87.493,46.229 C87.385,46.037 87.241,45.887 87.061,45.779 C86.881,45.671 86.674,45.596 86.440,45.554 C86.206,45.512 85.963,45.491 85.711,45.491 L83.065,45.491 L83.065,48.498 L85.927,48.498 ZM86.287,43.295 C86.899,43.295 87.457,43.349 87.961,43.457 C88.465,43.565 88.897,43.742 89.257,43.988 C89.617,44.234 89.896,44.561 90.094,44.969 C90.292,45.377 90.391,45.881 90.391,46.481 C90.391,47.129 90.244,47.669 89.950,48.101 C89.656,48.533 89.221,48.888 88.645,49.164 C89.437,49.392 90.028,49.791 90.418,50.361 C90.808,50.931 91.003,51.618 91.003,52.422 C91.003,53.070 90.877,53.631 90.625,54.105 C90.373,54.579 90.034,54.966 89.608,55.266 C89.182,55.566 88.696,55.788 88.150,55.932 C87.604,56.076 87.043,56.148 86.467,56.148 L80.239,56.148 L80.239,43.295 L86.287,43.295 ZM86.089,53.952 C86.365,53.952 86.629,53.925 86.881,53.871 C87.133,53.817 87.355,53.727 87.547,53.601 C87.739,53.475 87.892,53.304 88.006,53.088 C88.120,52.872 88.177,52.596 88.177,52.260 C88.177,51.600 87.991,51.129 87.619,50.847 C87.247,50.565 86.755,50.424 86.143,50.424 L83.065,50.424 L83.065,53.952 L86.089,53.952 Z" class="cls-6"/>
    </g>
    <g>
      <rect width="71" height="29" class="cls-11"/>
      <path d="M59.809,15.176 L58.189,10.459 L58.153,10.459 L56.479,15.176 L59.809,15.176 ZM59.647,7.291 L64.453,20.144 L61.519,20.144 L60.547,17.282 L55.741,17.282 L54.733,20.144 L51.889,20.144 L56.749,7.291 L59.647,7.291 Z" class="cls-6"/>
      <path d="M26.850,13.256 C27.070,13.173 27.320,13.131 27.600,13.131 C27.947,13.131 28.253,13.195 28.520,13.321 C28.787,13.448 29.012,13.618 29.195,13.831 C29.378,14.045 29.518,14.296 29.615,14.587 C29.712,14.877 29.760,15.185 29.760,15.512 C29.760,15.872 29.690,16.207 29.550,16.517 C29.410,16.827 29.222,17.095 28.985,17.322 C28.748,17.549 28.473,17.724 28.160,17.847 C27.847,17.970 27.513,18.028 27.160,18.022 C26.820,18.022 26.495,17.977 26.185,17.887 C25.875,17.797 25.600,17.659 25.360,17.472 C25.120,17.285 24.928,17.053 24.785,16.777 C24.642,16.500 24.567,16.178 24.560,15.812 L25.980,15.812 C26.013,16.132 26.133,16.387 26.340,16.577 C26.547,16.767 26.810,16.862 27.130,16.862 C27.317,16.862 27.485,16.823 27.635,16.747 C27.785,16.670 27.912,16.570 28.015,16.447 C28.118,16.323 28.198,16.180 28.255,16.017 C28.312,15.853 28.340,15.685 28.340,15.512 C28.340,15.332 28.313,15.162 28.260,15.002 C28.207,14.842 28.127,14.702 28.020,14.582 C27.913,14.461 27.787,14.368 27.640,14.301 C27.493,14.235 27.323,14.201 27.130,14.201 C26.877,14.201 26.670,14.246 26.510,14.336 C26.350,14.426 26.200,14.568 26.060,14.762 L24.780,14.762 L25.470,10.891 L29.380,10.891 L29.380,12.061 L26.490,12.061 L26.210,13.651 L26.230,13.671 C26.423,13.478 26.630,13.340 26.850,13.256 ZM16.080,15.902 L21.130,15.902 L21.130,16.972 L16.080,16.972 L16.080,15.902 ZM16.080,13.761 L21.130,13.761 L21.130,14.832 L16.080,14.832 L16.080,13.761 ZM10.060,14.772 L15.140,12.751 L15.140,13.901 L11.470,15.362 L15.140,16.822 L15.140,17.962 L10.060,15.952 L10.060,14.772 Z" class="cls-6"/>
    </g>
  </g>
</svg>
