<svg xmlns="http://www.w3.org/2000/svg">
<defs>
<font id="eutemia" horiz-adv-x="409" >
  <font-face 
    font-family="eutemia"
    font-weight="400"
    font-style="italic"
    font-stretch="normal"
    units-per-em="2048"
    panose-1="2 0 0 0 0 0 0 0 0 0"
    ascent="1638"
    descent="-410"
    x-height="600"
    cap-height="1605"
    bbox="-1092 -1749 2587 2098"
    underline-thickness="150"
    underline-position="-442"
    slope="-16.33"
    unicode-range="U+0020-00D6"
  />
<missing-glyph horiz-adv-x="2118" 
d="M909 1485q-59 -244 101 -383h12l6 -4q33 -25 57 -33h29q94 94 102 215l-12 4q-22 19 -43 25q-14 -123 -100 -131q-88 71 -72 180q8 69 33 8h10q14 59 -6 107q76 141 123 -5q8 -8 12 -18h12l25 14l2 13l4 12v67l4 58l-10 4q-45 37 -96 51q-21 -27 -49 -29q-13 37 -35 54
q-15 -111 -96 -160q-64 170 63 299q-4 20 -25 16q-133 -174 -51 -364zM1485 1749l4 -12q305 -101 336 -353q-23 -215 -232 -303q-47 -34 -92 -41l16 -18q21 0 31 2q60 18 105 12q-4 -18 -21 -30q-145 -88 -295 -88q8 36 35 51l-2 20h27q47 -22 88 -12q51 55 -39 72
q22 -25 14 -52q-29 4 -51 21q-43 78 -219 59q-25 15 -45 13q84 -72 -35 -58v-14q10 -8 18 -17q-16 -14 -30 -20q-138 2 -80 41v14q-119 -12 -37 54l-12 8l-4 -8q-60 -15 -107 -5h-45q-25 -20 -51 -20q-19 -14 -33 -16l-12 -27q51 16 71 -16l-16 12q-23 -6 -43 -4l-8 4
q-33 -17 -55 -17q-9 27 16 52q-37 -11 -57 -31v-25q47 -45 116 -4h17q2 -47 88 -32l35 4q2 -64 -119 -9l-8 -18q57 -39 -9 -33l-32 8q-52 2 -84 17q-29 8 -47 14l-9 4l-28 8l-29 17q-37 14 -59 33l-9 26l17 4h20l29 -8q53 -16 94 -14v14q-51 8 -76 45q47 2 80 12
q29 27 54 39q38 107 139 133q10 21 20 31v12l8 46q-43 98 -16 188q-61 29 -96 72q-82 -37 -156 -9l-51 -4l-49 -53q-23 -149 96 -211l12 -24v-27q-30 -23 -45 -49q92 -19 101 -92l-4 -9l-17 -18q-108 -8 -155 84l-27 14l6 -8l12 -26q33 -41 45 -84h-20q-229 141 -184 348
q71 202 284 274l56 33q-97 -10 -164 -51q-125 -6 -207 -97q-41 -8 -70 -24l-8 -12q-25 -27 -39 -48v-12l-20 -92q-29 6 -17 55q-96 -71 -18 -180q43 -88 -53 12q-2 -114 96 -163q96 -62 -21 -23q82 -141 217 -100l25 -9v-12q-12 -24 -16 -45q96 -47 190 -31q12 -12 12 -28

<glyph glyph-name=".notdef" horiz-adv-x="2118" 
d="M909 1485q-59 -244 101 -383h12l6 -4q33 -25 57 -33h29q94 94 102 215l-12 4q-22 19 -43 25q-14 -123 -100 -131q-88 71 -72 180q8 69 33 8h10q14 59 -6 107q76 141 123 -5q8 -8 12 -18h12l25 14l2 13l4 12v67l4 58l-10 4q-45 37 -96 51q-21 -27 -49 -29q-13 37 -35 54
q-15 -111 -96 -160q-64 170 63 299q-4 20 -25 16q-133 -174 -51 -364zM1485 1749l4 -12q305 -101 336 -353q-23 -215 -232 -303q-47 -34 -92 -41l16 -18q21 0 31 2q60 18 105 12q-4 -18 -21 -30q-145 -88 -295 -88q8 36 35 51l-2 20h27q47 -22 88 -12q51 55 -39 72
q22 -25 14 -52q-29 4 -51 21q-43 78 -219 59q-25 15 -45 13q84 -72 -35 -58v-14q10 -8 18 -17q-16 -14 -30 -20q-138 2 -80 41v14q-119 -12 -37 54l-12 8l-4 -8q-60 -15 -107 -5h-45q-25 -20 -51 -20q-19 -14 -33 -16l-12 -27q51 16 71 -16l-16 12q-23 -6 -43 -4l-8 4
q-33 -17 -55 -17q-9 27 16 52q-37 -11 -57 -31v-25q47 -45 116 -4h17q2 -47 88 -32l35 4q2 -64 -119 -9l-8 -18q57 -39 -9 -33l-32 8q-52 2 -84 17q-29 8 -47 14l-9 4l-28 8l-29 17q-37 14 -59 33l-9 26l17 4h20l29 -8q53 -16 94 -14v14q-51 8 -76 45q47 2 80 12
q29 27 54 39q38 107 139 133q10 21 20 31v12l8 46q-43 98 -16 188q-61 29 -96 72q-82 -37 -156 -9l-51 -4l-49 -53q-23 -149 96 -211l12 -24v-27q-30 -23 -45 -49q92 -19 101 -92l-4 -9l-17 -18q-108 -8 -155 84l-27 14l6 -8l12 -26q33 -41 45 -84h-20q-229 141 -184 348
q71 202 284 274l56 33q-97 -10 -164 -51q-125 -6 -207 -97q-41 -8 -70 -24l-8 -12q-25 -27 -39 -48v-12l-20 -92q-29 6 -17 55q-96 -71 -18 -180q43 -88 -53 12q-2 -114 96 -163q96 -62 -21 -23q82 -141 217 -100l25 -9v-12q-12 -24 -16 -45q96 -47 190 -31q12 -12 12 -28
q45 -2 72 -13v-16l-68 -2q-30 4 -55 0l-24 14h-21l-6 4h-12q-62 13 -101 13l4 -13l13 -12l14 -6l25 -16l4 -9q8 -4 8 -8q37 -18 55 -37h74q63 -8 98 13h21q12 -17 4 -31h-17h-16h-14l-33 -4l-80 -12q84 -66 184 -25q58 14 109 -4q-23 -37 -96 -29q-6 -4 -13 -4
q-61 2 -100 -6l8 -12l13 -8q53 -23 84 -46q100 64 188 13q-19 -45 4 -80l-8 -4l-25 -8q-6 -5 -12 -5l-4 -8l-8 -4l-13 -4l-59 -39v-12l8 -12q37 -39 55 -68l-8 -8q-45 -35 -67 -72q-45 23 -72 47l-25 4l-4 -8l-22 -39l-12 -28l-5 -13l-4 -8q-20 -53 -24 -90h12l8 -4h17
q39 -12 67 -12v-13l-4 -28q-6 -39 0 -68l-12 -4q-21 0 -33 -4q-37 2 -63 -8v-29l4 -6l12 -63q4 -6 4 -12q4 -7 4 -13l8 -8l9 -31q14 -14 16 -28h14l8 8l13 4q39 25 67 35q9 -23 25 -39l45 -57q-49 -39 -70 -84l9 -2l4 -9q26 -16 41 -28q61 -45 118 -60l13 27q10 45 32 72
q48 -19 93 -19v-12q0 -21 -5 -33q-2 -37 0 -63q115 -9 203 28l-10 39l-4 8q-16 29 -21 52l17 4q18 12 35 16q26 21 53 29l4 -8q4 -5 2 -9q33 -26 45 -59l16 -4q91 65 127 151h-12l-6 9q-45 24 -74 43q37 49 45 104h21l10 -4q25 -6 41 -8q20 -8 37 -8l10 28v10l4 70v12v47
q-6 16 -4 29l-10 4l-100 -17q-9 60 -33 105h12l8 6l17 4l4 8q32 11 55 25q-43 98 -117 156l-4 8q-49 -43 -72 -80q-6 4 -8 8q-49 35 -84 51q13 62 62 74v10q-8 49 0 84l-8 37q104 37 194 -25q41 39 78 58q-21 18 -45 18h-12h-39l-13 4q-20 0 -32 4q-37 2 -64 9l-4 16l12 4
q29 -2 52 4l16 -4l12 -4h21l12 -4h18q56 -12 88 -12l5 8l49 45l-4 6q-31 8 -54 8q-79 19 -139 8q-8 11 -8 21q29 6 47 12q25 -6 41 -4h16h17h14h70h30h29q47 27 68 64l-68 -5h-12l-8 -4h-13h-12h-10q-17 -6 -33 -4h-12h-51l-29 4q10 23 76 25q-4 14 -4 33q147 -35 247 55
q-28 4 -34 29h12q53 10 94 4q4 4 8 4l13 4l4 6l12 4l8 8l51 41q21 29 29 47q-37 -18 -68 -22v10l9 8l12 4l27 17q30 33 63 49q16 45 12 84q2 59 -30 -16l-9 -5q-26 -30 -57 -45l-2 25q127 129 27 248q14 -66 -21 -88q21 170 -127 205l-8 8l-21 22l-12 4l-10 9l-8 4l-8 8
q-31 10 -50 20q-22 9 -38 21h-5h5h-5l-8 4q-28 -10 -49 4l-6 2l-8 4l-8 4l-9 4l-12 4h-8l-8 5h-9l-8 4h4h-4h-8l-6 4h2h-6h4h-4l-8 4h4h-4h-17l-8 4h4h-8h4h-4l-8 4h4h-8h4h-4zM1270 1430q37 -89 118 -109q0 -21 -4 -33q-75 -18 -92 -88h29q29 35 63 21q33 -25 37 -64
l21 -20q143 -70 202 71l-12 66q43 112 21 219q-66 94 -168 96q-60 23 -113 21q-113 -64 -102 -180zM1393 1544q10 -96 -23 -176q-154 70 -4 188zM573 1518v-62q2 -53 -4 -90q-24 6 -41 18q-59 82 -18 164q41 -4 63 -30zM1585 1368q-12 -123 -131 -88v16v13v28l6 43l-4 13
l-2 125l27 26q129 -53 104 -176zM670 1513q122 -18 16 -79l-29 4q15 41 9 75h4h-4h4zM762 1329q-53 -112 -96 -84q-54 10 -33 117q26 -2 45 -8q20 20 47 22q24 -20 37 -47zM1601 1190q-43 -64 -116 -45q-60 33 16 49q57 8 96 39q39 -14 4 -43zM850 1014l-8 14q47 -2 8 -14z
M1284 1028q-8 -31 -27 -4l17 4h10zM1081 952q-30 -26 -24 13zM1325 956q-64 -41 -80 5q47 -7 80 -5zM893 930l12 8q4 -20 -12 -8zM1442 889q28 -47 -49 -21q0 15 12 21h37zM657 856v25q68 -21 0 -25zM797 821l4 21q34 -21 -4 -21zM1274 834q-13 -25 -13 4zM922 670
q-29 -45 -25 4zM1241 637q0 -39 -29 0h29zM864 616l4 17q25 -15 -4 -17zM973 578q-60 10 -4 55q12 -31 4 -55zM1165 612q6 -30 -20 -30q-21 16 -8 43zM1089 561q25 29 21 -4q22 29 18 0q17 16 25 -12q18 33 20 0l17 16q-2 -10 4 -20q-39 -11 -66 8q-49 -6 -63 33
q26 2 24 -21zM1194 565v17q33 -15 0 -17zM917 557l5 16q18 -12 -5 -16zM876 520q-61 -20 -100 -51h-39l17 20l12 5l6 8l12 4l8 6l9 4l24 8l4 8h13q22 19 47 25q6 -20 -13 -37zM960 537q-20 -134 -43 -13l27 17zM1048 461q17 24 33 -4l-12 -13h-12h-17l-123 -12q13 21 31 29
l17 4h12l63 8zM1358 393q-23 -41 -62 -45q-6 10 0 21h13q16 26 32 41l29 34q18 -30 -12 -51zM788 338l-18 -12q-21 -35 -37 -54h-29q11 23 25 33q31 51 72 80q47 -2 -13 -47zM989 344l8 12q33 -4 -8 -12zM608 326l17 22q24 -53 -17 -22zM1321 29q-60 -248 -311 -231l-17 4
q-24 6 -45 16q256 -51 352 164q64 262 -168 356l-4 10q222 -94 193 -319zM1028 344h49q-33 -6 -59 0h10zM956 330l21 12q59 -2 -21 -12zM1014 322q-219 -66 -209 -281q39 -141 160 -186q149 -43 251 55q101 113 58 244q-49 122 -164 155l-4 13q205 -78 186 -289
q-51 -174 -215 -198q-182 -11 -256 139q-86 272 180 352zM1098 305q-127 -8 -226 -72q70 72 160 84q39 -2 66 -12zM889 293q10 14 24 20q4 -16 -24 -20zM629 301q-27 -43 -35 -84q-45 -2 8 92zM833 238q21 32 43 51q5 -23 -43 -51zM1114 272l10 -12l13 -6l8 -8l12 -8l8 -13
l13 -8l8 -12q47 -31 71 -55l-4 -21q-8 -25 -8 -43l-4 -16l-4 -13l-4 -16l-4 -29l-4 -22q-7 -30 -9 -47l-8 -12l-18 -4q-37 -21 -74 -25q-14 -10 -31 -12q-47 -23 -84 -27l-12 11l-8 8l-12 12l-13 8l-47 41l-20 23q-33 20 -51 38l8 33l4 20l4 13v12l4 10v12l2 17l21 100l12 4
l12 4l8 4l25 9l6 4h12q35 16 70 18l18 -63h13q12 49 45 80zM864 217l-4 -8l-22 -72q-31 23 26 92q4 -6 0 -12zM590 209q-21 -23 -25 4zM1456 117q-47 -23 -27 20l21 -8q24 21 55 21q68 -17 -49 -33zM582 4q-78 23 67 33q82 -19 -67 -33zM1350 -2q-111 -286 -406 -215
q0 11 4 23l8 -23q11 7 13 15q254 -33 348 180h16q-10 12 -8 22zM1261 -61l5 8q14 27 18 47q8 -37 -23 -55zM1208 -81l-8 -5l-6 -4l-8 -4q-84 -47 -160 -51q-21 2 6 12h12l29 11l12 4q31 12 52 16q6 6 12 4l49 21zM1200 -133q-6 4 0 11q8 -4 0 -11zM1157 -149q14 -14 -8 -4z
M1149 -161q-72 -27 -135 -17l-17 4q78 -8 140 17zM780 -245q-22 -29 -47 -41q-37 -4 0 33l8 8l8 4q15 20 27 31q41 -9 4 -35z" />
    <glyph glyph-name=".null" horiz-adv-x="0" 
 />
    <glyph glyph-name="nonmarkingreturn" horiz-adv-x="569" 
 />
    <glyph glyph-name="space" unicode=" " horiz-adv-x="569" 
 />
    <glyph glyph-name="space" unicode="&#xa0;" horiz-adv-x="569" 
 />
    <glyph glyph-name="exclam" unicode="!" horiz-adv-x="874" 
d="M824 1598h27q28 0 28 -101v-37h46l9 -9h9q-570 -1043 -570 -1074l-9 -10h-18l-28 28q0 30 267 680l174 505zM202 157h36q36 -21 36 -57q-27 -100 -57 -100h-36q-23 0 -36 71q21 69 57 86z" />
    <glyph glyph-name="quotedbl" unicode="&#x22;" horiz-adv-x="851" 
d="M771 1900h35q36 -21 46 -57q0 -68 -28 -125q-39 -65 -130 -125l65 150q-33 0 -46 71q22 69 58 86zM1053 1900h36q36 -21 46 -57q0 -68 -29 -125q-38 -65 -129 -125l65 150q-34 0 -46 71q21 69 57 86z" />
    <glyph glyph-name="numbersign" unicode="#" horiz-adv-x="1191" 
d="M875 1498h19q19 0 19 -29l-250 -433h164q134 385 163 385h58l10 -10h9l-77 -192v-9h10q123 243 173 288h29l19 -19l-250 -452h163l58 -19q0 -71 -29 -77h-240q-16 0 -135 -241h289l19 -19q-20 -58 -38 -58h-97q0 -67 -86 -67h-135l-144 -336q-96 0 -96 -68l-29 -19
l-10 10v9l174 404h-231q-137 -252 -164 -336h-19q0 -39 -58 -87l-9 29l29 58q-29 0 -29 19l125 327h-144l-20 19l29 38h-125l-19 20q23 57 38 57h298l87 241h-308l-19 19q23 58 39 58h192l29 19h96q15 3 163 394h68l19 -19l-144 -375h19l269 452zM519 931l-38 -96v-10h9
l48 106h-19zM606 931l-125 -241h211l87 241h-173z" />
    <glyph glyph-name="dollar" unicode="$" horiz-adv-x="799" 
d="M582 1592h31v-15l-54 -154h8q39 0 92 -30q71 199 92 199l15 -15l-77 -207q31 -35 46 -130q0 -151 -130 -192h-15l-38 8l-85 -199q23 -72 23 -131v-45q0 -199 -207 -314q-38 0 -91 -161l-8 -8h-8q-15 0 -15 23l53 138h-22l-69 15v-7l-100 -169l-23 15q77 173 77 199
q-69 51 -69 161v8q32 214 145 214h31q25 0 53 -23l77 184q-23 62 -23 130v46q0 194 184 284q55 0 107 176zM506 1286q130 55 130 76l-61 16h-31q-18 0 -46 -92h8zM383 1186q43 0 100 176q-64 0 -100 -176zM643 1286l-38 -123q12 -31 23 -31h23q26 0 46 108q0 46 -46 46h-8z
M398 1071l23 -76h16q76 137 76 191q43 22 77 92h-8q-138 -56 -138 -115zM513 1094l-76 -145l7 -31h8l69 168v8h-8zM268 742v-16l15 -15l69 138l-15 46q-18 0 -69 -153zM360 811l-168 -330h22q77 0 100 115l69 161l-15 54h-8zM46 581v-38l69 -46q17 0 61 138q-38 58 -38 84
h-31q-61 -39 -61 -138zM391 696l-62 -169q69 45 69 154v15h-7zM207 619l-46 -115v-7h8l61 122h-23zM276 412h7q85 54 85 100q-86 -61 -92 -100zM146 420v-8l68 -15h8q18 0 23 38h-8q-29 -15 -91 -15z" />
    <glyph glyph-name="percent" unicode="%" horiz-adv-x="1239" 
d="M1196 1594l8 -8v-31q-619 -616 -854 -971q-186 -254 -202 -381h-16l-8 31l24 101l-101 -109h-31q-16 0 -16 24q0 17 536 668l326 404h-8q-68 -47 -147 -47h-31q-46 0 -93 31q0 -179 -241 -388l-101 -23q-117 0 -117 147q0 145 156 365q17 86 46 86l101 47q28 0 70 -39
h163l358 -8l163 101h15zM583 1369q24 -47 85 -47h62q73 0 249 140v8h-8q-388 -5 -388 -39v-62zM233 1042v-31q0 -42 31 -54h54q202 163 202 388v16q0 60 -38 78h-24q-105 0 -217 -327zM987 933q100 0 100 -155q0 -243 -248 -435l-101 -31q-123 0 -155 210q0 243 233 388z
M955 879v-8q24 -44 24 -93q0 -210 -187 -396l-31 -16v-8h16q118 0 241 257l23 140v31q0 93 -70 93h-16zM684 483v-16l15 -70h16q125 0 217 342v70q0 42 -31 62q-217 -138 -217 -388z" />
    <glyph glyph-name="ampersand" unicode="&#x26;" horiz-adv-x="1697" 
d="M1102 1592q183 -28 172 -240q-9 -184 -257 -350q37 -4 35 -28v-9l-29 -37l-111 10h-18q-46 -3 -47 -19l53 -239h267q357 508 525 553h19q82 0 77 -111l-1 -28q-3 -50 -60 -83h-28q-39 0 -106 83h-28q-154 -127 -333 -405l-1 -9h37q184 0 176 -166l-1 -28
q-4 -68 -129 -184h-9v9q99 138 102 203l4 64q-22 46 -72 46h-157l-155 -350l15 -249l-3 -64q-26 -505 -462 -756q-109 -37 -168 -37h-83q-242 0 -326 295l5 102q10 205 227 304h37l18 -18q-227 -103 -234 -259l-3 -55q-10 -185 190 -249h111q291 0 556 443q83 183 91 331
l2 37l-5 92h-9q-173 -451 -327 -451q-105 0 -125 267h-28q-229 0 -269 322l3 56q5 108 66 230h-18l-67 -55h-9q-45 27 -43 64q20 42 39 46h129q338 319 459 332l-9 9l5 102l-20 156q11 205 274 314zM855 1260l-1 -18q-5 -101 100 -203q273 111 286 369q-18 0 -20 -28l-9 -9
h-10q-25 0 -32 92q-43 64 -89 64h-46q-172 -130 -179 -267zM827 1076l-1 -28l8 -27h9l1 27l-8 28h-9zM512 680h341l-53 221q-115 -34 -288 -221zM454 615q-81 -150 -87 -267l-2 -46q-12 -222 154 -222l2 28q9 176 61 313h19q-37 -182 -44 -331h37q157 0 363 258l-79 267
h-424zM924 615l-1 -9l55 -203h9q95 114 121 212h-184zM963 292q-209 -276 -401 -276q-9 -174 80 -239h28q123 0 311 506l-9 9h-9z" />
    <glyph glyph-name="quotesingle" unicode="'" 
d="M215 1900h35q36 -21 46 -57q0 -68 -28 -125q-39 -65 -130 -125l65 150q-33 0 -46 71q22 69 58 86z" />
    <glyph glyph-name="parenleft" unicode="(" horiz-adv-x="556" 
d="M913 1598l13 -13l-67 -61l7 -20q-118 -44 -188 -127q-309 -311 -443 -618q-47 -150 -47 -302v-67q0 -174 47 -221q-14 -50 -47 -67h-20q-47 0 -47 328h-7q-33 -162 -33 -288q0 -150 87 -342l-7 -7h-7q-154 184 -154 476q0 429 376 900q0 43 214 234q278 182 323 195z" />
    <glyph glyph-name="parenright" unicode=")" horiz-adv-x="899" 
d="M845 1585l6 7h14q146 -194 146 -432v-87q0 -332 -293 -745q-88 -184 -292 -358q-70 -73 -286 -153l-13 -14h-27v14l306 259q406 464 406 745v146q0 171 -47 213q13 49 47 66h19q47 -15 47 -352h7q46 187 46 306v73q0 142 -86 312zM519 116q-173 -173 -206 -179v-7h13
q116 77 200 186h-7z" />
    <glyph glyph-name="asterisk" unicode="*" horiz-adv-x="804" 
d="M650 1786l13 -25q-75 -183 -75 -213q187 100 206 100l6 -6v-6l-62 -50l12 -38q0 -49 -150 -62v-7q106 -114 106 -150v-18q-12 -29 -25 -32h-18q-24 13 -125 157q0 -232 -44 -232l-31 -6l-13 13q0 50 56 237h-6q-121 -62 -175 -125h-6l-19 19v25l13 19l-7 31q0 37 163 62
l19 19q-117 88 -138 125v13q0 33 25 44h19l125 -113q7 188 37 188h25q13 0 13 -19h6q0 37 50 50z" />
    <glyph glyph-name="plus" unicode="+" horiz-adv-x="757" 
d="M652 444h4v-47q0 -44 -201 -47l-62 -170h-99l61 170q-33 0 -151 15h-4v73q0 -2 104 -4h81l41 154h101l-42 -154q29 -3 106 8q29 0 29 -21z" />
    <glyph glyph-name="comma" unicode="," 
d="M203 157h35q36 -21 36 -57q16 -48 -8 -95q-29 -95 -140 -155l65 150q-33 0 -46 71q22 69 58 86z" />
    <glyph glyph-name="hyphen" unicode="-" horiz-adv-x="757" 
d="M652 444h4v-47q0 -44 -278 -47h-13q-23 0 -161 15h-4v73q0 -2 104 -4h70q11 0 217 8q29 0 29 -21z" />
    <glyph glyph-name="hyphen" unicode="&#xad;" horiz-adv-x="757" 
d="M652 444h4v-47q0 -44 -278 -47h-13q-23 0 -161 15h-4v73q0 -2 104 -4h70q11 0 217 8q29 0 29 -21z" />
    <glyph glyph-name="period" unicode="." horiz-adv-x="425" 
d="M209 157h36q36 -21 36 -57q-27 -100 -57 -100h-36q-23 0 -36 71q21 69 57 86z" />
    <glyph glyph-name="slash" unicode="/" horiz-adv-x="1108" 
d="M1652 1798l-32 -108l-165 -208q-1109 -1371 -1200 -1526l-75 -153l-180 -43l3 9q13 46 504 656q722 929 1053 1322z" />
    <glyph glyph-name="zero" unicode="0" horiz-adv-x="752" 
d="M580 1000q148 0 173 -204v-43q0 -330 -296 -636q-149 -117 -253 -117h-37q-142 0 -167 222v25q0 298 296 623q198 130 284 130zM86 272v-25q0 -169 124 -204h55l44 6v7q-96 0 -124 160v80q0 322 303 605l49 31v6h-19q-129 0 -308 -259q-124 -214 -124 -407zM265 204v-19
q7 -92 37 -92h25q135 0 321 543q25 102 25 179v37q-6 74 -62 74q-143 0 -321 -537z" />
    <glyph glyph-name="one" unicode="1" horiz-adv-x="680" 
d="M620 997h6l11 -12q0 -29 -46 -133h6q130 81 145 81q8 0 17 -23q0 -12 -87 -87q0 -35 -87 -145q-204 -310 -226 -400q-46 -116 -69 -116l-12 -52q0 -37 191 -52h41l17 -17q-2 -12 -29 -24q-481 -5 -481 -17l-17 17q0 53 75 53q52 11 139 11l35 81h-6l-34 -5l-6 5h-6
l290 580h-6q-70 -17 -151 -122l-127 -116h-6l-12 12l163 168h-12l-46 -17l-6 5v12q7 14 127 70zM533 852q0 -12 -41 -52v-6q31 7 47 52v6h-6zM556 771l-23 -58v-6h6l23 58v6h-6z" />
    <glyph glyph-name="two" unicode="2" horiz-adv-x="685" 
d="M420 997q59 0 138 -69q119 -40 119 -132l6 -37v-13q0 -174 -213 -326q-50 -80 -144 -182q44 -31 62 -156h32q68 50 156 194h7l6 -6v-13q0 -38 -132 -194l13 -13v-12q0 -19 -25 -19l-75 -6l-119 6l-245 -19l-6 6v25q0 46 75 69q44 133 389 414q62 78 62 188v32h-6
q-66 -207 -182 -207h-25q-75 0 -75 119q0 163 188 263v13h-75q-38 0 -125 -69h-13q0 98 194 144h13zM269 640q0 -30 32 -63h31q85 0 176 251q-31 64 -51 69q-188 -87 -188 -257zM576 859v-6q13 -17 13 -101h6v63l-12 44h-7zM169 194h6q0 24 126 63l94 119
q-123 -53 -226 -182zM163 113v-6q0 -19 106 -32v7q0 94 -18 94z" />
    <glyph glyph-name="three" unicode="3" horiz-adv-x="677" 
d="M561 1000q98 0 110 -117q0 -183 -179 -309l-109 -55v-7q137 0 137 -178q14 0 14 -48v-69q0 -150 -234 -329q-234 -138 -405 -138h-41q-117 0 -117 69v14q0 53 49 62q20 -24 27 -83q29 -27 69 -27h27q242 0 480 274l14 34h-7q-109 -102 -199 -102h-48q-129 0 -151 185
q0 74 55 110h41q34 -18 34 -55v-28q0 -34 -75 -89q0 -55 75 -69h49q115 0 240 289q-53 96 -110 96l-21 14l-41 -14q-14 0 -14 21h-75l-14 13v7q0 31 151 55q275 156 275 323q0 54 -41 75h-55q-146 0 -199 -109l-14 -62v-14q0 -37 27 -48h28q92 0 165 199h7l6 -7v-27
q0 -167 -164 -220h-28q-60 0 -75 96l34 124l-14 14q0 87 241 130h75z" />
    <glyph glyph-name="four" unicode="4" horiz-adv-x="1037" 
d="M1006 996h20l14 -14v-7q-357 -523 -411 -718h69l48 34l13 -14v-34q-90 -82 -150 -82h-21q-52 -177 -75 -177l-68 -7h-7q-62 -150 -75 -240l-7 -7h-7q-14 0 -14 21q13 180 137 417l-116 14h-41l-96 -35l-7 7v7l21 55q-199 0 -199 -62l-20 -13l-14 13v28q0 39 82 89
q74 107 411 458q80 199 95 212l130 14l7 -7l-7 -7v-13q35 0 35 -14v-21q-122 -95 -158 -178q-87 -162 -267 -438h14l178 -13l417 711zM123 271l69 6h82l157 322q-292 -283 -308 -328z" />
    <glyph glyph-name="five" unicode="5" horiz-adv-x="693" 
d="M382 1010l68 -49h228l12 -13v-6q-98 -141 -203 -141h-50l-80 12l-98 -197q17 0 31 -19l43 7h24q116 0 136 -179v-25l-6 -24l6 -25v-18q0 -203 -222 -321l-74 -12h-37q-129 0 -160 92v7q4 36 18 36l-6 62q0 90 56 123h37q37 -17 37 -74q0 -50 -68 -74l-6 -24
q12 -62 61 -62h37q106 0 216 253l18 80q-105 99 -154 111l-86 -93l-18 13l43 110q-13 3 -25 31q0 53 191 419h31zM333 918q-108 -177 -124 -265l13 -13q47 69 148 278h-37zM487 918v-7h111v7h-111zM351 560v-6l31 -18h6q-3 12 -31 24h-6zM419 209q-93 -129 -136 -129v-6h7
q56 0 129 111l6 18v6h-6z" />
    <glyph glyph-name="six" unicode="6" horiz-adv-x="696" 
d="M781 1226h7l13 -13q-241 -83 -357 -243h7l81 20h40q99 0 128 -134q0 -84 -74 -102h-20l-34 34v34l41 94q-10 34 -48 34h-33q-118 0 -310 -324v-6h7q122 54 209 54h60q135 -33 135 -176l6 -20q0 -270 -296 -451q-69 -27 -107 -27q-182 0 -182 47q-54 61 -54 169v53
q0 374 491 822q177 135 290 135zM404 613q54 -61 54 -141v-54q0 -216 -209 -371v-7h14q282 119 282 364v61q0 148 -121 148h-20zM81 168q25 -121 81 -121q77 13 188 270q27 106 27 175v27q-10 74 -34 74h-27q-124 0 -228 -384zM182 539l47 47h-14q-23 0 -33 -47z" />
    <glyph glyph-name="seven" unicode="7" horiz-adv-x="891" 
d="M854 1039h14q20 0 27 -61q0 -22 -231 -311q-208 -376 -325 -657l-7 -7h-122l-7 7h-6q34 90 95 196v7h-7q-231 -317 -231 -467l-7 -7h-27q-15 0 -20 34q15 162 651 1009l-34 -7h-34q-18 0 -169 88h-14q-27 -18 -102 -183l-6 -7h-28l-13 14v13l115 231h-34l-122 -41
q-13 0 -13 20q56 82 162 82h41l20 13h7l14 -13l284 6h34q43 0 95 41zM420 937l-6 -20h6l28 14v6h-28zM570 931q64 -61 101 -61h14q36 0 47 27v7q0 27 -135 27h-27z" />
    <glyph glyph-name="eight" unicode="8" horiz-adv-x="612" 
d="M558 999q33 0 68 -43v-31l-12 -13h-7q-50 50 -80 50h-19q-62 -8 -62 -25q118 -21 118 -118h6q37 25 137 130l12 -12q-1 -22 -149 -155q0 -118 -118 -199q69 -196 69 -267q0 -164 -254 -304l-62 -12h-50q-132 0 -155 199q0 170 229 359q-31 64 -31 137q0 183 261 279
q43 25 99 25zM384 800l19 -105h6q104 70 105 81q0 130 -74 130h-19q-37 -34 -37 -106zM316 838l-18 -75v-25l18 -105l37 25q-31 61 -31 180h-6zM415 664l19 -50q49 35 68 112zM335 596l18 -38l31 19l-18 43zM372 527q62 -121 62 -204q0 -199 -223 -292h-75v-6l62 -6
q127 0 236 180q25 50 25 117q0 100 -56 230zM192 472l62 31l-6 18q-15 0 -56 -49zM260 478q-198 -120 -198 -292q20 -124 93 -124h43q73 0 131 130l6 56v13q0 113 -75 217z" />
    <glyph glyph-name="nine" unicode="9" horiz-adv-x="854" 
d="M657 994h41q60 0 123 -137q16 -3 27 -95q0 -99 -137 -424q-212 -342 -417 -342h-34q-69 8 -69 27q-95 -41 -157 -41h-20l-14 14l157 48q-41 57 -41 123q0 59 55 95h34q41 -21 41 -75v-7l-41 -109v-7q255 122 431 397h-7q-94 -82 -130 -82h-20q-43 0 -76 34h-54
q-164 15 -164 137v20q0 240 369 383q57 41 103 41zM650 960v-7l61 -7l-13 14h-48zM438 509v-21l7 -34h27q122 0 143 55q117 197 117 355v14q-31 41 -89 41h-48q-157 -181 -157 -410zM274 584q22 -130 102 -130q-20 73 -20 123q0 142 102 287v7h-7q-177 -112 -177 -287z
M233 44v-7h54q101 0 240 191v7q-203 -168 -294 -191z" />
    <glyph glyph-name="colon" unicode=":" horiz-adv-x="419" 
d="M204 157h36q36 -21 36 -57q-27 -100 -57 -100h-36q-23 0 -36 71q21 69 57 86zM354 500h36q35 -22 35 -58q-26 -100 -57 -100h-36q-23 0 -36 72q22 69 58 86z" />
    <glyph glyph-name="semicolon" unicode=";" horiz-adv-x="453" 
d="M259 157h35q36 -21 36 -57q16 -48 -8 -95q-29 -95 -140 -155l65 150q-33 0 -46 71q22 69 58 86zM408 500h36q36 -22 36 -58q-27 -100 -58 -100h-35q-24 0 -36 72q21 69 57 86z" />
    <glyph glyph-name="semicolon" unicode="&#x37e;" horiz-adv-x="453" 
d="M259 157h35q36 -21 36 -57q16 -48 -8 -95q-29 -95 -140 -155l65 150q-33 0 -46 71q22 69 58 86zM408 500h36q36 -22 36 -58q-27 -100 -58 -100h-35q-24 0 -36 72q21 69 57 86z" />
    <glyph glyph-name="less" unicode="&#x3c;" horiz-adv-x="1196" 
 />
    <glyph glyph-name="equal" unicode="=" horiz-adv-x="768" 
d="M551 274h4v-47q0 -44 -278 -47h-13q-23 0 -161 15h-4v73q0 -2 104 -4h70q11 0 217 8q29 0 29 -21zM681 479h4v-47q0 -44 -278 -48h-13q-23 0 -161 16h-4v72q0 -1 104 -4h70q11 0 217 9q29 0 29 -21z" />
    <glyph glyph-name="greater" unicode="&#x3e;" horiz-adv-x="1196" 
 />
    <glyph glyph-name="question" unicode="?" horiz-adv-x="1049" 
d="M786 1592h74q202 -51 202 -287v-42q0 -130 -127 -329q0 -142 -478 -414l-117 -191q-39 0 -74 127v11q0 17 138 85q109 176 361 467l95 159q0 175 -191 297q-80 -33 -116 -148q95 -71 95 -128v-21q0 -95 -85 -95h-32q-63 38 -63 127v42q0 97 95 213v10q-74 -40 -74 -85
h-32q55 181 223 181zM786 1528q121 -131 127 -212h11l11 117q-22 95 -96 95h-53zM542 626h11q134 64 233 202q-152 -92 -244 -202zM219 157h36q36 -21 36 -57q-27 -100 -57 -100h-36q-23 0 -36 71q21 69 57 86z" />
    <glyph glyph-name="at" unicode="@" horiz-adv-x="1199" 
d="M615 1502h75q247 0 412 -220q93 -140 93 -308v-64q0 -262 -215 -487q-212 -139 -284 -139h-35q-82 0 -122 93h-58q-114 0 -156 203h-6l-35 -17q-40 10 -40 52q0 84 116 243q64 176 203 250l64 17h40q18 0 87 -41l23 -5l64 34h64l12 -11q-128 -550 -128 -609q6 -81 75 -81
q49 5 186 168q93 165 93 313v64q0 272 -209 429q-101 64 -220 64h-58q-363 0 -552 -499q-29 -122 -29 -214v-87q0 -387 383 -551q68 -24 140 -24h75q178 0 371 169h18l5 -29q-99 -88 -150 -105v-6h5l122 58q-180 -162 -383 -162h-63q-338 0 -534 383q-64 157 -64 336
q0 496 412 731q119 52 203 52zM539 1026h6q63 51 99 58v6h-23q-42 0 -82 -64zM406 667q286 264 302 348q-15 29 -47 29h-23q-74 0 -162 -128q-70 -187 -70 -249zM789 986v-12q14 0 17 47q-17 -6 -17 -35zM557 429h6q82 32 168 255q35 128 35 215v52q-186 -291 -209 -522z
M400 603q10 -185 93 -185h35q0 183 174 521q-146 -166 -302 -301v-35zM708 551q-51 -126 -151 -168q0 -55 93 -70q85 0 180 58v6q-116 21 -116 162v12h-6zM1125 244v-6l-11 -12v6zM1108 220v-5l-12 -12h-5z" />
    <glyph glyph-name="A" unicode="A" horiz-adv-x="2101" 
d="M1965 1601q50 0 89 -69q-219 -835 -219 -934q102 -28 151 -28q34 12 34 35q-3 44 -69 123v7l14 14q79 -70 96 -151v-21q-37 -41 -82 -41l-151 27v-6q-35 -245 -35 -378q0 -95 42 -124v-14q-7 -20 -42 -20q-34 78 -34 240l14 309l7 7l-399 110q-199 -279 -550 -543
q-215 -144 -357 -144h-27q-162 0 -193 240v55q0 303 213 488q101 62 206 62h117q213 0 591 -103q325 448 557 859h27zM2123 1525l7 -6v-7q-11 0 -27 -42h-7v28zM1422 735v-7l364 -110v7q0 137 172 852v7l-7 7h-13l-255 -398zM1044 1120h62q156 0 296 -261v-7l-7 -7h-21
q-103 206 -227 206h-55q-94 0 -192 -158h-55l-20 14q77 213 219 213zM1807 1113h14q-50 -306 -131 -419q-89 25 -89 41zM419 928h62q106 -10 117 -35v-7l-179 -55q-187 0 -343 -261q-28 -97 -28 -171q0 -194 192 -303l7 -27h-7q-80 0 -199 178q-41 91 -41 172v69
q0 255 282 412q79 28 137 28zM295 302q0 -222 158 -254h35q324 0 852 646v7q-331 89 -536 89h-124q-270 0 -350 -268q-35 -142 -35 -220zM694 742h48q21 0 28 -96v-34q0 -245 -241 -330q-27 -14 -76 -14h-89l-14 14v7l14 13h76q208 0 281 220l7 69v21q0 55 -34 130zM831 742
q48 0 48 -48q0 -126 124 -289v-6l-14 -14q-142 150 -164 309l-7 41l7 7h6zM1436 618l28 -20v-14l-7 -165v-7h7q51 172 82 172q96 -16 96 -34q-124 -325 -124 -351h14q71 0 172 96h7v-34q-91 -103 -213 -103q-22 -117 -83 -117l-89 -14q0 29 41 138q-197 43 -275 124l21 20
q123 -96 268 -96q48 155 48 275v117l7 7v6z" />
    <glyph glyph-name="B" unicode="B" horiz-adv-x="1504" 
d="M484 1599h63q104 0 189 -77q144 28 218 28h63q127 0 294 -70q74 49 99 49l14 -14l-70 -56q147 -122 147 -309q0 -222 -260 -329v-7q211 -77 211 -316q0 -293 -295 -463q-65 -28 -119 -28h-49q-143 0 -168 203v49q0 160 161 302h14v-21q-147 -140 -147 -295v-28
q19 -161 112 -161h63q166 0 280 330q21 89 21 168q-28 231 -126 231h-21l-98 -28h-28l-21 21v50q0 13 42 28l112 -7q95 0 183 252l14 126q0 115 -78 183q-164 -153 -434 -821q-331 -589 -625 -589h-63q-147 0 -182 189v7q14 106 77 106h14q54 0 63 -71v-35l-14 -77v-7
q14 -70 70 -70h56q252 0 583 835q94 229 371 526q49 29 49 42v7q-134 63 -252 63h-77q-102 0 -169 -28q71 -107 71 -253v-7q0 -392 -344 -652q-92 -35 -140 -35h-42q-183 32 -183 224v7q0 450 561 744q-72 49 -147 49h-49q-301 0 -484 -498h-7l-7 7v14q86 306 266 428
q114 84 218 84zM736 1599h85v-14l-64 -7l-21 7v14zM161 792q21 -189 127 -189h56q151 0 350 351q70 169 70 294v77q0 91 -49 148q-347 -126 -519 -484q-35 -112 -35 -197zM1494 1389q126 -103 126 -218q0 -151 -154 -266v7q91 125 91 252q-6 107 -63 211v14zM189 1304h7
l42 -91l-21 -14l-56 56v14zM996 722q42 -4 42 -21v-7l-63 -14v21zM954 624l7 -7v-7l-21 -14h-7v7zM1052 582q189 -104 189 -203q0 -130 -203 -253q-36 -21 -70 -21q-42 17 -42 28q238 77 238 148q14 0 14 49v42q0 72 -133 140v7l7 42l-7 7v7zM757 126h14q21 -7 21 -42h-35
l-21 21zM547 77h7q-14 -70 -35 -70h-7q0 54 35 70z" />
    <glyph glyph-name="C" unicode="C" horiz-adv-x="1003" 
d="M373 1602h64q202 0 387 -232q263 168 395 169h49q93 0 106 -148q0 -259 -521 -536q-242 -112 -402 -112v-7q-78 -230 -78 -409v-56q20 -219 141 -219h14l-7 92q17 452 275 556l35 7h36q134 0 134 -204q0 -243 -303 -451q-100 -42 -134 -42l28 -176h-7q-34 0 -49 169
q-195 0 -275 204l-21 141v64q0 138 70 338q-128 0 -261 204q-49 99 -49 232q0 286 303 409zM49 1193q0 -235 275 -324l42 -7q95 206 430 493q-177 212 -345 212h-78q-228 0 -324 -282v-92zM860 1313q84 -162 84 -190v-7l-14 -14l-106 197q-296 -308 -331 -451q433 0 761 338
q92 116 92 219q-13 98 -78 98h-42q-141 0 -366 -183v-7zM1268 1447l21 -21v-42q-21 -3 -98 -191l-28 -21v14l105 254v7zM1289 1102v-14q-61 -147 -162 -233h-28l-14 14v50l28 28h14v-49h14q85 143 148 204zM564 81v-29h7q163 0 331 240q70 113 70 225q-12 134 -84 134h-35
q-84 0 -191 -190q-98 -201 -98 -380zM1346 475h7v-7q-21 -103 -275 -324q-259 -190 -451 -190v21q29 0 204 84q273 102 515 416z" />
    <glyph glyph-name="D" unicode="D" horiz-adv-x="1396" 
d="M872 1598h28q157 0 270 -118h-7q-168 63 -353 63l-62 -7q0 16 -35 20v7q4 28 159 35zM526 1543h42q90 0 200 -76l118 13h35q204 0 373 -159q122 125 187 132l14 -14q-122 -91 -166 -159q111 -189 111 -381v-41q0 -395 -305 -685q-198 -166 -443 -166h-34l-450 -7
q-104 17 -104 76v7q18 35 55 35h49l256 -49q196 0 450 657q147 309 353 575q-146 131 -298 131h-76l-83 -7v-14q76 -128 76 -290q0 -309 -235 -547q-104 -90 -201 -90h-28q-188 0 -228 256v42q0 393 436 636q90 28 90 42q-90 48 -132 48h-76q-254 0 -436 -429l-62 -290h-7
l-7 7v27q0 285 221 567q149 153 305 153zM540 1460h34v-7q0 -12 -76 -49v7q29 49 42 49zM291 726v-41q14 -159 117 -159h49q235 0 374 415q20 72 27 200q0 129 -83 270q-237 -87 -374 -332q-110 -188 -110 -353zM1073 1314l14 -13q-118 -367 -222 -568h-14q152 512 208 581
h14zM540 55v-7h173q418 0 637 492q62 152 62 325q0 207 -97 380h-7q-117 -157 -318 -650q-140 -282 -332 -464q-98 -76 -118 -76zM422 1017h14q0 -124 118 -408l-7 -7h-21q-118 250 -118 380zM1170 131v-7q-182 -193 -284 -193h-42q-37 0 -55 28q225 42 381 172zM741 124
l7 -6v-7l-14 -14h-28v7q0 15 35 20zM685 -48h7v-42h-21v28z" />
    <glyph glyph-name="E" unicode="E" horiz-adv-x="980" 
d="M848 1632q14 0 21 -43l-64 -21v7q0 29 43 57zM420 1589q118 0 278 -128q162 86 250 86h50q85 -17 85 -86v-35q0 -172 -413 -413l-107 -36q10 -71 64 -71h78q39 0 50 -28v-22l-21 -21h-21l-114 14h-15q-114 0 -292 -242q-78 -164 -78 -306v-21q26 -235 149 -235v14
q0 514 285 626h65q99 0 121 -177q0 -306 -314 -477q-78 -29 -114 -29l29 -191l-7 -8h-8q-21 33 -49 199q-192 0 -257 157q-28 91 -28 156q0 397 463 563v7l-57 71l-50 -7h-100q-292 44 -292 277v43q0 239 271 320h99zM100 1290q0 -181 235 -263h121l-7 50v28q0 157 214 335
q-133 114 -243 114h-64q-180 0 -249 -200zM762 1561v-14l-71 -22l-14 22zM748 1390q71 -82 71 -121l-7 -7h-7l-85 107q-164 -148 -164 -328h7q160 10 399 221q91 98 93 171v21q0 57 -57 57h-36q-81 0 -214 -121zM470 1497l79 -36v-7l-150 -64q-123 -60 -221 -171
q-21 7 -21 43v7q0 86 285 228h28zM705 1276v-14q-51 -120 -85 -150v8q7 67 85 156zM29 1063h7l35 -43q-35 -143 -35 -242q0 -110 35 -256l-7 -36h-14q-50 168 -50 328v35q0 121 29 214zM827 892q206 0 206 -29v-14q-4 -21 -50 -21l-178 -7l-7 7l14 50l-7 7zM470 721v-7
l-121 -335l-14 -71h-14q45 413 149 413zM406 88v-50q243 0 378 349q14 32 14 92v57q0 67 -57 100h-50q-81 0 -199 -200q-86 -183 -86 -348zM969 258q14 0 14 -21q-223 -263 -434 -263h-7v15q34 0 206 127q78 21 221 142z" />
    <glyph glyph-name="F" unicode="F" horiz-adv-x="1501" 
d="M796 1599q149 0 329 -63v-7l-126 -28l-210 21q-254 0 -321 -161q-70 -128 -70 -293v-77l-14 -14h-14l-14 14v98q0 321 231 468q98 42 209 42zM2047 1522l7 -7v-21q0 -48 -196 -119h-90l-489 42h-84q-323 0 -468 -237q-28 -50 -28 -126q28 -154 153 -154h56q219 0 433 364
h7l7 -7v-7q-74 -250 -244 -378q-80 -56 -161 -56h-49q-230 31 -230 231v14q0 255 370 391q149 49 356 49h364zM2068 1424l14 -70q0 -140 -182 -153h-42q-70 0 -195 42v7l42 49q105 -35 195 -35h49q105 0 105 90l-7 56zM1397 1361l140 -14v-14l-28 -27l-112 41v14zM1649 1333
l7 -6v-7q-184 -226 -308 -580h7q103 15 308 139h7l7 -7v-7q-118 -173 -210 -412q-75 -56 -112 -56l-7 7v21q28 112 189 329v7h-7q-89 -42 -203 -63q-320 -692 -824 -692h-77q-280 0 -391 244q-35 79 -35 182q0 362 342 489l77 7h63q215 0 294 -237l6 -56v-42
q0 -210 -244 -329l-84 -14h-56q-112 0 -181 77l14 14h7q83 -56 160 -56h56q202 0 287 252v70q-28 230 -224 230h-63q-246 0 -391 -293q-21 -73 -21 -140q0 -259 279 -356l84 -7h84q423 0 685 622h-7q-89 -26 -280 -231l-7 7h-7q71 158 329 280q100 255 370 573q46 41 77 41z
M391 782h21l70 -182q48 -95 140 -182l-14 -14h-14q-184 196 -203 364v14zM1670 740h42l14 -14q0 -14 -77 -28l-7 7q13 32 28 35zM845 397q0 -14 28 -14v-7q0 -19 -125 -42l-7 7v7q0 30 104 49zM1216 369q-35 -175 -35 -279l21 -35q-11 -77 -35 -77h-7q-21 7 -21 42v14
q0 258 63 335h14z" />
    <glyph glyph-name="G" unicode="G" horiz-adv-x="1121" 
d="M614 1598h66q164 0 301 -193q218 139 343 139h30q96 -12 96 -96v-25q0 -217 -451 -463q-187 -77 -277 -84l-6 -90v-12q0 -121 66 -121h42q94 0 355 325l48 42h6l12 -12q-70 -139 -216 -565q-171 -349 -427 -451q-99 -42 -175 -42h-78q-241 0 -337 264l-12 84v24
q0 263 259 391q56 24 102 24h60q181 0 259 -216l6 -60q0 -203 -211 -295q-23 -12 -66 -12h-54q-88 0 -144 54l12 12q93 -36 138 -36h48q170 0 235 222v61q-27 186 -187 186h-54q-194 0 -337 -247l-18 -108v-42q0 -181 223 -264l54 -6h72q345 0 686 830q-173 -199 -301 -199
h-30q-127 0 -150 223l6 36q-165 0 -277 174q-42 90 -42 175q0 267 271 367zM325 1267q0 -207 229 -283q23 -12 66 -12l96 175q65 98 241 246q-129 175 -283 175h-60q-165 0 -265 -193q-18 -43 -24 -108zM1017 1357q72 -123 72 -168l-12 -12q-64 146 -84 156
q-200 -184 -247 -367h6q378 0 644 349q30 62 30 108v19q-10 66 -66 66h-36q-109 0 -307 -151zM1041 1508h12q-34 -36 -66 -36l-12 18zM866 1436l24 -31v-6q-231 -189 -342 -349q0 -12 -19 -12l-24 18q67 135 295 337q51 43 66 43zM1233 1436q61 -129 61 -181l-6 -6h-6
q-28 104 -91 168q22 19 42 19zM421 888q24 -9 24 -18q-30 -81 -42 -84h-18q0 37 36 102zM349 599h12l-12 -138q0 -180 120 -205h6v-6q-3 -18 -48 -18h-12q-90 76 -90 247q4 120 24 120zM872 485v-12q-36 -83 -168 -181l-18 -6q0 47 108 126q26 35 78 73zM1053 400h12l6 -42
q0 -57 -78 -108q-110 -413 -211 -547q-97 -121 -156 -121q-139 26 -139 205v36q4 97 30 97l6 -7v-6q-22 -51 -24 -120q0 -156 121 -156l6 -6q175 0 337 619q45 61 72 72z" />
    <glyph glyph-name="H" unicode="H" horiz-adv-x="1806" 
d="M1157 1598h35q187 0 254 -214l14 -117l-48 -34h-14l7 41q0 218 -145 255l-62 14q-320 0 -709 -503q-32 -158 -117 -158h-7l-14 41v41q58 145 317 393q287 241 489 241zM1756 1440l21 -21q0 -45 -172 -145q-101 -61 -303 -613l289 117q365 586 634 641h34q65 0 76 -97v-20
q0 -281 -613 -524q-212 -449 -220 -654v-55q0 -37 27 -48h21q79 12 241 248h7l14 -14q-177 -284 -290 -289h-27q-90 54 -90 199v21q0 200 152 537q-276 -98 -276 -117q-328 -668 -792 -668h-83q-283 0 -392 303l-14 117q0 336 351 468l97 14h75q216 0 283 -234l7 -62v-7
q0 -254 -303 -358h-111q-110 0 -185 76q0 14 20 14q88 -56 165 -56h69q202 0 303 248l7 62q0 196 -234 228h-76q-254 0 -392 -290q-21 -55 -21 -103v-69q0 -204 248 -296l96 -13h97q363 0 613 564h-7l-227 -158h-7l-7 7q88 107 276 213q107 246 282 517v7h-7
q-142 -90 -193 -90h-27q-95 0 -111 145l7 179l-7 7h-13q-133 0 -386 -455h-7l-7 7v7q200 416 413 503h42q67 0 82 -117v-207l21 -21h21q101 0 461 331q25 21 48 21zM1736 820h7q558 239 558 461v28q0 53 -35 69h-48q-163 -34 -413 -441zM1956 1068v-14q-45 -117 -89 -117
q75 125 89 131zM1874 764q34 -4 34 -20v-7l-21 -21h-82q-124 -327 -131 -523l-21 -28l-7 -7h-14v90q0 249 131 489q57 27 111 27zM1123 758h20q-18 -79 -41 -90h-7q-18 0 -27 55v14q4 21 55 21zM234 172l21 -7v-7q0 -36 -35 -69l-27 21zM138 -27q28 -10 41 -35v-34
q0 -110 76 -110h27q84 0 262 96l97 14q-197 -159 -352 -159q-165 19 -165 166v7z" />
    <glyph glyph-name="I" unicode="I" horiz-adv-x="1202" 
d="M1756 1605h38l15 -15q-185 -45 -388 -464l-137 -334q73 0 228 174l8 -7v-8q-48 -121 -205 -197q-72 0 -92 -99q-311 -661 -791 -661h-83q-309 0 -433 341l-16 145q0 326 342 494q81 23 137 23h69q219 0 311 -259q16 -33 16 -121q0 -248 -267 -358l-91 -15h-53
q-140 0 -213 84l15 15h8q95 -61 182 -61h61q230 0 320 281v61q0 186 -160 251q-30 15 -84 15h-76q-278 0 -418 -311q-15 -25 -30 -152q0 -280 273 -381l92 -15h91q397 0 684 707q-164 0 -205 236v30q0 417 722 593zM995 1004v-38q21 -174 122 -174h7l168 311q85 189 357 441
l38 15v8h-7q-276 -36 -487 -190q-198 -175 -198 -373zM957 1324h8v-8q-84 -147 -183 -220q-83 -111 -83 -130q-46 0 -46 31q76 166 304 327zM1581 1293v-15q-128 -327 -167 -327v15q144 327 167 327zM1307 693l8 -8l-31 -68h-15v7q25 69 38 69zM1056 259v-7
q-243 -350 -456 -350h-46q-84 12 -84 31q190 18 267 46q175 136 319 280zM402 130q13 0 23 -38l-8 -8h-15l-15 16v15z" />
    <glyph glyph-name="J" unicode="J" horiz-adv-x="1011" 
d="M1271 1600h20l21 -28q-22 -82 -90 -82q-339 0 -600 -242q-282 -293 -282 -572q6 -75 34 -145h-14q-32 0 -62 235q0 480 635 724q296 62 338 110zM1395 1469h27l14 -14q-222 -148 -365 -503l-138 -317h7q71 17 213 172l7 -7v-7q0 -69 -193 -193q-62 0 -83 -89l-227 -504h7
q121 58 296 276h7v-14q-49 -155 -345 -323q-372 -642 -730 -642h-55q-265 0 -373 331l-14 118v20q0 340 297 476l97 13h55q159 0 227 -255v-82q0 -70 -28 -138h7q119 86 372 159q44 0 63 82l234 558q-165 0 -193 228v7q0 397 634 614q119 34 180 34zM671 807
q0 -156 110 -179h14q150 395 441 710l117 97h-7q-294 -57 -489 -221q-186 -190 -186 -407zM1139 1324h7v-7l-34 -34v14zM684 518q0 -53 -151 -104q-223 -126 -400 -255l-28 34q334 238 579 325zM-501 -268q0 -274 241 -379l83 -14h69q251 0 517 421q68 105 68 144
q-296 -68 -448 -220q-68 -111 -123 -111h-21q-12 0 -21 35q0 43 179 158q55 67 55 145v28q0 188 -185 227h-63q-219 0 -337 -310zM-25 90l27 -28v-6q-386 -372 -386 -531h-14l-20 62q0 152 386 503h7zM381 -185q-71 -139 -331 -317q-194 -104 -269 -104l-48 14v14
q198 0 524 310q65 90 124 90v-7z" />
    <glyph glyph-name="K" unicode="K" horiz-adv-x="1903" 
d="M1282 1591q112 0 161 -245v-7q-4 -25 -63 -56l-7 7l21 91v42q0 112 -154 112q0 14 -71 21v14zM1162 1500h21q99 0 99 -266l21 -21h35q91 10 420 287h21l14 -14v-21q-6 -16 -189 -140q-82 -76 -308 -651q-327 -673 -813 -673h-77q-282 0 -392 308l-14 119q0 341 350 491
l105 14h70q200 0 287 -224l14 -98q0 -280 -308 -372h-112q-123 0 -189 84l7 7h7q124 -56 182 -56h63q209 0 301 253l7 77q0 200 -238 231h-70q-255 0 -392 -294q-21 -57 -21 -106v-70q0 -259 273 -322l56 -7h98q402 0 715 750q150 276 294 476q-154 -105 -210 -105h-21
q-105 0 -120 161l7 77q-8 35 -21 35h-28q-120 0 -357 -469h-7l-7 7v7q129 345 329 483q47 42 98 42zM2241 1493h35q103 0 133 -140v-14q0 -61 -49 -91h-42q-22 0 -42 70l21 98q-10 35 -49 35h-21q-135 -24 -399 -434q-180 -213 -329 -266q-42 -7 -42 -21q161 -79 161 -295
l-28 -315v-7q0 -37 28 -49h21q64 0 231 238l7 7h7l14 -14q-60 -118 -238 -273l-42 -7h-28q-112 77 -112 238v14l28 316q-24 112 -84 112h-56l-21 21v21q0 18 119 35q163 114 308 350q258 371 469 371zM966 1458h7q-172 -210 -308 -329l-105 -147q-42 7 -42 21
q147 246 448 455zM2157 1241h56l21 -21l-14 -14h-49q-56 0 -168 -35v7q38 63 154 63zM1317 1108h7v-7q-19 -45 -35 -49v14q16 42 28 42zM504 786h14q119 -12 119 -35q-26 -21 -98 -21l-35 42v14zM1345 646h7v-7l-21 -21v14zM1275 513h7q163 -614 329 -861q139 -203 252 -203
h35q126 0 266 168l14 -14q-133 -190 -287 -190h-28q-333 0 -637 1022q37 77 49 78zM882 71h14v-7q-19 -46 -42 -56h-14l-21 21z" />
    <glyph glyph-name="L" unicode="L" horiz-adv-x="1263" 
d="M603 1590h72q221 0 446 -266q191 216 287 216h21q68 0 79 -101v-14q0 -267 -488 -582q-59 0 -108 -122q-99 -271 -345 -553q199 -79 295 -79h72q122 0 309 244h7l7 -21q-135 -231 -373 -316h-65q-78 0 -338 108q-139 -108 -251 -108h-72q-158 31 -158 122v29
q0 100 136 122h72q67 0 302 -72q118 146 273 553l-137 -14h-86q-244 0 -359 280l-14 129q0 310 316 431zM230 1166q0 -278 373 -330h87q158 0 158 50q80 181 244 410q-198 258 -410 258h-93q-253 0 -352 -301zM1157 1267v-7q57 -94 57 -122v-8l-14 -14l-65 108
q-101 -177 -151 -323h7q489 253 489 538q0 38 -36 58h-43q-84 0 -244 -230zM1566 1439h7q129 -172 129 -309h-14l-65 144q-64 92 -64 115zM144 427h28q145 -10 331 -137v-7l-7 -21h-8l-366 86q-17 0 -57 -43l-36 -15l-7 8v7q0 74 122 122zM43 140v-15q0 -72 122 -93h58
q108 0 215 100q-182 79 -251 79h-65q-79 -14 -79 -71zM682 211v-14l-14 -14v14zM129 161l43 -72l-7 -7q-72 17 -72 65zM2291 53h22v-43q0 -205 -122 -365q-129 -87 -302 -87h-21q-315 0 -949 381v14l72 22q598 -388 927 -388q309 0 366 409zM582 3h7l7 -7h7
q-78 -129 -179 -129q-85 0 -165 72v7l57 7q51 -50 115 -50h14q71 0 137 100z" />
    <glyph glyph-name="M" unicode="M" horiz-adv-x="2153" 
d="M1147 1898h15q81 0 120 -158q0 -142 -90 -544q156 219 219 219h22q23 0 45 -83v-8q0 -211 -52 -211h-8q30 162 30 234l-7 23h-23q-105 0 -287 -363q-173 -596 -233 -596v8l181 513v7h-8q-173 -326 -173 -362h-15v45q107 245 233 461q129 440 129 672q-10 90 -38 90h-53
q-188 -41 -483 -498q-115 -197 -128 -325h-7l-16 16q0 273 430 739q149 121 197 121zM2006 1604l8 -8v-7l-143 -212q-551 -1019 -551 -1222h8q129 139 475 679q282 423 603 762l30 8l8 -8v-7q-626 -1188 -626 -1495q15 -34 30 -38h23q79 0 271 265h15v-31
q-207 -293 -309 -293h-53q-90 48 -90 180q0 352 558 1208h-8q-331 -406 -792 -1125q-134 -183 -218 -249h-31q-37 0 -45 113q0 381 694 1321h-7q-406 -418 -642 -770q-224 -329 -475 -573q-157 -105 -279 -105h-68q-273 0 -377 339l-15 128q0 339 339 483l106 15h68
q209 0 302 -249l15 -98q0 -267 -264 -377q-30 -16 -83 -16h-61q-233 40 -233 129l7 7h8q120 -98 226 -98h53q200 0 294 249l7 76q-40 271 -264 271h-82q-270 0 -385 -301l-8 -83v-68q0 -282 317 -370h98q271 0 604 498q318 468 784 958q123 114 158 114zM2074 1566h8
q60 -42 60 -174q-40 -65 -75 -90v15q45 93 45 166q-7 30 -45 30h-23v8q18 45 30 45zM800 336v-15q0 -48 -61 -91h-7v8q0 47 68 98zM1788 -56l53 -8v-15l-38 -8l-23 23z" />
    <glyph glyph-name="N" unicode="N" horiz-adv-x="1999" 
d="M1445 1847q133 0 164 -252v-74q0 -59 -89 -193v7q51 159 51 230v89q-18 141 -126 141h-14q-213 0 -608 -393q-193 -215 -252 -378h-45v7q162 405 601 705q183 111 318 111zM1735 1580l14 -15q-59 -220 -59 -408l7 -267q0 -342 -51 -637v-8h7q561 1335 838 1335h22
q57 0 74 -81q-14 -97 -74 -97h-22q-37 20 -60 89h-22q-124 0 -497 -741q-292 -646 -355 -756l-15 14q37 155 37 260l-30 482v52q0 189 60 489v7h-8q-332 -808 -578 -1045q-271 -259 -504 -259h-82q-299 0 -415 311l-22 133q0 366 341 504q79 23 133 23h89q312 -42 312 -312
v-52q0 -227 -275 -341l-89 -15h-66q-141 15 -141 45v15h7l126 -23h74q225 0 319 260v104q0 147 -193 215l-59 7h-81q-289 0 -430 -348l-15 -126q0 -253 282 -349l103 -15h89q522 0 994 1157q140 303 215 393zM2113 1491h7q67 -56 67 -81l-30 -52h-15v59l-22 22h-7
q-104 -2 -349 -252v-7h-15v22q6 70 275 267zM1520 1321v-15l-15 -15v15zM1483 898h14v-15q0 -41 -52 -81v14zM541 816q57 0 126 -22v-7l-15 -15h-52q-40 0 -59 37v7zM1950 683v-15q-431 -1092 -445 -1393v-45l7 -30l-7 -29v-30q4 -44 22 -44q88 10 282 252h15
q-84 -203 -267 -290h-30q-67 49 -67 149q0 142 260 993q180 409 230 482zM1119 275v-15q-19 -38 -44 -44l-8 7v8z" />
    <glyph glyph-name="O" unicode="O" horiz-adv-x="1101" 
d="M728 1703h65q104 0 187 -65q0 -14 -43 -21q-73 36 -137 36h-65q-187 0 -411 -209l-36 -22h-7v7q202 274 447 274zM1060 1588h57q125 0 188 -159l14 -108q-4 -72 -22 -72l-14 15v108q-30 173 -159 173h-57q-121 0 -274 -137l86 -65q67 36 108 36h44q194 -43 194 -310v-36
q0 -378 -310 -770q-227 -259 -410 -259h-37q-210 0 -266 324l-7 108q0 484 504 979q-32 14 -94 14h-57q-269 0 -425 -410q-31 -194 -44 -194h-7v14h-7q0 382 339 590q81 36 144 36h65l122 -21q211 144 325 144zM1088 1494h15q19 0 50 -101h-7q-19 0 -58 101zM310 357v-15
q0 -243 158 -295h65q245 0 534 504q129 276 129 475v58q-26 259 -165 259h-51q-79 -18 -79 -36q122 -156 122 -367v-15q0 -327 -266 -482l-43 -7h-36q-131 0 -159 216v72q0 286 324 597q-14 25 -79 65q-238 -245 -332 -497q-122 -274 -122 -532zM505 1372v-15
q-171 -107 -274 -266l-15 -29q5 -46 51 -115v-14l-15 -15q-26 19 -65 115q0 95 202 281q56 44 116 58zM548 695v-14q0 -164 115 -187h29q154 0 252 367l15 151q0 183 -94 281q-317 -276 -317 -598zM36 767h22l7 -7h7q-43 -136 -43 -288q0 -305 230 -418q59 -71 87 -71v-15
q-162 0 -296 238q-50 121 -50 237v65q0 88 36 259z" />
    <glyph glyph-name="P" unicode="P" horiz-adv-x="1296" 
d="M500 2098q433 0 903 -426l8 -7v-8l-45 -37h-8q-452 433 -880 433q-321 0 -321 -336l7 -186l-22 -15h-15l-23 209q0 326 396 373zM522 1657h60q107 0 202 -89q126 37 224 37h82q112 0 268 -59q78 59 105 59l7 -7v-8l-74 -67q194 -162 194 -396q0 -258 -262 -395
q-29 -15 -82 -15h-52q-142 26 -142 82l23 7l74 -30h60q141 0 231 269q23 54 23 150v52q0 136 -112 231q-69 -9 -455 -911q-334 -567 -635 -567h-52q-209 26 -209 194q0 82 67 127h45q52 -30 52 -90v-14l-15 -83v-37q37 -52 82 -52h45q275 0 597 806q168 386 441 650v7
q-119 52 -209 52h-105q-93 0 -179 -22q67 -121 67 -261q0 -405 -351 -650q-89 -52 -164 -52h-45q-115 0 -171 149l-15 105q0 340 425 657q131 67 164 67q-72 67 -141 67h-75q-221 0 -418 -328q-68 -164 -82 -172l-8 7v15q10 144 217 374q157 141 298 141zM1508 1546h7
q209 -224 209 -508q0 -267 -299 -374q-115 -37 -231 -37h-45q-149 0 -149 37l22 38q75 -45 217 -45q180 0 343 164q60 82 60 239v105q0 186 -157 351v7zM179 836q0 -162 134 -194h53q189 0 395 418q52 145 52 269v45q0 107 -59 149q-198 -51 -366 -231q-209 -241 -209 -456z
M1157 1501q22 -8 22 -45q-25 -50 -60 -75v8q20 112 38 112zM209 1359h15l22 -60l-7 -7h-8l-37 52zM254 187l67 -75v-7l-37 -8q-45 33 -45 82l7 8h8z" />
    <glyph glyph-name="Q" unicode="Q" horiz-adv-x="1511" 
d="M1046 1832q207 0 339 -173v-15q-28 0 -188 90q-53 23 -136 30l-301 -60v8q144 120 286 120zM880 1666h61q55 0 188 -75l98 15h75q176 0 263 -256l23 -165q0 -536 -738 -1032q202 -83 271 -83h53q126 0 354 271h7v-7q0 -80 -278 -294q-113 -52 -181 -52h-45q-84 0 -309 90
q-148 -82 -263 -82h-53q-157 0 -180 127v23q0 103 150 128h68q96 0 361 -91q379 218 610 791q52 180 52 331v15q-35 249 -195 249h-68l-53 -8q83 -124 83 -279q0 -430 -376 -685l-128 -37h-53q-160 0 -180 248v15q0 414 519 730l53 16q-62 60 -128 60h-76q-261 0 -459 -422
q-28 -113 -52 -113l-8 8v7q84 321 294 475q128 82 240 82zM828 1569v-16q-78 -56 -271 -346q-218 -452 -218 -813l7 -60l-22 -15q-23 0 -23 120q0 557 429 1077q55 53 98 53zM534 853v-52q0 -148 121 -181h52q199 0 399 452q45 132 45 241v45q0 99 -52 188
q-317 -125 -497 -444q-68 -148 -68 -249zM519 1313h15l-7 -38h-15zM1445 612v-7q-58 -213 -331 -482q-83 13 -83 30v8q158 98 309 323zM113 296q38 0 90 -45l-37 -90q-39 22 -76 22h-15q-22 0 -30 -60q12 -62 60 -165l-7 -8h-15q-83 104 -83 196q0 62 113 150zM263 146v-15
q27 -98 128 -98h83q78 0 218 67v8q-216 105 -323 105h-38q-68 -9 -68 -67zM339 161h45l52 -68v-8h-22q-59 0 -90 38v23zM1558 40h22q38 -116 38 -233v-37q0 -125 -211 -316l-60 -16h-53q-228 0 -782 497v8q51 0 226 75q94 -45 120 -45v-15l-120 -23h-106q512 -436 693 -436
q214 0 248 316v60z" />
    <glyph glyph-name="R" unicode="R" horiz-adv-x="1491" 
d="M728 1590v7h162v-14h-7l-127 -14q-28 10 -28 21zM502 1583h42q124 0 198 -78q103 28 183 28h85q123 0 276 -63q74 56 92 56l7 -7v-7l-64 -63q163 -134 163 -297q0 -229 -255 -382l-99 -28q128 -109 128 -247q0 -69 -57 -389q17 -49 28 -49h14q77 9 241 261l14 -14
q-172 -297 -269 -297h-35q-99 63 -99 226l49 375v14q0 85 -56 85h-71q-49 0 -49 49q10 35 49 35h7l78 -14h28q111 0 212 290l14 134q0 111 -70 205h-7q-87 -59 -431 -862q-306 -544 -615 -544h-56q-177 35 -177 177v7q10 113 78 113h7q56 0 70 -78v-21l-14 -78v-28
q35 -50 78 -50h42q263 0 580 792q153 351 402 593q-86 71 -240 71h-99q-84 0 -134 -28q64 -110 64 -248v-7q0 -388 -325 -614q-85 -50 -156 -50h-42q-148 0 -177 212v64q0 292 396 586l162 85q-84 50 -148 50h-64q-210 0 -402 -326q-57 -161 -71 -169l-7 7v21q7 141 205 368
q151 134 297 134zM1258 1548h7l14 -15h-21v15zM1441 1484q304 -153 304 -360v-36q0 -261 -495 -395l-7 7v21q438 101 438 381q0 193 -268 354zM170 841v-71q19 -162 113 -162h56q175 0 367 381q64 150 64 290q0 94 -49 184q-367 -142 -502 -438q-49 -113 -49 -184zM353 1449
v-7q-22 -26 -35 -142h-7l-14 14v29q0 80 42 106h14zM1229 1251h14q0 -39 -49 -85v14zM968 657h7q92 0 92 -63l14 -64l-7 -85h-21zM1279 226q63 -7 63 -21l-21 -14h-49v21l7 7v7z" />
    <glyph glyph-name="S" unicode="S" horiz-adv-x="1307" 
d="M1287 1897h97q239 0 312 -179l15 -74l-37 -15q-87 194 -186 194q0 20 -201 29q-403 0 -617 -297q-55 -186 -67 -186h-8v104q0 229 476 394q122 30 216 30zM1004 1652h67q231 0 387 -246q191 179 275 179h45q67 -39 67 -119q0 -270 -439 -529q-104 -27 -104 -74
q-289 -863 -781 -863h-90q-284 0 -409 312l-22 149q0 340 357 491l104 15h75q236 0 305 -290v-52q0 -268 -268 -365l-75 -7h-52q-208 27 -208 74l8 8h7q125 -45 193 -45h60q204 0 297 246l8 81q-28 261 -253 261h-82q-218 0 -372 -268q-44 -89 -44 -208q0 -255 260 -350
l104 -15h82q419 0 662 833h-119q-233 0 -357 238q-37 77 -37 172q0 257 268 357q29 15 81 15zM714 1287q0 -234 320 -342l74 -8h90q36 151 245 447q-174 230 -357 230h-82q-215 0 -290 -260v-67zM1503 1339q59 -79 59 -126l-7 -8h-8q-12 0 -59 104h-8q-85 -161 -141 -342
q271 89 409 313q60 85 60 171v37q0 40 -37 59h-38q-86 0 -230 -208zM1689 1466h7q0 -39 -22 -45l-8 7v8zM863 856h7q79 0 172 -194l-30 -59l-112 -15l-7 7v22q0 23 82 23h7v7zM744 603l7 -8v-30q0 -9 -230 -81l-209 -112l-44 15v7q53 78 372 186zM1108 305v-15
q0 -81 -141 -193q-87 -52 -119 -52q134 95 260 260zM208 268q30 -11 30 -23l-7 -29l15 -60h-8q-45 0 -45 104l8 8h7z" />
    <glyph glyph-name="T" unicode="T" horiz-adv-x="1466" 
d="M2226 1703h7q67 -76 67 -164q0 -90 -97 -149l-141 15v15q107 0 201 127l15 37q-6 34 -52 82v37zM841 1658l454 -29v-15l-186 -37l-275 14h-15q-358 0 -358 -201q0 -91 157 -364v-15q-86 0 -201 327v23q0 200 312 290zM2211 1599l7 -8v-14q-92 -120 -246 -120h-52l-528 38
h-97q-346 0 -499 -268l-22 -119q29 -186 142 -186h67q242 0 468 409h8l7 -7v-8q-69 -255 -268 -417q-102 -52 -171 -52h-67q-184 0 -216 261v7q0 288 425 417q145 45 402 45h134q275 0 506 22zM1794 1413h22l15 -15q-154 -134 -231 -320q-267 -655 -431 -804
q-277 -282 -603 -282h-90q-364 0 -461 357l-15 104q0 338 335 491q79 22 134 22h74q221 0 298 -253l8 -74v-15q0 -318 -335 -372h-75q-110 0 -193 74v15h15q107 -44 208 -59q262 0 342 268l8 96q0 161 -186 224l-75 7h-74q-216 0 -380 -268q-44 -86 -44 -178v-15
q0 -288 290 -372l126 -15h97q452 0 767 789q131 277 342 513zM1280 312v-15q-126 -353 -126 -454v-7l15 -119l-45 -23l-22 30v30q0 154 119 498z" />
    <glyph glyph-name="U" unicode="U" horiz-adv-x="1467" 
d="M820 1732q83 -17 83 -45v-8l-120 -7q-91 22 -91 37q33 15 128 23zM587 1649h68q89 -12 120 -45q34 15 98 15h60q127 0 188 -158l23 -143q0 -219 -361 -865q-143 -252 -143 -354q5 -37 22 -37h45q168 41 475 534q122 209 526 1001h31l112 7l8 -7q-489 -948 -670 -1332
q-45 -97 -45 -166q5 -37 23 -37h22q89 13 264 271h7l15 -16q-201 -308 -301 -308h-38q-67 43 -67 158q0 107 60 263v8h-8q-295 -429 -444 -429h-15q-83 0 -98 173q0 212 392 903q113 205 113 323v23q-23 151 -143 151h-106v-16q68 -80 68 -225q0 -351 -316 -572
q-66 -38 -135 -38h-38q-142 0 -166 211v30q0 301 392 564l98 46q0 24 -98 30h-38q-248 0 -459 -399q-98 -224 -105 -399h-8q-15 0 -15 23q0 397 346 722q147 90 241 90zM271 980v-15q0 -133 98 -158h52q175 0 354 346q53 148 53 263q0 75 -60 150q-338 -138 -474 -443z
M467 1514q-324 -333 -324 -617q0 -134 105 -241v-7l-15 -16q-128 113 -128 301q0 253 286 542zM963 1506h8q38 -14 38 -82q0 -146 -91 -279v8q45 217 45 293v60zM1648 1047v-15q-113 -258 -248 -684l-53 -61h-7q105 418 241 640q55 120 67 120zM1302 9h8v-127l-15 -16
l-23 23v90z" />
    <glyph glyph-name="V" unicode="V" horiz-adv-x="1099" 
d="M841 1784h8q111 0 152 -167l-44 -36h-7v65q0 87 -72 87q-87 0 -218 -80l-58 15v22q148 94 239 94zM508 1624h51q133 0 224 -304l37 -36h7q172 333 290 333h22q61 0 72 -94q0 -174 -254 -283q-58 0 -58 -130q-92 -396 -217 -675l-145 -290q315 339 616 820
q207 360 457 623l51 15h29q44 -26 44 -66v-21q0 -57 -44 -80h-29l-80 36q-161 -136 -326 -413q-309 -511 -718 -972l-102 -87h-7l-22 22q144 276 218 551q109 454 181 660h-14q-127 0 -247 297q-38 36 -65 36h-37q-159 0 -340 -268q-73 -128 -73 -239v-36q19 -175 116 -175
h51q123 27 225 196q63 116 116 312h7l15 -43q0 -347 -240 -523q-50 -29 -87 -29h-51q-153 0 -181 247v36q0 361 399 559zM928 1269q107 0 240 181l7 51v29q0 38 -22 44h-29q-101 0 -196 -305zM1944 1552q116 -15 116 -44l-7 -7l-51 7h-44q-81 0 -174 -58l-7 8q0 72 152 94
h15zM435 1516h36l15 -15q-283 -341 -283 -594l-7 -8h-7q-17 0 -22 51q0 252 268 566zM1618 1385l50 -7v-15q-214 -175 -420 -449l-559 -820l-29 -21h-36l-15 14l22 22l22 -7l413 565q252 427 464 646z" />
    <glyph glyph-name="W" unicode="W" horiz-adv-x="1472" 
d="M699 1792q146 -55 146 -219v-109l-15 -65h-7l-7 7h-7l7 109v44q0 175 -102 175l-153 -51h-66q118 109 204 109zM517 1624h44q138 0 226 -298l43 -44q166 342 292 342h44q51 -29 51 -87v-22q0 -153 -241 -269q-65 0 -65 -110q-142 -573 -292 -845q-12 -2 -51 -102
q296 355 612 904q243 330 350 510l7 7h29l15 -15v-7q0 -46 -109 -189q-51 -133 -183 -627q-120 -332 -284 -612v-7q274 278 583 772q233 381 437 627q69 58 102 58h29q44 -30 44 -73v-29q0 -61 -66 -73h-7l-80 36q-172 -141 -422 -560q-259 -402 -591 -787
q-116 -124 -153 -124l-14 15l146 313q148 511 284 874q-83 -112 -488 -765q-194 -276 -372 -437h-7l-15 15v7q219 466 219 583l175 626q-135 0 -263 299q-37 36 -65 36h-37q-165 0 -357 -291q-58 -134 -58 -248q0 -155 117 -182h43q165 0 306 357q38 160 51 160l15 -22v-14
q0 -403 -277 -561l-51 -7h-51q-154 0 -182 262v7q0 379 415 583zM947 1275q119 0 240 204v58q0 38 -21 44h-44q-92 -51 -153 -212l-29 -94h7zM342 1464q-229 -285 -240 -415h-15v15q0 206 241 400h14zM1581 1450h7l7 -124q0 -265 -102 -452h-14q80 258 80 459v95zM1034 1209
h22l15 -73v-21q-33 -189 -117 -277h-7l58 247h-14q-51 -123 -66 -123v14q83 233 109 233zM925 524h15q-24 -288 -44 -335h-15v168q0 108 44 167zM1253 291v-7q-147 -256 -233 -269h-7v7z" />
    <glyph glyph-name="X" unicode="X" horiz-adv-x="1206" 
d="M560 1628h53q60 0 127 -53l98 15h38q210 -41 210 -307v-90q330 390 495 390h45q89 0 105 -150q0 -344 -728 -608q-195 -427 -195 -676q0 -113 68 -113h22q74 0 285 286l15 -15q-185 -305 -315 -315h-30q-107 0 -120 255l7 112q-317 -367 -532 -367h-45q-128 0 -150 172v8
q0 353 855 645q143 305 143 503v38q-22 195 -135 195h-61l-37 -8q68 -82 68 -202q0 -352 -316 -548q-59 -30 -97 -30h-53q-99 0 -120 180q0 306 368 578l75 30q0 19 -75 37h-68q-190 0 -375 -270q-141 -236 -172 -488h-22v23q0 214 202 540q190 233 367 233zM1026 877h15
q652 245 652 533v45q0 59 -45 83h-45q-201 0 -555 -616zM298 975v-45q9 -98 75 -98h45q114 0 300 270q82 143 82 263q0 98 -67 165q-240 -110 -375 -345q-60 -114 -60 -210zM883 1478h8q67 -36 67 -143q0 -141 -75 -345h-15q0 105 30 315v75zM718 1448q22 -8 22 -45
q-194 -133 -292 -338l-8 -8h-7l-8 8v7q71 216 293 376zM1633 1448h8v-23q0 -225 -405 -398q337 285 337 346q0 31 60 75zM95 164v-15q0 -97 90 -113h45q239 0 608 714v15h-8q-735 -245 -735 -601zM703 630v-15q0 -55 -353 -383l-127 -143h-30l-23 23q291 331 525 518h8z
M906 427h15l15 -308l-45 -30q-23 54 -23 120zM1431 51h7l15 -15q-214 -202 -330 -202q-92 24 -165 113v7l30 15q61 -60 135 -67q111 0 308 149zM80 -46l38 -7v-8q-135 -309 -135 -375l-7 -8h-8l-8 8v8q0 185 120 382z" />
    <glyph glyph-name="Y" unicode="Y" horiz-adv-x="1197" 
d="M1709 1591h12l19 -19q-2 -16 -143 -99q-102 -57 -379 -758q-291 -715 -764 -715h-69q-283 0 -379 267l-6 62v75q0 227 249 379q82 31 130 31h68q184 0 249 -211l6 -75q0 -232 -255 -317h-99q-53 0 -75 38l7 6l105 -6h25q168 0 243 192q12 28 12 87q-26 205 -199 205h-62
q-198 0 -342 -267q-18 -65 -18 -124q0 -235 267 -305l56 -6h80q390 0 672 721q40 79 49 124q-233 -286 -335 -286h-38q-62 36 -62 125v6q0 153 212 522q43 90 43 149v31q0 97 -124 118h-50q-219 0 -416 -286q-38 -102 -38 -136q0 -105 87 -125h56q127 0 268 230
q37 90 74 230h6l7 -6v-43q0 -272 -218 -448q-68 -31 -118 -31h-43q-126 0 -150 174q0 237 311 423q100 49 168 49h56q155 0 180 -236v-18q0 -128 -224 -554l-25 -87v-24l19 -19h37q143 0 522 628q256 329 336 329zM895 1479h12l25 -112q0 -71 -56 -143v7q31 119 31 192z
M684 796h12v-7l-6 -43h-6l-13 12zM603 572h12v-106h-12l-6 56zM777 547h25v-13l-44 -37h-12v25zM932 466q0 -38 -124 -81l-131 -87h-6q24 75 162 143l99 31v-6zM653 280v-7q-56 -60 -56 -155v-6h-13l-6 31q0 92 68 130zM951 180v-6q-123 -168 -224 -168h-6v13q60 7 230 161z
" />
    <glyph glyph-name="Z" unicode="Z" horiz-adv-x="1408" 
d="M818 1672h81q181 0 603 -103q55 37 81 37h15v-8q-112 -88 -132 -88q-324 66 -450 118l-73 7q-354 -42 -354 -110q-37 -113 -73 -126h-8v37q0 47 81 133q46 103 229 103zM935 1576h59q141 0 265 -317l30 -29q272 332 412 332h30q88 0 88 -118q0 -227 -368 -310h-140
q-64 -71 -420 -582v-14q68 0 170 -170q59 -317 95 -317h15q80 0 265 266q15 0 15 -23q-189 -301 -324 -301h-30q-111 0 -169 383q-47 110 -88 110q-369 -493 -553 -493h-51q-95 0 -111 154q0 282 427 427l111 8h51l126 -8q169 266 397 582q-154 79 -154 170
q-77 199 -155 199h-52q-145 0 -346 -258q-73 -128 -73 -265q0 -161 125 -192h51q144 0 302 368q22 140 45 140l7 -7v-7q0 -353 -243 -531q-51 -29 -89 -29h-51q-158 0 -184 258q0 358 420 560zM1348 1193l73 -7h67q185 0 294 206l8 52q0 48 -44 73h-45q-128 0 -353 -324z
M567 1201h7q0 -40 45 -163v-14q-33 0 -74 147zM162 663h7q47 0 192 -89v-7q-49 -52 -88 -52q0 23 -111 45q-118 -59 -118 -273v-15q0 -44 30 -125v-37h-8q-66 62 -66 192v22q37 243 88 243q12 96 74 96zM155 140q12 -111 88 -111h44q184 0 501 479q-29 15 -81 15h-88
q-301 0 -442 -273q-17 -27 -22 -110zM516 457l103 -89v-7l-45 -52h-7l-132 111q32 37 81 37zM744 258q199 -141 199 -184l29 -67l-272 199v15q21 37 44 37zM2298 -14q22 0 22 -155q0 -325 -280 -391q-288 20 -965 487v14l37 -7l44 7q622 -442 840 -442h29q258 0 258 479l8 8
h7z" />
    <glyph glyph-name="bracketleft" unicode="[" horiz-adv-x="704" 
d="M1041 1798l51 -43l179 17q94 -10 94 -34v-8q-17 -77 -43 -77l-51 17h-42q-248 0 -291 -188q-698 -1371 -742 -1526l-17 -110q36 -52 171 -52q181 0 315 69l9 -9v-8q-103 -163 -461 -163h-8q-60 0 -60 60h-128l-17 17v9q0 46 307 656q444 929 657 1322zM128 -129l-26 -77
h35v77h-9z" />
    <glyph glyph-name="backslash" unicode="\" horiz-adv-x="412" 
d="M644 1798l22 -108l-61 -208q-424 -1371 -437 -1526l1 -153l-158 -43l-2 9q-9 46 176 656q258 929 393 1322z" />
    <glyph glyph-name="bracketright" unicode="]" horiz-adv-x="899" 
d="M1191 1798h24l25 -24l-16 -98q32 -4 32 -24q-16 -65 -486 -1021q-405 -832 -438 -859q-58 0 -113 -114h-25l-8 9l-8 24h-8l-105 -16q-60 0 -65 24v16q5 49 24 49l-8 8v16l25 25h162q82 0 194 283l762 1524h-179q-42 0 -72 24l-25 -24l-16 16q96 162 324 162zM1005 1685
v-9h138v9l-57 8z" />
    <glyph glyph-name="asciicircum" unicode="^" horiz-adv-x="961" 
 />
    <glyph glyph-name="underscore" unicode="_" horiz-adv-x="2101" 
d="M-142 -440l97 48l231 -1q1539 -26 1698 2l150 41l112 -132l-7 -3q-42 -21 -725 -12q-1030 -9 -1476 11z" />
    <glyph glyph-name="grave" unicode="`" 
d="M277 1814q-13 -71 -46 -71l65 -150q-91 60 -130 125q-28 57 -28 125q10 36 46 57h36q35 -17 57 -86z" />
    <glyph glyph-name="a" unicode="a" horiz-adv-x="647" 
d="M487 603l56 -14l28 21h6q14 0 14 -21h35l7 -7h7q-243 -473 -243 -515v-20l14 -14q57 0 264 264l14 -14q-185 -285 -285 -285h-35q-56 -241 -56 -327v-41q0 -91 91 -91q163 0 410 425l7 -7v-7q-72 -186 -264 -383q-63 -63 -119 -63h-34q-81 0 -119 140v27q0 102 56 355
l-14 76l7 49v7h-7q-107 -167 -202 -167q-7 -20 -42 -20q-20 0 -55 236l7 62v7l-21 -14l-14 14q189 327 438 327h49zM139 74l14 -14h14q271 290 271 432v28l-14 27h-7q-112 0 -278 -417v-56zM195 373v-6h7q30 62 139 173h-7q-94 -70 -139 -167zM313 200l-104 -133h7
q104 117 104 133h-7z" />
    <glyph glyph-name="b" unicode="b" horiz-adv-x="653" 
d="M1085 1803h42q215 0 345 -310l7 -84v-36q0 -407 -979 -781l14 -64v-14q0 -129 -106 -317h36q52 0 162 127l7 -21q-84 -141 -176 -141h-50q-143 -162 -246 -162h-35q-78 0 -85 127v14q0 62 49 190v7h-7q-34 -70 -49 -70l-14 14q259 392 359 669q365 852 726 852zM570 1289
h8l56 7l7 -7l-345 -733h7q383 120 662 275q479 293 479 578v14q0 246 -282 345h-84q-238 0 -508 -479zM155 218q239 207 239 219l22 126h-8q-154 -24 -154 -105q-89 -151 -99 -240zM127 77h21q89 0 183 106q42 81 63 211q-49 -19 -246 -225q-21 -49 -21 -92zM148 42v-7h28
l49 21v7h-7z" />
    <glyph glyph-name="c" unicode="c" horiz-adv-x="499" 
d="M344 600h35q79 0 103 -97q0 -100 -103 -117q-27 -20 -55 -20h-7l55 48l-14 41q0 20 48 69v7q-155 -71 -261 -241q-21 -69 -28 -166q16 -83 41 -83q135 0 248 180l76 89q14 0 14 -20l-145 -193q-14 -33 -137 -90l-69 -7q-62 0 -111 103v187l-20 -14l-14 14
q204 310 344 310zM296 524l83 35v7h-28q-51 -26 -55 -42z" />
    <glyph glyph-name="d" unicode="d" horiz-adv-x="703" 
d="M1481 1802h54q205 0 307 -267l13 -107q0 -426 -874 -660q-144 -34 -300 -34q-252 -521 -281 -647l7 -20h27q106 82 213 240l7 7h7l13 -14q-123 -207 -267 -280q0 -20 -13 -20h-7q-60 58 -60 127l7 47v6h-7q-100 -153 -174 -153h-20q-22 0 -46 20q0 -14 -47 -27
q-40 12 -40 60q47 162 47 214l-20 -14l-14 14q200 307 347 307h34q31 0 66 -47q80 144 80 187q-60 0 -66 80q0 55 120 120q87 27 87 80q114 216 293 454q283 327 507 327zM867 1255q47 0 47 -14l-220 -480h7q542 0 1021 447q100 141 100 260v7q0 225 -261 300l-60 7h-20
q-259 0 -614 -527zM494 808q6 -40 67 -40l80 173q-110 -44 -147 -133zM113 113h7q273 262 300 374q0 34 -40 34q-79 0 -207 -187q-57 -134 -60 -221zM133 73v-6h27q94 0 247 313l13 47q-96 -152 -287 -354z" />
    <glyph glyph-name="e" unicode="e" horiz-adv-x="477" 
d="M384 603h14q58 0 66 -86v-7q0 -46 -93 -112l-13 -20h20q211 0 258 59l7 -6v-7q-59 -73 -212 -73h-93q-88 -74 -252 -139l-7 -40v-59q0 -60 53 -60h27q75 4 265 258q13 0 13 -19q-51 -93 -179 -219h14l66 33l7 -7v-6q-127 -93 -193 -93h-13q-123 0 -145 219v73l-20 -14
l-7 7h-7q172 305 371 305zM391 557v-7q13 -14 13 -73q18 0 27 53v13l-13 14h-27zM179 378h6q160 0 160 132v20q-63 -31 -166 -152zM152 351l-53 -86v-7q69 10 153 93h-100z" />
    <glyph glyph-name="f" unicode="f" horiz-adv-x="535" 
d="M1092 1799q71 -6 71 -71q0 -45 -26 -53q-65 71 -106 71h-18l-62 -18v-8q124 0 124 -124q0 -278 -653 -874l-239 -617h9q107 0 327 317l26 18h9v-35q-256 -371 -379 -371h-27q-284 -732 -299 -732l-133 -17l-9 8v9l71 168q-199 -230 -362 -230q-238 0 -274 362
q0 332 301 520h8v-8q-256 -212 -256 -538q0 -208 150 -283l53 -8h45q275 0 582 740l8 44q-26 6 -26 71v18q0 48 44 70h35l9 -9h9l194 459l-229 -291h-9l-9 9v9q116 195 344 476l88 221q0 23 -61 79q8 36 35 36l79 -9q270 591 556 591zM633 1217h203q186 277 186 397
q-12 61 -36 61h-35q-123 0 -318 -458zM475 837q280 252 326 344q-220 0 -220 -70z" />
    <glyph glyph-name="g" unicode="g" horiz-adv-x="594" 
d="M338 589h34q76 0 76 -110h7q33 96 76 96l69 7l7 -7q-181 -367 -249 -551q64 42 256 268l7 -20q-36 -83 -242 -276q131 34 255 34h28q138 0 138 -158q-8 -58 -90 -151h-7v13q69 101 69 187v7q0 62 -76 62h-69q-310 0 -310 -69q-126 -598 -290 -993q-242 -518 -489 -518
h-42q-181 0 -338 338q-28 98 -28 173v34q0 523 1014 973q111 0 138 151l28 69v7h-7q-109 -159 -179 -159h-21q-36 0 -41 21l-42 -14q-34 0 -34 62v14q14 89 27 89l-7 21l7 76v7l-20 -14l-14 14q206 317 359 317zM89 120v-34h7q276 266 276 379v34l-7 7v7q-119 0 -221 -200
q-55 -127 -55 -193zM96 44l7 -7h28q82 0 220 255l7 49zM-145 -528v-41q4 -41 21 -41h27q118 0 310 517q-358 -272 -358 -435zM-835 -1086q0 -304 276 -455l69 -7h35q372 0 703 1324v7h-7q-208 -428 -338 -428h-27q-76 0 -76 111q0 150 310 406h-7q-356 -136 -696 -448
q-242 -268 -242 -510z" />
    <glyph glyph-name="h" unicode="h" horiz-adv-x="729" 
d="M1295 1903h43q249 0 322 -365v-36q0 -476 -894 -729l-265 -29l-36 7l-193 -415v-7h7q181 271 272 286h7q65 0 65 -86v-21q0 -91 -151 -351l-7 -50q11 -28 22 -28h14q54 0 222 229q14 0 14 -22q-186 -273 -272 -286h-29q-64 49 -64 143q0 107 157 336v7l-7 8h-7
q-166 -141 -315 -394q-27 -56 -57 -71l-7 28q-21 -50 -136 -50v7l215 422v8h-7q-62 -107 -136 -172l-15 14q226 299 301 479q-20 0 -43 79q0 58 136 136q17 1 164 322q48 0 93 115q332 486 587 486zM701 1324v-8l22 -7l-244 -529h8q611 0 1044 493q93 132 93 258v29
q0 226 -243 314l-57 8h-22q-258 0 -601 -558zM343 823q11 -29 22 -29h14l72 158h-7q-101 -81 -101 -129zM265 258h7q81 137 250 286q36 5 36 21v7h-29q-176 -160 -264 -314z" />
    <glyph glyph-name="i" unicode="i" horiz-adv-x="455" 
d="M429 1038h36q36 -21 36 -57q-27 -100 -57 -100h-36q-23 0 -36 71q22 69 57 86zM322 608h7l7 -7h8q-244 -444 -244 -537q0 -16 36 -21q58 10 258 279h14v-28l-122 -165h7l158 143l7 -7v-14q-238 -251 -301 -251q-136 0 -136 143q3 64 115 294l-122 -151l-14 15
q61 104 222 300z" />
    <glyph glyph-name="j" unicode="j" horiz-adv-x="344" 
d="M371 1006h34q34 -17 34 -54q0 -61 -54 -95h-34q-27 11 -27 47v14q0 56 47 88zM317 600h13v-7l-176 -461l-13 -61q72 64 223 251l14 -14q-14 -56 -203 -250h6q147 33 251 33q107 0 122 -128v-20q0 -68 -81 -149h-7v7q68 115 68 189q0 61 -95 61h-14q-298 -14 -298 -54
q-300 -1457 -731 -1457q-179 0 -318 326q-28 106 -28 189v7q0 503 915 922q56 0 101 175q102 242 102 298l-136 -169l-13 13q185 292 210 292zM73 -37q-242 -569 -406 -569h-20q-63 0 -75 102q0 163 332 427h-7q-291 -119 -616 -434q-197 -258 -197 -434v-40
q0 -271 231 -414l74 -20h41q301 0 582 1084l68 291v7h-7zM-374 -504v-27q5 -41 21 -41h27q109 0 311 515h-6q-353 -269 -353 -447z" />
    <glyph glyph-name="k" unicode="k" horiz-adv-x="749" 
d="M1102 1658h43q175 0 242 -271l7 -58v-29q0 -371 -643 -593q-154 -51 -337 -51l-88 -190q159 161 212 161h15q22 -5 22 -52q44 30 66 30h22q66 0 66 -88q-17 -66 -37 -66h-29q-25 0 -51 88h-8q-99 -161 -124 -176l-51 -29q63 -69 66 -132l-30 -139l37 -44q107 85 241 278
q15 0 15 -22q-62 -114 -234 -284q124 -161 197 -161q73 19 73 73h15v-7q-27 -96 -58 -96q-114 0 -271 176q-68 0 -95 73q-26 132 -73 197q-20 49 -44 59q-61 -228 -81 -249h-7v7l29 147v7h-7q-95 -226 -124 -226l-88 -8v8l212 431l-139 -168l-14 14q177 239 270 417l-22 66
q0 30 124 132q159 361 205 424q53 0 132 132q190 219 344 219zM721 1329l8 -7h7l-300 -630h59q387 0 760 373q110 139 110 271v37q0 215 -249 270q-175 0 -395 -314zM326 729v-22q15 0 59 110q-59 -46 -59 -88zM304 400l8 -29h51q97 0 146 146v44l-14 14q-59 0 -191 -175z
M348 283l22 -59h8l14 88h-7z" />
    <glyph glyph-name="l" unicode="l" horiz-adv-x="368" 
d="M1033 1701q135 0 195 -227l6 -65v-52q0 -434 -831 -838q-163 -55 -163 -78q-130 -217 -130 -350l13 -33q77 41 234 254h13v-26l-130 -195q-75 -91 -117 -91h-13q-91 58 -91 149q20 102 98 260l-104 -130l-13 13l227 331q303 627 481 857q190 221 325 221zM572 1214h6
l45 7l7 -7l-364 -721h7q251 93 539 293q403 308 403 616q-34 260 -169 260l-33 7q-173 0 -441 -455z" />
    <glyph glyph-name="m" unicode="m" horiz-adv-x="999" 
d="M943 662h22l14 -14v-15l-36 -78l7 -58q0 -84 -186 -408v-15l7 -7q203 104 215 158l64 72h8v-8q0 -21 -43 -86h14q322 151 501 151q206 0 265 -186l7 -43q0 -97 -64 -129l-15 14q43 57 43 129v21q0 133 -193 158h-22q-259 0 -622 -215q-96 -121 -179 -121l-100 -94h-22
l-14 15q0 28 43 79l-7 7l50 128q0 137 136 323q14 28 14 79l-14 14h-15q-202 -224 -379 -530l-114 -7v7q193 360 193 494v29q-180 -195 -372 -516q-44 -14 -129 -14v7l272 559h-36q-122 -102 -251 -301h-6l-15 14q206 330 293 330h29l7 -7h7l51 50h21v-15l-50 -71l14 -65
l-7 -64q177 172 222 172h14q55 0 65 -72v-50l-22 -115q201 244 251 244zM328 361l-8 -7v-14h8l7 21h-7z" />
    <glyph glyph-name="n" unicode="n" horiz-adv-x="704" 
d="M315 608h27v-7l-34 -55l7 -49q0 -65 -49 -180v-7h7q180 278 270 284l34 -7q5 21 56 21l20 -21q-41 -95 -76 -228q-145 -246 -145 -305l7 -20h35q108 91 221 256l7 7h7l13 -14q-67 -129 -248 -283h-42l-35 27q-62 -194 -62 -304v-63q19 -124 118 -124q151 0 401 346
q27 43 41 118q-11 41 -48 41v13q11 28 48 28l21 -28v-20q0 -219 -339 -498q-112 -56 -180 -56h-13q-125 18 -125 174v48q0 141 118 442q0 114 159 346v7l-7 7h-7q-127 -49 -297 -318q-116 -173 -132 -173l-83 -13h-7l-6 6h-7q50 170 269 540l-7 7h-34q-64 -39 -249 -291
l-14 14q203 318 277 318h34l21 -14z" />
    <glyph glyph-name="o" unicode="o" horiz-adv-x="504" 
d="M290 622l35 -21h55q25 0 62 -27h48v-21l-27 -7l20 -97q-9 -113 -89 -242v-7h34q54 0 152 125l14 -14q-85 -145 -166 -145h-55q-131 -166 -276 -166q-51 0 -69 214l13 76v7h-6q0 -27 -21 -27l-14 13q53 102 180 235l-21 21v7q0 26 83 35q17 30 48 41zM111 111
q0 -63 34 -63q174 136 249 401l7 49q-10 34 -49 34h-48q-146 -154 -187 -359zM408 366q-43 -125 -208 -304h7q129 86 207 297v7h-6z" />
    <glyph glyph-name="p" unicode="p" horiz-adv-x="619" 
d="M525 1102h52v-9l-216 -511h8l67 17h89q66 0 66 -104v-26q0 -52 -29 -156l37 9h15v-18q-76 0 -112 -121q-103 -179 -103 -259l7 -26h37q84 68 252 328q15 0 15 -26q-190 -322 -282 -346h-29q-67 59 -67 173l15 95q-115 -86 -201 -86l-74 -173q23 0 23 -17v-18
q-60 0 -60 -60q-410 -1019 -578 -1257q-175 -260 -296 -260h-37q-174 0 -216 416v35q0 668 683 1066q241 95 363 95h8l207 519v9h-8q-63 -129 -141 -208l-7 9h-7q251 398 467 901zM228 261v-9h7q34 83 208 304h-22q-98 0 -163 -234zM198 131h8q200 104 200 139
q74 119 74 225l-7 35q-173 -196 -275 -399zM-1069 -1281v-78q0 -247 178 -338h66q223 0 571 884h-7l-30 -9h-22l252 650h-7q-232 0 -586 -286q-415 -420 -415 -823z" />
    <glyph glyph-name="q" unicode="q" horiz-adv-x="633" 
d="M356 615h36q66 0 80 -108h14q25 94 72 94l58 7l7 -7l-368 -823v-7h8q202 332 368 534l7 -8h7q-349 -515 -563 -902q-86 0 -86 -36q-72 -205 -72 -339q0 -181 165 -181q159 0 448 174q-239 -203 -477 -203q-180 0 -180 188v29q0 290 419 1090v7h-8q-71 -137 -238 -137
q-21 16 -43 216l7 80l-7 -7h-14l-14 14q220 325 374 325zM133 276v-8h7q145 187 288 231h8v15q0 39 -36 58h-29q-107 0 -238 -296zM89 102q9 -65 29 -65q197 123 282 325q28 59 28 101h-7q-116 -30 -274 -238q-48 -76 -58 -123z" />
    <glyph glyph-name="r" unicode="r" horiz-adv-x="595" 
d="M281 602h20l47 -47q6 20 40 20l6 -20q-51 -69 -86 -200q124 115 140 200q46 47 74 47h13l47 -13l13 13h47l40 -13q-17 -43 -33 -47h-54q-30 0 -114 -94q-87 -69 -87 -140v-54l21 -20h26q37 0 107 87q14 0 14 -20q-69 -100 -121 -100h-20q-60 0 -60 73l13 81
q-100 -114 -227 -308l-114 -47v40q221 394 221 428l-7 34q43 17 47 33v13l-13 14h-27q-106 -85 -234 -274h-7l-13 13q192 301 281 301z" />
    <glyph glyph-name="s" unicode="s" horiz-adv-x="460" 
d="M378 628l13 -19v-20q0 -37 -65 -71l-7 -45l33 -227h6l78 71h7l13 -13l-13 -19q19 0 19 -13v-7q-175 -265 -285 -265h-26q-64 0 -97 71q-104 19 -104 91q0 42 58 52h26q14 -3 26 -33l-26 -71l7 -6h13q0 34 39 58h26l25 -20q111 131 111 305q-135 -183 -156 -195l-6 7v6
l155 227v13l-233 -214h-13v13l259 266q0 51 117 58zM281 486l6 -59h6v72zM339 149l84 110h-6q-78 -60 -78 -110zM125 71v-32h39q52 42 52 58h-7z" />
    <glyph glyph-name="t" unicode="t" horiz-adv-x="572" 
d="M1084 1794h9l19 -19q-97 -50 -199 -161q-197 -263 -303 -530v-10h436l19 -18q-16 -38 -67 -38l-445 -29q-416 -827 -416 -909v-9l9 -28h57q122 80 331 369h19v-38q-267 -378 -369 -378h-28l-57 18q-142 -425 -142 -690v-76q0 -313 189 -313q340 0 710 673q48 126 48 198
v38q0 81 -57 114h-38q-32 0 -66 -29h-19v29q45 56 94 56h29q63 0 123 -227q0 -234 -388 -662q-243 -228 -379 -228h-66q-179 0 -246 285l-10 123q0 266 180 785l-19 85q29 149 142 379l-151 -190l-19 19q222 308 359 531l29 66q-43 16 -76 66l28 28h105q115 285 170 285
q47 0 104 104q196 331 351 331z" />
    <glyph glyph-name="u" unicode="u" horiz-adv-x="614" 
d="M239 692l20 -20l-26 -73h80l-207 -426l-20 -73v-13l14 -14h13q100 101 273 433q48 90 66 100q20 -4 20 -47h7q0 40 60 40h59l-212 -439l-14 -54v-33h7q97 33 253 260h13v-27q-70 -123 -259 -293h-14q-59 47 -59 200h-7q-65 -115 -180 -180q-17 -33 -53 -33q-33 0 -53 160
q0 65 93 259v7h-7q-44 -78 -93 -127l-13 14l173 253q41 126 66 126zM366 419q0 -19 -180 -299v-7q110 103 193 260v46h-13z" />
    <glyph glyph-name="v" unicode="v" horiz-adv-x="759" 
d="M693 738h7l30 -30l-37 -125l22 -37v-7q-41 -19 -81 -148l-89 -147h37q64 0 162 132l15 -14v-15q-92 -140 -184 -140h-52q-195 -188 -295 -207q-50 0 -73 185q0 96 162 391v51h-15q-73 0 -280 -310h-7l-15 15q210 340 302 340h15q61 0 74 -89l7 7h15l14 -14l-125 -325
q-37 -129 -37 -177h22q64 0 207 295q85 119 110 280zM391 133h7q138 145 155 243z" />
    <glyph glyph-name="w" unicode="w" horiz-adv-x="864" 
d="M476 623h27l13 -13l-7 -7v-7h94l-161 -341v-141l7 -47q241 131 241 395q-33 17 -33 54v13l26 27h14l7 -7h6q17 52 40 61h27q20 0 34 -67q0 -79 -134 -322h33q55 0 141 121h7l13 -14q-80 -140 -174 -140h-47q-108 -188 -221 -188q-86 58 -101 80l-13 87v34
q-147 -188 -188 -188q-107 34 -107 141q0 64 94 261l-101 -127l-13 13q183 295 241 295h81v-6l-7 -7v-7l7 -20q-168 -409 -168 -469h14q103 98 234 375q61 154 74 161zM141 241q-54 -117 -54 -147v-20h7q13 74 53 160v7h-6zM503 67v-7h13q0 14 20 14l7 6v7z" />
    <glyph glyph-name="x" unicode="x" horiz-adv-x="734" 
d="M357 608h35q65 -43 65 -171l128 150l72 21h14q64 0 64 -79q0 -38 -36 -57h-28l-50 72q-163 -146 -200 -272l57 -185h14l172 214q14 0 14 -22q-89 -156 -257 -285h-43q-78 58 -78 178h-7l-129 -164q-50 -101 -50 -164v-14q0 -71 72 -114l-8 -8h-7q-78 40 -78 150
q0 60 43 143l-50 -7h-15q-71 9 -71 71q0 56 36 72h35q20 0 43 -93h14q42 12 165 200q35 23 71 171l-14 150h-7q-99 -76 -243 -293l-7 -7h-7l-8 7h-7q201 336 286 336zM378 72v-28l14 -15h8q23 0 71 36q-35 62 -57 157q-25 0 -36 -150z" />
    <glyph glyph-name="y" unicode="y" horiz-adv-x="712" 
d="M252 600h14q71 0 71 -100v-14q0 -80 -156 -385h14q191 152 271 292h21l7 -7h7q93 188 114 200h71l7 7h8l7 -7v-7q-196 -398 -257 -570q94 75 264 292l7 -22q-21 -75 -271 -312h7q130 35 235 35h79q102 0 128 -142q0 -67 -100 -164v14q72 106 72 192q-11 57 -65 57h-78
q-298 -10 -313 -49q-338 -1504 -819 -1504q-210 0 -363 342q-29 93 -29 179v14q0 535 1090 983q45 23 106 192l15 57v21q-159 -192 -221 -192q-63 0 -93 21q0 205 100 363q0 27 50 86l14 57v28h-35q-110 -82 -249 -299h-7l-15 14q200 328 292 328zM423 301q0 -25 -235 -264
h28q88 58 171 178q43 51 43 79v7h-7zM-68 -561v-35q0 -39 28 -50h43q118 91 171 235q78 153 128 299q-370 -279 -370 -449zM-759 -1095q0 -314 299 -449l86 -7q374 0 711 1304v7h-7q-210 -442 -355 -442h-22q-65 0 -78 107q0 159 291 406h-14q-911 -427 -911 -926z" />
    <glyph glyph-name="z" unicode="z" horiz-adv-x="719" 
d="M236 700h49l32 -32v-9q0 -81 -16 -81q8 -32 48 -32h49q84 0 203 138h24l16 -33q0 -28 -251 -235l-154 -162h8q78 49 114 49h40q57 -42 57 -90l-33 -113h73l211 251l17 -16q0 -20 -171 -235h89q114 -17 114 -113v-41q0 -57 -97 -154l-8 8q81 115 81 203q0 50 -65 56h-154
q-66 -64 -106 -64h-8q-36 0 -73 48q-97 0 -97 -81q-195 -766 -389 -1094q-238 -374 -438 -374h-73q-202 0 -373 357l-25 179q0 515 1079 957l186 56v16q0 20 -65 33v32l9 8v8h-9q-71 -120 -113 -145h-8l-24 24v16q0 39 202 227q73 123 73 227v16l-24 25q-51 -43 -97 -163
h-17v17h-8q0 -23 -57 -81q-16 0 -16 24l162 259l-8 49q0 42 41 65zM333 497h-16l-32 -130l146 146zM195 157q49 -56 49 -90l81 17l-8 8v16l16 130h-16q-122 -16 -122 -81zM414 51v-16h17l24 24h-16zM-1029 -1011q0 -318 333 -454h81q440 0 802 1468v8h-8
q-877 -302 -1143 -762q-65 -153 -65 -260z" />
    <glyph glyph-name="braceleft" unicode="{" horiz-adv-x="504" 
d="M725 1792h12l12 -13l-3 -25q-2 -19 -46 -19q-1 -8 -46 -13q-88 -44 -134 -145q-47 -90 -67 -158v-7h6q94 171 207 171q1 11 96 13h31l-1 -13q-4 -38 -54 -38q-147 0 -215 -189q-145 -428 -246 -500q-83 -57 -107 -57l-1 -6q71 -114 64 -184q-8 -84 -134 -462l-5 -50
q-9 -89 142 -89q-10 -44 -23 -44h-51q-48 0 -104 26q-8 -73 101 -190l-1 -7q-157 0 -158 253l2 82l113 374q26 70 33 139l2 19q7 69 -149 95l1 6q4 44 49 44h12q2 13 -17 13l-6 6l1 6q1 13 59 26q96 42 161 158l182 550q117 228 282 228z" />
    <glyph glyph-name="bar" unicode="|" horiz-adv-x="704" 
d="M1041 1798v-108l-103 -208q-698 -1371 -742 -1526l-29 -153l-167 -43v9q0 46 307 656q444 929 657 1322z" />
    <glyph glyph-name="braceright" unicode="}" horiz-adv-x="799" 
d="M624 1796l7 6h6q101 0 143 -159q10 -27 3 -102l-3 -31q22 -36 15 -102q-30 -130 -150 -483l-3 -32q-10 -99 153 -121l-1 -6q-4 -45 -49 -45q-123 0 -209 -127q-65 -149 -190 -559q-84 -175 -214 -235l-45 -7h-45l-11 13q4 45 49 45q100 0 181 158q-96 -76 -211 -76h-51
l1 13q8 38 23 38h26q182 0 256 273q143 401 205 401q81 101 150 101l1 7q-65 0 -103 114l4 38q6 62 138 496l3 32q8 76 -113 76h-25l3 32l21 19h44q44 0 94 -19l1 6q12 124 -104 236z" />
    <glyph glyph-name="asciitilde" unicode="~" horiz-adv-x="757" 
d="M652 444h4v-47q0 -44 -91 -121q-33 -16 -57 -16q-12 0 -130 90h-13q-23 0 -82 -63h-5v5q0 23 31 73h-9q-29 -12 -96 -110h-4v53q0 48 104 126h70q11 0 121 -90h22q38 0 74 58q9 0 9 -21z" />
    <glyph glyph-name="Adieresis" unicode="&#xc4;" horiz-adv-x="1366" 
 />
    <glyph glyph-name="Aring" unicode="&#xc5;" horiz-adv-x="1366" 
 />
    <glyph glyph-name="Ccedilla" unicode="&#xc7;" horiz-adv-x="1479" 
 />
    <glyph glyph-name="Eacute" unicode="&#xc9;" horiz-adv-x="1366" 
 />
    <glyph glyph-name="Ntilde" unicode="&#xd1;" horiz-adv-x="1479" 
 />
    <glyph glyph-name="Odieresis" unicode="&#xd6;" horiz-adv-x="2118" 
d="M909 1485q-59 -244 101 -383h12l6 -4q33 -25 57 -33h29q94 94 102 215l-12 4q-22 19 -43 25q-14 -123 -100 -131q-88 71 -72 180q8 69 33 8h10q14 59 -6 107q76 141 123 -5q8 -8 12 -18h12l25 14l2 13l4 12v67l4 58l-10 4q-45 37 -96 51q-21 -27 -49 -29q-13 37 -35 54
q-15 -111 -96 -160q-64 170 63 299q-4 20 -25 16q-133 -174 -51 -364zM1485 1749l4 -12q305 -101 336 -353q-23 -215 -232 -303q-47 -34 -92 -41l16 -18q21 0 31 2q60 18 105 12q-4 -18 -21 -30q-145 -88 -295 -88q8 36 35 51l-2 20h27q47 -22 88 -12q51 55 -39 72
q22 -25 14 -52q-29 4 -51 21q-43 78 -219 59q-25 15 -45 13q84 -72 -35 -58v-14q10 -8 18 -17q-16 -14 -30 -20q-138 2 -80 41v14q-119 -12 -37 54l-12 8l-4 -8q-60 -15 -107 -5h-45q-25 -20 -51 -20q-19 -14 -33 -16l-12 -27q51 16 71 -16l-16 12q-23 -6 -43 -4l-8 4
q-33 -17 -55 -17q-9 27 16 52q-37 -11 -57 -31v-25q47 -45 116 -4h17q2 -47 88 -32l35 4q2 -64 -119 -9l-8 -18q57 -39 -9 -33l-32 8q-52 2 -84 17q-29 8 -47 14l-9 4l-28 8l-29 17q-37 14 -59 33l-9 26l17 4h20l29 -8q53 -16 94 -14v14q-51 8 -76 45q47 2 80 12
q29 27 54 39q38 107 139 133q10 21 20 31v12l8 46q-43 98 -16 188q-61 29 -96 72q-82 -37 -156 -9l-51 -4l-49 -53q-23 -149 96 -211l12 -24v-27q-30 -23 -45 -49q92 -19 101 -92l-4 -9l-17 -18q-108 -8 -155 84l-27 14l6 -8l12 -26q33 -41 45 -84h-20q-229 141 -184 348
q71 202 284 274l56 33q-97 -10 -164 -51q-125 -6 -207 -97q-41 -8 -70 -24l-8 -12q-25 -27 -39 -48v-12l-20 -92q-29 6 -17 55q-96 -71 -18 -180q43 -88 -53 12q-2 -114 96 -163q96 -62 -21 -23q82 -141 217 -100l25 -9v-12q-12 -24 -16 -45q96 -47 190 -31q12 -12 12 -28
q45 -2 72 -13v-16l-68 -2q-30 4 -55 0l-24 14h-21l-6 4h-12q-62 13 -101 13l4 -13l13 -12l14 -6l25 -16l4 -9q8 -4 8 -8q37 -18 55 -37h74q63 -8 98 13h21q12 -17 4 -31h-17h-16h-14l-33 -4l-80 -12q84 -66 184 -25q58 14 109 -4q-23 -37 -96 -29q-6 -4 -13 -4
q-61 2 -100 -6l8 -12l13 -8q53 -23 84 -46q100 64 188 13q-19 -45 4 -80l-8 -4l-25 -8q-6 -5 -12 -5l-4 -8l-8 -4l-13 -4l-59 -39v-12l8 -12q37 -39 55 -68l-8 -8q-45 -35 -67 -72q-45 23 -72 47l-25 4l-4 -8l-22 -39l-12 -28l-5 -13l-4 -8q-20 -53 -24 -90h12l8 -4h17
q39 -12 67 -12v-13l-4 -28q-6 -39 0 -68l-12 -4q-21 0 -33 -4q-37 2 -63 -8v-29l4 -6l12 -63q4 -6 4 -12q4 -7 4 -13l8 -8l9 -31q14 -14 16 -28h14l8 8l13 4q39 25 67 35q9 -23 25 -39l45 -57q-49 -39 -70 -84l9 -2l4 -9q26 -16 41 -28q61 -45 118 -60l13 27q10 45 32 72
q48 -19 93 -19v-12q0 -21 -5 -33q-2 -37 0 -63q115 -9 203 28l-10 39l-4 8q-16 29 -21 52l17 4q18 12 35 16q26 21 53 29l4 -8q4 -5 2 -9q33 -26 45 -59l16 -4q91 65 127 151h-12l-6 9q-45 24 -74 43q37 49 45 104h21l10 -4q25 -6 41 -8q20 -8 37 -8l10 28v10l4 70v12v47
q-6 16 -4 29l-10 4l-100 -17q-9 60 -33 105h12l8 6l17 4l4 8q32 11 55 25q-43 98 -117 156l-4 8q-49 -43 -72 -80q-6 4 -8 8q-49 35 -84 51q13 62 62 74v10q-8 49 0 84l-8 37q104 37 194 -25q41 39 78 58q-21 18 -45 18h-12h-39l-13 4q-20 0 -32 4q-37 2 -64 9l-4 16l12 4
q29 -2 52 4l16 -4l12 -4h21l12 -4h18q56 -12 88 -12l5 8l49 45l-4 6q-31 8 -54 8q-79 19 -139 8q-8 11 -8 21q29 6 47 12q25 -6 41 -4h16h17h14h70h30h29q47 27 68 64l-68 -5h-12l-8 -4h-13h-12h-10q-17 -6 -33 -4h-12h-51l-29 4q10 23 76 25q-4 14 -4 33q147 -35 247 55
q-28 4 -34 29h12q53 10 94 4q4 4 8 4l13 4l4 6l12 4l8 8l51 41q21 29 29 47q-37 -18 -68 -22v10l9 8l12 4l27 17q30 33 63 49q16 45 12 84q2 59 -30 -16l-9 -5q-26 -30 -57 -45l-2 25q127 129 27 248q14 -66 -21 -88q21 170 -127 205l-8 8l-21 22l-12 4l-10 9l-8 4l-8 8
q-31 10 -50 20q-22 9 -38 21h-5h5h-5l-8 4q-28 -10 -49 4l-6 2l-8 4l-8 4l-9 4l-12 4h-8l-8 5h-9l-8 4h4h-4h-8l-6 4h2h-6h4h-4l-8 4h4h-4h-17l-8 4h4h-8h4h-4l-8 4h4h-8h4h-4zM1270 1430q37 -89 118 -109q0 -21 -4 -33q-75 -18 -92 -88h29q29 35 63 21q33 -25 37 -64
l21 -20q143 -70 202 71l-12 66q43 112 21 219q-66 94 -168 96q-60 23 -113 21q-113 -64 -102 -180zM1393 1544q10 -96 -23 -176q-154 70 -4 188zM573 1518v-62q2 -53 -4 -90q-24 6 -41 18q-59 82 -18 164q41 -4 63 -30zM1585 1368q-12 -123 -131 -88v16v13v28l6 43l-4 13
l-2 125l27 26q129 -53 104 -176zM670 1513q122 -18 16 -79l-29 4q15 41 9 75h4h-4h4zM762 1329q-53 -112 -96 -84q-54 10 -33 117q26 -2 45 -8q20 20 47 22q24 -20 37 -47zM1601 1190q-43 -64 -116 -45q-60 33 16 49q57 8 96 39q39 -14 4 -43zM850 1014l-8 14q47 -2 8 -14z
M1284 1028q-8 -31 -27 -4l17 4h10zM1081 952q-30 -26 -24 13zM1325 956q-64 -41 -80 5q47 -7 80 -5zM893 930l12 8q4 -20 -12 -8zM1442 889q28 -47 -49 -21q0 15 12 21h37zM657 856v25q68 -21 0 -25zM797 821l4 21q34 -21 -4 -21zM1274 834q-13 -25 -13 4zM922 670
q-29 -45 -25 4zM1241 637q0 -39 -29 0h29zM864 616l4 17q25 -15 -4 -17zM973 578q-60 10 -4 55q12 -31 4 -55zM1165 612q6 -30 -20 -30q-21 16 -8 43zM1089 561q25 29 21 -4q22 29 18 0q17 16 25 -12q18 33 20 0l17 16q-2 -10 4 -20q-39 -11 -66 8q-49 -6 -63 33
q26 2 24 -21zM1194 565v17q33 -15 0 -17zM917 557l5 16q18 -12 -5 -16zM876 520q-61 -20 -100 -51h-39l17 20l12 5l6 8l12 4l8 6l9 4l24 8l4 8h13q22 19 47 25q6 -20 -13 -37zM960 537q-20 -134 -43 -13l27 17zM1048 461q17 24 33 -4l-12 -13h-12h-17l-123 -12q13 21 31 29
l17 4h12l63 8zM1358 393q-23 -41 -62 -45q-6 10 0 21h13q16 26 32 41l29 34q18 -30 -12 -51zM788 338l-18 -12q-21 -35 -37 -54h-29q11 23 25 33q31 51 72 80q47 -2 -13 -47zM989 344l8 12q33 -4 -8 -12zM608 326l17 22q24 -53 -17 -22zM1321 29q-60 -248 -311 -231l-17 4
q-24 6 -45 16q256 -51 352 164q64 262 -168 356l-4 10q222 -94 193 -319zM1028 344h49q-33 -6 -59 0h10zM956 330l21 12q59 -2 -21 -12zM1014 322q-219 -66 -209 -281q39 -141 160 -186q149 -43 251 55q101 113 58 244q-49 122 -164 155l-4 13q205 -78 186 -289
q-51 -174 -215 -198q-182 -11 -256 139q-86 272 180 352zM1098 305q-127 -8 -226 -72q70 72 160 84q39 -2 66 -12zM889 293q10 14 24 20q4 -16 -24 -20zM629 301q-27 -43 -35 -84q-45 -2 8 92zM833 238q21 32 43 51q5 -23 -43 -51zM1114 272l10 -12l13 -6l8 -8l12 -8l8 -13
l13 -8l8 -12q47 -31 71 -55l-4 -21q-8 -25 -8 -43l-4 -16l-4 -13l-4 -16l-4 -29l-4 -22q-7 -30 -9 -47l-8 -12l-18 -4q-37 -21 -74 -25q-14 -10 -31 -12q-47 -23 -84 -27l-12 11l-8 8l-12 12l-13 8l-47 41l-20 23q-33 20 -51 38l8 33l4 20l4 13v12l4 10v12l2 17l21 100l12 4
l12 4l8 4l25 9l6 4h12q35 16 70 18l18 -63h13q12 49 45 80zM864 217l-4 -8l-22 -72q-31 23 26 92q4 -6 0 -12zM590 209q-21 -23 -25 4zM1456 117q-47 -23 -27 20l21 -8q24 21 55 21q68 -17 -49 -33zM582 4q-78 23 67 33q82 -19 -67 -33zM1350 -2q-111 -286 -406 -215
q0 11 4 23l8 -23q11 7 13 15q254 -33 348 180h16q-10 12 -8 22zM1261 -61l5 8q14 27 18 47q8 -37 -23 -55zM1208 -81l-8 -5l-6 -4l-8 -4q-84 -47 -160 -51q-21 2 6 12h12l29 11l12 4q31 12 52 16q6 6 12 4l49 21zM1200 -133q-6 4 0 11q8 -4 0 -11zM1157 -149q14 -14 -8 -4z
M1149 -161q-72 -27 -135 -17l-17 4q78 -8 140 17zM780 -245q-22 -29 -47 -41q-37 -4 0 33l8 8l8 4q15 20 27 31q41 -9 4 -35z" />
  </font>
</defs>
</svg>
