<svg id="Slider" xmlns="http://www.w3.org/2000/svg" viewBox="0 0 325 267"><style>.st0{fill-rule:evenodd;clip-rule:evenodd;fill:#666666;} .st1{fill-rule:evenodd;clip-rule:evenodd;fill:#848484;} .st2{fill-rule:evenodd;clip-rule:evenodd;fill:#A5A5A5;} .st3{fill-rule:evenodd;clip-rule:evenodd;fill:#FFFFFF;} .st4{fill-rule:evenodd;clip-rule:evenodd;fill:#F1F1F1;} .st5{fill:#FFFFFF;} .st6{fill-rule:evenodd;clip-rule:evenodd;fill:#9FA3AC;} .st7{fill-rule:evenodd;clip-rule:evenodd;fill:#8EC63F;} .st8{fill-rule:evenodd;clip-rule:evenodd;fill:#D4CBBA;} .st9{fill-rule:evenodd;clip-rule:evenodd;fill:#454D5E;} .st10{fill-rule:evenodd;clip-rule:evenodd;fill:#F6F6F6;} .st11{fill-rule:evenodd;clip-rule:evenodd;fill:#8D1F15;} .st12{fill-rule:evenodd;clip-rule:evenodd;fill:#F7F7F7;}</style><g id="Visualisation"><path id="XMLID_888_" class="st0" d="M298.6 216c-.1 5.8-5.3 8.4-14.9 8.4h-233c-9.7 0-14.6-3.1-14.8-8.5v-8.5c-.1-1.6.3-3.4 1-5.3L88.6 63.9c1.1-3.1.9-5.4 5.6-5.4h145.9c4.8 0 5.3 4.3 6 6.3l51.4 137.4c.8 2.1 1.1 3.9 1.1 5.4v8.4z"/><path id="XMLID_887_" class="st1" d="M94.2 58.4h145.9c4.8 0 5.3 4.3 6 6.3l51.4 137.4c3.6 9.5-1.6 13.8-13.8 13.8h-233c-12.6 0-17-5.3-13.8-13.8L88.6 63.9c1.1-3.1.9-5.5 5.6-5.5z"/><path id="XMLID_886_" class="st2" d="M94.2 58.4h133.2L47.5 173.7 88.6 63.9c1.1-3.1.9-5.5 5.6-5.5z"/><path id="XMLID_885_" class="st3" d="M101.7 63.3h131.5l40.6 130H60.6z"/><path id="XMLID_884_" class="st1" d="M102.2 64h130.5l40.1 128.6H61.6z"/><g id="XMLID_893_"><path id="XMLID_883_" class="st3" d="M102.2 64h130.5l40.1 128.6H61.6z"/><path id="XMLID_882_" class="st4" d="M102.2 64h130.5l40.1 128.6H61.6z"/><path id="XMLID_881_" class="st3" d="M236.7 76.9c-1.1 5.5-2.3 10.9-3.7 16.4-2.7 10.1-6.2 20.2-10 30.2 2.1.6 4.3 1.2 6.4 1.8 3.7-10.4 7.2-20.7 9.7-31.1.4-1.8.9-3.7 1.3-5.5l-3.7-11.8z"/><path id="XMLID_880_" class="st5" d="M234.4 120.6c3.4 6.6 10 18.4 25.7 31.1l2.8 8.9c-2.9-1.9-5.6-3.9-8.1-5.8-16.8-13.7-23.6-26.3-27-33.3 2.1-.3 4.3-.6 6.6-.9z"/><path id="XMLID_879_" class="st3" d="M245.2 104.2c-13.3 9.8-27.9 19.6-44.1 28.7-37.1 21-80.9 39.8-129.3 59.7H85c45.4-18.9 86.6-36.8 121.8-56.7 14.6-8.3 27.9-17 40.1-25.8l-1.7-5.9z"/><path id="XMLID_878_" class="st3" d="M243.7 192.6c-4.4-21.5-8.9-43-13.3-64.5-4.4-21.3-8.7-42.7-13.1-64.1h-5.1c3.9 21.4 7.7 42.7 11.5 64.1l11.7 64.5h8.3z"/><path id="XMLID_877_" class="st3" d="M249.9 119.1H84.8l-1.4 4.6H251.3z"/><path id="XMLID_876_" class="st3" d="M223.2 108c10.1 0 19.9 6 21.9 13.4s-5.4 13.4-16.6 13.4c-11.2 0-21-6-21.9-13.4-.9-7.4 6.5-13.4 16.6-13.4z"/><path id="XMLID_875_" class="st6" d="M224.1 112.4c6.9 0 13.5 4.1 14.7 9.1 1.2 5-3.8 9.1-11.2 9.1-7.4 0-14-4.1-14.8-9.1-.7-5.1 4.3-9.1 11.3-9.1z"/><path id="XMLID_874_" class="st3" d="M186.7 146.9l3.8-3.8c-13.6-3.9-27-7.7-39.9-11.6-12.6-3.8-24.7-7.7-36.5-11.6-1.5 1.3-3 2.5-4.5 3.8 11.9 3.9 24.2 7.8 36.9 11.6 13 3.9 26.4 7.7 40.2 11.6z"/><path id="XMLID_873_" class="st3" d="M73.7 154.4c13.8-3.4 27.2-6.9 40.4-10.3-.6-1.4-1.1-2.8-1.7-4.2-12.1 3.2-24.5 6.4-37.1 9.6l-1.6 4.9z"/><path id="XMLID_872_" class="st3" d="M103.5 184.9c2-1.1 4.3-2.1 6.6-3.3-13.7-5.5-27-11-39.8-16.5l-1.7 5.4c11.6 5 22.4 9.4 34.9 14.4z"/><path id="XMLID_871_" class="st3" d="M71.3 166.5c.5 1.4 1 2.8 1.6 4.2 16.3-4.4 32.2-8.7 47.8-13.1-.7-1.4-1.4-2.8-2-4.2-15.4 4.4-31.2 8.8-47.4 13.1z"/><path id="XMLID_870_" class="st3" d="M80.1 134.1c5.5-.7 10.9-1.5 16.3-2.2l.6-4.5c-5.1.7-10.2 1.4-15.4 2.1l-1.5 4.6z"/><path id="XMLID_869_" class="st3" d="M85.7 118.6c.3 1.4.7 2.8 1 4.2 9.6-6 18.9-11.9 27.8-18 8.6-5.9 16.7-12 24.6-18-.5-1.4-1-2.8-1.4-4.2-7.8 6-15.9 12.1-24.4 18-8.8 6.1-18.1 12-27.6 18z"/><path id="XMLID_868_" class="st3" d="M113.3 104.4c1.8-1.3 3.5-2.7 5.3-4-9-1.5-17.8-2.9-26.5-4.4l-1.5 4.7c7.5 1.3 15 2.5 22.7 3.7z"/><path id="XMLID_867_" class="st3" d="M97.9 77.6c5.5-4.5 10.9-9.1 16.1-13.6h-5.4c-2.9 2.4-5.7 4.9-8.7 7.3l-2 6.3z"/><path id="XMLID_866_" class="st3" d="M96 115.4c1.9-1.3 3.8-2.7 5.7-4-4.6-.8-9.1-1.6-13.7-2.3l-1.5 4.8c3.2.4 6.3.9 9.5 1.5z"/><path id="XMLID_865_" class="st3" d="M154.2 87.4c1.5.7 3.1 1.4 4.6 2.1 9.9-8.5 19-17 27.5-25.5h-6.4c-8 7.8-16.5 15.6-25.7 23.4z"/><path id="XMLID_864_" class="st3" d="M158.1 103.7c-.1-1.7-.1-3.4-.1-5.1h-42.4c-2.5 1.7-5.2 3.4-7.7 5.1h50.2z"/><path id="XMLID_863_" class="st3" d="M224 105c-.1-1.7-.2-3.4-.3-5.2-11.6-.2-23.1-.5-34.6-.7-11.5-.2-23-.5-34.5-.7-.4 1.7-.8 3.4-1.1 5.2 11.7.2 23.4.5 35.1.7 11.8.3 23.6.5 35.4.7z"/><path id="XMLID_862_" class="st3" d="M168.8 122.3l7.2-.9-.3-19.1c-2.3.5-4.5 1-6.7 1.5-.1 6.2-.2 12.4-.2 18.5z"/><path id="XMLID_861_" class="st3" d="M192.1 121.8c2.4-.3 4.7-.6 7.1-.9-.7-6.4-1.4-12.7-2-19.1l-6.6 1.5c.5 6.2.9 12.3 1.5 18.5z"/><path id="XMLID_860_" class="st3" d="M170.5 77.3c1.4-1.3 2.7-2.7 3.9-4-10.9-1.6-21.5-3.1-32.1-4.7-10.2-1.5-20.2-3.1-30.1-4.6h-.6c-1.6 1.3-3.2 2.6-4.9 3.9 10.2 1.6 20.7 3.2 31.2 4.7 10.7 1.6 21.5 3.2 32.6 4.7z"/><path id="XMLID_859_" class="st3" d="M148.1 70.8c1.8.6 3.6 1.2 5.4 1.7 2.2-2.8 4.2-5.7 6.3-8.6h-6.5c-1.7 2.4-3.4 4.7-5.2 6.9z"/><path id="XMLID_858_" class="st3" d="M236.6 166.6c-.4-1.5-.9-3-1.3-4.6-25.8-2.2-51.1-4.4-76.1-6.6 0 1.5 0 3 .1 4.6 25.4 2.2 51.1 4.4 77.3 6.6z"/><path id="XMLID_857_" class="st3" d="M240.8 184c-.4-1.5-.8-3-1.2-4.6-19.2-1.4-38.1-2.9-56.9-4.3-18.6-1.4-37-2.9-55.3-4.3-.1 1.5-.3 3.1-.4 4.6 18.5 1.4 37.3 2.9 56.1 4.3 19.1 1.4 38.3 2.8 57.7 4.3z"/><path id="XMLID_856_" class="st3" d="M148 176.1c3.3.6 6.6 1.1 9.9 1.7 10.5-5.4 20.7-10.8 30.5-16.2-3.2-.6-6.4-1.1-9.5-1.7-10 5.4-20.2 10.8-30.9 16.2z"/><path id="XMLID_855_" class="st3" d="M120.2 152.5c.7 1.4 1.4 2.8 2 4.2 14.7-5.9 28.8-11.9 42.3-17.8l-2.4-4.2c-13.4 5.9-27.4 11.9-41.9 17.8z"/><path id="XMLID_854_" class="st3" d="M258.4 155.6c1.1.3 2.1.6 3.2.9l-1.2-3.9c-.7 1-1.4 2-2 3z"/><path id="XMLID_853_" class="st3" d="M260.9 154.5l-5.6.3c2.5 6.4 5 12.8 7.6 19.1 2.5 6.2 5.1 12.4 7.7 18.6h2.1l-11.8-38z"/><path id="XMLID_849_" class="st3" d="M268.9 180.2c-10.4.2-20.9.5-31.4.7.4 1.5.8 3 1.2 4.6 10.5-.2 21.1-.4 31.6-.7l-1.4-4.6z"/><path id="XMLID_848_" class="st3" d="M260.3 152.6c-9.2 3-18.6 6-28.2 9l1.5 6.3c9.8-3 19.3-5.9 28.7-8.9l-2-6.4z"/><path id="XMLID_847_" class="st3" d="M150.3 192.6c3-5.1 5.9-10.1 8.7-15.2-2.6-.6-5.2-1.3-7.7-2-3.3 5.7-6.8 11.4-10.4 17.2h9.4z"/><path id="XMLID_846_" class="st3" d="M232.1 147.2c.3-1.7.6-3.3.9-5h-49.7c-.3 1.7-.6 3.4-.9 5h49.7z"/><path id="XMLID_844_" class="st3" d="M234.1 94.6c.5 1.7 1.1 3.4 1.6 5.1l8-.3-1.5-4.8h-8.1z"/><path id="XMLID_843_" class="st6" d="M159.7 160c4.8.4 11.6 1 16.4 1.4-6.7 3.6-16.1 8.4-23.1 12-6.2-.6-11.8-1.4-18.2-2.1 8.5-3.5 16.7-7.7 24.9-11.3z"/><path id="XMLID_842_" class="st6" d="M116.1 103.7c-7.6 5.2-15.4 10.3-23.5 15.5h76.1c0-5 0-10.1.1-15.1-17.5-.2-35.1-.3-52.7-.4z"/><path id="XMLID_839_" class="st7" d="M77.9 141c2.5 2 5.1 4 7.7 6 7.1-1.9 14.1-3.8 21.1-5.7-3.6-3.1-7-6.3-10.4-9.5-5.4.7-10.9 1.5-16.3 2.2l-2.1 7z"/><path id="XMLID_838_" class="st4" d="M175.7 104.1c0 5 .2 10 .3 15h15.8c-.4-4.9-.8-9.8-1.1-14.7-5.1-.1-10-.2-15-.3z"/><path id="XMLID_837_" class="st4" d="M132.6 86.4c-2.8 2.2-5.7 4.3-8.6 6.5-9.9-1.6-19.7-3.3-29.4-4.9l2.4-7.6c11.7 2 23.5 4 35.6 6z"/><path id="XMLID_836_" class="st8" d="M68.5 170.7c1.3.5 2.6 1.1 3.8 1.6-1.7.7-3.3 1.3-5 2l1.2-3.6z"/><path id="XMLID_835_" class="st4" d="M162.3 86.6c4.4-3.8 8.7-7.6 12.8-11.4 13.2 2.1 26.6 4.3 40.3 6.4.9 4.5 1.7 9.1 2.5 13.6-19-2.9-37.5-5.7-55.6-8.6z"/><path id="XMLID_831_" class="st3" d="M94.2 97.4c-.8-.1-1.6-.3-2.5-.4l-1 3.2c1.2-.9 2.4-1.8 3.5-2.8z"/><path id="XMLID_830_" class="st4" d="M218.6 99.8l-41-.6-40.8-.6c7.7-2.6 15.3-5.2 22.7-7.8 19.2 3 38.9 6 59.1 9z"/><path id="XMLID_829_" class="st3" d="M86.9 112.4c2-2.3 4.1-4.5 6.3-6.7 8.3-8.3 17.8-15.9 29.4-22.4 9.6-5.7 23.1-12.7 36.4-19.3h45.6c-7 3.8-11.4 6.4-18.1 9.4-15.2 6.8-29.6 16-41.6 26.9-12.6 11.4-22.4 24.5-25.4 39.7-1.9 9.9-5.4 19.6-10.4 29-4.3 8-9.9 15.9-16.6 23.6H61.6l25.3-80.2z"/><path id="XMLID_828_" class="st9" d="M83.6 192.6c6.5-7.2 12.3-14.7 16.9-22.7 5.5-9.4 9.5-19.5 11.9-30 4.7-21 19.2-36.4 35.9-49.1 15.1-11.4 32-20.1 47.7-26.8h-30.1c-15.6 6.9-31.5 15.7-46.2 26.4-14.6 10.5-28 22.8-37.8 38.2l-15.3 48.3c5.8-5.8 11.1-12 15.6-18.4-2.5 7.2-5.9 14.1-10.1 20.4-3 4.7-6.6 9.1-10.4 13.4l-.1.3h22z"/><path id="XMLID_827_" class="st5" d="M84.7 119.4c6.1 2.5 15.7 6.8 24.2 14.6 5 4.3 9.8 9.8 13.6 16.5 3.9 6.8 6.9 14.9 7.9 24.6-2.8.2-5.7.5-8.4.7-.7-9.1-3.4-16.7-6.9-23.1-3.5-6.3-7.8-11.4-12.5-15.4-6.6-6.1-14.1-9.9-19.7-12.4l1.8-5.5z"/><path id="XMLID_826_" class="st3" d="M221.7 100.2c-.2-1.5-.5-3-.7-4.6-28.6-4.3-56.2-8.6-82.6-13-13.6-2.3-26.9-4.6-39.9-6.9L97 80.4c13.2 2.3 26.7 4.6 40.5 6.9 27.1 4.4 55.2 8.6 84.2 12.9z"/></g><path id="XMLID_825_" class="st10" d="M167.2 205.4c4.3 0 7.8-2.1 7.8-4.6 0-2.5-3.5-4.6-7.8-4.6s-7.8 2.1-7.8 4.6c0 2.5 3.5 4.6 7.8 4.6z"/><path id="XMLID_823_" class="st11" d="M167.2 39c-14.7 0-26.6 11.9-26.6 26.6 0 3.1.8 7.4 2 10.2l24.6 49.5 24.7-49.8c1.1-2.5 1.9-6.8 1.9-9.9 0-14.7-11.9-26.6-26.6-26.6z"/><path id="XMLID_821_" class="st12" d="M167.2 83.1c9.6 0 17.5-7.9 17.5-17.5s-7.9-17.5-17.5-17.5-17.5 7.9-17.5 17.5 7.9 17.5 17.5 17.5z"/></g></svg>