<?xml version="1.0" standalone="no"?>
<!DOCTYPE svg PUBLIC "-//W3C//DTD SVG 1.1//EN" "http://www.w3.org/Graphics/SVG/1.1/DTD/svg11.dtd" >
<svg xmlns="http://www.w3.org/2000/svg" xmlns:xlink="http://www.w3.org/1999/xlink" version="1.1">
<metadata>
Created by FontForge 20161003 at Wed Dec 27 06:59:20 2017
 By www-data
RikyFonts (c) created by Riky Predator.All Rights Reserved...   mailto: riky@alcoy.com
</metadata>
<defs>
<font id="carolina_bigfoot" horiz-adv-x="684" >
  <font-face 
    font-family="carolina_bigfoot"
    font-weight="400"
    font-stretch="normal"
    units-per-em="1000"
    panose-1="0 0 0 0 0 0 0 0 0 0"
    ascent="800"
    descent="-200"
    x-height="269"
    cap-height="580"
    bbox="-164 -382 1243 793"
    underline-thickness="20"
    underline-position="-163"
    unicode-range="U+0020-2122"
  />
<missing-glyph horiz-adv-x="500" 
d="M63 0v793h375v-793h-375zM125 63h250v668h-250v-668z" />
    <glyph glyph-name=".notdef" horiz-adv-x="500" 
d="M63 0v793h375v-793h-375zM125 63h250v668h-250v-668z" />
    <glyph glyph-name=".null" horiz-adv-x="0" 
 />
    <glyph glyph-name="nonmarkingreturn" horiz-adv-x="200" 
 />
    <glyph glyph-name="space" unicode=" " horiz-adv-x="200" 
 />
    <glyph glyph-name="exclam" unicode="!" horiz-adv-x="162" 
d="M117 585v-405l-82 -45v395zM35 75l82 55v-85l-82 -45v75z" />
    <glyph glyph-name="quotedbl" unicode="&#x22;" horiz-adv-x="196" 
d="M104 542q2 3 3 4q17 22 38 26q5 -4 5 -6l3 -41q3 -41 -31 -98l-8 57q-3 21 -10 58zM16 542q2 3 3 4q17 22 38 26q5 -4 5 -6l3 -41q3 -41 -31 -98l-8 57q-3 21 -10 58z" />
    <glyph glyph-name="numbersign" unicode="#" horiz-adv-x="843" 
d="M268 296q-21 -15 -27 -74q-10 -98 42 -152q16 -18 35 -13q45 10 46 60q0 39 -13 102q-12 59 -47 78q-12 7 -24 5q-7 -2 -12 -6zM235 223q8 77 44 84q28 6 52 -27t35 -118q4 -32 4 -45q-1 -55 -51 -66q-38 -8 -73 69q-18 38 -11 103zM659 223q10 -102 -44 -157
q-19 -20 -41 -15q-50 11 -50 66q0 40 13.5 103t49.5 82q14 8 28 5q36 -7 44 -84zM653 222q-6 59 -27 74q-6 4 -12 6q-25 4 -47.5 -27t-33.5 -114q-4 -32 -4 -44q1 -49 47 -60q34 -8 67 65q16 37 10 100zM208 517q-36 0 -58 -44q-18 -35 -18 -76q0 -40 18 -71q21 -37 58 -37
q40 0 72 41q30 38 30 78q0 35 -23 78q-17 31 -79 31zM208 522q66 0 84 -33q23 -45 23 -81q0 -43 -32 -83.5t-75 -40.5q-40 0 -62 38q-20 32 -20 75q0 44 20 80q23 45 62 45zM685 522q40 0 63 -45q19 -36 19 -80q0 -43 -19 -75q-23 -38 -63 -38q-42 0 -74.5 40.5t-32.5 83.5
q0 36 24 81q18 33 83 33zM685 517q-62 0 -78 -31q-24 -43 -24 -78q0 -40 31 -78q31 -41 71 -41q32 0 54 30.5t22 77.5q0 41 -17 76q-22 44 -59 44zM107 478q-3 0 -7 -5.5t-4 -11.5q0 -11 11 -11q9 0 9 18q0 4 -3 7t-6 3zM107 484q5 0 9.5 -5t4.5 -11q0 -9 -4.5 -16t-9.5 -7
q-17 0 -17 16q0 6 6 14.5t11 8.5zM787 484q6 0 11 -8t5 -15q0 -5 -5.5 -10.5t-10.5 -5.5q-6 0 -10.5 7t-4.5 16q0 16 15 16zM787 478q-4 0 -6.5 -3t-2.5 -7q0 -18 9 -18q3 0 6.5 3.5t3.5 7.5q0 17 -10 17zM111 513q-5 0 -5 -13v0v-1q0 -5 7 -9.5t12 -4.5q4 0 4 11v0v1
q0 4 -5 10q-8 6 -13 6zM101 500q0 19 10 19q7 0 15.5 -7.5t8.5 -14.5v-1v0q0 -17 -10 -17q-8 0 -16 6.5t-8 13.5v1v0zM783 519q10 0 10 -19v0v-1q0 -7 -8.5 -13.5t-15.5 -6.5q-11 0 -11 17v0v1q0 7 8.5 14.5t16.5 7.5zM788 500q0 13 -5 13q-6 0 -12.5 -5.5t-6.5 -10.5v-1v0
q0 -11 5 -11t12 4.5t7 9.5v1v0zM129 544q-15 0 -15 -15q0 -5 7.5 -11.5t13.5 -6.5q13 0 13 17q0 16 -19 16zM129 550q9 0 17 -7t8 -15q0 -23 -19 -23q-9 0 -17.5 7.5t-8.5 16.5q0 21 20 21zM764 550q21 0 21 -21q0 -9 -8.5 -16.5t-17.5 -7.5q-19 0 -19 23q0 8 8 15t16 7z
M764 544q-18 0 -18 -16q0 -17 13 -17q5 0 12.5 6.5t7.5 11.5q0 15 -15 15zM155 583q-16 0 -16 -21q0 -20 21 -20q12 0 12 20q0 21 -17 21zM155 588q9 0 16 -8.5t7 -17.5q0 -25 -18 -25q-26 0 -26 25q0 26 21 26zM739 588q21 0 21 -26q0 -25 -27 -25q-18 0 -18 25q0 26 24 26
zM739 583q-18 0 -18 -21q0 -20 12 -20q21 0 21 20q0 21 -15 21zM220 555q24 0 24 28q0 13 -14 22.5t-28 9.5q-20 0 -20 -33q0 -27 38 -27zM220 549q-44 0 -44 33q0 39 26 39q16 0 32 -11.5t16 -26.5q0 -34 -30 -34zM673 549q-29 0 -29 34q0 15 15.5 26.5t31.5 11.5
q12 0 19 -10.5t7 -28.5q0 -33 -44 -33zM673 555q39 0 39 27q0 33 -21 33q-13 0 -27.5 -9.5t-14.5 -22.5q0 -28 24 -28z" />
    <glyph glyph-name="dollar" unicode="$" horiz-adv-x="526" 
d="M251 279q-84 18 -125 41q-65 37 -65 103v12q7 79 68 104q49 21 122 35v25l13 7q10 5 17 6l14 3l11 5v-46l64 -3q49 -2 131 -35l-105 -45q-23 54 -90 65v-193q84 -24 124 -57q56 -44 56 -118q0 -15 -3 -32l-5 -28q-11 -69 -172 -125v-31q0 -8 -7 -12l-20 -7l-21 -13l-7 2
v61l-9 -1l-16 -1q-35 -2 -92 15q-50 15 -109 60l97 53q24 -62 60.5 -81.5t68.5 -26.5v258zM251 555q-38 -5 -73 -22q-40 -20 -36 -82l2 -33q3 -22 44 -30l63 -13v180zM306 21q55 19 79 42q31 30 31 81q0 46 -34 76q-23 20 -76 44v-243z" />
    <glyph glyph-name="percent" unicode="%" horiz-adv-x="460" 
d="M11 503q13 36 64 60q44 20 87 20q56 0 65 -23q6 -15 8 -31q0 -30 -33 -61q-27 -24 -58.5 -36.5t-52.5 -12.5q-33 0 -56 15q-28 17 -28 48q0 13 4 21zM62 504q0 -28 25.5 -44t53.5 -16q24 0 36 26q6 14 6 30q0 26 -19 46.5t-45 20.5q-25 0 -41 -19t-16 -44zM46 -4l268 536
q1 3 18 17l30 19l25 8l8 -2l-268 -536q-2 -3 -3 -4q-15 -20 -40 -29l-25 -9h-13zM207 89q13 36 64 59q45 21 88 21q56 0 65 -22l8 -29q0 -31 -33 -62q-27 -27 -61 -40q-28 -11 -51 -11q-31 0 -56 16q-28 18 -28 47q0 13 4 21zM258 90q0 -28 25.5 -44t53.5 -16q24 0 36 26
q6 14 6 30q0 26 -19 46.5t-45 20.5q-25 0 -41 -19t-16 -44z" />
    <glyph glyph-name="ampersand" unicode="&#x26;" horiz-adv-x="803" 
d="M256 143l-64 179q-2 6 -8 10l-13 8v3q1 6 2 8q3 28 7 57q2 -1 6 -12l5 -15q6 18 23 50q9 15 22 12q10 -3 30 -35l5 -11q14 -27 13 -60q-1 -25 -6 -25q34 1 53 -52q8 -25 11 -52q3 -34 -6 -62q-7 -19 -18 -24q-14 -8 -35 0q-22 7 -27 21zM331 304l-18 34q-1 3 -3 3h-1h-1
q-1 -1 -2 -1l-1 -1q0 1 1 5q0 -1 1.5 4.5t3.5 6.5t3 -1l21 -39zM344 317l-4 5q-2 2 -3 5q-7 25 28 37q7 2 12 2t13 -1l-6 -9q-3 1 -8 2h-3.5h-3.5q-19 0 -23 -8.5t-2 -14.5q4 -16 25 -17q8 0 14 3q1 0 3.5 2t2.5 4l-2 9l7 7l5 -19q3 -7 -8 -20q2 4 2 9q-1 6 -2 9v1l-1 1
q-5 -9 -15 -11.5t-17 -0.5q-8 0 -14 5zM417 301l-6 57q0 3 -2 4t-5 1h-1h-1l8 7q4 4 7 5q1 -1 2 -4v-4l6 3q6 2 11.5 4t12.5 3q15 0 22 -4l-10 -6q-8 3 -11.5 3.5t-11.5 0.5q-7 -1 -11.5 -3t-7.5 -4l3 -32l49 4l-10 -5l-38 -4l1 -18zM472 340q-1 4 0 9q1 12 13 19.5t24 5.5
q21 -4 19 -24q-3 -25 -27 -26q-4 -2 -10 -1q-6 0 -9 2t-6 7.5t-4 7.5zM516 333q2 4 3 9q1 18 -11 25q-5 3 -9 4q-15 1 -18 -20q-1 -8 5.5 -15.5t14.5 -7.5q9 -2 15 5zM531 332q0 1 1 8q6 14 22 18q9 2 20 -1l8 -4q3 -3 6 -9q6 -14 -8 -26q-9 -8 -24 -8q-11 0 -19 6
q-3 2 -4.5 7t-1.5 9zM565 313q8 0 12 11q2 7 1 15q-3 13 -15 17q-15 5 -21 -15q-1 -3 -1 -7q0 -5 3 -10q9 -16 21 -11zM682 384q-34 -11 -52 -42.5t-18 -70.5q0 -48 13 -71q7 -11 16 -16q24 -12 58 24q-45 -66 -82 -48q-19 9 -27.5 37t-5.5 56q15 110 92 139l-12 10l-13 8
q-11 6 -22 8q-10 1 -24 -2l9 10q10 9 25 16q14 6 26 0t23 -19t21 -25q8 -7 12 -9q9 -5 18 -5q3 -1 11 -1q7 0 15 2q-25 -29 -44 -26q-8 1 -18 3q-5 2 -12 10zM199 359l30 -85l18 18q6 5 17 14q9 4 10 18q1 32 -23 61q-10 10 -21 11q-25 5 -32 -16q-4 -7 1 -21zM236 256
l26 -72q6 -16 28 -24.5t36 -0.5q8 4 10 12t0 20l-6 20q-9 29 -32 51q-28 27 -54 13q-12 -6 -8 -19z" />
    <glyph glyph-name="quotesingle" unicode="'" horiz-adv-x="1000" 
 />
    <glyph glyph-name="parenleft" unicode="(" horiz-adv-x="230" 
d="M152 -136l76 52q-48 91 -67 176t-19 177q0 168 63 302q24 51 28 52q-83 -46 -123.5 -161t-40.5 -257q0 -92 17 -178q22 -115 66 -163z" />
    <glyph glyph-name="parenright" unicode=")" horiz-adv-x="200" 
d="M11 -143l26 53q46 93 60 211q5 41 5 90q0 188 -86 353l76 52q37 -42 60 -135.5t23 -206.5q0 -132 -31 -232q-42 -134 -133 -185z" />
    <glyph glyph-name="asterisk" unicode="*" horiz-adv-x="226" 
d="M125 439l56 -56l-9 -9l-52 52v-62l-12 -12v74l-52 -52l-9 9l56 56l-56 56l9 9l52 -52v62l12 12v-74l52 52l9 -9z" />
    <glyph glyph-name="plus" unicode="+" horiz-adv-x="411" 
d="M174 211h-174l110 55h64v108l32 20v-128h174l-110 -55h-64v-110l-32 -18v128z" />
    <glyph glyph-name="comma" unicode="," horiz-adv-x="115" 
d="M38 24q2 3 3 4q16 21 37 25q6 -4 7 -8l2 -19q0 -66 -73 -115l17 43q9 23 9 51z" />
    <glyph glyph-name="hyphen" unicode="-" horiz-adv-x="462" 
d="M142 190h270l-110 -55h-270z" />
    <glyph glyph-name="hyphen" unicode="&#x2010;" horiz-adv-x="462" 
d="M142 190h270l-110 -55h-270z" />
    <glyph glyph-name="period" unicode="." horiz-adv-x="125" 
d="M15 34l64 20l36 -55l-46 -13l-25 -6q-11 6 -15.5 25.5t-13.5 28.5z" />
    <glyph glyph-name="slash" unicode="/" horiz-adv-x="312" 
d="M12 0l228 576h56l-228 -576h-56z" />
    <glyph glyph-name="zero" unicode="0" horiz-adv-x="602" 
d="M164 540q79 49 156 49q113 0 188 -93q70 -88 70 -203q0 -33 -6 -65q-23 -123 -128 -187q-80 -50 -169 -50q-66 0 -121 27q-59 29 -90 83.5t-45 98.5q-13 40 -13 87q0 155 158 253zM472 100q25 49 25 119q0 90 -37 169q-42 91 -115.5 121t-123.5 30q-79 0 -106 -86
q-15 -48 -15 -151q0 -105 69 -187q73 -86 176 -86q91 0 127 71z" />
    <glyph glyph-name="one" unicode="1" horiz-adv-x="227" 
d="M64 -18v510q0 10 -14 12l-21 3h-13l-8 -1l61 40q38 25 66 25q29 0 29 -39v-496z" />
    <glyph glyph-name="two" unicode="2" horiz-adv-x="535" 
d="M-4 28q8 0 100 58q244 154 244 314q0 52 -41 95.5t-92 43.5q-66 0 -75 -83l-96 -48q24 74 101.5 121.5t157.5 47.5q92 0 119 -58q13 -29 13 -59q0 -69 -54 -147q-21 -31 -90 -108q-80 -89 -95 -89q76 -52 156 -52q58 0 98 18q34 15 67 38q-142 -127 -227 -127
q-28 0 -93.5 24t-103.5 24t-89 -13z" />
    <glyph glyph-name="three" unicode="3" horiz-adv-x="512" 
d="M16 0q92 72 204 72q25 0 70 -17q50 -19 69 -21q56 0 56 56q0 80 -60 141t-139 61q59 36 86 63q43 44 43 94q0 77 -89 77q-56 0 -99 -15l-89 -31q47 46 116 72q74 28 130 28q126 0 126 -100q0 -62 -47 -91l-79 -49q138 -14 166 -99q18 -55 18 -85q0 -56 -42 -102t-98 -55
l-66 -10q-30 0 -91 19.5t-88 19.5q-22 0 -49 -7q-21 -6 -48 -21z" />
    <glyph glyph-name="four" unicode="4" horiz-adv-x="632" 
d="M12 180l6 6q63 70 101 148q31 63 31 127q0 44 -14 79l92 44l14 -57l4 -52q7 -90 -44 -154q-45 -56 -90 -89h268v320l100 36v-356h128l-72 -52h-56v-152l-100 -60v212h-368z" />
    <glyph glyph-name="five" unicode="5" horiz-adv-x="560" 
d="M36 264v256q0 15 46 43q22 13 46 13h396l-100 -60h-288v-188q113 58 207 58q66 0 112 -31q48 -34 57 -78l11 -54q0 -91 -139 -158q-117 -57 -219 -57q-90 0 -145 44l88 52q61 -46 156 -46q63 0 110 23q60 29 60 85q0 37 -22 75.5t-53 59.5q-46 30 -109 30q-99 0 -214 -67
z" />
    <glyph glyph-name="six" unicode="6" horiz-adv-x="545" 
d="M20 188q6 136 111 228q59 52 153 100q107 56 172 56q-174 -78 -247.5 -132t-87.5 -141l-15 -95q0 -68 65 -117q59 -44 130 -44q56 0 86.5 32.5t30.5 88.5q0 134 -95 134q-37 0 -69 -22q-36 -24 -36 -60q-7 -5 -19 -13t-24 -14l-35 -19q16 68 102 121q79 49 154 49
q112 0 112 -114q0 -106 -86 -168t-194 -62q-88 0 -148 45q-65 48 -61 126z" />
    <glyph glyph-name="seven" unicode="7" horiz-adv-x="540" 
d="M20 425v103l15 14l24 16l26 10l23 4h420l-51 -62q-103 -126 -144 -216q-28 -63 -42 -134l-27 -140l-100 -54q32 213 84 320q47 98 184 232h-312v-42z" />
    <glyph glyph-name="eight" unicode="8" horiz-adv-x="474" 
d="M7 130q0 63 49 106q33 29 107 60l-77 68q-42 37 -42 84q0 70 67 104q42 21 97 21q47 0 94 -16q59 -21 71 -57q10 -30 10 -45q0 -43 -46 -80q-18 -14 -83 -51q78 -39 113 -67q63 -50 63 -106q0 -79 -74 -124q-62 -37 -147 -37q-77 0 -133 31q-69 38 -69 109zM137 546
l-8 -27l-3 -27q0 -89 114 -158q63 41 63 94v16l-10 31q-9 27 -56 54t-78 27q-18 0 -22 -10zM180 287q-41 -12 -68 -47.5t-27 -77.5q0 -69 94 -110q44 -19 84 -19q86 0 86 79l-6 42q-6 44 -163 133z" />
    <glyph glyph-name="nine" unicode="9" horiz-adv-x="487" 
d="M248 288q-67 -40 -126 -40q-52 0 -83 39q-28 36 -28 90q0 50 24 96q25 50 68 71q78 39 145 39q91 0 147 -66q53 -62 53 -155q0 -49 -16 -92q-11 -28 -44 -85t-89 -112q-62 -60 -117 -82q-19 -8 -54 -17q98 49 163 139q70 97 70 201q0 43 -24 102q-22 52 -65 88
q-48 39 -100 39q-47 0 -75 -32t-28 -79q0 -27 11.5 -67t49.5 -60t86 -20h20z" />
    <glyph glyph-name="colon" unicode=":" horiz-adv-x="120" 
d="M15 34l64 20l36 -55l-46 -13l-25 -6q-11 6 -15.5 25.5t-13.5 28.5zM10 234l64 20l36 -55l-46 -14l-25 -5q-11 6 -15.5 25.5t-13.5 28.5z" />
    <glyph glyph-name="semicolon" unicode=";" horiz-adv-x="120" 
d="M38 24q2 3 3 4q16 21 37 25q6 -4 7 -8l2 -19q0 -66 -73 -115l17 43q9 23 9 51zM10 234l64 20l36 -55l-46 -14l-25 -5q-11 6 -15.5 25.5t-13.5 28.5z" />
    <glyph glyph-name="less" unicode="&#x3c;" horiz-adv-x="256" 
d="M178 400q-16 -96 -78 -128l-95 -49q124 -62 172 -163l60 29q-13 84 -152 164q75 21 118 78q38 50 38 99z" />
    <glyph glyph-name="equal" unicode="=" horiz-adv-x="432" 
d="M142 159h270l-110 -55h-270zM142 274h270l-110 -55h-270z" />
    <glyph glyph-name="greater" unicode="&#x3e;" horiz-adv-x="258" 
d="M11 60q-7 56 48 112q49 49 108 65q-65 37 -96 66q-47 44 -56 98l60 29q27 -57 72 -96q34 -31 100 -67l-100 -52q-55 -29 -73 -125z" />
    <glyph glyph-name="question" unicode="?" horiz-adv-x="447" 
d="M0 383q0 74 107 136q96 55 176 55q85 0 113 -63q14 -33 14 -61q0 -61 -57 -103l-99 -73q-22 -16 -32.5 -44t-9.5 -52l1 -30l5 -11l-78 -48v88q0 33 49 70l97 74q51 39 51 90v16q-3 14 -24 55q-24 37 -80 53q-14 4 -33 4q-45 0 -79 -26t-34 -66v-9zM140 32l78 49v-72
l-78 -49v72z" />
    <glyph glyph-name="at" unicode="@" horiz-adv-x="595" 
d="M83 133q-7 19 -7 34q0 58 88 93q68 27 137 27q41 0 55 -10q5 -2 17 -1q11 2 22 7q-4 -8 -4 -24q0 -34 25 -79q22 -42 55 -46q36 0 36 49q0 38 -31 87q-23 35 -85 53q-49 15 -101 15q-74 0 -153 -35q-96 -43 -103 -107l-6 -58q0 -61 62 -86t161 -25q62 0 128.5 9t101.5 20
l-25 -18l-38 -25l-88 -9l-85 -4q-103 -5 -178 35q-67 34 -67 122q0 99 103 157q85 47 193 47q126 0 193 -55q56 -47 56 -114q0 -40 -40 -62q-60 -35 -113 -35q-32 0 -46 14t-20 46q-21 -25 -77 -46q-51 -19 -88 -19q-57 0 -78 43zM161 216q0 -91 68 -91q45 0 96 34l-29 78
l-38 11q-17 5 -45 5q-52 0 -52 -37z" />
    <glyph glyph-name="A" unicode="A" horiz-adv-x="765" 
d="M4 -20l60 95q65 104 82 142q43 95 43 206q0 45 -9 96l1 1q7 8 23 23l53 41q234 -395 376 -490q61 -42 95 -42q13 0 20 4l11 8q-47 -69 -110 -69q-55 0 -107 43q-33 27 -80 88q-169 -18 -265 -53q-18 -6 -96 -64q-58 -42 -97 -29zM131 82q121 46 240 73l53 12l-136 180
q-21 -66 -67 -139q-25 -40 -90 -126z" />
    <glyph glyph-name="B" unicode="B" horiz-adv-x="621" 
d="M62 65v342q0 12 -23 24l-45 23q3 3 6 4q7 4 23.5 11.5t68.5 47.5q48 38 56 40q9 0 9 -24v-30q121 50 189 62q34 6 70 6q64 0 98 -36q22 -23 35 -51t13 -49q0 -33 -42.5 -77t-73.5 -40q160 -26 160 -127q0 -47 -40 -98q-35 -45 -80.5 -70t-91.5 -36q-38 -9 -82 -9
q-50 0 -140 24q-110 29 -110 63zM157 462v-163l109 14q55 7 104 7q41 0 67 15q33 19 33 57q0 77 -105 103q-52 13 -102 13q-106 0 -106 -46zM157 264v-139q0 -36 112 -68q93 -26 144 -26q89 0 102 43l5 38q0 86 -109 136q-87 40 -184 40q-70 0 -70 -24z" />
    <glyph glyph-name="C" unicode="C" horiz-adv-x="681" 
d="M675 526l-124 -68q-158 76 -261 76q-179 0 -179 -206q0 -122 120 -200q105 -68 233 -68q102 0 171 44l-35 -24q-41 -28 -124 -59q-64 -24 -141 -24q-79 0 -148 33q-73 33 -118 95q-60 80 -68 139q-3 17 -3 34q0 136 143 216q119 67 265 67q134 0 269 -55z" />
    <glyph glyph-name="D" unicode="D" horiz-adv-x="832" 
d="M476 -4q-161 0 -215 22q-98 38 -98 169q0 61 9 121l24 160l-9 -1h-13q-111 0 -174 83l108 75q6 -1 3 -8l-3 -7q0 -8 17 -19l67 -30q69 -24 208 -24q128 0 231 -15q73 -11 113 -63q72 -93 72 -179q0 -123 -111 -207q-102 -77 -229 -77zM276 461l-19 -64q-12 -40 -9 -99
l3 -63q1 -18 15.5 -75.5t95.5 -91.5q65 -27 133 -27q72 0 131 26q72 32 89 93q15 56 15 90q0 211 -454 211z" />
    <glyph glyph-name="E" unicode="E" horiz-adv-x="750" 
d="M30 152q-12 18 -18 32q-12 31 -12 71q0 144 134 239q120 86 269 86q117 0 223 -44l-72 -70q-156 58 -259 58q-101 0 -146 -39t-59 -137h540q55 0 120 30q-29 -29 -79 -55q-54 -27 -91 -27h-490l1 -34q1 -38 57 -95q40 -40 87 -72q78 -54 174 -54q87 0 173 51
q-60 -60 -111 -87q-61 -32 -136 -32q-69 0 -141 35q-103 50 -164 144z" />
    <glyph glyph-name="F" unicode="F" horiz-adv-x="753" 
d="M102 -256v664q0 59 -83 59h-12l-7 -1l99 77q50 39 77 39q26 0 26 -42v-50l69 29q138 58 284 58q145 0 243 -65l-120 -64q-126 74 -254 74q-123 0 -222 -62v-368h556l-112 -56h-444v-204z" />
    <glyph glyph-name="G" unicode="G" horiz-adv-x="745" 
d="M45 140q-19 27 -33 63q-10 35 -10 66q0 140 149 233q130 81 278 81q144 0 273 -76l-93 -71q-86 50 -160.5 73.5t-135.5 23.5q-93 0 -151 -53.5t-58 -145.5q0 -61 24 -106q21 -41 72 -83q111 -96 237 -96q53 0 82 14q34 16 50 29v112l100 56v-232q0 -60 -52 -112
q-32 -32 -104 -76q57 66 57 197v17l-1 12q-82 -74 -217 -74q-92 0 -172 37q-85 39 -135 111z" />
    <glyph glyph-name="H" unicode="H" horiz-adv-x="773" 
d="M80 -52v454q0 42 -20 63q-17 17 -60 31l97 69q37 26 55 26q28 0 28 -49v-170l66 43q52 34 122 58q75 27 131 27q39 0 73 -11q40 -13 82 -55q37 -38 59 -81q25 -51 25 -96q0 -133 -174 -248q-67 -44 -76 -45q66 33 105.5 94t39.5 134q0 56 -25.5 110t-69.5 86
q-67 48 -137 48q-107 0 -221 -80v-312z" />
    <glyph glyph-name="I" unicode="I" horiz-adv-x="260" 
d="M90 -44v436q0 33 -20 46.5t-46 13.5h-8q27 39 74 82q51 46 77 46q23 0 23 -36v-504z" />
    <glyph glyph-name="J" unicode="J" horiz-adv-x="260" 
d="M90 -132v524q0 33 -20 46.5t-46 13.5h-8q27 39 74 82q51 46 77 46q23 0 23 -36v-620q0 -77 -50 -148q-49 -67 -122 -100q72 108 72 192z" />
    <glyph glyph-name="K" unicode="K" horiz-adv-x="700" 
d="M62 -45v477q0 64 -62 82q58 41 93 59q23 12 42 12q27 0 27 -33v-308q166 102 166 178q0 40 -52 70l110 66q19 -25 19 -56q0 -60 -51.5 -116t-103.5 -96l243 -173q110 -78 161 -78q17 0 42 11q4 2 14 8q-63 -80 -144 -80q-46 0 -152 64q-74 44 -143 97l-109 83v-201z" />
    <glyph glyph-name="L" unicode="L" horiz-adv-x="576" 
d="M58 0l26 28v380q0 40 -23 56q-16 12 -61 20q109 91 155 91q29 0 29 -37v-470h366q16 0 17 -8q0 -14 -33 -36l-126 -84l23 22q12 11 12 22q0 7 -9 11.5t-26 4.5h-350z" />
    <glyph glyph-name="M" unicode="M" horiz-adv-x="1265" 
d="M120 -32q-119 119 -119 254q0 91 59 178t144 121q94 38 175 47q26 3 46 3q99 0 157.5 -27t97.5 -56q195 71 292 71q149 0 216 -116q55 -98 55 -184q0 -84 -54 -159q-47 -66 -126 -114q-68 -40 -79 -42q143 113 143 246q0 68 -51 171q-31 62 -90 100t-128 38
q-89 0 -178 -59v-394l-100 -88v452q-117 99 -246 99q-78 0 -147 -38q-84 -45 -84 -165q0 -70 28 -139q30 -74 81 -115z" />
    <glyph glyph-name="N" unicode="N" horiz-adv-x="832" 
d="M28 22v430l-28 38q36 38 50 59l32 47q44 -74 72 -109q37 -46 95 -91q27 -22 169 -104l278 -160v308q0 50 -32 50q-14 0 -21 -4l-11 -6q0 21 43.5 64t65.5 43q19 0 19 -31v-452l-30 -51q-21 -36 -56 -81l-37 40q-34 36 -112 96q-44 33 -129 74q-95 46 -131 70
q-75 49 -107 75l-66 53v-242q0 -71 62 -71h8l6 1l-59 -62q-35 -37 -57 -37q-24 0 -24 53z" />
    <glyph glyph-name="O" unicode="O" 
d="M16 150q-16 46 -16 92q0 170 171 281q93 60 213 60q122 0 204 -90q48 -53 48 -159q0 -81 -39.5 -156t-105.5 -119q-125 -82 -241 -82q-60 0 -108 21q-89 40 -126 152zM522 131q22 46 22 98q0 81 -42 160q-47 88 -116 115q-65 24 -110 24q-93 0 -136 -80q-34 -62 -34 -164
q0 -97 83 -171q80 -71 179 -71q110 0 154 89z" />
    <glyph glyph-name="P" unicode="P" horiz-adv-x="712" 
d="M80 -188v560q0 40 -21 55q-17 13 -59 13q121 136 152 128q14 -4 18 -25l8 -43q45 37 121 62q73 23 135 23q178 0 222 -151q23 -78 23 -131q0 -139 -146 -240q-70 -49 -116.5 -62t-98.5 -13q-69 0 -115 17q-6 2 -23 9v-134zM180 460v-336q0 -37 90 -60q66 -16 119 -16
q37 0 73 7q49 10 81 40q48 48 48 142q0 60 -25.5 122.5t-68.5 101.5q-71 64 -167 64q-40 0 -87 -15q-63 -19 -63 -50z" />
    <glyph glyph-name="Q" unicode="Q" 
d="M16 152q-15 43 -15 96q0 181 177 284q96 56 218 56q120 0 185 -75q73 -85 73 -192q0 -128 -108 -221q-35 -30 -86 -56l-16 -6q17 6 31 6q26 0 68 -32q73 -54 81 -59q53 -32 102 -32q48 0 106 22q-140 -92 -222 -92h-13l-31 6q-21 4 -89 75q-74 76 -117 72l-23 -2l-40 -11
q-18 -5 -59 -5q-47 0 -94 18q-88 34 -128 148zM529 137q22 49 22 109q0 81 -40 161q-47 93 -118 106q-58 11 -95 11q-106 0 -151 -70q-37 -57 -37 -170q0 -97 83 -171q80 -71 179 -71q113 0 157 95z" />
    <glyph glyph-name="R" unicode="R" horiz-adv-x="792" 
d="M76 -172v586q0 61 -50 58l-15 -1l-11 -3q30 23 93 65q39 22 61 22q23 0 23 -24l-1 -11q103 53 187 53q42 0 71 -13q25 -12 59 -42q41 -39 41 -121q0 -76 -52 -136q-46 -54 -122 -85l72 -44q49 -30 109 -54q73 -28 117 -28q55 0 103 24q12 6 23 14q-55 -50 -100 -71
q-48 -22 -102 -22q-88 0 -220 64q-60 28 -158 81q35 0 95 27q53 25 85 51q52 41 52 107q0 103 -76 159q-49 36 -105 36q-25 0 -47 -8q-30 -11 -32 -32v-588z" />
    <glyph glyph-name="S" unicode="S" horiz-adv-x="620" 
d="M0 92l55 31l47 25q39 -52 120 -87q76 -32 146 -32q72 0 115 35.5t43 106.5q0 63 -117 89l-219 49q-118 26 -118 105q0 90 90 136q71 35 171 35q132 0 229 -57l-106 -64q-102 84 -186 84q-40 0 -69 -20q-33 -22 -33 -60q0 -16 7 -30q13 -35 77 -56q24 -8 96 -21
q120 -23 162 -45q82 -42 82 -131q0 -99 -109 -159q-92 -50 -199 -50q-168 0 -284 116z" />
    <glyph glyph-name="T" unicode="T" horiz-adv-x="900" 
d="M464 488q-228 -76 -228 -198q0 -95 121 -182q46 -33 102 -50q53 -16 108 -16q143 0 273 106q-133 -180 -361 -180q-117 0 -209 47q-142 72 -142 215q0 161 289 267l-84 9l-79 4q-50 3 -129 -6q-57 -7 -125 -28l31 29q111 83 245 83q96 0 211 -25t175 -25q54 0 105 7
q68 9 137 29q-76 -81 -191 -97q-82 -12 -103 -12q-50 0 -79 7z" />
    <glyph glyph-name="U" unicode="U" horiz-adv-x="653" 
d="M60 176v256q0 31 -15 46q-13 12 -45 18q100 83 139 83q21 0 21 -27v-312q0 -120 117 -158q45 -15 73 -20l46 -4q46 -4 77 17q25 16 39 33v336q0 50 -42 50l-8 -1l-6 -1q95 80 135 80q21 0 21 -26v-484l-100 -100v121q-130 -97 -224 -97q-84 0 -153 52q-75 56 -75 138z
" />
    <glyph glyph-name="V" unicode="V" horiz-adv-x="824" 
d="M0 496l35 39q54 45 89 45q40 0 161 -188q78 -122 119 -196l74 -134q82 72 137 150q73 103 73 185q0 45 -23 75t-67 30q-17 0 -38 -6q82 92 158 92h12l38 -10q33 -9 33 -71q0 -115 -150 -302q-109 -134 -243 -249l-61 128q-120 253 -223 366q-46 50 -56 55l-21 4
q-18 0 -47 -13z" />
    <glyph glyph-name="W" unicode="W" horiz-adv-x="1186" 
d="M365 500l37 37q57 43 91 43q40 0 165 -195q73 -114 119 -197l70 -127q86 74 143 156q73 106 73 195q0 42 -20 69.5t-61 27.5q-28 0 -57 -13q74 92 146 92h12l41 -10q36 -9 36 -78q0 -116 -147 -298q-106 -132 -240 -246l-61 130q-35 74 -109 200q-68 114 -116 168
q-46 51 -54 55l-21 4q-18 0 -47 -13zM408 -44l-61 128q-120 253 -223 366q-46 50 -56 55l-21 4q-18 0 -47 -13l35 39q54 45 88 45q38 0 163 -194q75 -116 119 -195l70 -125l126 144l12 -14z" />
    <glyph glyph-name="X" unicode="X" horiz-adv-x="796" 
d="M305 272l-191 191q-16 16 -40 16q-40 0 -74 -29l54 91q25 42 55 42q25 0 58 -33l218 -218q147 114 147 160q0 27 -52 27l26 35q14 15 20 22q23 27 40 29q39 0 39 -28q0 -55 -152 -200q-4 -4 -44 -40q-4 -4 -15 -14l227 -227q26 -26 61 -26q41 0 84 32q8 6 21 19
q-95 -136 -159 -136q-36 0 -79 43l-235 235q-67 -44 -94 -67q-59 -51 -59 -90q0 -24 26 -38l-96 -96q-13 20 -13 42q0 85 159 209q63 49 68 49z" />
    <glyph glyph-name="Y" unicode="Y" horiz-adv-x="812" 
d="M428 38l-308 443q-18 26 -63 22l-36 -3l-21 -4q80 91 133 91q36 0 63 -39l298 -434l14 14q84 84 140 166q45 66 45 119q0 99 -173 99q112 71 173 71q59 0 89 -58q13 -26 13 -51q0 -76 -106 -197l-210 -239q-105 -120 -105 -190q0 -69 92 -106l-142 -106q-40 48 -40 112
q0 112 102 240q37 48 42 50z" />
    <glyph glyph-name="Z" unicode="Z" horiz-adv-x="815" 
d="M48 460l37 32q35 30 115 64q66 28 146 28h35l29 -5l79 -18q70 -16 93 -16q58 0 150 27l-87 -48q-42 -23 -81 -62l-376 -376l80 12q40 6 86 6q34 0 120 -23.5t127 -23.5q106 0 203 75q-76 -76 -175 -123q-76 -36 -162 -36q-72 0 -137 25q-79 31 -157 31q-38 0 -93 -9
l-80 -13q35 14 73 44q9 7 27 25l382 382l-93 9q-29 3 -96 25q-61 20 -98 20q-71 0 -147 -52z" />
    <glyph glyph-name="bracketleft" unicode="[" horiz-adv-x="276" 
d="M28 -32v560q8 12 15 18l27 23l31 15l23 8h120l-88 -36l-28 4v-560h116l-88 -32h-128z" />
    <glyph glyph-name="backslash" unicode="\" horiz-adv-x="300" 
d="M69 579l220 -579h-69l-220 580z" />
    <glyph glyph-name="bracketright" unicode="]" horiz-adv-x="276" 
d="M116 592l-88 -32h116v-560l-28 4l-88 -36h120q8 0 25 9l29 15q8 4 26 21l16 19v560h-128z" />
    <glyph glyph-name="asciicircum" unicode="^" horiz-adv-x="400" 
 />
    <glyph glyph-name="underscore" unicode="_" horiz-adv-x="460" 
d="M110 -16h460l-110 -55h-460z" />
    <glyph glyph-name="grave" unicode="`" horiz-adv-x="300" 
 />
    <glyph glyph-name="a" unicode="a" horiz-adv-x="559" 
d="M10 109q0 76 97 121q77 36 163 36q24 0 54.5 -9.5t33.5 -9.5q8 0 18 4l22 9l-1 -9l-1 -16q-1 -17 6 -47q22 -93 69 -123q28 -14 60 -14q35 0 52 7l25 10q-101 -66 -175 -66q-43 0 -63.5 18.5t-33.5 60.5q-26 -33 -86 -58.5t-119 -25.5q-42 0 -68 14q-53 26 -53 98z
M107 165q0 -125 93 -125q46 0 105 30q15 8 28 17l-38 108q-1 4 -45.5 14t-66.5 10q-76 0 -76 -54z" />
    <glyph glyph-name="b" unicode="b" horiz-adv-x="430" 
d="M48 69v266q0 56 -24 94l-53 60q0 11 23 27q11 8 33 21q35 41 66 41q37 0 37 -79v-287q39 33 74 56q42 28 95 28q17 0 35 -6q32 -8 52.5 -34.5t20.5 -59.5q0 -64 -85.5 -142.5t-151.5 -85.5q-29 0 -75.5 37t-46.5 64zM130 184v-62q0 -29 50 -56q44 -24 77 -24q51 0 65 46
q7 24 7 46q0 46 -35 72q-31 23 -79 23q-27 0 -52 -9q-33 -13 -33 -36z" />
    <glyph glyph-name="c" unicode="c" horiz-adv-x="428" 
d="M4 132q0 56 125 105q106 41 175 41q64 0 94 -28l-64 -37q-29 -17 -38 -11q-17 17 -69 24q-15 2 -32 2q-107 0 -107 -58q0 -129 118 -129q50 0 145 33l33 8q-2 -27 -108 -68q-101 -38 -143 -38q-129 0 -129 156z" />
    <glyph glyph-name="d" unicode="d" horiz-adv-x="496" 
d="M0 100q0 98 68 136q76 43 160 38l52 -3q24 -1 36 -5v114q0 41 -21 73l-47 51q2 3 3 4q4 5 11 11l44 36q31 25 52 25q40 0 40 -86v-354q0 -96 78 -92l22 1l4 -1q-67 -51 -116 -51t-70 55q-38 -19 -96 -34t-99 -15q-121 0 -121 97zM112 224q-31 -37 -31 -83q0 -31 15 -59
q17 -31 44.5 -39.5t44.5 -8.5t71 12q58 14 60 22v126l-74 32q-37 16 -81 16q-34 0 -49 -18z" />
    <glyph glyph-name="e" unicode="e" horiz-adv-x="419" 
d="M16 37q-15 27 -15 61q0 57 38.5 107t94 62t95.5 12q95 0 152 -48l14 -25l-291 -75q0 -110 118 -110q30 0 63 8q40 10 82 28l-44 -40q-68 -44 -147 -44q-30 0 -56 5q-81 17 -104 59zM104 147l161 40q3 1 5 6q0 19 -31 34q-27 14 -48 14l-34 -4q-22 -3 -36 -33
q-10 -21 -17 -57z" />
    <glyph glyph-name="f" unicode="f" horiz-adv-x="459" 
d="M120 228h-120l48 40h72v140q0 90 131 140q100 38 207 38q41 0 72 -8q27 -7 27 -22q-2 -4 -3 -7q-13 -29 -40 -61q-18 -21 -41 -21q-9 0 -19 5q-82 43 -149 43q-103 0 -103 -91v-156h248l-80 -40h-168v-504l-82 -76v580z" />
    <glyph glyph-name="g" unicode="g" horiz-adv-x="406" 
d="M8 146q9 61 69 93q50 28 117 28q79 0 129 -31l13 8q10 8 16 10q6 -3 6 -5l2 -15v-390q0 -78 -68.5 -147.5t-145.5 -69.5q67 38 97 79q35 49 35 120v184q-14 0 -24 -2q-71 -14 -110 -14q-140 0 -140 111v15zM278 54v144q0 49 -63 49q-33 0 -68 -18q-40 -21 -47 -50l-5 -33
l-1 -18q-3 -51 33 -77q31 -23 82 -23q69 0 69 26z" />
    <glyph glyph-name="h" unicode="h" horiz-adv-x="499" 
d="M40 32v300q0 65 -21 103l-48 51q2 6 9 13l36 25l37 32q21 18 41 18t26 -29q2 -10 2 -28v-313q118 86 176 86q59 0 113 -38q59 -42 59 -98q0 -53 -60 -113l-60 -45q26 50 26 84q0 38 -34.5 79t-71.5 55q-27 9 -49 9q-49 0 -99 -45v-101q0 -29 -80 -95l-6 3z" />
    <glyph glyph-name="i" unicode="i" horiz-adv-x="245" 
d="M54 53q0 18 11.5 54t11.5 52q0 33 -40 53l39 32q36 21 51 21q4 0 7 -3q29 -37 29 -81q0 -14 -12 -61l-11 -43q0 -11 9 -21.5t28 -10.5t58 16l5 -1l-55 -44q-26 -21 -67 -21q-27 0 -45.5 15.5t-18.5 42.5zM41 356q9 24 60 54l27 4q0 -16 9 -29q8 -8 20 -8q10 0 37 11
q5 -1 6 -2q-9 -21 -51.5 -56.5t-63.5 -35.5q-14 0 -30 20q-17 26 -14 42z" />
    <glyph glyph-name="j" unicode="j" horiz-adv-x="245" 
d="M26 356q6 18 46 48l43 16q0 -16 9 -29q8 -8 20 -8q10 0 37 11q5 -1 6 -2q-9 -22 -52.5 -60t-64.5 -38q-14 0 -30 20q-17 26 -14 42zM172 -138v344q0 19 -10.5 37.5t-28.5 18.5q-6 0 -36 -16q-56 -25 -62 -48q55 -31 55 -98v-282q0 -47 -33.5 -104.5t-74.5 -79.5
q87 49 128 90q62 62 62 138z" />
    <glyph glyph-name="k" unicode="k" horiz-adv-x="410" 
d="M38 0v305q0 74 -20 117l-45 63q0 13 54 45q39 43 67 43q26 0 26 -52v-419l53 36l64 46l7 11l2 10q0 17 -16 25l-25 12l68 47q9 6 29 -10t20 -32q0 -15 -20 -35l-76 -55l84 -83q21 -21 41 -29t35 -8q16 0 21 3l7 4q-57 -51 -113 -51q-52 0 -93 32q-27 22 -66 75l-22 -14
v-35q-2 -3 -4 -4q-6 -6 -15 -10l-28 -13q-9 -3 -20 -17z" />
    <glyph glyph-name="l" unicode="l" horiz-adv-x="403" 
d="M153 -8q-54 0 -85 35t-31 89v222q0 67 -21 108l-46 54q3 6 15 15l48 29q32 32 54 32q32 0 32 -78v-310q0 -62 36.5 -94.5t98.5 -32.5q38 0 80 10t93 35l-88 -56q-91 -58 -186 -58z" />
    <glyph glyph-name="m" unicode="m" horiz-adv-x="760" 
d="M36 -16q11 28 15 50l4 44q0 41 -18 77l-37 49l60 60q5 5 15 7q27 0 61 -67q104 78 176 78q66 0 100 -68q118 68 203 68q68 0 91 -45q12 -24 16 -43l4 -36q0 -62 -49 -109q-44 -43 -109 -57q56 53 56 107l-3 24q-3 20 -20.5 45t-35.5 36q-28 17 -57 17q-47 0 -88 -31
l10 -35l4 -33q0 -31 -8 -54q-6 -16 -11 -22l-112 -62l15 36q7 25 7 54q0 51 -26 98q-28 51 -73 51q-27 0 -48 -12l-36 -25q19 -38 19 -72v-22q-3 -13 -4 -19l-9 -29z" />
    <glyph glyph-name="n" unicode="n" horiz-adv-x="502" 
d="M36 -16q11 28 15 50l4 44q0 55 -26 91q-9 13 -21 26q-2 3 -8 9l72 60q3 3 12 5q22 0 45 -40q2 -4 10 -21q43 32 97 55q60 24 108 24q39 0 65.5 -13t41.5 -50q13 -31 13 -67q0 -65 -43.5 -110t-108.5 -55q21 17 36.5 48t15.5 57q0 14 -1 22t-17 40q-30 61 -102 61
q-47 0 -97 -31q10 -20 12 -35l4 -33q0 -38 -16 -65z" />
    <glyph glyph-name="o" unicode="o" horiz-adv-x="465" 
d="M8 136q26 70 122 114q84 38 168 38q108 0 129 -60q8 -23 8 -41q0 -55 -59 -113q-50 -49 -110 -72q-53 -21 -67 -22l-39 -4q-60 0 -106 30q-53 34 -53 91q0 20 7 39zM106 138q0 -52 48 -83.5t101 -31.5q24 0 41 11q39 32 39 96q0 31 -11 54q-12 32 -44 53t-66 21
q-47 0 -77.5 -36t-30.5 -84z" />
    <glyph glyph-name="p" unicode="p" horiz-adv-x="530" 
d="M81 -382v546q0 50 -70 50h-11l55 25q15 7 40 20l19 7q24 0 49 -50q31 20 95 37q61 16 100 16q112 0 134 -71q10 -35 10 -54q0 -115 -221 -160l-118 -24v-272zM163 182v-132q0 -16 34.5 -29t81.5 -13q50 0 83 20q37 22 33 65l-2 23q-5 60 -42 94q-32 28 -73 28
q-26 0 -67 -16q-48 -19 -48 -40z" />
    <glyph glyph-name="q" unicode="q" horiz-adv-x="434" 
d="M16 64q-13 22 -13 46q0 70 87 118q75 41 150 41q62 0 110 -29q5 -1 24 9l8 -1v-476q0 -36 14 -43l18 -5l-52 -36q-17 -12 -37 -12q-25 0 -25 34v330q-84 -52 -157 -52q-82 0 -127 76zM100 180l-4 -40q0 -51 31.5 -81t82.5 -30q34 0 59 13q31 16 31 46v100q0 54 -87 54
q-38 0 -68 -13q-38 -17 -45 -49z" />
    <glyph glyph-name="r" unicode="r" horiz-adv-x="513" 
d="M204 22v160q0 11 12.5 22t23.5 11q9 -5 21 -16q46 -44 101 -44q50 0 86 36q22 22 54 79q-57 -40 -83 -40q-10 0 -42.5 16t-48.5 16q-44 0 -124 -46q0 18 -6.5 38.5t-28.5 20.5q-17 0 -39 -15l-130 -88l34 13q25 7 39 7q49 0 49 -52v-176z" />
    <glyph glyph-name="s" unicode="s" horiz-adv-x="392" 
d="M0 10l80 53q9 -21 45 -33q28 -9 57 -9q54 0 61 27l4 16q0 26 -59 39l-108 16q-59 10 -59 27l5 14q3 11 9 23q20 44 91 75q64 27 118 27q61 0 116 -23l-85 -51q-16 15 -54 25q-32 8 -60 8q-51 0 -54 -24q0 -26 65 -42l122 -26q65 -17 65 -47q0 -41 -112 -83
q-98 -37 -150 -37q-59 0 -97 25z" />
    <glyph glyph-name="t" unicode="t" horiz-adv-x="462" 
d="M67 57l-4 19q-1 4 -1 16q0 92 147 173l-36 8q-31 7 -67 5l-54 -3q-20 -1 -52 -14l41 31q60 35 137 45q32 4 101 -5q81 -10 106 -10h41q8 2 11 2q16 0 48 9q-33 -24 -80 -48q-56 -29 -111 -25l-37 3q-33 3 -65 -45q-29 -43 -29 -80q0 -69 50 -93q24 -12 57 -12q20 0 77 12
q62 14 69 23q-36 -40 -105 -66q-65 -24 -123 -24q-44 0 -75.5 17.5t-45.5 61.5z" />
    <glyph glyph-name="u" unicode="u" horiz-adv-x="524" 
d="M49 64v106q0 46 -34 46l-10 -2l34 28q36 30 67 30q25 0 25 -32v-116q0 -32 18 -52t50 -20q47 0 103 22q7 3 25 12v120q0 18 -2 22t-17 5l-17 -2l44 29q23 15 46 15q28 0 28 -35v-120q0 -35 15 -51.5t41 -16.5q20 0 46 9q5 2 14 7q-88 -71 -141 -71q-23 0 -40 20t-17 50
l-80 -29q-51 -20 -122 -42q-30 0 -53 19t-23 49z" />
    <glyph glyph-name="v" unicode="v" horiz-adv-x="434" 
d="M291 55l-70 -95l-22 68q-8 26 -32 74q-16 31 -39 64q-41 59 -93 59q-18 0 -35 -7q7 6 28 21q16 11 20 14q25 16 37 19l22 2q64 0 111 -82q18 -32 56 -139l85 116q9 15 11 32q0 27 -36 27l82 64q12 -8 14 -22q0 -26 -139 -215z" />
    <glyph glyph-name="w" unicode="w" horiz-adv-x="652" 
d="M365 138l-29 -25q-16 -14 -28 -32l-39 -47l-50 -56q-31 98 -59 147q-47 84 -113 98q-5 1 -13 1h-16q-10 0 -18 -5q63 56 87 56q76 2 117 -63q37 -61 74 -145l17 20l18 22q12 14 23 23l22 17l-17 30q-12 20 -26.5 31.5t-26.5 14.5l-16 2h-6l-4 -1q21 23 43 38q12 9 27 11
l34 -8q54 -13 118 -200l16 19l23 32l30 48q15 24 17 43q0 19 -32 19l82 64q10 -6 10 -19q1 -21 -34 -72l-57 -84q-20 -30 -54 -71l-55 -67l-34 108q-6 20 -16 32z" />
    <glyph glyph-name="x" unicode="x" horiz-adv-x="535" 
d="M-164 -142l77 74q21 -29 57 -29q40 0 75 35l150 150l-86 86q-16 16 -41 16t-41 -8l-32 -16l60 51q56 48 75 48q9 0 17 -7l28 -26l82 -82l91 91q28 28 76 28l20 -2q10 -1 17 -3.5t12 -10.5l6 -12l-59 -59q-4 8 -10.5 16t-16.5 11l-16 5l-13 2q-13 0 -22 -4t-25 -20
l-51 -51l91 -91q12 -12 29 -18t37 -6q41 0 90 21q7 3 22 12q-32 -31 -90 -56.5t-101 -25.5q-38 0 -58 20l-82 82l-170 -170q-71 -71 -140 -71q-32 0 -58 20z" />
    <glyph glyph-name="y" unicode="y" horiz-adv-x="532" 
d="M173 -360v396q0 50 -47.5 103.5t-96.5 53.5q-19 0 -32 -13l57 54q14 13 27.5 25t32.5 12q39 0 73 -42q40 -49 68 -101l45 53q34 40 86 69q56 32 104 32h16l23 -4l-92 -76l-15 13q-8 5 -22 7q-31 0 -88 -49.5t-57 -77.5v-363z" />
    <glyph glyph-name="z" unicode="z" horiz-adv-x="557" 
d="M-3 162q54 64 109 88q63 28 115 24l157 -11q28 -2 64 5q26 4 59 18l-344 -232q51 0 104 -7l106 -14l46 3q30 2 72 20t67 34q-67 -67 -127.5 -94.5t-119.5 -27.5q-22 0 -94 11t-107 11q-44 0 -87 -10l80 56l122 83l125 87q-42 -15 -89 -15q-37 0 -90 9q-35 6 -51 6
q-26 -3 -62 -15q-42 -15 -55 -29z" />
    <glyph glyph-name="braceleft" unicode="{" horiz-adv-x="325" 
d="M110 189q0 45 -37 57q-46 15 -73 15q108 46 108 109q0 15 -15.5 54t-13.5 52q8 63 66 94q47 25 117 25h8q-106 -30 -106 -89q0 -15 6 -39l10 -40l4 -23q0 -32 -27 -62l-58 -49l54 -16q31 -9 31 -50q0 -22 -13.5 -56.5t-13.5 -62.5q0 -57 53 -93q46 -31 106 -31h14
l-46 -10q-23 -5 -58 -5q-90 0 -125 44q-20 25 -20 54q0 23 14.5 64t14.5 58z" />
    <glyph glyph-name="bar" unicode="|" horiz-adv-x="147" 
d="M0 0v595h82v-595h-82z" />
    <glyph glyph-name="braceright" unicode="}" horiz-adv-x="248" 
d="M12 -24q110 30 110 90q0 17 -12 50.5t-12 47.5q0 40 16 67q13 21 48 49q-55 19 -59 50l20 59q20 59 20 89q0 113 -98 113q-17 0 -25 -2l-12 -3q57 26 103 26q49 0 77 -30.5t28 -80.5q0 -48 -20 -92l-19 -42q0 -17 23 -29l48 -16q-88 -52 -88 -116q0 -25 21 -74
q22 -52 22 -65q0 -55 -63 -71q-53 -14 -128 -20z" />
    <glyph glyph-name="asciitilde" unicode="~" horiz-adv-x="478" 
 />
    <glyph glyph-name="c128" horiz-adv-x="765" 
 />
    <glyph glyph-name="c129" horiz-adv-x="765" 
 />
    <glyph glyph-name="c141" horiz-adv-x="428" 
 />
    <glyph glyph-name="c142" horiz-adv-x="419" 
 />
    <glyph glyph-name="c143" horiz-adv-x="419" 
 />
    <glyph glyph-name="c144" horiz-adv-x="419" 
 />
    <glyph glyph-name="c157" horiz-adv-x="524" 
 />
    <glyph glyph-name="c158" horiz-adv-x="524" 
 />
    <glyph glyph-name="nonbreakingspace" unicode="&#xa0;" horiz-adv-x="200" 
 />
    <glyph glyph-name="exclamdown" unicode="&#xa1;" horiz-adv-x="354" 
 />
    <glyph glyph-name="cent" unicode="&#xa2;" horiz-adv-x="428" 
 />
    <glyph glyph-name="sterling" unicode="&#xa3;" horiz-adv-x="550" 
d="M107 -12v302h-107l61 40h46v124q0 52 85 90q70 31 130 31q66 0 112 -34l-32 -24q-36 -21 -40 -18q-28 24 -53 36t-42 12q-60 0 -60 -94v-123h139l-66 -40h-73v-239l59 28q32 15 64 15q18 0 56 -22.5t66 -22.5q27 0 42 5l56 19l-34 -42q-51 -43 -120 -43q-43 0 -86 24
q-47 26 -63 28q-37 0 -107 -33q-5 -3 -33 -19z" />
    <glyph glyph-name="section" unicode="&#xa7;" horiz-adv-x="460" 
 />
    <glyph glyph-name="dieresis" unicode="&#xa8;" horiz-adv-x="865" 
 />
    <glyph glyph-name="copyright" unicode="&#xa9;" horiz-adv-x="410" 
 />
    <glyph glyph-name="ordfeminine" unicode="&#xaa;" horiz-adv-x="712" 
 />
    <glyph glyph-name="guillemotleft" unicode="&#xab;" horiz-adv-x="550" 
d="M494 269q-11 -48 -45 -75q-21 -17 -80 -42q120 -47 160 -112l-96 -22q-39 65 -196 117q73 25 94 38q44 27 57 78zM288 259q-30 -60 -66 -87t-101 -38q123 -52 190 -97l-102 -23q-40 27 -114 65q-61 32 -92 45q157 25 187 123z" />
    <glyph glyph-name="logicalnot" unicode="&#xac;" horiz-adv-x="813" 
d="M682 543v-8q-1 1 -1 8v0h1zM749 462h5q6 -3 12 -12q2 -7 3 -8v-5q0 -2 -2 -6q-7 -8 -17 -8q-5 3 -10 12q-1 5 -1 10q0 8 4 14q-18 -4 -18 8v5v6l2 6q-10 0 -15.5 7t-5.5 15q0 5 2 11q-4 -2 -8 -2q-16 0 -18 20v8q2 19 19 23q13 2 22 -12q2 -7 2 -13t-2 -13q4 1 10 1
q18 -5 17 -25q-1 -3 -3 -7q10 -1 12 -9q0 -14 -3 -19q-7 -9 -7 -7zM751 429q3 0 6 1q8 6 8 11q0 7 -12 15q-11 0 -9 -11q3 -11 7 -16zM145 535v0v0v8v0v0v-8zM616 557q0 -3 1 -7q5 -17 21 -17q15 1 29 8q10 8 10 22q0 10 -5 22q-4 6 -11 8q-38 2 -45 -29v-7zM210 564
q-6 21 -34 29q-5 0 -6 1q-2 0 -6 -1q-14 -6 -16 -33q3 -27 37 -27q6 0 12 2q11 5 13 22v7zM652 600h10q12 -5 19 -20q2 -9 2 -13v-12q-6 -19 -30 -26q-7 -1 -13 -1q-7 0 -14 2q-16 9 -16 35q2 7 6 14q9 10 22 16q4 0 14 5zM165 600h9q24 -7 36 -21q6 -10 6 -20q0 -11 -8 -23
q-12 -12 -32 -8q-21 4 -30 17q-3 8 -3 9q-1 13 2.5 25.5t14.5 18.5q4 1 5 2zM697 521q4 0 7 1q11 4 15 13q2 10 -5 21q-6 6 -11 6q-17 0 -17 -26q0 -11 11 -15zM124 521q9 0 12 7t3 12q0 16 -16 21q-15 0 -17 -20q1 -15 18 -20zM724 489q2 1 6 2q14 9 14 18q0 4 -4 8.5
t-10 4.5q-14 0 -18 -14q0 -15 12 -19zM101 489q4 1 8 4q5 7 5 12q0 9 -11 17q-5 1 -9 1q-14 0 -12 -18q6 -13 19 -16zM693 483l5 -5zM127 478q2 3 6 5q-3 -3 -6 -5zM689 479q2 -2 4 -5q-1 2 -4 5zM132 474l5 5q-4 -3 -5 -5zM725 478v-11q-1 1 -1 5q0 5 1 6zM102 467v0v11v0
v0v-11zM730 469q1 -2 1 -3l1 -2q4 -2 8 -2q9 0 13 15q0 13 -4 14q-14 -2 -19 -14v-8zM96 477q-5 11 -18 14q-6 -1 -5 -8q0 -6 1 -10q9 -10 17 -10q4 0 5 6v8zM77 462q-9 8 -10 15q0 20 12 20q-3 6 -3 11q0 6 3 11q7 11 24 9q-4 8 -2 20q7 22 27 18q17 -7 17 -23v-8
q0 -3 -2 -8q-5 -11 -17 -11q-4 0 -8 1q2 -7 2 -14q-3 -19 -20 -19q0 -1 2 -6v-11q-2 -8 -9 -9h-5l-6 1.5t-5 2.5zM71 429q2 1 4 1q6 7 7 18q-4 8 -8 8q-2 0 -5 -3q-6 -7 -6 -13q0 -7 8 -11zM57 435v9v0h1q4 14 13 18h6q3 -2 5 -3.5t4 -4.5t2 -8q0 -9 -7 -19q-4 -3 -8 -3
q-6 0 -11 5.5zM733 376v0v0zM93 384v-16v8.5v7.5zM689 479q-18 14 -36 16q-58 0 -79 -28q-25 -50 -24 -84q0 -5 4 -25q-1 -1 -2 -3q2 -5 7 -15q4 -6 7 -12q7 -12 9 -13q24 37 53 50q7 2 14 6q-12 9 -25 18q-17 8 -34 8q-8 -1 -11 -1q3 2 9.5 9t22.5 15q16 6 31 -2q1 0 7 -4
q13 -16 44 -45q11 -7 27 -7q12 1 14 1v7v13q-1 13 -7.5 40t-26.5 51q-1 2 -4 5zM470 306q2 0 7 2q9 5 8 18q-1 12 -9 19l-6 3q-10 2 -16 -3q-7 -11 -6 -23q8 -15 22 -16zM458 302q-20 3 -20 24q3 21 28 27q11 0 19 -3q6 -6 9 -11q5 -36 -36 -37zM526 291q9 1 16 9q2 6 2 11
q0 9 -5 17q-9 7 -15 7q-3 0 -6 -1q-13 -11 -10 -24q3 -14 18 -19zM518 289q-12 2 -16 9t-4 16q3 23 33 24q23 -4 24 -22q-4 -23 -26 -27h-5.5h-5.5zM358 284q1 8 -2 19q-11 -13 -25 -13q-8 0 -18 4q-10 9 -10 20q8 31 38 31q7 0 14 -1q0 -3 -5 -9q-2 1 -11 2
q-20 0 -24.5 -6.5t-4.5 -11.5q0 -7 5 -13q13 -9 23 -9t17 8q0 2 -1 5t-1 5l6 7q0 -1 1 -1v0q6 -20 6 -26q-5 -7 -8 -11zM383 280l-5 50q-1 7 -2 9.5t-7 2.5q0 5 13 11h1h1q0 -3 2 -7q19 10 34 10q9 0 17 -4q-1 0 -9 -6q-2 0 -10 3q-16 1 -23 -1q-3 -2 -5 -3l-4 -2v-1v0
q1 -10 3 -31q10 1 21 2l23 1h3q-4 -1 -9 -4l-19 -2q-10 -1 -19 -2q0 -4 2 -16q-2 -3 -8 -10zM647 268q38 0 60 34q19 28 19 56q-17 -16 -24 -19q-8 -3 -31 1q-1 0 -8 4q-8 9 -15 18q-16 -3 -38 -23q-5 -5 -12 -16q-11 -18 -11 -23q30 -28 60 -32zM626 167v0v0v9v0v0v-9z
M200 176v-9v0v0v9v0zM617 160h1h2q0 75 -21 108q-13 13 -17 11q-10 -47 3 -87q9 -26 32 -32zM297 284l-11 20q-3 5 -8 15q-3 1 -7 0q0 13 8 15v0h1l21 -39v-2q-3 -9 -4 -9zM490 105v-14v7.5v6.5zM336 91v14v0v-14v0zM247 51q2 -1 4 -4zM574 46q2 3 5 5q-1 0 -2.5 -2t-2.5 -3
zM506 48q1 -2 4 -4q-3 2 -4 4zM316 44l2 2l2 2zM496 93q2 -26 14 -41q17 -16 41 -16q11 1 23 10q2 3 5 5q22 28 34 62q5 20 5 27q-14 -6 -28 -4l-5 2q-10 5 -18 14q-14 21 -18 54v8v8q1 17 11 56q-42 -23 -56 -103q-6 -31 -8 -71v-11zM542 30v0q-28 6 -36 18q-14 17 -16 43
v14q3 51 15 102q4 18 13 34q17 33 45 45q2 6 9 23q-4 5 -12 19q-19 33 -15 77q10 48 30 73q25 23 72 23q9 0 18 -1q15 -6 28 -17l5 -5q10 -12 20 -30q7 -17 7 -19q7 -26 8 -45v-16q-6 -100 -86 -106l-12 2q-34 10 -50 30q0 -1 -2 -8l8 -4q9 -6 17 -18q17 -35 18 -88v-5v-10
h1h2q12 5 34 24v-1v0q-16 -22 -38 -40q-2 -14 -2 -15q-8 -46 -41 -83q-14 -13 -26 -16v0v0h-14zM205 228q2 6 8 27q-5 -1 -8 -5t-3 -9t3 -13zM192 264q2 -6 4 -10q21 22 22 22q-12 -6 -26 -12zM209 216l10 -28q5 -14 10 -27q16 -27 43 -27q15 0 23 6t9 22q-6 31 -24 62
q-26 34 -59 34q-11 -26 -12 -42zM288 261q7 -19 16 -46q4 -21 5 -55q-1 -12 -1 -16q-7 -33 -23 -43q-9 -4 -14 -4q-32 1 -47 23q-1 3 -10 26q-2 0 -8 23q2 -59 31 -105q3 -3 10 -13l4 -4q11 -9 21 -11q23 -1 41 14q15 16 17 43v11q-5 65 -18 113q-10 25 -24 44v0zM170 269
q-8 24 -13 36q-4 4 -19 13q0 4 3 14q1 17 4 52l1 3q1 0 2 -3q3 -6 10 -24q1 6 11 30q3 6 15 23q6 9 14 9q4 0 10 -3q28 -27 41 -75q1 -10 1 -30q9 12 11 16q14 29 15 52q0 8 -1 15q-4 37 -25 73q-21 25 -78 25q-18 -3 -35 -16q-4 -3 -5 -5q-33 -36 -33 -91v-13q0 -32 17 -64
q22 -33 54 -37zM190 271q4 -3 20 7q20 13 30 24q-1 32 -22 61q-15 14 -28 14q-12 0 -23 -12q-4 -6 -4 -14q0 -5 2 -10q14 -41 25 -70zM200 185l-14 38l-14 39l-11.5 2.5t-25.5 11.5q-37 29 -42 92v16q3 57 34 94q3 2 6 5q17 15 36 18q69 4 90 -35q6 -11 11 -23q7 -19 8 -24
l4 -23q0 -13 -2 -33l-4 -13q-9 -21 -18 -37q-8 -9 -9 -10q-1 -10 -3 -12q13 -2 21 -6t24 -18q14 -17 27 -49q14 -51 18 -113v-14q-1 -24 -16 -43l-4 -4q-15 -10 -31 -14h-1v0h-13q-2 0 -10 3q-29 15 -50 66q-10 25 -10 58h-1v0v28z" />
    <glyph glyph-name="registered" unicode="&#xae;" horiz-adv-x="1099" 
 />
    <glyph glyph-name="macron" unicode="&#xaf;" 
 />
    <glyph glyph-name="macron" unicode="&#x2c9;" 
 />
    <glyph glyph-name="degree" unicode="&#xb0;" horiz-adv-x="310" 
 />
    <glyph glyph-name="plusminus" unicode="&#xb1;" horiz-adv-x="310" 
 />
    <glyph glyph-name="mu" unicode="&#xb5;" horiz-adv-x="592" 
 />
    <glyph glyph-name="mu" unicode="&#x3bc;" horiz-adv-x="592" 
 />
    <glyph glyph-name="periodcentered" unicode="&#xb7;" horiz-adv-x="840" 
d="M673 552q-26 0 -26 31q0 15 14.5 25t29.5 10q23 0 23 -36q0 -30 -41 -30zM220 552q-41 0 -41 30q0 36 23 36q16 0 30.5 -10t14.5 -25q0 -31 -27 -31zM739 585q18 0 18 -23t-24 -23q-15 0 -15 23t21 23zM155 585q20 0 20 -23t-15 -23q-24 0 -24 23t19 23zM764 547
q18 0 18 -18q0 -21 -23 -21q-16 0 -16 20q0 19 21 19zM129 547q22 0 22 -19q0 -20 -16 -20q-23 0 -23 21q0 18 17 18zM783 516q7 0 7 -17t-21 -17q-8 0 -8 15q0 19 22 19zM111 516q21 0 21 -19q0 -15 -7 -15q-21 0 -21 17t7 17zM787 481q13 0 13 -20q0 -13 -13 -13
q-12 0 -12 20q0 13 12 13zM107 481q12 0 12 -13q0 -20 -12 -20q-14 0 -14 13q0 20 14 20zM685 520q38 0 61 -45q18 -36 18 -78q0 -41 -18 -73q-22 -38 -61 -38q-41 0 -72.5 40t-31.5 82q0 35 23 79q18 33 81 33zM208 520q64 0 81 -33q24 -45 24 -79q0 -42 -31.5 -82
t-73.5 -40q-38 0 -60 38q-19 32 -19 73q0 43 19 78q22 45 60 45zM656 218q5 -64 -10 -97q-35 -75 -71 -67q-47 11 -48 63q-1 38 13 102q6 29 22 54q20 33 45 33q43 0 49 -88zM286 306q25 0 45 -33q16 -25 23 -54q13 -64 13 -102q-1 -52 -49 -63q-36 -8 -69 67q-16 35 -12 97
q7 88 49 88z" />
    <glyph glyph-name="periodcentered" unicode="&#x2219;" horiz-adv-x="840" 
d="M673 552q-26 0 -26 31q0 15 14.5 25t29.5 10q23 0 23 -36q0 -30 -41 -30zM220 552q-41 0 -41 30q0 36 23 36q16 0 30.5 -10t14.5 -25q0 -31 -27 -31zM739 585q18 0 18 -23t-24 -23q-15 0 -15 23t21 23zM155 585q20 0 20 -23t-15 -23q-24 0 -24 23t19 23zM764 547
q18 0 18 -18q0 -21 -23 -21q-16 0 -16 20q0 19 21 19zM129 547q22 0 22 -19q0 -20 -16 -20q-23 0 -23 21q0 18 17 18zM783 516q7 0 7 -17t-21 -17q-8 0 -8 15q0 19 22 19zM111 516q21 0 21 -19q0 -15 -7 -15q-21 0 -21 17t7 17zM787 481q13 0 13 -20q0 -13 -13 -13
q-12 0 -12 20q0 13 12 13zM107 481q12 0 12 -13q0 -20 -12 -20q-14 0 -14 13q0 20 14 20zM685 520q38 0 61 -45q18 -36 18 -78q0 -41 -18 -73q-22 -38 -61 -38q-41 0 -72.5 40t-31.5 82q0 35 23 79q18 33 81 33zM208 520q64 0 81 -33q24 -45 24 -79q0 -42 -31.5 -82
t-73.5 -40q-38 0 -60 38q-19 32 -19 73q0 43 19 78q22 45 60 45zM656 218q5 -64 -10 -97q-35 -75 -71 -67q-47 11 -48 63q-1 38 13 102q6 29 22 54q20 33 45 33q43 0 49 -88zM286 306q25 0 45 -33q16 -25 23 -54q13 -64 13 -102q-1 -52 -49 -63q-36 -8 -69 67q-16 35 -12 97
q7 88 49 88z" />
    <glyph glyph-name="ordmasculine" unicode="&#xba;" horiz-adv-x="669" 
 />
    <glyph glyph-name="guillemotright" unicode="&#xbb;" horiz-adv-x="559" 
d="M44 11q12 49 45 75q20 16 80 42q-62 26 -89 44q-47 29 -71 68l96 22q27 -46 85 -73q43 -20 111 -44q-82 -27 -115 -53q-27 -21 -36 -63zM250 21q30 60 66 87t101 38l-88 39q-45 20 -102 58l102 23q71 -46 113 -66l93 -44q-156 -24 -187 -123z" />
    <glyph glyph-name="onequarter" unicode="&#xbc;" horiz-adv-x="248" 
 />
    <glyph glyph-name="threequarters" unicode="&#xbe;" horiz-adv-x="730" 
 />
    <glyph glyph-name="questiondown" unicode="&#xbf;" horiz-adv-x="465" 
 />
    <glyph glyph-name="Agrave" unicode="&#xc0;" horiz-adv-x="765" 
d="M4 -20l60 95q65 104 82 142q43 95 43 206q0 45 -9 96l1 1q7 8 23 23l53 41q234 -395 376 -490q61 -42 95 -42q13 0 20 4l11 8q-47 -69 -110 -69q-55 0 -107 43q-33 27 -80 88q-169 -18 -265 -53q-18 -6 -96 -64q-58 -42 -97 -29zM131 82q121 46 240 73l53 12l-136 180
q-21 -66 -67 -139q-25 -40 -90 -126zM33 677q-3 7 20 20q14 7 21 7q4 0 5 -3q9 -41 50 -74q23 -18 78 -48q-77 14 -103 25q-49 21 -71 73z" />
    <glyph glyph-name="Aacute" unicode="&#xc1;" horiz-adv-x="765" 
d="M4 -20l60 95q65 104 82 142q43 95 43 206q0 45 -9 96l1 1q7 8 23 23l53 41q234 -395 376 -490q61 -42 95 -42q13 0 20 4l11 8q-47 -69 -110 -69q-55 0 -107 43q-33 27 -80 88q-169 -18 -265 -53q-18 -6 -96 -64q-58 -42 -97 -29zM131 82q121 46 240 73l53 12l-136 180
q-21 -66 -67 -139q-25 -40 -90 -126zM230 589q105 24 124 52q6 13 13 14q10 0 21 -7l16 -10q-16 -21 -46 -31q-25 -9 -128 -18z" />
    <glyph glyph-name="Acircumflex" unicode="&#xc2;" horiz-adv-x="765" 
d="M4 -20l60 95q65 104 82 142q43 95 43 206q0 45 -9 96l1 1q7 8 23 23l53 41q234 -395 376 -490q61 -42 95 -42q13 0 20 4l11 8q-47 -69 -110 -69q-55 0 -107 43q-33 27 -80 88q-169 -18 -265 -53q-18 -6 -96 -64q-58 -42 -97 -29zM131 82q121 46 240 73l53 12l-136 180
q-21 -66 -67 -139q-25 -40 -90 -126zM175 597l-11 9l59 50q29 25 45 52l42 -41q18 -17 69 -38l-40 -34q-31 15 -49 31l-42 36q-11 -20 -32 -35z" />
    <glyph glyph-name="Atilde" unicode="&#xc3;" horiz-adv-x="808" 
 />
    <glyph glyph-name="Adieresis" unicode="&#xc4;" horiz-adv-x="765" 
d="M4 -20l60 95q65 104 82 142q43 95 43 206q0 45 -9 96l1 1q7 8 23 23l53 41q234 -395 376 -490q61 -42 95 -42q13 0 20 4l11 8q-47 -69 -110 -69q-55 0 -107 43q-33 27 -80 88q-169 -18 -265 -53q-18 -6 -96 -64q-58 -42 -97 -29zM131 82q121 46 240 73l53 12l-136 180
q-21 -66 -67 -139q-25 -40 -90 -126zM298 625q5 20 57 51l25 5q0 -19 6.5 -27t19.5 -8q7 0 37 10q5 -1 6 -2q-8 -21 -44 -50q-32 -25 -58 -36q-13 -5 -33 17.5t-16 39.5zM84 625q6 21 58 51l25 5q0 -19 6.5 -27t18.5 -8q7 0 37 10q5 -1 6 -2q-8 -22 -43 -50q-31 -25 -58 -36
q-14 -6 -33.5 16.5t-16.5 40.5z" />
    <glyph glyph-name="Aring" unicode="&#xc5;" horiz-adv-x="672" 
 />
    <glyph glyph-name="Ccedilla" unicode="&#xc7;" 
d="M679 526l-124 -68q-158 76 -262 76q-182 0 -182 -206q0 -117 123 -197q109 -70 232 -70q79 0 136 26q19 9 41 23l-33 -24q-38 -28 -120 -60q-66 -26 -131 -26q-21 0 -21 -17q0 -18 21.5 -41.5t23.5 -36.5q0 -18 -33 -28t-64 -10h-12l5 4q24 7 35 14q21 11 22 28
q0 12 -23 43q-26 35 -29 44q-22 0 -88 19q-51 15 -110 83q-53 62 -75 120q-13 35 -13 76q0 137 145 216q119 66 267 66q139 0 269 -54z" />
    <glyph glyph-name="Egrave" unicode="&#xc8;" horiz-adv-x="752" 
d="M30 152q-12 18 -18 32q-12 31 -12 71q0 144 134 239q120 86 269 86q117 0 223 -44l-72 -70q-156 58 -259 58q-101 0 -146 -39t-59 -137h540q55 0 120 30q-29 -29 -79 -55q-54 -27 -91 -27h-490l1 -34q1 -38 57 -95q40 -40 87 -72q78 -54 174 -54q87 0 173 51
q-60 -60 -111 -87q-61 -32 -136 -32q-69 0 -141 35q-103 50 -164 144zM257 687q-3 7 20 20q14 7 21 7q4 0 5 -3q9 -41 50 -74q23 -18 78 -48q-77 14 -103 25q-49 21 -71 73z" />
    <glyph glyph-name="Eacute" unicode="&#xc9;" horiz-adv-x="752" 
d="M30 152q-12 18 -18 32q-12 31 -12 71q0 144 134 239q120 86 269 86q117 0 223 -44l-72 -70q-156 58 -259 58q-101 0 -146 -39t-59 -137h540q55 0 120 30q-29 -29 -79 -55q-54 -27 -91 -27h-490l1 -34q1 -38 57 -95q40 -40 87 -72q78 -54 174 -54q87 0 173 51
q-60 -60 -111 -87q-61 -32 -136 -32q-69 0 -141 35q-103 50 -164 144zM362 601q111 59 123 102q6 24 11 25q9 0 25 -13q6 -4 11 -11q1 -2 4 -5q-19 -50 -71 -72q-28 -12 -103 -26z" />
    <glyph glyph-name="Ecircumflex" unicode="&#xca;" horiz-adv-x="752" 
d="M30 152q-12 18 -18 32q-12 31 -12 71q0 144 134 239q120 86 269 86q117 0 223 -44l-72 -70q-156 58 -259 58q-101 0 -146 -39t-59 -137h540q55 0 120 30q-29 -29 -79 -55q-54 -27 -91 -27h-490l1 -34q1 -38 57 -95q40 -40 87 -72q78 -54 174 -54q87 0 173 51
q-60 -60 -111 -87q-61 -32 -136 -32q-69 0 -141 35q-103 50 -164 144zM323 599l-11 9l59 50q29 25 45 52l42 -41q18 -17 69 -38l-40 -34q-31 15 -49 31l-42 36q-11 -20 -32 -35z" />
    <glyph glyph-name="Edieresis" unicode="&#xcb;" horiz-adv-x="752" 
d="M30 152q-12 18 -18 32q-12 31 -12 71q0 144 134 239q120 86 269 86q117 0 223 -44l-72 -70q-156 58 -259 58q-101 0 -146 -39t-59 -137h540q55 0 120 30q-29 -29 -79 -55q-54 -27 -91 -27h-490l1 -34q1 -38 57 -95q40 -40 87 -72q78 -54 174 -54q87 0 173 51
q-60 -60 -111 -87q-61 -32 -136 -32q-69 0 -141 35q-103 50 -164 144zM460 641q5 20 57 51l25 5q0 -19 6.5 -27t19.5 -8q7 0 37 10q5 -1 6 -2q-8 -21 -44 -50q-32 -25 -58 -36q-13 -5 -33 17.5t-16 39.5zM246 641q6 21 58 51l25 5q0 -19 6.5 -27t18.5 -8q7 0 37 10
q5 -1 6 -2q-8 -22 -43 -50q-31 -25 -58 -36q-14 -6 -33.5 16.5t-16.5 40.5z" />
    <glyph glyph-name="Igrave" unicode="&#xcc;" horiz-adv-x="740" 
 />
    <glyph glyph-name="Iacute" unicode="&#xcd;" 
 />
    <glyph glyph-name="Icircumflex" unicode="&#xce;" horiz-adv-x="1305" 
 />
    <glyph glyph-name="Idieresis" unicode="&#xcf;" horiz-adv-x="768" 
 />
    <glyph glyph-name="Eth" unicode="&#xd0;" horiz-adv-x="547" 
 />
    <glyph glyph-name="Ntilde" unicode="&#xd1;" horiz-adv-x="795" 
d="M28 22v430l-28 38q36 38 50 59l32 47q44 -74 72 -109q37 -46 95 -91q27 -22 169 -104l278 -160v308q0 50 -32 50q-14 0 -21 -4l-11 -6q0 21 43.5 64t65.5 43q19 0 19 -31v-452l-30 -51q-21 -36 -56 -81l-37 40q-34 36 -112 96q-44 33 -129 74q-95 46 -131 70
q-75 49 -107 75l-66 53v-242q0 -71 62 -71h8l6 1l-59 -62q-35 -37 -57 -37q-24 0 -24 53zM436 643l30 -8l29 -3q45 0 84 29q-40 -81 -106 -81q-19 0 -34 4l-35 13q-18 9 -33 12l-28 3q-38 0 -60.5 -10t-39.5 -23q44 84 112 84q20 0 38 -6z" />
    <glyph glyph-name="Ograve" unicode="&#xd2;" horiz-adv-x="205" 
 />
    <glyph glyph-name="Oacute" unicode="&#xd3;" horiz-adv-x="200" 
 />
    <glyph glyph-name="Ocircumflex" unicode="&#xd4;" 
d="M16 150q-16 46 -16 92q0 170 171 281q93 60 213 60q122 0 204 -90q48 -53 48 -159q0 -81 -39.5 -156t-105.5 -119q-125 -82 -241 -82q-60 0 -108 21q-89 40 -126 152zM522 131q22 46 22 98q0 81 -42 160q-47 88 -116 115q-65 24 -110 24q-93 0 -136 -80q-34 -62 -34 -164
q0 -97 83 -171q80 -71 179 -71q110 0 154 89zM249 603l-11 9l59 50q29 25 45 52l42 -41q18 -17 69 -38l-40 -34q-31 15 -49 31l-42 36q-11 -20 -32 -35z" />
    <glyph glyph-name="Otilde" unicode="&#xd5;" horiz-adv-x="92" 
 />
    <glyph glyph-name="Odieresis" unicode="&#xd6;" 
d="M16 150q-16 46 -16 92q0 170 171 281q93 60 213 60q122 0 204 -90q48 -53 48 -159q0 -81 -39.5 -156t-105.5 -119q-125 -82 -241 -82q-60 0 -108 21q-89 40 -126 152zM522 131q22 46 22 98q0 81 -42 160q-47 88 -116 115q-65 24 -110 24q-93 0 -136 -80q-34 -62 -34 -164
q0 -97 83 -171q80 -71 179 -71q110 0 154 89zM434 641q5 20 57 51l25 5q0 -19 6.5 -27t19.5 -8q7 0 37 10q5 -1 6 -2q-8 -21 -44 -50q-32 -25 -58 -36q-13 -5 -33 17.5t-16 39.5zM220 641q6 21 58 51l25 5q0 -19 6.5 -27t18.5 -8q7 0 37 10q5 -1 6 -2q-8 -22 -43 -50
q-31 -25 -58 -36q-14 -6 -33.5 16.5t-16.5 40.5z" />
    <glyph glyph-name="multiply" unicode="&#xd7;" horiz-adv-x="430" 
 />
    <glyph glyph-name="Oslash" unicode="&#xd8;" horiz-adv-x="532" 
 />
    <glyph glyph-name="Ugrave" unicode="&#xd9;" horiz-adv-x="820" 
 />
    <glyph glyph-name="Uacute" unicode="&#xda;" horiz-adv-x="275" 
 />
    <glyph glyph-name="Udieresis" unicode="&#xdc;" horiz-adv-x="665" 
d="M60 176v256q0 31 -15 46q-13 12 -45 18q100 83 139 83q21 0 21 -27v-312q0 -120 117 -158q45 -15 73 -20l46 -4q46 -4 77 17q25 16 39 33v336q0 50 -42 50l-8 -1l-6 -1q95 80 135 80q21 0 21 -26v-484l-100 -100v121q-130 -97 -224 -97q-84 0 -153 52q-75 56 -75 138z
M400 629q5 20 57 51l25 5q0 -19 6.5 -27t19.5 -8q7 0 37 10q5 -1 6 -2q-8 -21 -44 -50q-32 -25 -58 -36q-13 -5 -33 17.5t-16 39.5zM186 629q6 21 58 51l25 5q0 -19 6.5 -27t18.5 -8q7 0 37 10q5 -1 6 -2q-8 -22 -43 -50q-31 -25 -58 -36q-14 -6 -33.5 16.5t-16.5 40.5z" />
    <glyph glyph-name="Yacute" unicode="&#xdd;" horiz-adv-x="310" 
 />
    <glyph glyph-name="Thorn" unicode="&#xde;" horiz-adv-x="310" 
 />
    <glyph glyph-name="germandbls" unicode="&#xdf;" horiz-adv-x="460" 
d="M46 56v414q0 36 51 65q44 25 83 25q172 0 172 -76q0 -55 -87 -115q-26 -18 -59 -35l26 6l35 3q24 2 51 -6q36 -12 57 -46.5t21 -74.5q0 -75 -65 -134q-56 -52 -135 -73q62 41 89 72q43 48 43 103q0 33 -19 65t-47 52q-41 27 -76 24l-12 -1q87 60 93 97l5 31q0 36 -28 61
t-65 25q-51 0 -51 -50v-420q0 -42 -41 -83q-19 -18 -77 -59q36 55 36 130z" />
    <glyph glyph-name="agrave" unicode="&#xe0;" horiz-adv-x="559" 
d="M10 109q0 76 97 121q77 36 163 36q24 0 54.5 -9.5t33.5 -9.5q8 0 18 4l22 9l-1 -9l-1 -16q-1 -17 6 -47q22 -93 69 -123q28 -14 60 -14q35 0 52 7l25 10q-101 -66 -175 -66q-43 0 -63.5 18.5t-33.5 60.5q-26 -33 -86 -58.5t-119 -25.5q-42 0 -68 14q-53 26 -53 98z
M107 165q0 -125 93 -125q46 0 105 30q15 8 28 17l-38 108q-1 4 -45.5 14t-66.5 10q-76 0 -76 -54zM121 389q-3 7 20 20q14 7 21 7q4 0 5 -3q9 -41 50 -74q23 -18 78 -48q-77 14 -103 25q-49 21 -71 73z" />
    <glyph glyph-name="aacute" unicode="&#xe1;" horiz-adv-x="559" 
d="M10 109q0 76 97 121q77 36 163 36q24 0 54.5 -9.5t33.5 -9.5q8 0 18 4l22 9l-1 -9l-1 -16q-1 -17 6 -47q22 -93 69 -123q28 -14 60 -14q35 0 52 7l25 10q-101 -66 -175 -66q-43 0 -63.5 18.5t-33.5 60.5q-26 -33 -86 -58.5t-119 -25.5q-42 0 -68 14q-53 26 -53 98z
M107 165q0 -125 93 -125q46 0 105 30q15 8 28 17l-38 108q-1 4 -45.5 14t-66.5 10q-76 0 -76 -54zM180 291q111 59 123 102q6 24 11 25q9 0 25 -13q6 -4 11 -11q1 -2 4 -5q-19 -50 -71 -72q-28 -12 -103 -26z" />
    <glyph glyph-name="acircumflex" unicode="&#xe2;" horiz-adv-x="559" 
d="M10 109q0 76 97 121q77 36 163 36q24 0 54.5 -9.5t33.5 -9.5q8 0 18 4l22 9l-1 -9l-1 -16q-1 -17 6 -47q22 -93 69 -123q28 -14 60 -14q35 0 52 7l25 10q-101 -66 -175 -66q-43 0 -63.5 18.5t-33.5 60.5q-26 -33 -86 -58.5t-119 -25.5q-42 0 -68 14q-53 26 -53 98z
M107 165q0 -125 93 -125q46 0 105 30q15 8 28 17l-38 108q-1 4 -45.5 14t-66.5 10q-76 0 -76 -54zM107 299l-11 9l59 50q29 25 45 52l42 -41q18 -17 69 -38l-40 -34q-31 15 -49 31l-42 36q-11 -20 -32 -35z" />
    <glyph glyph-name="atilde" unicode="&#xe3;" horiz-adv-x="190" 
 />
    <glyph glyph-name="adieresis" unicode="&#xe4;" horiz-adv-x="559" 
d="M10 109q0 76 97 121q77 36 163 36q24 0 54.5 -9.5t33.5 -9.5q8 0 18 4l22 9l-1 -9l-1 -16q-1 -17 6 -47q22 -93 69 -123q28 -14 60 -14q35 0 52 7l25 10q-101 -66 -175 -66q-43 0 -63.5 18.5t-33.5 60.5q-26 -33 -86 -58.5t-119 -25.5q-42 0 -68 14q-53 26 -53 98z
M107 165q0 -125 93 -125q46 0 105 30q15 8 28 17l-38 108q-1 4 -45.5 14t-66.5 10q-76 0 -76 -54zM272 353q5 20 57 51l25 5q0 -19 6.5 -27t19.5 -8q7 0 37 10q5 -1 6 -2q-8 -21 -44 -50q-32 -25 -58 -36q-13 -5 -33 17.5t-16 39.5zM58 353q6 21 58 51l25 5q0 -19 6.5 -27
t18.5 -8q7 0 37 10q5 -1 6 -2q-8 -22 -43 -50q-31 -25 -58 -36q-14 -6 -33.5 16.5t-16.5 40.5z" />
    <glyph glyph-name="aring" unicode="&#xe5;" horiz-adv-x="765" 
 />
    <glyph glyph-name="ae" unicode="&#xe6;" horiz-adv-x="752" 
 />
    <glyph glyph-name="ccedilla" unicode="&#xe7;" horiz-adv-x="428" 
d="M6 132q0 56 125 105q106 41 175 41q64 0 94 -28l-69 -39q-32 -18 -41 -13q-37 31 -109 31q-79 0 -79 -51q0 -133 121 -133q40 0 100.5 17t62.5 20q-18 -33 -83 -59q-27 -11 -63 -23q-10 -3 -19 -6q-22 -7 -45 -15q-3 -3 -5 -12q0 -5 11.5 -23t11.5 -23q0 -24 -84 -37l1 4
q36 18 40 36q3 10 -13 25q-13 12 -10 29q-71 0 -99 42q-23 34 -23 112z" />
    <glyph glyph-name="egrave" unicode="&#xe8;" horiz-adv-x="752" 
 />
    <glyph glyph-name="eacute" unicode="&#xe9;" horiz-adv-x="419" 
d="M16 37q-15 27 -15 61q0 57 38.5 107t94 62t95.5 12q95 0 152 -48l14 -25l-291 -75q0 -110 118 -110q30 0 63 8q40 10 82 28l-44 -40q-68 -44 -147 -44q-30 0 -56 5q-81 17 -104 59zM104 147l161 40q3 1 5 6q0 19 -31 34q-27 14 -48 14l-34 -4q-22 -3 -36 -33
q-10 -21 -17 -57zM59 389q-3 7 20 20q14 7 21 7q4 0 5 -3q9 -41 50 -74q23 -18 78 -48q-77 14 -103 25q-49 21 -71 73z" />
    <glyph glyph-name="ecircumflex" unicode="&#xea;" horiz-adv-x="419" 
d="M16 37q-15 27 -15 61q0 57 38.5 107t94 62t95.5 12q95 0 152 -48l14 -25l-291 -75q0 -110 118 -110q30 0 63 8q40 10 82 28l-44 -40q-68 -44 -147 -44q-30 0 -56 5q-81 17 -104 59zM104 147l161 40q3 1 5 6q0 19 -31 34q-27 14 -48 14l-34 -4q-22 -3 -36 -33
q-10 -21 -17 -57zM138 291q111 59 123 102q6 24 11 25q9 0 25 -13q6 -4 11 -11q1 -2 4 -5q-19 -50 -71 -72q-28 -12 -103 -26z" />
    <glyph glyph-name="edieresis" unicode="&#xeb;" horiz-adv-x="419" 
d="M16 37q-15 27 -15 61q0 57 38.5 107t94 62t95.5 12q95 0 152 -48l14 -25l-291 -75q0 -110 118 -110q30 0 63 8q40 10 82 28l-44 -40q-68 -44 -147 -44q-30 0 -56 5q-81 17 -104 59zM104 147l161 40q3 1 5 6q0 19 -31 34q-27 14 -48 14l-34 -4q-22 -3 -36 -33
q-10 -21 -17 -57zM107 299l-11 9l59 50q29 25 45 52l42 -41q18 -17 69 -38l-40 -34q-31 15 -49 31l-42 36q-11 -20 -32 -35z" />
    <glyph glyph-name="igrave" unicode="&#xec;" horiz-adv-x="419" 
d="M16 37q-15 27 -15 61q0 57 38.5 107t94 62t95.5 12q95 0 152 -48l14 -25l-291 -75q0 -110 118 -110q30 0 63 8q40 10 82 28l-44 -40q-68 -44 -147 -44q-30 0 -56 5q-81 17 -104 59zM104 147l161 40q3 1 5 6q0 19 -31 34q-27 14 -48 14l-34 -4q-22 -3 -36 -33
q-10 -21 -17 -57zM242 353q5 20 57 51l25 5q0 -19 6.5 -27t19.5 -8q7 0 37 10q5 -1 6 -2q-8 -21 -44 -50q-32 -25 -58 -36q-13 -5 -33 17.5t-16 39.5zM28 353q6 21 58 51l25 5q0 -19 6.5 -27t18.5 -8q7 0 37 10q5 -1 6 -2q-8 -22 -43 -50q-31 -25 -58 -36q-14 -6 -33.5 16.5
t-16.5 40.5z" />
    <glyph glyph-name="iacute" unicode="&#xed;" horiz-adv-x="206" 
 />
    <glyph glyph-name="icircumflex" unicode="&#xee;" 
 />
    <glyph glyph-name="idieresis" unicode="&#xef;" 
 />
    <glyph glyph-name="eth" unicode="&#xf0;" horiz-adv-x="746" 
 />
    <glyph glyph-name="ntilde" unicode="&#xf1;" horiz-adv-x="502" 
d="M36 -16q11 28 15 50l4 44q0 55 -26 91q-9 13 -21 26q-2 3 -8 9l72 60q3 3 12 5q22 0 45 -40q2 -4 10 -21q43 32 97 55q60 24 108 24q39 0 65.5 -13t41.5 -50q13 -31 13 -67q0 -65 -43.5 -110t-108.5 -55q21 17 36.5 48t15.5 57q0 14 -1 22t-17 40q-30 61 -102 61
q-47 0 -97 -31q10 -20 12 -35l4 -33q0 -38 -16 -65zM264 379l30 -8l29 -3q45 0 84 29q-40 -81 -106 -81q-19 0 -34 4l-35 13q-18 9 -33 12l-28 3q-38 0 -60.5 -10t-39.5 -23q44 84 112 84q20 0 38 -6z" />
    <glyph glyph-name="ograve" unicode="&#xf2;" horiz-adv-x="665" 
 />
    <glyph glyph-name="oacute" unicode="&#xf3;" horiz-adv-x="665" 
 />
    <glyph glyph-name="ocircumflex" unicode="&#xf4;" horiz-adv-x="465" 
d="M8 136q26 70 122 114q84 38 168 38q108 0 129 -60q8 -23 8 -41q0 -55 -59 -113q-50 -49 -110 -72q-53 -21 -67 -22l-39 -4q-60 0 -106 30q-53 34 -53 91q0 20 7 39zM106 138q0 -52 48 -83.5t101 -31.5q24 0 41 11q39 32 39 96q0 31 -11 54q-12 32 -44 53t-66 21
q-47 0 -77.5 -36t-30.5 -84zM107 299l-11 9l59 50q29 25 45 52l42 -41q18 -17 69 -38l-40 -34q-31 15 -49 31l-42 36q-11 -20 -32 -35z" />
    <glyph glyph-name="otilde" unicode="&#xf5;" horiz-adv-x="245" 
 />
    <glyph glyph-name="odieresis" unicode="&#xf6;" horiz-adv-x="465" 
d="M8 136q26 70 122 114q84 38 168 38q108 0 129 -60q8 -23 8 -41q0 -55 -59 -113q-50 -49 -110 -72q-53 -21 -67 -22l-39 -4q-60 0 -106 30q-53 34 -53 91q0 20 7 39zM106 138q0 -52 48 -83.5t101 -31.5q24 0 41 11q39 32 39 96q0 31 -11 54q-12 32 -44 53t-66 21
q-47 0 -77.5 -36t-30.5 -84zM280 353q5 20 57 51l25 5q0 -19 6.5 -27t19.5 -8q7 0 37 10q5 -1 6 -2q-8 -21 -44 -50q-32 -25 -58 -36q-13 -5 -33 17.5t-16 39.5zM66 353q6 21 58 51l25 5q0 -19 6.5 -27t18.5 -8q7 0 37 10q5 -1 6 -2q-8 -22 -43 -50q-31 -25 -58 -36
q-14 -6 -33.5 16.5t-16.5 40.5z" />
    <glyph glyph-name="divide" unicode="&#xf7;" horiz-adv-x="477" 
 />
    <glyph glyph-name="oslash" unicode="&#xf8;" horiz-adv-x="417" 
 />
    <glyph glyph-name="ugrave" unicode="&#xf9;" horiz-adv-x="400" 
 />
    <glyph glyph-name="uacute" unicode="&#xfa;" horiz-adv-x="400" 
 />
    <glyph glyph-name="ucircumflex" unicode="&#xfb;" horiz-adv-x="400" 
 />
    <glyph glyph-name="udieresis" unicode="&#xfc;" horiz-adv-x="524" 
d="M49 64v106q0 46 -34 46l-10 -2l34 28q36 30 67 30q25 0 25 -32v-116q0 -32 18 -52t50 -20q47 0 103 22q7 3 25 12v120q0 18 -2 22t-17 5l-17 -2l44 29q23 15 46 15q28 0 28 -35v-120q0 -35 15 -51.5t41 -16.5q20 0 46 9q5 2 14 7q-88 -71 -141 -71q-23 0 -40 20t-17 50
l-80 -29q-51 -20 -122 -42q-30 0 -53 19t-23 49zM284 353q5 20 57 51l25 5q0 -19 6.5 -27t19.5 -8q7 0 37 10q5 -1 6 -2q-8 -21 -44 -50q-32 -25 -58 -36q-13 -5 -33 17.5t-16 39.5zM70 353q6 21 58 51l25 5q0 -19 6.5 -27t18.5 -8q7 0 37 10q5 -1 6 -2q-8 -22 -43 -50
q-31 -25 -58 -36q-14 -6 -33.5 16.5t-16.5 40.5z" />
    <glyph glyph-name="yacute" unicode="&#xfd;" horiz-adv-x="400" 
 />
    <glyph glyph-name="thorn" unicode="&#xfe;" horiz-adv-x="865" 
d="M204 14v158q0 12 43 37.5t55 20.5q189 -78 328 -78q79 0 130 18q56 20 108 72q-82 -35 -156 -35q-52 0 -144 38t-140 38q-100 0 -224 -77q0 18 -6.5 38.5t-28.5 20.5q-17 0 -39 -15l-130 -88l34 13q25 7 39 7q49 0 49 -52v-176z" />
    <glyph glyph-name="ydieresis" unicode="&#xff;" horiz-adv-x="300" 
d="M200 781l-52 -158q-4 -11 -12 -11q-7 0 -8 9l-6 104q-1 9 10 9q8 0 9 -9l4 -48l36 109q1 7 9 7q14 0 10 -12zM261 602q-8 -7 -22 -7q-31 1 -28 1q-5 0 -23 -2q-7 -2 -10 1.5t-1 10.5q6 20 28 39t26 31q2 8 2 12q0 9 -15 9q-17 0 -12 -9q2 -5 -2 -10t-9 -5q-9 0 -9 13
q0 29 39 29q28 0 28 -27q0 -26 -25 -47q-20 -17 -26 -27h15q10 -1 15 -1q12 0 14 3q6 8 14 1q8 -8 1 -15zM102 630l-42 -6q-5 -1 -7.5 1.5t-2.5 7.5l9 115q1 8 9 8q11 0 11 -11l-9 -100l30 3q11 1 11 -9q0 -9 -9 -9z" />
    <glyph glyph-name="OE" unicode="&#x152;" horiz-adv-x="559" 
 />
    <glyph glyph-name="oe" unicode="&#x153;" horiz-adv-x="524" 
 />
    <glyph glyph-name="Scaron" unicode="&#x160;" horiz-adv-x="559" 
 />
    <glyph glyph-name="scaron" unicode="&#x161;" horiz-adv-x="465" 
 />
    <glyph glyph-name="Ydieresis" unicode="&#x178;" horiz-adv-x="524" 
 />
    <glyph glyph-name="florin" unicode="&#x192;" horiz-adv-x="752" 
 />
    <glyph glyph-name="circumflex" unicode="&#x2c6;" horiz-adv-x="559" 
 />
    <glyph glyph-name="tilde" unicode="&#x2dc;" horiz-adv-x="465" 
 />
    <glyph glyph-name="endash" unicode="&#x2013;" horiz-adv-x="547" 
d="M142 190h360l-110 -55h-360z" />
    <glyph glyph-name="emdash" unicode="&#x2014;" horiz-adv-x="780" 
d="M142 190h590l-110 -55h-590z" />
    <glyph glyph-name="quoteleft" unicode="&#x2018;" horiz-adv-x="104" 
d="M84 419q-73 45 -73 116q0 24 9 26q9 0 25 -13q6 -4 11 -11q1 -2 4 -5l-3 -20q0 -35 8 -52z" />
    <glyph glyph-name="quoteright" unicode="&#x2019;" horiz-adv-x="92" 
d="M28 532q2 3 3 4q16 21 37 25q6 -4 7 -8l2 -19q0 -68 -73 -115l17 43q9 23 9 51z" />
    <glyph glyph-name="quotesinglbase" unicode="&#x201a;" 
 />
    <glyph glyph-name="quotedblleft" unicode="&#x201c;" horiz-adv-x="205" 
d="M180 419q-73 45 -73 116q0 24 9 26q9 0 25 -13q6 -4 11 -11q1 -2 4 -5l-3 -20q0 -35 8 -52zM80 427q-73 45 -73 116q0 24 9 26q9 0 25 -13q6 -4 11 -11q1 -2 4 -5l-3 -20q0 -35 8 -52z" />
    <glyph glyph-name="quotedblright" unicode="&#x201d;" horiz-adv-x="200" 
d="M42 532q2 3 3 4q16 21 37 25q6 -4 7 -8l2 -19q0 -68 -73 -115l17 43q9 23 9 51zM142 540q2 3 3 4q16 21 37 25q6 -4 7 -8l2 -19q0 -68 -73 -115l17 43q9 23 9 51z" />
    <glyph glyph-name="quotedblbase" unicode="&#x201e;" horiz-adv-x="795" 
 />
    <glyph glyph-name="dagger" unicode="&#x2020;" horiz-adv-x="665" 
 />
    <glyph glyph-name="daggerdbl" unicode="&#x2021;" horiz-adv-x="559" 
 />
    <glyph glyph-name="bullet" unicode="&#x2022;" horiz-adv-x="200" 
 />
    <glyph glyph-name="ellipsis" unicode="&#x2026;" 
 />
    <glyph glyph-name="perthousand" unicode="&#x2030;" horiz-adv-x="559" 
 />
    <glyph glyph-name="guilsinglleft" unicode="&#x2039;" horiz-adv-x="310" 
d="M262 259q-11 -48 -45 -75q-21 -17 -80 -42q120 -47 160 -112l-96 -22q-39 65 -196 117q73 25 94 38q44 27 57 78z" />
    <glyph glyph-name="guilsinglright" unicode="&#x203a;" horiz-adv-x="310" 
d="M44 11q12 49 45 75q20 16 80 42q-62 26 -89 44q-47 29 -71 68l96 22q27 -46 85 -73q43 -20 111 -44q-82 -27 -115 -53q-27 -21 -36 -63z" />
    <glyph glyph-name="trademark" unicode="&#x2122;" horiz-adv-x="465" 
 />
    <glyph glyph-name="glyph205" horiz-adv-x="200" 
 />
    <glyph glyph-name="glyph206" horiz-adv-x="200" 
 />
    </font>
</defs>
</svg>
