<svg xmlns="http://www.w3.org/2000/svg" xmlns:xlink="http://www.w3.org/1999/xlink" preserveAspectRatio="xMidYMid" width="18.38" height="18.344" viewBox="0 0 18.38 18.344">
  <defs>
    <style>
      .cls-1 {
        fill: #fdfdfd;
        fill-rule: evenodd;
      }
    </style>
  </defs>
  <path d="M10.427,9.163 L18.107,1.484 C18.451,1.140 18.451,0.582 18.107,0.239 C17.763,-0.105 17.206,-0.105 16.862,0.239 L9.181,7.917 L1.501,0.240 C1.157,-0.104 0.599,-0.104 0.255,0.240 C-0.089,0.584 -0.089,1.141 0.255,1.485 L7.936,9.164 L0.257,16.841 C-0.087,17.185 -0.087,17.742 0.257,18.086 C0.429,18.258 0.654,18.345 0.879,18.345 C1.104,18.345 1.330,18.259 1.501,18.086 L9.181,10.408 L16.862,18.086 C17.034,18.258 17.258,18.345 17.484,18.345 C17.709,18.345 17.935,18.259 18.106,18.086 C18.450,17.742 18.450,17.185 18.106,16.841 L10.427,9.163 Z" class="cls-1"/>
</svg>
