<?xml version="1.0" encoding="iso-8859-1"?>
<!-- Generator: Adobe Illustrator 19.0.0, SVG Export Plug-In . SVG Version: 6.00 Build 0)  -->
<svg xmlns="http://www.w3.org/2000/svg" xmlns:xlink="http://www.w3.org/1999/xlink" version="1.1" id="Capa_1" x="0px" y="0px" viewBox="0 0 507.312 507.312" style="enable-background:new 0 0 507.312 507.312;" xml:space="preserve" width="512px" height="512px">
<g>
	<g>
		<g>
			<path d="M301.656,75.312c0-26.51-21.49-48-48-48c-26.51,0-48,21.49-48,48v160c-44.161,0.053-79.947,35.839-80,80v85.616l64,80     v26.384h32v-37.616l-64-80v-74.384c0-26.51,21.49-48,48-48v112h32v-304c0-8.837,7.163-16,16-16s16,7.163,16,16v140.224     l52.32,14.272l8.416-30.88l-28.8-7.84L301.656,75.312z" fill="#FFFFFF"/>
			<rect x="356.49" y="211.066" transform="matrix(-0.9648 -0.2629 0.2629 -0.9648 672.1706 544.0817)" width="32" height="32" fill="#FFFFFF"/>
			<polygon points="414.6,255.056 445.656,263.536 445.656,405.984 397.656,469.984 397.656,507.312 429.656,507.312      429.656,480.64 477.656,416.64 477.656,239.088 423.016,224.192    " fill="#FFFFFF"/>
			<polygon points="88.968,22.624 66.344,0 7.032,59.312 66.344,118.624 88.968,96 68.28,75.312 109.656,75.312 109.656,43.312      68.28,43.312    " fill="#FFFFFF"/>
			<rect x="141.656" y="43.312" width="32" height="32" fill="#FFFFFF"/>
			<polygon points="418.344,96 440.968,118.624 500.28,59.312 440.968,0 418.344,22.624 439.032,43.312 397.656,43.312      397.656,75.312 439.032,75.312    " fill="#FFFFFF"/>
			<rect x="333.656" y="43.312" width="32" height="32" fill="#FFFFFF"/>
		</g>
	</g>
</g>
<g>
</g>
<g>
</g>
<g>
</g>
<g>
</g>
<g>
</g>
<g>
</g>
<g>
</g>
<g>
</g>
<g>
</g>
<g>
</g>
<g>
</g>
<g>
</g>
<g>
</g>
<g>
</g>
<g>
</g>
</svg>
