<?xml version="1.0" encoding="utf-8"?>
<!-- Generator: Adobe Illustrator 22.0.1, SVG Export Plug-In . SVG Version: 6.00 Build 0)  -->
<svg version="1.1" id="Calque_1" xmlns="http://www.w3.org/2000/svg" xmlns:xlink="http://www.w3.org/1999/xlink" x="0px" y="0px"
	 viewBox="0 0 72 72.1" style="enable-background:new 0 0 72 72.1;" xml:space="preserve">
<style type="text/css">
	.st0{clip-path:url(#SVGID_2_);fill:#968166;}
	.st1{clip-path:url(#SVGID_2_);fill:#958065;}
	.st2{clip-path:url(#SVGID_2_);fill:#947F65;}
	.st3{clip-path:url(#SVGID_2_);fill:#937E64;}
	.st4{clip-path:url(#SVGID_2_);fill:#927E63;}
	.st5{clip-path:url(#SVGID_2_);fill:#917D63;}
	.st6{clip-path:url(#SVGID_2_);fill:#907C62;}
	.st7{clip-path:url(#SVGID_2_);fill:#8F7B62;}
	.st8{clip-path:url(#SVGID_2_);fill:#8E7A61;}
	.st9{clip-path:url(#SVGID_2_);fill:#8D7960;}
	.st10{clip-path:url(#SVGID_2_);fill:#8C7860;}
	.st11{clip-path:url(#SVGID_2_);fill:#8B785F;}
	.st12{clip-path:url(#SVGID_2_);fill:#8A775E;}
	.st13{clip-path:url(#SVGID_2_);fill:#89765E;}
	.st14{clip-path:url(#SVGID_2_);fill:#88755D;}
	.st15{clip-path:url(#SVGID_2_);fill:#87745C;}
	.st16{clip-path:url(#SVGID_2_);fill:#86735C;}
	.st17{clip-path:url(#SVGID_2_);fill:#85735B;}
	.st18{clip-path:url(#SVGID_2_);fill:#84725A;}
	.st19{clip-path:url(#SVGID_2_);fill:#83715A;}
	.st20{clip-path:url(#SVGID_2_);fill:#827059;}
	.st21{clip-path:url(#SVGID_2_);fill:#816F59;}
	.st22{clip-path:url(#SVGID_2_);fill:#806E58;}
	.st23{clip-path:url(#SVGID_2_);fill:#7F6D57;}
	.st24{clip-path:url(#SVGID_2_);fill:#7E6D57;}
	.st25{clip-path:url(#SVGID_2_);fill:#7D6C56;}
	.st26{clip-path:url(#SVGID_2_);fill:#7C6B55;}
	.st27{clip-path:url(#SVGID_2_);fill:#7B6A55;}
	.st28{clip-path:url(#SVGID_2_);fill:#7A6954;}
	.st29{clip-path:url(#SVGID_2_);fill:#796853;}
	.st30{clip-path:url(#SVGID_2_);fill:#786753;}
	.st31{clip-path:url(#SVGID_2_);fill:#776752;}
	.st32{clip-path:url(#SVGID_2_);fill:#766652;}
	.st33{clip-path:url(#SVGID_2_);fill:#756551;}
	.st34{clip-path:url(#SVGID_2_);fill:#746450;}
	.st35{clip-path:url(#SVGID_2_);fill:#736350;}
	.st36{clip-path:url(#SVGID_2_);fill:#72624F;}
	.st37{clip-path:url(#SVGID_2_);fill:#71614E;}
	.st38{clip-path:url(#SVGID_2_);fill:#70614E;}
	.st39{clip-path:url(#SVGID_2_);fill:#6F604D;}
	.st40{clip-path:url(#SVGID_2_);fill:#6E5F4C;}
	.st41{clip-path:url(#SVGID_2_);fill:#6D5E4C;}
	.st42{clip-path:url(#SVGID_2_);fill:#6C5D4B;}
	.st43{clip-path:url(#SVGID_2_);fill:#6B5C4B;}
	.st44{clip-path:url(#SVGID_2_);fill:#6A5B4A;}
	.st45{clip-path:url(#SVGID_2_);fill:#695B49;}
	.st46{clip-path:url(#SVGID_2_);fill:#685A49;}
	.st47{clip-path:url(#SVGID_2_);fill:#675948;}
	.st48{clip-path:url(#SVGID_2_);fill:#665847;}
	.st49{clip-path:url(#SVGID_2_);fill:#655747;}
	.st50{clip-path:url(#SVGID_2_);fill:#645646;}
	.st51{clip-path:url(#SVGID_2_);fill:#635645;}
	.st52{clip-path:url(#SVGID_2_);fill:#625545;}
	.st53{clip-path:url(#SVGID_2_);fill:#615444;}
	.st54{clip-path:url(#SVGID_2_);fill:#605343;}
	.st55{clip-path:url(#SVGID_2_);fill:#5F5243;}
	.st56{clip-path:url(#SVGID_2_);fill:#5E5142;}
	.st57{clip-path:url(#SVGID_2_);fill:#5D5042;}
	.st58{clip-path:url(#SVGID_2_);fill:#5C5041;}
	.st59{clip-path:url(#SVGID_2_);fill:#5B4F40;}
	.st60{clip-path:url(#SVGID_2_);fill:#5A4E40;}
	.st61{clip-path:url(#SVGID_2_);fill:#594D3F;}
	.st62{clip-path:url(#SVGID_2_);fill:#574C3E;}
	.st63{clip-path:url(#SVGID_2_);fill:#564B3E;}
	.st64{clip-path:url(#SVGID_2_);fill:#554A3D;}
	.st65{clip-path:url(#SVGID_2_);fill:#544A3C;}
	.st66{clip-path:url(#SVGID_2_);fill:#53493C;}
	.st67{clip-path:url(#SVGID_2_);fill:#52483B;}
	.st68{clip-path:url(#SVGID_2_);fill:#51473B;}
	.st69{clip-path:url(#SVGID_2_);fill:#50463A;}
	.st70{clip-path:url(#SVGID_2_);fill:#4F4539;}
	.st71{clip-path:url(#SVGID_2_);fill:#4E4439;}
	.st72{clip-path:url(#SVGID_2_);fill:#4D4438;}
	.st73{clip-path:url(#SVGID_2_);fill:#4C4337;}
	.st74{clip-path:url(#SVGID_2_);fill:#4B4237;}
	.st75{clip-path:url(#SVGID_2_);fill:#4A4136;}
	.st76{clip-path:url(#SVGID_2_);fill:#494035;}
	.st77{clip-path:url(#SVGID_2_);fill:#483F35;}
	.st78{clip-path:url(#SVGID_2_);fill:#473F34;}
	.st79{clip-path:url(#SVGID_2_);fill:#463E33;}
	.st80{clip-path:url(#SVGID_2_);fill:#453D33;}
	.st81{clip-path:url(#SVGID_2_);fill:#443C32;}
	.st82{clip-path:url(#SVGID_2_);fill:#433B32;}
	.st83{clip-path:url(#SVGID_2_);fill:#423A31;}
	.st84{clip-path:url(#SVGID_2_);fill:#413930;}
	.st85{clip-path:url(#SVGID_2_);fill:#403930;}
	.st86{clip-path:url(#SVGID_2_);fill:#3F382F;}
	.st87{clip-path:url(#SVGID_2_);fill:#3E372E;}
	.st88{clip-path:url(#SVGID_2_);fill:#3D362E;}
	.st89{clip-path:url(#SVGID_2_);fill:#3C352D;}
	.st90{clip-path:url(#SVGID_2_);fill:#3B342C;}
	.st91{clip-path:url(#SVGID_2_);fill:#3A332C;}
	.st92{clip-path:url(#SVGID_2_);fill:#39332B;}
	.st93{clip-path:url(#SVGID_2_);fill:#38322B;}
	.st94{clip-path:url(#SVGID_2_);fill:#37312A;}
	.st95{clip-path:url(#SVGID_2_);fill:#363029;}
	.st96{clip-path:url(#SVGID_2_);fill:#352F29;}
	.st97{clip-path:url(#SVGID_2_);fill:#342E28;}
	.st98{clip-path:url(#SVGID_2_);fill:#332D27;}
	.st99{clip-path:url(#SVGID_2_);fill:#322D27;}
	.st100{clip-path:url(#SVGID_2_);fill:#312C26;}
	.st101{clip-path:url(#SVGID_2_);fill:#302B25;}
	.st102{clip-path:url(#SVGID_2_);fill:#2F2A25;}
	.st103{clip-path:url(#SVGID_2_);fill:#2E2924;}
	.st104{clip-path:url(#SVGID_2_);fill:#2D2824;}
	.st105{clip-path:url(#SVGID_2_);fill:#2C2723;}
	.st106{clip-path:url(#SVGID_2_);fill:#2B2722;}
	.st107{clip-path:url(#SVGID_2_);fill:#2A2622;}
	.st108{clip-path:url(#SVGID_2_);fill:#292521;}
	.st109{clip-path:url(#SVGID_2_);fill:#282420;}
	.st110{clip-path:url(#SVGID_2_);fill:#272320;}
	.st111{clip-path:url(#SVGID_2_);fill:#26221F;}
	.st112{clip-path:url(#SVGID_2_);fill:#25221E;}
	.st113{clip-path:url(#SVGID_2_);fill:#24211E;}
	.st114{clip-path:url(#SVGID_2_);fill:#23201D;}
	.st115{clip-path:url(#SVGID_2_);fill:#221F1C;}
	.st116{clip-path:url(#SVGID_2_);fill:#211E1C;}
	.st117{clip-path:url(#SVGID_2_);fill:#201D1B;}
	.st118{clip-path:url(#SVGID_2_);fill:#1F1C1B;}
	.st119{clip-path:url(#SVGID_2_);fill:#1E1C1A;}
	.st120{clip-path:url(#SVGID_2_);fill:#1D1B19;}
	.st121{clip-path:url(#SVGID_2_);fill:#1C1A19;}
	.st122{clip-path:url(#SVGID_2_);fill:#1B1918;}
	.st123{fill:#262626;}
	.st124{fill:#988366;}
	.st125{fill:#FFFFFF;}
	.st126{fill:#FADC49;}
	.st127{fill:#224E90;}
	.st128{enable-background:new    ;}
	.st129{fill:#9F998F;}
	.st130{fill:#B39876;}
</style>
<g>
	<g>
		<defs>
			<circle id="SVGID_1_" cx="36" cy="36" r="35.1"/>
		</defs>
		<clipPath id="SVGID_2_">
			<use xlink:href="#SVGID_1_"  style="overflow:visible;"/>
		</clipPath>
		<path class="st0" d="M71.1,0.9H0.9H71.1z"/>
		<rect x="0.9" y="0.9" class="st0" width="70.2" height="0.6"/>
		<rect x="0.9" y="1.5" class="st1" width="70.2" height="0.6"/>
		<rect x="0.9" y="2" class="st2" width="70.2" height="0.6"/>
		<rect x="0.9" y="2.6" class="st3" width="70.2" height="0.6"/>
		<rect x="0.9" y="3.2" class="st4" width="70.2" height="0.6"/>
		<rect x="0.9" y="3.7" class="st5" width="70.2" height="0.6"/>
		<rect x="0.9" y="4.3" class="st6" width="70.2" height="0.6"/>
		<rect x="0.9" y="4.9" class="st7" width="70.2" height="0.6"/>
		<rect x="0.9" y="5.5" class="st8" width="70.2" height="0.6"/>
		<rect x="0.9" y="6" class="st9" width="70.2" height="0.6"/>
		<rect x="0.9" y="6.6" class="st10" width="70.2" height="0.6"/>
		<rect x="0.9" y="7.2" class="st11" width="70.2" height="0.6"/>
		<rect x="0.9" y="7.7" class="st12" width="70.2" height="0.6"/>
		<rect x="0.9" y="8.3" class="st13" width="70.2" height="0.6"/>
		<rect x="0.9" y="8.9" class="st14" width="70.2" height="0.6"/>
		<rect x="0.9" y="9.4" class="st15" width="70.2" height="0.6"/>
		<rect x="0.9" y="10" class="st16" width="70.2" height="0.6"/>
		<rect x="0.9" y="10.6" class="st17" width="70.2" height="0.6"/>
		<rect x="0.9" y="11.2" class="st18" width="70.2" height="0.6"/>
		<rect x="0.9" y="11.7" class="st19" width="70.2" height="0.6"/>
		<rect x="0.9" y="12.3" class="st20" width="70.2" height="0.6"/>
		<rect x="0.9" y="12.9" class="st21" width="70.2" height="0.6"/>
		<rect x="0.9" y="13.4" class="st22" width="70.2" height="0.6"/>
		<rect x="0.9" y="14" class="st23" width="70.2" height="0.6"/>
		<rect x="0.9" y="14.6" class="st24" width="70.2" height="0.6"/>
		<rect x="0.9" y="15.1" class="st25" width="70.2" height="0.6"/>
		<rect x="0.9" y="15.7" class="st26" width="70.2" height="0.6"/>
		<rect x="0.9" y="16.3" class="st27" width="70.2" height="0.6"/>
		<rect x="0.9" y="16.9" class="st28" width="70.2" height="0.6"/>
		<rect x="0.9" y="17.4" class="st29" width="70.2" height="0.6"/>
		<rect x="0.9" y="18" class="st30" width="70.2" height="0.6"/>
		<rect x="0.9" y="18.6" class="st31" width="70.2" height="0.6"/>
		<rect x="0.9" y="19.1" class="st32" width="70.2" height="0.6"/>
		<rect x="0.9" y="19.7" class="st33" width="70.2" height="0.6"/>
		<rect x="0.9" y="20.3" class="st34" width="70.2" height="0.6"/>
		<rect x="0.9" y="20.8" class="st35" width="70.2" height="0.6"/>
		<rect x="0.9" y="21.4" class="st36" width="70.2" height="0.6"/>
		<rect x="0.9" y="22" class="st37" width="70.2" height="0.6"/>
		<rect x="0.9" y="22.6" class="st38" width="70.2" height="0.6"/>
		<rect x="0.9" y="23.1" class="st39" width="70.2" height="0.6"/>
		<rect x="0.9" y="23.7" class="st40" width="70.2" height="0.6"/>
		<rect x="0.9" y="24.3" class="st41" width="70.2" height="0.6"/>
		<rect x="0.9" y="24.8" class="st42" width="70.2" height="0.6"/>
		<rect x="0.9" y="25.4" class="st43" width="70.2" height="0.6"/>
		<rect x="0.9" y="26" class="st44" width="70.2" height="0.6"/>
		<rect x="0.9" y="26.5" class="st45" width="70.2" height="0.6"/>
		<rect x="0.9" y="27.1" class="st46" width="70.2" height="0.6"/>
		<rect x="0.9" y="27.7" class="st47" width="70.2" height="0.6"/>
		<rect x="0.9" y="28.3" class="st48" width="70.2" height="0.6"/>
		<rect x="0.9" y="28.8" class="st49" width="70.2" height="0.6"/>
		<rect x="0.9" y="29.4" class="st50" width="70.2" height="0.6"/>
		<rect x="0.9" y="30" class="st51" width="70.2" height="0.6"/>
		<rect x="0.9" y="30.5" class="st52" width="70.2" height="0.6"/>
		<rect x="0.9" y="31.1" class="st53" width="70.2" height="0.6"/>
		<rect x="0.9" y="31.7" class="st54" width="70.2" height="0.6"/>
		<rect x="0.9" y="32.2" class="st55" width="70.2" height="0.6"/>
		<rect x="0.9" y="32.8" class="st56" width="70.2" height="0.6"/>
		<rect x="0.9" y="33.4" class="st57" width="70.2" height="0.6"/>
		<rect x="0.9" y="34" class="st58" width="70.2" height="0.6"/>
		<rect x="0.9" y="34.5" class="st59" width="70.2" height="0.6"/>
		<rect x="0.9" y="35.1" class="st60" width="70.2" height="0.6"/>
		<rect x="0.9" y="35.7" class="st61" width="70.2" height="0.6"/>
		<rect x="0.9" y="36.2" class="st62" width="70.2" height="0.6"/>
		<rect x="0.9" y="36.8" class="st63" width="70.2" height="0.6"/>
		<rect x="0.9" y="37.4" class="st64" width="70.2" height="0.6"/>
		<rect x="0.9" y="37.9" class="st65" width="70.2" height="0.6"/>
		<rect x="0.9" y="38.5" class="st66" width="70.2" height="0.6"/>
		<rect x="0.9" y="39.1" class="st67" width="70.2" height="0.6"/>
		<rect x="0.9" y="39.7" class="st68" width="70.2" height="0.6"/>
		<rect x="0.9" y="40.2" class="st69" width="70.2" height="0.6"/>
		<rect x="0.9" y="40.8" class="st70" width="70.2" height="0.6"/>
		<rect x="0.9" y="41.4" class="st71" width="70.2" height="0.6"/>
		<rect x="0.9" y="41.9" class="st72" width="70.2" height="0.6"/>
		<rect x="0.9" y="42.5" class="st73" width="70.2" height="0.6"/>
		<rect x="0.9" y="43.1" class="st74" width="70.2" height="0.6"/>
		<rect x="0.9" y="43.6" class="st75" width="70.2" height="0.6"/>
		<rect x="0.9" y="44.2" class="st76" width="70.2" height="0.6"/>
		<rect x="0.9" y="44.8" class="st77" width="70.2" height="0.6"/>
		<rect x="0.9" y="45.4" class="st78" width="70.2" height="0.6"/>
		<rect x="0.9" y="45.9" class="st79" width="70.2" height="0.6"/>
		<rect x="0.9" y="46.5" class="st80" width="70.2" height="0.6"/>
		<rect x="0.9" y="47.1" class="st81" width="70.2" height="0.6"/>
		<rect x="0.9" y="47.6" class="st82" width="70.2" height="0.6"/>
		<rect x="0.9" y="48.2" class="st83" width="70.2" height="0.6"/>
		<rect x="0.9" y="48.8" class="st84" width="70.2" height="0.6"/>
		<rect x="0.9" y="49.3" class="st85" width="70.2" height="0.6"/>
		<rect x="0.9" y="49.9" class="st86" width="70.2" height="0.6"/>
		<rect x="0.9" y="50.5" class="st87" width="70.2" height="0.6"/>
		<rect x="0.9" y="51.1" class="st88" width="70.2" height="0.6"/>
		<rect x="0.9" y="51.6" class="st89" width="70.2" height="0.6"/>
		<rect x="0.9" y="52.2" class="st90" width="70.2" height="0.6"/>
		<rect x="0.9" y="52.8" class="st91" width="70.2" height="0.6"/>
		<rect x="0.9" y="53.3" class="st92" width="70.2" height="0.6"/>
		<rect x="0.9" y="53.9" class="st93" width="70.2" height="0.6"/>
		<rect x="0.9" y="54.5" class="st94" width="70.2" height="0.6"/>
		<rect x="0.9" y="55" class="st95" width="70.2" height="0.6"/>
		<rect x="0.9" y="55.6" class="st96" width="70.2" height="0.6"/>
		<rect x="0.9" y="56.2" class="st97" width="70.2" height="0.6"/>
		<rect x="0.9" y="56.8" class="st98" width="70.2" height="0.6"/>
		<rect x="0.9" y="57.3" class="st99" width="70.2" height="0.6"/>
		<rect x="0.9" y="57.9" class="st100" width="70.2" height="0.6"/>
		<rect x="0.9" y="58.5" class="st101" width="70.2" height="0.6"/>
		<rect x="0.9" y="59" class="st102" width="70.2" height="0.6"/>
		<rect x="0.9" y="59.6" class="st103" width="70.2" height="0.6"/>
		<rect x="0.9" y="60.2" class="st104" width="70.2" height="0.6"/>
		<rect x="0.9" y="60.7" class="st105" width="70.2" height="0.6"/>
		<rect x="0.9" y="61.3" class="st106" width="70.2" height="0.6"/>
		<rect x="0.9" y="61.9" class="st107" width="70.2" height="0.6"/>
		<rect x="0.9" y="62.5" class="st108" width="70.2" height="0.6"/>
		<rect x="0.9" y="63" class="st109" width="70.2" height="0.6"/>
		<rect x="0.9" y="63.6" class="st110" width="70.2" height="0.6"/>
		<rect x="0.9" y="64.2" class="st111" width="70.2" height="0.6"/>
		<rect x="0.9" y="64.7" class="st112" width="70.2" height="0.6"/>
		<rect x="0.9" y="65.3" class="st113" width="70.2" height="0.6"/>
		<rect x="0.9" y="65.9" class="st114" width="70.2" height="0.6"/>
		<rect x="0.9" y="66.4" class="st115" width="70.2" height="0.6"/>
		<rect x="0.9" y="67" class="st116" width="70.2" height="0.6"/>
		<rect x="0.9" y="67.6" class="st117" width="70.2" height="0.6"/>
		<rect x="0.9" y="68.2" class="st118" width="70.2" height="0.6"/>
		<rect x="0.9" y="68.7" class="st119" width="70.2" height="0.6"/>
		<rect x="0.9" y="69.3" class="st120" width="70.2" height="0.6"/>
		<rect x="0.9" y="69.9" class="st121" width="70.2" height="0.6"/>
		<rect x="0.9" y="70.4" class="st122" width="70.2" height="0.6"/>
		<rect x="0.9" y="71" class="st122" width="70.2" height="0.1"/>
	</g>
</g>
<g>
	<circle class="st123" cx="36" cy="36" r="31.8"/>
	<path class="st124" d="M36,68C18.3,68,4,53.7,4,36C4,18.3,18.3,3.9,36,3.9c17.7,0,32,14.4,32,32.1C68,53.7,53.7,68,36,68z M36,4.4
		C18.6,4.4,4.5,18.6,4.5,36c0,17.4,14.2,31.5,31.5,31.5S67.5,53.4,67.5,36C67.5,18.6,53.4,4.4,36,4.4z"/>
</g>
<g>
	<g>
		<circle class="st125" cx="36" cy="24.7" r="20.5"/>
	</g>
	<g id="Forme_2">
		<g>
			<g>
				<ellipse class="st126" cx="36" cy="24.7" rx="18.5" ry="18.5"/>
			</g>
		</g>
	</g>
	<g>
		<g>
			<g>
				<path class="st127" d="M21.5,19.1c-0.1,0-0.3,0-0.3-0.1c-0.1-0.1-0.1-0.3-0.1-0.3c-0.3,0.1-0.7,0.4-1,0.4c-0.5,0-0.8-0.4-0.8-1
					c0-0.3,0.1-0.5,0.5-0.7s1-0.4,1.1-0.4v-0.1c0-0.5-0.3-0.8-0.7-0.8c-0.1,0-0.3,0-0.3,0.1c-0.1,0.1-0.1,0.3-0.3,0.4
					c0,0.1-0.1,0.1-0.3,0.1S19,16.6,19,16.4c0-0.1,0.1-0.1,0.3-0.3c0.2-0.2,0.7-0.4,1.1-0.5c0.3,0,0.4,0,0.5,0.1
					c0.3,0.3,0.3,0.5,0.3,0.8V18c0,0.3,0.1,0.4,0.3,0.4s0.1,0,0.3-0.1l0.1,0.3L21.5,19.1z M21,17.3c-0.1,0.1-0.5,0.3-0.7,0.3
					c-0.3,0.1-0.4,0.3-0.4,0.5c0,0.4,0.3,0.5,0.5,0.5c0.1,0,0.5-0.1,0.7-0.3L21,17.3L21,17.3z"/>
			</g>
			<g>
				<path class="st127" d="M28.3,16c0,0.1-0.3,0.3-0.3,0.4h-0.4c0.1,0,0.1,0.3,0.1,0.5c0,0.8-0.7,1.2-1.2,1.2c-0.1,0-0.3,0-0.4,0
					c-0.1,0.1-0.3,0.3-0.3,0.3c0,0.1,0.1,0.3,0.4,0.3s0.5,0,0.8,0c0.4,0,1.1,0.1,1.1,0.8c0,0.7-0.8,1.4-1.8,1.4
					c-0.8,0-1.2-0.4-1.2-1c0-0.1,0-0.3,0.1-0.4s0.4-0.4,0.5-0.5c-0.3,0-0.4-0.3-0.5-0.4c0-0.1-0.1-0.3,0-0.3
					c0.3-0.1,0.5-0.3,0.7-0.4c-0.3-0.1-0.7-0.4-0.7-1c0-0.8,0.7-1.2,1.4-1.2l0,0c0.3,0,0.4,0,0.7,0.1C27.7,16,28.1,16,28.3,16
					L28.3,16z M26.7,19.1c-0.3,0-0.5,0-0.7,0.1c-0.3,0.1-0.4,0.4-0.4,0.5c0,0.4,0.4,0.7,1,0.7c0.7,0,1.1-0.4,1.1-0.8
					c0-0.3-0.1-0.4-0.3-0.5C27.3,19.1,27.1,19.1,26.7,19.1L26.7,19.1z M26.6,16c-0.3,0-0.7,0.3-0.7,0.8s0.3,1,0.7,1
					c0.3,0,0.7-0.3,0.7-0.8C27.3,16.4,27,16,26.6,16L26.6,16z"/>
			</g>
			<g>
				<path class="st127" d="M34.1,18.5c-0.4,0.5-1,0.7-1.2,0.7c-0.8,0-1.4-0.7-1.4-1.5c0-0.5,0.1-1,0.4-1.2c0.3-0.3,0.7-0.5,1.1-0.5
					l0,0c0.5,0,1.1,0.5,1.1,1.1c0,0.1,0,0.3-0.1,0.3s-1.1,0.1-1.9,0.1c0,1,0.5,1.4,1.1,1.4c0.3,0,0.5-0.1,0.8-0.4H34.1z M32.9,16.1
					c-0.3,0-0.7,0.3-0.8,0.8c0.4,0,0.8,0,1.4,0c0.1,0,0.1,0,0.1-0.1C33.5,16.4,33.3,16.1,32.9,16.1L32.9,16.1z"/>
			</g>
			<g>
				<path class="st127" d="M39.4,19.1v-0.3c0.4,0,0.5-0.1,0.5-0.5V17c0-0.5-0.1-0.8-0.7-0.8c-0.3,0-0.7,0.1-0.8,0.4v1.6
					c0,0.5,0,0.5,0.5,0.5V19h-1.6v-0.3c0.5,0,0.5-0.1,0.5-0.5v-1.5c0-0.4,0-0.5-0.4-0.5v-0.1c0.3,0,0.7-0.1,1-0.3v0.5
					c0.1-0.1,0.3-0.3,0.5-0.3s0.4-0.3,0.7-0.3c0.5,0,1,0.4,1,1.1v1.4c0,0.5,0,0.5,0.5,0.5V19L39.4,19.1L39.4,19.1z"/>
			</g>
			<g>
				<path class="st127" d="M46.9,18.4c-0.3,0.4-0.8,0.7-1.2,0.7c-1,0-1.5-0.7-1.5-1.5c0-0.5,0.3-1.1,0.7-1.4s0.8-0.4,1.1-0.4l0,0
					c0.3,0,0.5,0.1,0.7,0.1s0.1,0.1,0.1,0.3c0,0.2-0.1,0.3-0.3,0.3h-0.1c-0.3-0.3-0.4-0.3-0.7-0.3c-0.5,0-1,0.4-1,1.2
					c0,1,0.7,1.4,1.1,1.4c0.3,0,0.5-0.1,1-0.4L46.9,18.4z"/>
			</g>
			<g>
				<path class="st127" d="M52.8,18.5c-0.4,0.5-1,0.7-1.2,0.7c-0.8,0-1.4-0.7-1.4-1.5c0-0.5,0.1-1,0.4-1.2c0.3-0.3,0.7-0.5,1.1-0.5
					l0,0c0.5,0,1.1,0.5,1.1,1.1c0,0.1,0,0.3-0.1,0.3s-1.1,0.1-1.9,0.1c0,1,0.5,1.4,1.1,1.4c0.3,0,0.5-0.1,0.8-0.4H52.8z M51.6,16.1
					c-0.3,0-0.7,0.3-0.8,0.8c0.4,0,0.8,0,1.4,0c0.1,0,0.1,0,0.1-0.1C52.3,16.4,52,16.1,51.6,16.1L51.6,16.1z"/>
			</g>
		</g>
		<g>
			<g>
				<path class="st127" d="M19.1,33.6L19.1,33.6c0.4-0.1,0.5-0.2,0.5-0.6v-1.4c0-0.4,0-0.4-0.4-0.5V31c0.3,0,0.7-0.1,1-0.3V33
					c0,0.4,0,0.5,0.5,0.5v0.1H19.1L19.1,33.6z M19.5,29.8c0-0.1,0.1-0.3,0.3-0.3s0.3,0.1,0.3,0.3S19.9,30,19.7,30
					S19.5,29.9,19.5,29.8z"/>
			</g>
			<g>
				<path class="st127" d="M25.1,33.6L25.1,33.6c0.4-0.1,0.5-0.1,0.5-0.6v-1.1c0-0.4-0.1-0.8-0.5-0.8c-0.3,0-0.5,0.1-0.8,0.4
					c0,0.1,0,0.1,0,0.3V33c0,0.4,0,0.4,0.4,0.5v0.1h-1.4v-0.1c0.4,0,0.5-0.1,0.5-0.5v-1.1c0-0.5-0.1-0.8-0.5-0.8
					c-0.3,0-0.5,0.3-0.8,0.4V33c0,0.4,0,0.5,0.4,0.5v0.1h-1.4v-0.1c0.4,0,0.5-0.1,0.5-0.5v-1.4c0-0.4,0-0.4-0.4-0.5V31
					c0.3,0,0.7-0.1,1-0.3v0.5c0.1-0.1,0.3-0.3,0.5-0.4c0.1-0.1,0.3-0.1,0.5-0.1s0.5,0.1,0.7,0.5c0.3-0.1,0.4-0.3,0.5-0.4
					s0.3-0.1,0.5-0.1c0.5,0,0.8,0.4,0.8,1v1.2c0,0.4,0,0.5,0.4,0.5v0.1L25.1,33.6L25.1,33.6z"/>
			</g>
			<g>
				<path class="st127" d="M30.9,33.6L30.9,33.6c0.4-0.1,0.5-0.1,0.5-0.6v-1.1c0-0.4-0.1-0.8-0.5-0.8c-0.3,0-0.5,0.1-0.8,0.4
					c0,0.1,0,0.1,0,0.3V33c0,0.4,0,0.4,0.4,0.5v0.1h-1.4v-0.1c0.4,0,0.5-0.1,0.5-0.5v-1.1c0-0.5-0.1-0.8-0.5-0.8
					c-0.3,0-0.5,0.3-0.8,0.4V33c0,0.4,0,0.5,0.4,0.5v0.1h-1.4v-0.1c0.4,0,0.5-0.1,0.5-0.5v-1.4c0-0.4,0-0.4-0.4-0.5V31
					c0.3,0,0.7-0.1,1-0.3v0.5c0.1-0.1,0.3-0.3,0.5-0.4c0.1-0.1,0.3-0.1,0.5-0.1c0.3,0,0.5,0.1,0.7,0.5c0.3-0.1,0.4-0.3,0.5-0.4
					s0.3-0.1,0.5-0.1c0.5,0,0.8,0.4,0.8,1v1.2c0,0.4,0,0.5,0.4,0.5v0.1L30.9,33.6L30.9,33.6z"/>
			</g>
			<g>
				<path class="st127" d="M34.8,30.6c0.8,0,1.5,0.7,1.5,1.5c0,1.1-0.8,1.6-1.5,1.6c-1,0-1.5-0.7-1.5-1.5
					C33.3,31.1,34.1,30.6,34.8,30.6L34.8,30.6z M33.8,32.1c0,0.8,0.4,1.5,1,1.5c0.4,0,0.8-0.3,0.8-1.2c0-0.7-0.3-1.4-1-1.4
					C34.2,30.8,33.8,31.3,33.8,32.1z"/>
			</g>
			<g>
				<path class="st127" d="M38.5,30.7c0.1,0,0.1,0,0.3,0c0.7,0,1.4,0.7,1.4,1.4c0,1-0.8,1.6-1.6,1.6c-0.3,0-0.5,0-1-0.3v-3.7
					c0-0.4,0-0.4-0.4-0.5l0,0c0.3,0,0.7-0.1,1-0.3v2L38.5,30.7z M37.8,32.9c0,0.1,0,0.1,0,0.3s0.3,0.4,0.7,0.4c0.5,0,1-0.4,1-1.2
					c0-0.7-0.5-1.2-1.1-1.2c-0.1,0-0.4,0-0.5,0.1v1.6H37.8z"/>
			</g>
			<g>
				<path class="st127" d="M40.9,33.6L40.9,33.6c0.4-0.1,0.5-0.2,0.5-0.6v-1.4c0-0.4,0-0.4-0.4-0.5V31c0.3,0,0.7-0.1,1-0.3V33
					c0,0.4,0,0.5,0.5,0.5v0.1H40.9L40.9,33.6z M41.3,29.8c0-0.1,0.1-0.3,0.3-0.3c0.1,0,0.3,0.1,0.3,0.3S41.7,30,41.6,30
					S41.3,29.9,41.3,29.8z"/>
			</g>
			<g>
				<path class="st127" d="M43.1,33.6L43.1,33.6c0.4-0.1,0.5-0.2,0.5-0.6v-3.1c0-0.4,0-0.5-0.5-0.5l0,0c0.4,0,0.7-0.1,1-0.3v4
					c0,0.4,0,0.5,0.5,0.5v0.1C44.6,33.6,43.1,33.6,43.1,33.6z"/>
			</g>
			<g>
				<path class="st127" d="M45.3,33.6L45.3,33.6c0.4-0.1,0.5-0.2,0.5-0.6v-1.4c0-0.4,0-0.4-0.4-0.5V31c0.3,0,0.7-0.1,1-0.3V33
					c0,0.4,0,0.5,0.5,0.5v0.1H45.3L45.3,33.6z M45.6,29.8c0-0.1,0.1-0.3,0.3-0.3c0.1,0,0.3,0.1,0.3,0.3S46,30,45.8,30
					S45.6,29.9,45.6,29.8z"/>
			</g>
			<g>
				<path class="st127" d="M49.9,33.2c-0.4,0.5-0.8,0.7-1.1,0.7c-0.8,0-1.2-0.7-1.2-1.4c0-0.4,0.1-0.8,0.4-1.2
					c0.3-0.3,0.7-0.5,1-0.5l0,0c0.5,0,1,0.5,1,1c0,0.1,0,0.1-0.1,0.3c-0.1,0-1,0-1.8,0c0,1,0.5,1.2,1,1.2c0.3,0,0.5-0.1,0.8-0.3
					L49.9,33.2z M48.7,30.8c-0.3,0-0.7,0.3-0.7,0.8c0.4,0,0.8,0,1.2,0c0.1,0,0.1,0,0.1-0.1C49.4,31.3,49.1,30.8,48.7,30.8L48.7,30.8
					z"/>
			</g>
			<g>
				<path class="st127" d="M51.7,31.4c0.1-0.3,0.5-0.7,0.8-0.7s0.4,0.1,0.4,0.3s0,0.3-0.1,0.3s-0.1,0-0.1,0
					c-0.1-0.1-0.1-0.1-0.3-0.1c-0.1,0-0.4,0.3-0.5,0.7V33c0,0.4,0,0.5,0.5,0.5v0.1h-1.5v-0.1c0.4,0,0.5-0.1,0.5-0.5v-1.4
					c0-0.4,0-0.4-0.4-0.5V31c0.3,0,0.5-0.1,1-0.3v0.7C52,31.4,51.7,31.4,51.7,31.4z"/>
			</g>
		</g>
		<g>
			<g>
				<path class="st127" d="M21.6,21.1c1.2,0,2.2,0.3,2.7,0.8c0.5,0.4,0.8,1.2,0.8,2.2c0,1.2-0.4,2-1.2,2.6c-0.7,0.5-1.6,0.8-2.9,0.8
					h-2.3v-0.3c0.8,0,1-0.1,1-1v-4c0-0.8-0.1-0.8-0.8-1v-0.3L21.6,21.1L21.6,21.1z M20.6,26.2c0,0.7,0.3,1,1.1,1
					c1.9,0,2.7-1.4,2.7-3c0-1-0.4-1.9-1.2-2.3c-0.4-0.3-1-0.4-1.6-0.4c-0.4,0-0.7,0-0.8,0.1s-0.1,0.1-0.1,0.5L20.6,26.2L20.6,26.2z"
					/>
			</g>
			<g>
				<path class="st127" d="M28.6,27.6v-0.3c0.7-0.1,0.7-0.1,0.7-0.5c-0.1-0.4-0.3-1-0.5-1.5h-2.3c-0.1,0.4-0.3,0.8-0.4,1.2
					c-0.3,0.7-0.1,0.7,0.7,0.8v0.3h-2.2v-0.3c0.7-0.1,0.8-0.1,1.1-1l2-5.1l0.3-0.1c0.5,1.6,1.4,3.7,1.9,5.3c0.3,0.8,0.4,1,1.1,1v0.3
					L28.6,27.6L28.6,27.6z M27.7,22.2L27.7,22.2c-0.3,0.8-0.7,1.8-1,2.6h1.9L27.7,22.2z"/>
			</g>
			<g>
				<path class="st127" d="M37.5,27.6c-0.1,0-0.3,0-0.4,0c-0.7,0-1-0.3-1.5-0.8c-0.3-0.5-0.7-1.1-1-1.6c-0.1-0.3-0.3-0.4-0.8-0.4
					h-0.3v1.5c0,0.8,0.1,1,1,1v0.3h-2.6v-0.3c0.8,0,1-0.1,1-1v-3.8c0-0.8-0.1-0.8-0.8-1v-0.3h2.5c0.7,0,1.2,0.1,1.5,0.3
					c0.4,0.3,0.7,0.7,0.7,1.2c0,0.8-0.5,1.4-1.2,1.8c0.1,0.3,0.5,1,0.8,1.4c0.4,0.5,0.5,0.7,0.8,1s0.5,0.4,0.7,0.4L37.5,27.6z
					 M34,24.4c0.5,0,0.8-0.1,1.1-0.3c0.4-0.3,0.5-0.7,0.5-1.2c0-1.1-0.7-1.4-1.5-1.4c-0.3,0-0.4,0-0.5,0.1c-0.1,0-0.1,0.1-0.1,0.4
					v2.3H34V24.4z"/>
			</g>
			<g>
				<path class="st127" d="M44.7,21.4c-0.5,0-0.8,0.1-0.8,0.5c0,0.3,0,0.7,0,1.6v4h-0.3l-4.1-5.2l0,0v2.5c0,1,0,1.4,0,1.6
					c0,0.5,0.3,0.7,1,0.7v0.3h-2.3v-0.3c0.5,0,0.8-0.1,0.8-0.7c0-0.3,0-0.8,0-1.6v-2.2c0-0.7,0-0.7-0.1-1c-0.3-0.3-0.4-0.3-1-0.4V21
					h1.4l4.1,5.1l0,0v-2.3c0-1,0-1.4,0-1.6c0-0.4-0.3-0.5-1-0.5v-0.3L44.7,21.4L44.7,21.4L44.7,21.4z"/>
			</g>
			<g>
				<path class="st127" d="M45.7,27.6v-0.3c0.8,0,1-0.1,1-1v-4c0-0.8-0.1-0.8-1-1V21h2.6v0.3c-0.8,0-1,0.1-1,1v4c0,0.8,0.1,1,1,1
					v0.3C48.2,27.6,45.7,27.6,45.7,27.6z"/>
			</g>
			<g>
				<path class="st127" d="M52.5,22.6c-0.1-0.7-0.4-1.4-1.2-1.4s-1.1,0.5-1.1,1.1c0,0.7,0.5,1.1,1.2,1.5c0.7,0.3,1.6,0.8,1.6,1.9
					s-0.8,1.9-2.2,1.9c-0.4,0-0.7-0.1-1-0.1s-0.4-0.1-0.4-0.1c-0.1-0.3-0.3-1-0.3-1.5h0.3c0.1,0.5,0.5,1.5,1.5,1.5
					c0.8,0,1.2-0.4,1.2-1.2s-0.5-1.1-1.2-1.5c-0.5-0.3-1.6-0.8-1.6-1.9c0-1,0.7-1.8,2-1.8c0.4,0,0.8,0.1,1.2,0.3
					C52.5,21.6,52.6,22,52.5,22.6C52.8,22.6,52.5,22.6,52.5,22.6z"/>
			</g>
		</g>
	</g>
</g>
<g class="st128">
	<path class="st129" d="M28.8,49.5L27.5,53h-0.3L25.9,50L24.7,53h-0.3l-1.3-3.5h0.3l1.2,3.1l1.2-3.1h0.3l1.2,3.1l1.2-3.1H28.8z"/>
	<path class="st129" d="M32.5,51.3h-3c0,0.8,0.6,1.4,1.5,1.4c0.4,0,0.9-0.2,1.1-0.5l0.2,0.2c-0.3,0.4-0.8,0.6-1.3,0.6
		c-1.1,0-1.8-0.7-1.8-1.8s0.7-1.8,1.7-1.8C31.8,49.5,32.5,50.2,32.5,51.3C32.5,51.3,32.5,51.3,32.5,51.3z M29.4,51.1h2.7
		c0-0.8-0.6-1.3-1.4-1.3C30,49.8,29.5,50.3,29.4,51.1z"/>
	<path class="st129" d="M37,51.3c0,1.1-0.7,1.8-1.7,1.8c-0.6,0-1.2-0.3-1.4-0.9V53h-0.3v-5h0.3v2.3c0.3-0.5,0.8-0.8,1.4-0.8
		C36.3,49.5,37,50.2,37,51.3z M36.7,51.3c0-0.9-0.6-1.5-1.4-1.5s-1.4,0.6-1.4,1.5c0,0.9,0.6,1.5,1.4,1.5S36.7,52.1,36.7,51.3z"/>
	<path class="st129" d="M37.6,52.6l0.2-0.3c0.3,0.2,0.8,0.4,1.3,0.4c0.7,0,1-0.3,1-0.7c0-1-2.3-0.3-2.3-1.7c0-0.5,0.4-1,1.3-1
		c0.4,0,0.9,0.1,1.2,0.3l-0.2,0.3c-0.3-0.2-0.7-0.3-1.1-0.3c-0.7,0-1,0.3-1,0.7c0,1.1,2.3,0.3,2.3,1.7c0,0.6-0.5,1-1.4,1
		C38.4,53.1,37.8,52.9,37.6,52.6z"/>
	<path class="st129" d="M41.2,48.4c0-0.1,0.1-0.3,0.3-0.3s0.3,0.1,0.3,0.3c0,0.2-0.1,0.3-0.3,0.3S41.2,48.5,41.2,48.4z M41.3,49.5
		h0.3V53h-0.3V49.5z"/>
	<path class="st129" d="M44.8,52.8c-0.2,0.2-0.5,0.2-0.7,0.2c-0.6,0-1-0.4-1-1v-2.3h-0.6v-0.3h0.6v-0.8h0.3v0.8h1.1v0.3h-1.1v2.3
		c0,0.5,0.2,0.7,0.7,0.7c0.2,0,0.4-0.1,0.5-0.2L44.8,52.8z"/>
	<path class="st129" d="M48.6,51.3h-3c0,0.8,0.6,1.4,1.5,1.4c0.4,0,0.9-0.2,1.1-0.5l0.2,0.2c-0.3,0.4-0.8,0.6-1.3,0.6
		c-1.1,0-1.8-0.7-1.8-1.8s0.7-1.8,1.7-1.8C47.9,49.5,48.6,50.2,48.6,51.3C48.6,51.3,48.6,51.3,48.6,51.3z M45.6,51.1h2.7
		c0-0.8-0.6-1.3-1.4-1.3C46.2,49.8,45.7,50.3,45.6,51.1z"/>
</g>
<g class="st128">
	<path class="st130" d="M26,59.2c0-1.7,1.3-2.9,3-2.9c1,0,1.8,0.4,2.3,1L30.5,58c-0.4-0.4-0.8-0.7-1.4-0.7c-1,0-1.8,0.7-1.8,1.8
		c0,1.1,0.7,1.8,1.8,1.8c0.6,0,1-0.2,1.4-0.7l0.8,0.8c-0.5,0.6-1.3,1-2.3,1C27.3,62.1,26,60.9,26,59.2z"/>
	<path class="st130" d="M32.1,56h1.2V62h-1.2V56z"/>
	<path class="st130" d="M34.4,56.4c0-0.4,0.3-0.7,0.8-0.7c0.5,0,0.8,0.3,0.8,0.7c0,0.4-0.3,0.7-0.8,0.7
		C34.7,57.1,34.4,56.8,34.4,56.4z M34.5,57.7h1.2V62h-1.2V57.7z"/>
	<path class="st130" d="M36.6,59.8c0-1.3,1-2.2,2.4-2.2c0.9,0,1.6,0.4,1.9,1.1l-1,0.5c-0.2-0.4-0.6-0.6-1-0.6
		c-0.6,0-1.1,0.4-1.1,1.2c0,0.8,0.5,1.2,1.1,1.2c0.4,0,0.7-0.2,1-0.6l1,0.5c-0.3,0.7-1,1.1-1.9,1.1C37.6,62,36.6,61.1,36.6,59.8z"/>
	<path class="st130" d="M43.5,60.3l-0.6,0.6V62h-1.2V56h1.2v3.4l1.8-1.7h1.5l-1.8,1.8l2,2.5h-1.5L43.5,60.3z"/>
</g>
</svg>
