<svg xmlns="http://www.w3.org/2000/svg" width="198" height="198" viewBox="0 0 198 198"><rect id="backgroundrect" width="100%" height="100%" fill="none"/><style>.st0{fill:none}</style><g class="currentLayer"><g id="svg_1"><path class="st0" d="M65.1 71.9l17.1-7.5-7.7 43.1 39.7-8.5L126 48.4c-8-4.2-17.1-6.6-26.7-6.6-31.7 0-57.5 25.7-57.5 57.5 0 13.8 4.9 26.4 12.9 36.3l10.4-63.7z" id="svg_2"/><path class="st0" d="M100.7 156.6l11.7-50.3-39.2 8.1-5.8 32.6c9.1 6.1 20.1 9.6 31.9 9.6h1.4z" id="svg_3"/><path class="st0" d="M124.2 150.9c19.2-9.3 32.5-29 32.5-51.8 0-12.3-3.9-23.7-10.5-33.1l-22 84.9z" id="svg_4"/><path d="M99.2 0C44.4 0 0 44.4 0 99.2c0 54.8 44.4 99.2 99.2 99.2s99.2-44.4 99.2-99.2C198.4 44.4 154 0 99.2 0zm0 41.7c9.6 0 18.7 2.4 26.7 6.6l-11.8 50.6-39.7 8.5 7.7-43.1L65 71.8l-10.3 63.7c-8.1-9.9-12.9-22.5-12.9-36.3 0-31.8 25.7-57.5 57.4-57.5zM67.4 147l5.8-32.6 39.2-8.1-11.7 50.3h-1.5c-11.7 0-22.7-3.5-31.8-9.6zm56.8 3.9l22-84.8c6.6 9.4 10.5 20.7 10.5 33.1 0 22.8-13.3 42.4-32.5 51.7z" id="svg_5" fill="#a0998e"/></g><g id="HERACLEE"><g id="svg_6"><path d="M23.3 57.7c-.3-.1-.6 0-.7.3l-.5-.2 1.7-3.9.5.2c-.1.1-.1.2 0 .4 0 .1.1.2.3.3l12.5 5.7c.2.1.3.1.4 0 .1-.1.2-.1.3-.3l.5.2-1.7 3.9-.5-.2c.2-.4.1-.6-.3-.8L30.6 61 27 69.1l5.2 2.3c.2.1.3.1.4 0 .1-.1.2-.1.3-.3l.5.2-1.7 3.8-.5-.2c.1-.3 0-.6-.3-.7l-12.6-5.6c-.3-.1-.6-.1-.7.3l-.5-.2 1.7-3.8.5.2c-.1.1-.1.2 0 .4 0 .1.1.2.3.3l4.7 2.1 3.6-8.1-4.6-2.1z" id="svg_7"/><path d="M44.1 34.2c-.2-.2-.3-.2-.5-.2s-.4.2-.7.5l-6.2 6.4 2.7 2.6 3.8-3.9c.3-.3.4-.5.5-.7.1-.2-.1-.5-.4-.8l.3-.4L47 41l-.3.4c-.3-.3-.6-.5-.9-.4-.2.1-.5.2-.7.5l-3.8 3.9 3 2.9 6.4-6.6c.2-.2.3-.4.3-.6 0-.2-.1-.4-.2-.6l.3-.4 3 2.9-.3.4c-.2-.2-.4-.3-.6-.2-.2.1-.3.2-.5.4l-8.9 9.3-.4-.4c.1-.1.1-.2.1-.3 0-.1-.1-.3-.2-.4l-9.9-9.6c-.1-.1-.3-.2-.4-.2-.1 0-.2.1-.3.2l-.4-.4 8.7-9.1c.3-.3.4-.5.4-.7 0-.2-.1-.4-.2-.5l.3-.4 2.9 2.8-.3.3z" id="svg_8"/><path d="M61.5 19c.8-.4 1.5-.7 2.3-.9.7-.2 1.4-.2 2-.1.6.1 1.2.4 1.7.8s1 1 1.4 1.8c.6 1.2.7 2.3.4 3.2-.3 1-1 1.8-1.9 2.6l5.9 3.5c.2.1.4.2.6.1.2 0 .3-.1.5-.2l.2.5-4.6 2.3-.2-.5c.1-.1.3-.2.3-.3.1-.1.1-.2 0-.3 0-.1-.1-.2-.3-.3-.1-.1-.3-.2-.5-.3l-4.9-2.8-3.5 1.8 2.4 4.8c.1.2.2.3.3.3.1 0 .4 0 .6-.2l.2.5-4.3 2.2-.2-.5c.5-.2.6-.5.5-.9l-6.2-12.3c-.2-.3-.5-.4-1-.1l-.2-.5 8.5-4.2zm2.6 6.6c.6-.3 1.1-.6 1.4-.9.3-.3.6-.6.7-.9.1-.3.2-.6.2-.9 0-.3-.1-.6-.3-.9-.1-.3-.3-.5-.6-.7-.2-.2-.5-.3-.8-.4-.3-.1-.7 0-1.1.1-.4.1-1 .3-1.6.6l-4.3 2.2 2 4 4.4-2.2z" id="svg_9"/><path d="M80.9 27.6c.2-.1.4-.2.5-.5.1-.2.2-.5.3-.8l3.5-12.4c.1-.3.2-.5.2-.8.1-.2.1-.4.1-.6 0-.2-.1-.3-.2-.4-.1-.1-.3-.1-.4-.1l-.1-.5 4.6-.6.1.5c-.1.1-.2.1-.4.2-.1.1-.2.2-.1.5 0 .2.1.3.2.5s.2.4.4.6l7.3 11.5c.1.2.3.4.4.4.2.1.4.2.6.2l.1.5-4.8.6-.1-.5c.1 0 .2-.1.3-.1.1-.1.1-.2.1-.3 0-.2-.1-.5-.3-.8l-1.3-2.1-6.7.9-.7 2.3c-.1.4-.2.8-.2.9 0 .2.2.3.6.3l.1.5-3.9.5-.2-.4zm9.6-6.9l-3-5.3-1.8 5.9 4.8-.6z" id="svg_10"/><path d="M120.9 27.3h-.1-.1c-.1 0-.4 0-.8.2-.5.2-1 .3-1.7.5s-1.4.3-2.3.3c-.8.1-1.7 0-2.6-.2-1.1-.2-2.2-.6-3.2-1.1-1-.5-1.8-1.2-2.5-2s-1.1-1.8-1.4-2.9c-.3-1.1-.3-2.3 0-3.6.3-1.3.7-2.4 1.4-3.3.7-.9 1.5-1.6 2.4-2.1.9-.5 2-.8 3.1-1 1.1-.1 2.2-.1 3.4.2.9.2 1.7.4 2.5.7.7.3 1.3.6 1.9.9.5.3.9.6 1.2.8.3.2.5.3.5.4.1 0 .2 0 .3-.1.1-.1.1-.2.2-.2l.3.4-2.8 3.2-.2-.3v-.2-.2c0-.2-.1-.5-.4-.8-.3-.3-.6-.6-1.1-.9-.4-.3-.9-.5-1.4-.8-.5-.2-1-.4-1.4-.5-.8-.2-1.5-.2-2.2-.1-.7.1-1.4.3-2 .7-.6.4-1.1.8-1.6 1.4-.4.6-.8 1.3-.9 2.2-.2.9-.2 1.6 0 2.4.2.7.5 1.4.9 1.9.4.6 1 1 1.6 1.4.6.4 1.3.6 2.1.8.6.1 1.2.2 1.9.1.7 0 1.3-.1 1.8-.2.6-.1 1.1-.3 1.5-.5.4-.2.6-.5.7-.7v-.4l.4-.2 1.1 3.5-.5.3z" id="svg_11"/><path d="M140 40.1c.2-.3.2-.5 0-.6-.1-.1-.3-.3-.6-.4L128 32.5l.3-.5c.5.3.8.3 1-.1l6.9-11.9c.2-.3 0-.6-.4-.9l.3-.5 4.1 2.4-.3.5c-.4-.3-.8-.2-.9.1L132.9 32l7.9 4.6c.2.1.5.2.7.2.2 0 .4-.2.5-.4l.4.3-2.1 3.6-.3-.2z" id="svg_12"/><path d="M164.8 46.3c.2-.1.2-.3.2-.5s-.2-.4-.4-.7l-6-6.7-2.8 2.5 3.6 4c.2.3.5.4.7.5.2.1.5 0 .8-.4l.3.4-3.5 3.2-.3-.4c.3-.3.5-.6.5-.8 0-.2-.2-.5-.4-.8l-3.6-4-3.1 2.8 6.2 6.9c.2.2.4.3.6.4.2 0 .4 0 .6-.2l.3.4-3.1 2.8-.3-.4c.2-.2.3-.4.2-.5-.1-.2-.2-.3-.4-.5l-8.6-9.6.4-.4c.1.1.2.2.3.2.1 0 .3 0 .4-.2l10.3-9.2c.1-.1.2-.3.2-.4 0-.1 0-.3-.1-.3l.4-.4 8.4 9.4c.3.3.5.4.7.5.2 0 .4 0 .6-.2l.3.4-3 2.7-.4-.5z" id="svg_13"/><path d="M177.3 69.9c.2-.1.3-.2.4-.4 0-.2 0-.5-.2-.8l-3.5-8.2-3.5 1.5 2.1 5c.1.3.3.6.5.7.2.1.5.1.9-.1l.2.5-4.4 1.9-.2-.5c.4-.2.7-.4.7-.6 0-.2 0-.5-.2-.9l-2.1-5-3.9 1.7 3.6 8.5c.1.3.3.4.5.5.2.1.4.1.6 0l.2.5-3.8 1.6-.2-.5c.3-.1.4-.3.4-.4 0-.2-.1-.4-.2-.6l-5.1-11.8.5-.2c.1.1.1.2.3.3.1.1.3 0 .4 0l12.7-5.4c.2-.1.3-.2.3-.3v-.4l.5-.2 5 11.6c.2.4.3.6.5.7.2.1.4.1.6 0l.2.5-3.7 1.6-.1-.8z" id="svg_14"/></g><path id="svg_15" d="M176.3 94.2h4v4h-4z"/><path id="svg_16" d="M17.3 94.2h4v4h-4z"/></g><g id="LUXURY_REAL_ESTATE"><g id="svg_17"><path d="M26.4 116.8l-9.4 2.4 1.3 5.2-1 .3-1.6-6.4 10.4-2.7.3 1.2z" id="svg_18"/><path d="M29.7 127.4l-6.7 2.9c-.4.2-.7.4-1 .7-.3.3-.4.6-.6.9-.1.3-.2.7-.2 1 0 .4.1.7.2 1 .1.3.3.6.6.9.2.3.5.5.9.7.3.2.7.3 1.1.3.4 0 .8-.1 1.2-.2l6.7-2.9.5 1.1-6.6 2.9c-.4.2-.8.3-1.1.3h-1.1c-.3-.1-.7-.2-1-.3-.3-.2-.6-.3-.8-.6-.3-.2-.5-.5-.7-.7-.2-.3-.4-.6-.5-.9-.2-.4-.3-.9-.3-1.4 0-.5 0-1 .2-1.4.2-.5.4-.9.8-1.3s.8-.7 1.4-1l6.6-2.9.4.9z" id="svg_19"/><path d="M32.2 143.9c-.4 1-.9 1.9-1.3 2.9-.5 1-.9 2-1.3 2.9l-.7-1.1 2.2-4.7h-5.2l-.7-1.1h6.4l2.7-5.8.7 1.1-2.2 4.7H38l.7 1.1h-6.5z" id="svg_20"/><path d="M41.9 148l-5.4 4.8c-.3.3-.6.6-.7 1-.2.4-.2.7-.2 1.1 0 .4.1.7.2 1 .1.3.3.6.5.9.2.3.5.5.8.7.3.2.7.3 1 .3.4.1.7 0 1.1-.1.4-.1.7-.3 1.1-.6l5.4-4.9.8.9-5.4 4.8c-.3.3-.6.5-1 .6-.3.2-.7.3-1 .3h-1c-.3-.1-.7-.1-1-.3-.3-.1-.6-.3-.9-.5-.3-.2-.5-.4-.7-.7-.3-.3-.6-.7-.7-1.2-.2-.5-.3-.9-.3-1.4 0-.5.1-1 .3-1.5.2-.5.5-1 1-1.4l5.3-4.8.8 1z" id="svg_21"/><path d="M53.8 163.4l-.6.6c-.2.2-.4.3-.7.4-.2.1-.5.2-.8.2h-.8c.2.2.3.5.3.7v.7c0 .2-.1.4-.2.6-.1.2-.2.4-.4.6l-1 1.3c-.1.2-.3.4-.3.6-.1.2-.1.4-.2.6l-1-.8c0-.1 0-.2.1-.3 0-.1.1-.2.1-.3.1-.1.1-.2.2-.3s.1-.2.2-.2l1.1-1.3c.1-.2.2-.3.3-.5.1-.2.1-.4.1-.6 0-.2-.1-.5-.2-.7-.1-.2-.3-.5-.6-.7l-2.5-2-2.9 3.6-.9-.7 6.7-8.4 3.4 2.8c.4.3.7.7.9 1.1.2.4.3.8.4 1.2 0 .4 0 .8-.1 1.2-.2 0-.3.3-.6.6zm-6.3-2.5l2.5 2c.2.2.5.3.7.4.3.1.5.1.8.1.3 0 .5-.1.8-.2.2-.1.5-.3.6-.5.2-.2.3-.5.4-.7.1-.3.1-.5.1-.8 0-.3-.1-.5-.3-.7-.1-.2-.3-.5-.6-.6l-2.5-2-2.5 3z" id="svg_22"/><path d="M60.1 170l5.3-3.2 1.2.6-6.5 3.7-2.1 3.8-1-.6 2.1-3.8-.2-7.5 1.2.6v6.4z" id="svg_23"/><path d="M83.3 176.3c-.1.3-.2.5-.3.7-.1.2-.3.4-.5.6-.2.2-.4.4-.6.5-.2.1-.5.2-.8.3.3.1.4.3.6.5l.3.6c.1.2.1.4 0 .7 0 .2-.1.5-.1.7l-.4 1.6c-.1.2-.1.5-.1.7 0 .2 0 .4.1.6l-1.2-.3v-.3-.3c0-.1 0-.2.1-.3 0-.1 0-.2.1-.3l.4-1.7c.1-.2.1-.4.1-.6 0-.2-.1-.4-.2-.6-.1-.2-.3-.4-.5-.5-.2-.2-.5-.3-.9-.4l-3.1-.8-1.2 4.5-1.1-.3 2.7-10.4 4.3 1.1c.5.1.9.3 1.3.6.3.3.6.6.8.9.2.4.3.7.4 1.1-.1.4-.1.8-.2 1.1zm-6.8.4l3.1.8c.3.1.5.1.8 0 .3 0 .5-.1.8-.3.2-.1.4-.3.6-.5s.3-.5.4-.8c.1-.3.1-.6 0-.8 0-.3-.1-.5-.3-.7-.1-.2-.3-.4-.5-.6-.2-.2-.5-.3-.8-.4l-3.1-.8-1 4.1z" id="svg_24"/><path d="M95.9 174.8l-.1 1-6-.5-.3 3.6 5.7.5-.1 1-5.7-.5-.4 4 6.3.6-.1 1-7.4-.7 1-10.7 7.1.7z" id="svg_25"/><path d="M105.3 174.5L110 185l-1.2.1-1.4-3.2-4.6.3-1 3.4-1.2.1 3.2-11 1.5-.2zm-.8 1.2l-1.5 5.5 3.8-.3-2.3-5.2z" id="svg_26"/><path d="M114.2 173.3l2.2 9.5 5.3-1.2.2 1-6.4 1.5-2.4-10.6 1.1-.2z" id="svg_27"/><path d="M136.7 164.7l.5.9-5.4 2.8 1.7 3.2 5-2.6.5.9-5 2.6 1.9 3.6 5.6-2.9.5.9-6.6 3.4-5-9.6 6.3-3.2z" id="svg_28"/><path d="M146.2 167.4c.3.3.5.5.8.7.3.2.6.3 1 .3.3 0 .7 0 1-.1.3-.1.7-.3 1-.5.3-.2.5-.5.8-.7.2-.3.4-.5.5-.8.1-.3.1-.6.1-.9 0-.3-.2-.6-.4-.9-.2-.3-.4-.4-.7-.5-.3-.1-.6-.1-.9-.1-.3 0-.6.1-1 .2-.3.1-.7.2-1 .3l-.9.3c-.3.1-.6.2-.9.2-.3.1-.6.1-.9.1-.3 0-.6 0-.8-.1-.3-.1-.5-.2-.8-.3-.2-.2-.5-.4-.7-.7-.3-.4-.4-.7-.5-1.1-.1-.4 0-.8.1-1.1.1-.4.3-.7.6-1.1.3-.4.6-.7 1.1-1 .6-.4 1.1-.7 1.6-.8.5-.1.9-.1 1.4-.1.4.1.8.2 1.1.5.3.2.6.5.8.7l-.9.7c-.2-.3-.5-.5-.8-.6-.3-.1-.6-.2-.9-.2-.3 0-.6 0-.9.1-.3.1-.6.2-.8.4-.2.2-.5.4-.7.6-.2.2-.3.5-.4.7-.1.2-.1.5-.1.8 0 .3.1.5.3.8.2.3.4.4.7.5.3.1.6.1.9.1.3 0 .6-.1 1-.2.3-.1.7-.2 1.1-.4l.9-.3c.3-.1.6-.2.9-.2s.6-.1.8-.1c.3 0 .5 0 .8.1.3.1.5.2.8.3.2.2.5.4.7.7.3.4.5.8.6 1.3.1.4.1.9 0 1.3s-.3.8-.6 1.2c-.3.4-.7.8-1.1 1.1-.4.3-.9.5-1.3.7-.5.2-1 .2-1.5.2s-1-.2-1.4-.4c-.5-.2-.9-.6-1.2-1l.7-.7z" id="svg_29"/><path d="M156.2 148.4l.8.7-2.5 2.6 7.1 6.7-.8.8-7.1-6.7-2.5 2.6-.8-.7 5.8-6z" id="svg_30"/><path d="M161.5 141.1l11.1 2.7-.7 1-3.4-.8-2.6 3.8 2.1 2.8-.7 1-6.7-9.3.9-1.2zm.4 1.2l3.4 4.6 2.1-3.2-5.5-1.4z" id="svg_31"/><path d="M168.9 126.8l1 .4-1.5 3.2 8.9 4-.5 1-8.9-4-1.5 3.3-1-.4 3.5-7.5z" id="svg_32"/><path d="M172.2 115.6l1 .3-1.5 5.8 3.5.9 1.4-5.5 1 .3-1.4 5.5 3.9 1 1.6-6.1 1 .3-1.9 7.2-10.4-2.7 1.8-7z" id="svg_33"/></g><g id="svg_34" opacity=".33"><path d="M99.2 163.5c-35.4 0-64.3-28.8-64.3-64.3 0-35.4 28.8-64.3 64.3-64.3 35.4 0 64.3 28.8 64.3 64.3s-28.9 64.3-64.3 64.3zm0-127.8c-35 0-63.5 28.5-63.5 63.5s28.5 63.5 63.5 63.5 63.5-28.5 63.5-63.5-28.5-63.5-63.5-63.5z" id="svg_35"/></g></g></g></svg>