<?xml version="1.0" encoding="utf-8"?>
<!-- Generator: Adobe Illustrator 22.0.1, SVG Export Plug-In . SVG Version: 6.00 Build 0)  -->
<svg version="1.1" id="Calque_1" xmlns="http://www.w3.org/2000/svg" xmlns:xlink="http://www.w3.org/1999/xlink" x="0px" y="0px"
	 viewBox="0 0 72 72.1" style="enable-background:new 0 0 72 72.1;" xml:space="preserve">
<style type="text/css">
	.st0{clip-path:url(#SVGID_2_);fill:#968166;}
	.st1{clip-path:url(#SVGID_4_);fill:#958065;}
	.st2{clip-path:url(#SVGID_6_);fill:#947F65;}
	.st3{clip-path:url(#SVGID_8_);fill:#937E64;}
	.st4{clip-path:url(#SVGID_10_);fill:#927E63;}
	.st5{clip-path:url(#SVGID_12_);fill:#917D63;}
	.st6{clip-path:url(#SVGID_14_);fill:#907C62;}
	.st7{clip-path:url(#SVGID_16_);fill:#8F7B62;}
	.st8{clip-path:url(#SVGID_18_);fill:#8E7A61;}
	.st9{clip-path:url(#SVGID_20_);fill:#8D7960;}
	.st10{clip-path:url(#SVGID_22_);fill:#8C7860;}
	.st11{clip-path:url(#SVGID_24_);fill:#8B785F;}
	.st12{clip-path:url(#SVGID_26_);fill:#8A775E;}
	.st13{clip-path:url(#SVGID_28_);fill:#89765E;}
	.st14{clip-path:url(#SVGID_30_);fill:#88755D;}
	.st15{clip-path:url(#SVGID_32_);fill:#87745C;}
	.st16{clip-path:url(#SVGID_34_);fill:#86735C;}
	.st17{clip-path:url(#SVGID_36_);fill:#85735B;}
	.st18{clip-path:url(#SVGID_38_);fill:#84725A;}
	.st19{clip-path:url(#SVGID_40_);fill:#83715A;}
	.st20{clip-path:url(#SVGID_42_);fill:#827059;}
	.st21{clip-path:url(#SVGID_44_);fill:#816F59;}
	.st22{clip-path:url(#SVGID_46_);fill:#806E58;}
	.st23{clip-path:url(#SVGID_48_);fill:#7F6D57;}
	.st24{clip-path:url(#SVGID_50_);fill:#7E6D57;}
	.st25{clip-path:url(#SVGID_52_);fill:#7D6C56;}
	.st26{clip-path:url(#SVGID_54_);fill:#7C6B55;}
	.st27{clip-path:url(#SVGID_56_);fill:#7B6A55;}
	.st28{clip-path:url(#SVGID_58_);fill:#7A6954;}
	.st29{clip-path:url(#SVGID_60_);fill:#796853;}
	.st30{clip-path:url(#SVGID_62_);fill:#786753;}
	.st31{clip-path:url(#SVGID_64_);fill:#776752;}
	.st32{clip-path:url(#SVGID_66_);fill:#766652;}
	.st33{clip-path:url(#SVGID_68_);fill:#756551;}
	.st34{clip-path:url(#SVGID_70_);fill:#746450;}
	.st35{clip-path:url(#SVGID_72_);fill:#736350;}
	.st36{clip-path:url(#SVGID_74_);fill:#72624F;}
	.st37{clip-path:url(#SVGID_76_);fill:#71614E;}
	.st38{clip-path:url(#SVGID_78_);fill:#70614E;}
	.st39{clip-path:url(#SVGID_80_);fill:#6F604D;}
	.st40{clip-path:url(#SVGID_82_);fill:#6E5F4C;}
	.st41{clip-path:url(#SVGID_84_);fill:#6D5E4C;}
	.st42{clip-path:url(#SVGID_86_);fill:#6C5D4B;}
	.st43{clip-path:url(#SVGID_88_);fill:#6B5C4B;}
	.st44{clip-path:url(#SVGID_90_);fill:#6A5B4A;}
	.st45{clip-path:url(#SVGID_92_);fill:#695B49;}
	.st46{clip-path:url(#SVGID_94_);fill:#685A49;}
	.st47{clip-path:url(#SVGID_96_);fill:#675948;}
	.st48{clip-path:url(#SVGID_98_);fill:#665847;}
	.st49{clip-path:url(#SVGID_100_);fill:#655747;}
	.st50{clip-path:url(#SVGID_102_);fill:#645646;}
	.st51{clip-path:url(#SVGID_104_);fill:#635645;}
	.st52{clip-path:url(#SVGID_106_);fill:#625545;}
	.st53{clip-path:url(#SVGID_108_);fill:#615444;}
	.st54{clip-path:url(#SVGID_110_);fill:#605343;}
	.st55{clip-path:url(#SVGID_112_);fill:#5F5243;}
	.st56{clip-path:url(#SVGID_114_);fill:#5E5142;}
	.st57{clip-path:url(#SVGID_116_);fill:#5D5042;}
	.st58{clip-path:url(#SVGID_118_);fill:#5C5041;}
	.st59{clip-path:url(#SVGID_120_);fill:#5B4F40;}
	.st60{clip-path:url(#SVGID_122_);fill:#5A4E40;}
	.st61{clip-path:url(#SVGID_124_);fill:#594D3F;}
	.st62{clip-path:url(#SVGID_126_);fill:#574C3E;}
	.st63{clip-path:url(#SVGID_128_);fill:#564B3E;}
	.st64{clip-path:url(#SVGID_130_);fill:#554A3D;}
	.st65{clip-path:url(#SVGID_132_);fill:#544A3C;}
	.st66{clip-path:url(#SVGID_134_);fill:#53493C;}
	.st67{clip-path:url(#SVGID_136_);fill:#52483B;}
	.st68{clip-path:url(#SVGID_138_);fill:#51473B;}
	.st69{clip-path:url(#SVGID_140_);fill:#50463A;}
	.st70{clip-path:url(#SVGID_142_);fill:#4F4539;}
	.st71{clip-path:url(#SVGID_144_);fill:#4E4439;}
	.st72{clip-path:url(#SVGID_146_);fill:#4D4438;}
	.st73{clip-path:url(#SVGID_148_);fill:#4C4337;}
	.st74{clip-path:url(#SVGID_150_);fill:#4B4237;}
	.st75{clip-path:url(#SVGID_152_);fill:#4A4136;}
	.st76{clip-path:url(#SVGID_154_);fill:#494035;}
	.st77{clip-path:url(#SVGID_156_);fill:#483F35;}
	.st78{clip-path:url(#SVGID_158_);fill:#473F34;}
	.st79{clip-path:url(#SVGID_160_);fill:#463E33;}
	.st80{clip-path:url(#SVGID_162_);fill:#453D33;}
	.st81{clip-path:url(#SVGID_164_);fill:#443C32;}
	.st82{clip-path:url(#SVGID_166_);fill:#433B32;}
	.st83{clip-path:url(#SVGID_168_);fill:#423A31;}
	.st84{clip-path:url(#SVGID_170_);fill:#413930;}
	.st85{clip-path:url(#SVGID_172_);fill:#403930;}
	.st86{clip-path:url(#SVGID_174_);fill:#3F382F;}
	.st87{clip-path:url(#SVGID_176_);fill:#3E372E;}
	.st88{clip-path:url(#SVGID_178_);fill:#3D362E;}
	.st89{clip-path:url(#SVGID_180_);fill:#3C352D;}
	.st90{clip-path:url(#SVGID_182_);fill:#3B342C;}
	.st91{clip-path:url(#SVGID_184_);fill:#3A332C;}
	.st92{clip-path:url(#SVGID_186_);fill:#39332B;}
	.st93{clip-path:url(#SVGID_188_);fill:#38322B;}
	.st94{clip-path:url(#SVGID_190_);fill:#37312A;}
	.st95{clip-path:url(#SVGID_192_);fill:#363029;}
	.st96{clip-path:url(#SVGID_194_);fill:#352F29;}
	.st97{clip-path:url(#SVGID_196_);fill:#342E28;}
	.st98{clip-path:url(#SVGID_198_);fill:#332D27;}
	.st99{clip-path:url(#SVGID_200_);fill:#322D27;}
	.st100{clip-path:url(#SVGID_202_);fill:#312C26;}
	.st101{clip-path:url(#SVGID_204_);fill:#302B25;}
	.st102{clip-path:url(#SVGID_206_);fill:#2F2A25;}
	.st103{clip-path:url(#SVGID_208_);fill:#2E2924;}
	.st104{clip-path:url(#SVGID_210_);fill:#2D2824;}
	.st105{clip-path:url(#SVGID_212_);fill:#2C2723;}
	.st106{clip-path:url(#SVGID_214_);fill:#2B2722;}
	.st107{clip-path:url(#SVGID_216_);fill:#2A2622;}
	.st108{clip-path:url(#SVGID_218_);fill:#292521;}
	.st109{clip-path:url(#SVGID_220_);fill:#282420;}
	.st110{clip-path:url(#SVGID_222_);fill:#272320;}
	.st111{clip-path:url(#SVGID_224_);fill:#26221F;}
	.st112{clip-path:url(#SVGID_226_);fill:#25221E;}
	.st113{clip-path:url(#SVGID_228_);fill:#24211E;}
	.st114{clip-path:url(#SVGID_230_);fill:#23201D;}
	.st115{clip-path:url(#SVGID_232_);fill:#221F1C;}
	.st116{clip-path:url(#SVGID_234_);fill:#211E1C;}
	.st117{clip-path:url(#SVGID_236_);fill:#201D1B;}
	.st118{clip-path:url(#SVGID_238_);fill:#1F1C1B;}
	.st119{clip-path:url(#SVGID_240_);fill:#1E1C1A;}
	.st120{clip-path:url(#SVGID_242_);fill:#1D1B19;}
	.st121{clip-path:url(#SVGID_244_);fill:#1C1A19;}
	.st122{clip-path:url(#SVGID_246_);fill:#1B1918;}
	.st123{clip-path:url(#SVGID_248_);fill:#1B1918;}
	.st124{fill:#262626;}
	.st125{fill:#988366;}
	.st126{enable-background:new    ;}
	.st127{fill:#B39876;}
	.st128{fill:#FFFFFF;}
	.st129{fill:#FFDD00;}
	.st130{fill:#004995;}
</style>
<g>
	<g>
		<g>
			<defs>
				<circle id="SVGID_1_" cx="36.1" cy="36" r="35.1"/>
			</defs>
			<clipPath id="SVGID_2_">
				<use xlink:href="#SVGID_1_"  style="overflow:visible;"/>
			</clipPath>
			<rect x="1" y="0.9" class="st0" width="70.2" height="0.6"/>
		</g>
		<g>
			<defs>
				<circle id="SVGID_3_" cx="36.1" cy="36" r="35.1"/>
			</defs>
			<clipPath id="SVGID_4_">
				<use xlink:href="#SVGID_3_"  style="overflow:visible;"/>
			</clipPath>
			<rect x="1" y="1.5" class="st1" width="70.2" height="0.6"/>
		</g>
		<g>
			<defs>
				<circle id="SVGID_5_" cx="36.1" cy="36" r="35.1"/>
			</defs>
			<clipPath id="SVGID_6_">
				<use xlink:href="#SVGID_5_"  style="overflow:visible;"/>
			</clipPath>
			<rect x="1" y="2" class="st2" width="70.2" height="0.6"/>
		</g>
		<g>
			<defs>
				<circle id="SVGID_7_" cx="36.1" cy="36" r="35.1"/>
			</defs>
			<clipPath id="SVGID_8_">
				<use xlink:href="#SVGID_7_"  style="overflow:visible;"/>
			</clipPath>
			<rect x="1" y="2.6" class="st3" width="70.2" height="0.6"/>
		</g>
		<g>
			<defs>
				<circle id="SVGID_9_" cx="36.1" cy="36" r="35.1"/>
			</defs>
			<clipPath id="SVGID_10_">
				<use xlink:href="#SVGID_9_"  style="overflow:visible;"/>
			</clipPath>
			<rect x="1" y="3.2" class="st4" width="70.2" height="0.6"/>
		</g>
		<g>
			<defs>
				<circle id="SVGID_11_" cx="36.1" cy="36" r="35.1"/>
			</defs>
			<clipPath id="SVGID_12_">
				<use xlink:href="#SVGID_11_"  style="overflow:visible;"/>
			</clipPath>
			<rect x="1" y="3.7" class="st5" width="70.2" height="0.6"/>
		</g>
		<g>
			<defs>
				<circle id="SVGID_13_" cx="36.1" cy="36" r="35.1"/>
			</defs>
			<clipPath id="SVGID_14_">
				<use xlink:href="#SVGID_13_"  style="overflow:visible;"/>
			</clipPath>
			<rect x="1" y="4.3" class="st6" width="70.2" height="0.6"/>
		</g>
		<g>
			<defs>
				<circle id="SVGID_15_" cx="36.1" cy="36" r="35.1"/>
			</defs>
			<clipPath id="SVGID_16_">
				<use xlink:href="#SVGID_15_"  style="overflow:visible;"/>
			</clipPath>
			<rect x="1" y="4.9" class="st7" width="70.2" height="0.6"/>
		</g>
		<g>
			<defs>
				<circle id="SVGID_17_" cx="36.1" cy="36" r="35.1"/>
			</defs>
			<clipPath id="SVGID_18_">
				<use xlink:href="#SVGID_17_"  style="overflow:visible;"/>
			</clipPath>
			<rect x="1" y="5.5" class="st8" width="70.2" height="0.6"/>
		</g>
		<g>
			<defs>
				<circle id="SVGID_19_" cx="36.1" cy="36" r="35.1"/>
			</defs>
			<clipPath id="SVGID_20_">
				<use xlink:href="#SVGID_19_"  style="overflow:visible;"/>
			</clipPath>
			<rect x="1" y="6" class="st9" width="70.2" height="0.6"/>
		</g>
		<g>
			<defs>
				<circle id="SVGID_21_" cx="36.1" cy="36" r="35.1"/>
			</defs>
			<clipPath id="SVGID_22_">
				<use xlink:href="#SVGID_21_"  style="overflow:visible;"/>
			</clipPath>
			<rect x="1" y="6.6" class="st10" width="70.2" height="0.6"/>
		</g>
		<g>
			<defs>
				<circle id="SVGID_23_" cx="36.1" cy="36" r="35.1"/>
			</defs>
			<clipPath id="SVGID_24_">
				<use xlink:href="#SVGID_23_"  style="overflow:visible;"/>
			</clipPath>
			<rect x="1" y="7.2" class="st11" width="70.2" height="0.6"/>
		</g>
		<g>
			<defs>
				<circle id="SVGID_25_" cx="36.1" cy="36" r="35.1"/>
			</defs>
			<clipPath id="SVGID_26_">
				<use xlink:href="#SVGID_25_"  style="overflow:visible;"/>
			</clipPath>
			<rect x="1" y="7.7" class="st12" width="70.2" height="0.6"/>
		</g>
		<g>
			<defs>
				<circle id="SVGID_27_" cx="36.1" cy="36" r="35.1"/>
			</defs>
			<clipPath id="SVGID_28_">
				<use xlink:href="#SVGID_27_"  style="overflow:visible;"/>
			</clipPath>
			<rect x="1" y="8.3" class="st13" width="70.2" height="0.6"/>
		</g>
		<g>
			<defs>
				<circle id="SVGID_29_" cx="36.1" cy="36" r="35.1"/>
			</defs>
			<clipPath id="SVGID_30_">
				<use xlink:href="#SVGID_29_"  style="overflow:visible;"/>
			</clipPath>
			<rect x="1" y="8.9" class="st14" width="70.2" height="0.6"/>
		</g>
		<g>
			<defs>
				<circle id="SVGID_31_" cx="36.1" cy="36" r="35.1"/>
			</defs>
			<clipPath id="SVGID_32_">
				<use xlink:href="#SVGID_31_"  style="overflow:visible;"/>
			</clipPath>
			<rect x="1" y="9.4" class="st15" width="70.2" height="0.6"/>
		</g>
		<g>
			<defs>
				<circle id="SVGID_33_" cx="36.1" cy="36" r="35.1"/>
			</defs>
			<clipPath id="SVGID_34_">
				<use xlink:href="#SVGID_33_"  style="overflow:visible;"/>
			</clipPath>
			<rect x="1" y="10" class="st16" width="70.2" height="0.6"/>
		</g>
		<g>
			<defs>
				<circle id="SVGID_35_" cx="36.1" cy="36" r="35.1"/>
			</defs>
			<clipPath id="SVGID_36_">
				<use xlink:href="#SVGID_35_"  style="overflow:visible;"/>
			</clipPath>
			<rect x="1" y="10.6" class="st17" width="70.2" height="0.6"/>
		</g>
		<g>
			<defs>
				<circle id="SVGID_37_" cx="36.1" cy="36" r="35.1"/>
			</defs>
			<clipPath id="SVGID_38_">
				<use xlink:href="#SVGID_37_"  style="overflow:visible;"/>
			</clipPath>
			<rect x="1" y="11.2" class="st18" width="70.2" height="0.6"/>
		</g>
		<g>
			<defs>
				<circle id="SVGID_39_" cx="36.1" cy="36" r="35.1"/>
			</defs>
			<clipPath id="SVGID_40_">
				<use xlink:href="#SVGID_39_"  style="overflow:visible;"/>
			</clipPath>
			<rect x="1" y="11.7" class="st19" width="70.2" height="0.6"/>
		</g>
		<g>
			<defs>
				<circle id="SVGID_41_" cx="36.1" cy="36" r="35.1"/>
			</defs>
			<clipPath id="SVGID_42_">
				<use xlink:href="#SVGID_41_"  style="overflow:visible;"/>
			</clipPath>
			<rect x="1" y="12.3" class="st20" width="70.2" height="0.6"/>
		</g>
		<g>
			<defs>
				<circle id="SVGID_43_" cx="36.1" cy="36" r="35.1"/>
			</defs>
			<clipPath id="SVGID_44_">
				<use xlink:href="#SVGID_43_"  style="overflow:visible;"/>
			</clipPath>
			<rect x="1" y="12.9" class="st21" width="70.2" height="0.6"/>
		</g>
		<g>
			<defs>
				<circle id="SVGID_45_" cx="36.1" cy="36" r="35.1"/>
			</defs>
			<clipPath id="SVGID_46_">
				<use xlink:href="#SVGID_45_"  style="overflow:visible;"/>
			</clipPath>
			<rect x="1" y="13.4" class="st22" width="70.2" height="0.6"/>
		</g>
		<g>
			<defs>
				<circle id="SVGID_47_" cx="36.1" cy="36" r="35.1"/>
			</defs>
			<clipPath id="SVGID_48_">
				<use xlink:href="#SVGID_47_"  style="overflow:visible;"/>
			</clipPath>
			<rect x="1" y="14" class="st23" width="70.2" height="0.6"/>
		</g>
		<g>
			<defs>
				<circle id="SVGID_49_" cx="36.1" cy="36" r="35.1"/>
			</defs>
			<clipPath id="SVGID_50_">
				<use xlink:href="#SVGID_49_"  style="overflow:visible;"/>
			</clipPath>
			<rect x="1" y="14.6" class="st24" width="70.2" height="0.6"/>
		</g>
		<g>
			<defs>
				<circle id="SVGID_51_" cx="36.1" cy="36" r="35.1"/>
			</defs>
			<clipPath id="SVGID_52_">
				<use xlink:href="#SVGID_51_"  style="overflow:visible;"/>
			</clipPath>
			<rect x="1" y="15.1" class="st25" width="70.2" height="0.6"/>
		</g>
		<g>
			<defs>
				<circle id="SVGID_53_" cx="36.1" cy="36" r="35.1"/>
			</defs>
			<clipPath id="SVGID_54_">
				<use xlink:href="#SVGID_53_"  style="overflow:visible;"/>
			</clipPath>
			<rect x="1" y="15.7" class="st26" width="70.2" height="0.6"/>
		</g>
		<g>
			<defs>
				<circle id="SVGID_55_" cx="36.1" cy="36" r="35.1"/>
			</defs>
			<clipPath id="SVGID_56_">
				<use xlink:href="#SVGID_55_"  style="overflow:visible;"/>
			</clipPath>
			<rect x="1" y="16.3" class="st27" width="70.2" height="0.6"/>
		</g>
		<g>
			<defs>
				<circle id="SVGID_57_" cx="36.1" cy="36" r="35.1"/>
			</defs>
			<clipPath id="SVGID_58_">
				<use xlink:href="#SVGID_57_"  style="overflow:visible;"/>
			</clipPath>
			<rect x="1" y="16.9" class="st28" width="70.2" height="0.6"/>
		</g>
		<g>
			<defs>
				<circle id="SVGID_59_" cx="36.1" cy="36" r="35.1"/>
			</defs>
			<clipPath id="SVGID_60_">
				<use xlink:href="#SVGID_59_"  style="overflow:visible;"/>
			</clipPath>
			<rect x="1" y="17.4" class="st29" width="70.2" height="0.6"/>
		</g>
		<g>
			<defs>
				<circle id="SVGID_61_" cx="36.1" cy="36" r="35.1"/>
			</defs>
			<clipPath id="SVGID_62_">
				<use xlink:href="#SVGID_61_"  style="overflow:visible;"/>
			</clipPath>
			<rect x="1" y="18" class="st30" width="70.2" height="0.6"/>
		</g>
		<g>
			<defs>
				<circle id="SVGID_63_" cx="36.1" cy="36" r="35.1"/>
			</defs>
			<clipPath id="SVGID_64_">
				<use xlink:href="#SVGID_63_"  style="overflow:visible;"/>
			</clipPath>
			<rect x="1" y="18.6" class="st31" width="70.2" height="0.6"/>
		</g>
		<g>
			<defs>
				<circle id="SVGID_65_" cx="36.1" cy="36" r="35.1"/>
			</defs>
			<clipPath id="SVGID_66_">
				<use xlink:href="#SVGID_65_"  style="overflow:visible;"/>
			</clipPath>
			<rect x="1" y="19.1" class="st32" width="70.2" height="0.6"/>
		</g>
		<g>
			<defs>
				<circle id="SVGID_67_" cx="36.1" cy="36" r="35.1"/>
			</defs>
			<clipPath id="SVGID_68_">
				<use xlink:href="#SVGID_67_"  style="overflow:visible;"/>
			</clipPath>
			<rect x="1" y="19.7" class="st33" width="70.2" height="0.6"/>
		</g>
		<g>
			<defs>
				<circle id="SVGID_69_" cx="36.1" cy="36" r="35.1"/>
			</defs>
			<clipPath id="SVGID_70_">
				<use xlink:href="#SVGID_69_"  style="overflow:visible;"/>
			</clipPath>
			<rect x="1" y="20.3" class="st34" width="70.2" height="0.6"/>
		</g>
		<g>
			<defs>
				<circle id="SVGID_71_" cx="36.1" cy="36" r="35.1"/>
			</defs>
			<clipPath id="SVGID_72_">
				<use xlink:href="#SVGID_71_"  style="overflow:visible;"/>
			</clipPath>
			<rect x="1" y="20.8" class="st35" width="70.2" height="0.6"/>
		</g>
		<g>
			<defs>
				<circle id="SVGID_73_" cx="36.1" cy="36" r="35.1"/>
			</defs>
			<clipPath id="SVGID_74_">
				<use xlink:href="#SVGID_73_"  style="overflow:visible;"/>
			</clipPath>
			<rect x="1" y="21.4" class="st36" width="70.2" height="0.6"/>
		</g>
		<g>
			<defs>
				<circle id="SVGID_75_" cx="36.1" cy="36" r="35.1"/>
			</defs>
			<clipPath id="SVGID_76_">
				<use xlink:href="#SVGID_75_"  style="overflow:visible;"/>
			</clipPath>
			<rect x="1" y="22" class="st37" width="70.2" height="0.6"/>
		</g>
		<g>
			<defs>
				<circle id="SVGID_77_" cx="36.1" cy="36" r="35.1"/>
			</defs>
			<clipPath id="SVGID_78_">
				<use xlink:href="#SVGID_77_"  style="overflow:visible;"/>
			</clipPath>
			<rect x="1" y="22.6" class="st38" width="70.2" height="0.6"/>
		</g>
		<g>
			<defs>
				<circle id="SVGID_79_" cx="36.1" cy="36" r="35.1"/>
			</defs>
			<clipPath id="SVGID_80_">
				<use xlink:href="#SVGID_79_"  style="overflow:visible;"/>
			</clipPath>
			<rect x="1" y="23.1" class="st39" width="70.2" height="0.6"/>
		</g>
		<g>
			<defs>
				<circle id="SVGID_81_" cx="36.1" cy="36" r="35.1"/>
			</defs>
			<clipPath id="SVGID_82_">
				<use xlink:href="#SVGID_81_"  style="overflow:visible;"/>
			</clipPath>
			<rect x="1" y="23.7" class="st40" width="70.2" height="0.6"/>
		</g>
		<g>
			<defs>
				<circle id="SVGID_83_" cx="36.1" cy="36" r="35.1"/>
			</defs>
			<clipPath id="SVGID_84_">
				<use xlink:href="#SVGID_83_"  style="overflow:visible;"/>
			</clipPath>
			<rect x="1" y="24.3" class="st41" width="70.2" height="0.6"/>
		</g>
		<g>
			<defs>
				<circle id="SVGID_85_" cx="36.1" cy="36" r="35.1"/>
			</defs>
			<clipPath id="SVGID_86_">
				<use xlink:href="#SVGID_85_"  style="overflow:visible;"/>
			</clipPath>
			<rect x="1" y="24.8" class="st42" width="70.2" height="0.6"/>
		</g>
		<g>
			<defs>
				<circle id="SVGID_87_" cx="36.1" cy="36" r="35.1"/>
			</defs>
			<clipPath id="SVGID_88_">
				<use xlink:href="#SVGID_87_"  style="overflow:visible;"/>
			</clipPath>
			<rect x="1" y="25.4" class="st43" width="70.2" height="0.6"/>
		</g>
		<g>
			<defs>
				<circle id="SVGID_89_" cx="36.1" cy="36" r="35.1"/>
			</defs>
			<clipPath id="SVGID_90_">
				<use xlink:href="#SVGID_89_"  style="overflow:visible;"/>
			</clipPath>
			<rect x="1" y="26" class="st44" width="70.2" height="0.6"/>
		</g>
		<g>
			<defs>
				<circle id="SVGID_91_" cx="36.1" cy="36" r="35.1"/>
			</defs>
			<clipPath id="SVGID_92_">
				<use xlink:href="#SVGID_91_"  style="overflow:visible;"/>
			</clipPath>
			<rect x="1" y="26.5" class="st45" width="70.2" height="0.6"/>
		</g>
		<g>
			<defs>
				<circle id="SVGID_93_" cx="36.1" cy="36" r="35.1"/>
			</defs>
			<clipPath id="SVGID_94_">
				<use xlink:href="#SVGID_93_"  style="overflow:visible;"/>
			</clipPath>
			<rect x="1" y="27.1" class="st46" width="70.2" height="0.6"/>
		</g>
		<g>
			<defs>
				<circle id="SVGID_95_" cx="36.1" cy="36" r="35.1"/>
			</defs>
			<clipPath id="SVGID_96_">
				<use xlink:href="#SVGID_95_"  style="overflow:visible;"/>
			</clipPath>
			<rect x="1" y="27.7" class="st47" width="70.2" height="0.6"/>
		</g>
		<g>
			<defs>
				<circle id="SVGID_97_" cx="36.1" cy="36" r="35.1"/>
			</defs>
			<clipPath id="SVGID_98_">
				<use xlink:href="#SVGID_97_"  style="overflow:visible;"/>
			</clipPath>
			<rect x="1" y="28.3" class="st48" width="70.2" height="0.6"/>
		</g>
		<g>
			<defs>
				<circle id="SVGID_99_" cx="36.1" cy="36" r="35.1"/>
			</defs>
			<clipPath id="SVGID_100_">
				<use xlink:href="#SVGID_99_"  style="overflow:visible;"/>
			</clipPath>
			<rect x="1" y="28.8" class="st49" width="70.2" height="0.6"/>
		</g>
		<g>
			<defs>
				<circle id="SVGID_101_" cx="36.1" cy="36" r="35.1"/>
			</defs>
			<clipPath id="SVGID_102_">
				<use xlink:href="#SVGID_101_"  style="overflow:visible;"/>
			</clipPath>
			<rect x="1" y="29.4" class="st50" width="70.2" height="0.6"/>
		</g>
		<g>
			<defs>
				<circle id="SVGID_103_" cx="36.1" cy="36" r="35.1"/>
			</defs>
			<clipPath id="SVGID_104_">
				<use xlink:href="#SVGID_103_"  style="overflow:visible;"/>
			</clipPath>
			<rect x="1" y="30" class="st51" width="70.2" height="0.6"/>
		</g>
		<g>
			<defs>
				<circle id="SVGID_105_" cx="36.1" cy="36" r="35.1"/>
			</defs>
			<clipPath id="SVGID_106_">
				<use xlink:href="#SVGID_105_"  style="overflow:visible;"/>
			</clipPath>
			<rect x="1" y="30.5" class="st52" width="70.2" height="0.6"/>
		</g>
		<g>
			<defs>
				<circle id="SVGID_107_" cx="36.1" cy="36" r="35.1"/>
			</defs>
			<clipPath id="SVGID_108_">
				<use xlink:href="#SVGID_107_"  style="overflow:visible;"/>
			</clipPath>
			<rect x="1" y="31.1" class="st53" width="70.2" height="0.6"/>
		</g>
		<g>
			<defs>
				<circle id="SVGID_109_" cx="36.1" cy="36" r="35.1"/>
			</defs>
			<clipPath id="SVGID_110_">
				<use xlink:href="#SVGID_109_"  style="overflow:visible;"/>
			</clipPath>
			<rect x="1" y="31.7" class="st54" width="70.2" height="0.6"/>
		</g>
		<g>
			<defs>
				<circle id="SVGID_111_" cx="36.1" cy="36" r="35.1"/>
			</defs>
			<clipPath id="SVGID_112_">
				<use xlink:href="#SVGID_111_"  style="overflow:visible;"/>
			</clipPath>
			<rect x="1" y="32.2" class="st55" width="70.2" height="0.6"/>
		</g>
		<g>
			<defs>
				<circle id="SVGID_113_" cx="36.1" cy="36" r="35.1"/>
			</defs>
			<clipPath id="SVGID_114_">
				<use xlink:href="#SVGID_113_"  style="overflow:visible;"/>
			</clipPath>
			<rect x="1" y="32.8" class="st56" width="70.2" height="0.6"/>
		</g>
		<g>
			<defs>
				<circle id="SVGID_115_" cx="36.1" cy="36" r="35.1"/>
			</defs>
			<clipPath id="SVGID_116_">
				<use xlink:href="#SVGID_115_"  style="overflow:visible;"/>
			</clipPath>
			<rect x="1" y="33.4" class="st57" width="70.2" height="0.6"/>
		</g>
		<g>
			<defs>
				<circle id="SVGID_117_" cx="36.1" cy="36" r="35.1"/>
			</defs>
			<clipPath id="SVGID_118_">
				<use xlink:href="#SVGID_117_"  style="overflow:visible;"/>
			</clipPath>
			<rect x="1" y="34" class="st58" width="70.2" height="0.6"/>
		</g>
		<g>
			<defs>
				<circle id="SVGID_119_" cx="36.1" cy="36" r="35.1"/>
			</defs>
			<clipPath id="SVGID_120_">
				<use xlink:href="#SVGID_119_"  style="overflow:visible;"/>
			</clipPath>
			<rect x="1" y="34.5" class="st59" width="70.2" height="0.6"/>
		</g>
		<g>
			<defs>
				<circle id="SVGID_121_" cx="36.1" cy="36" r="35.1"/>
			</defs>
			<clipPath id="SVGID_122_">
				<use xlink:href="#SVGID_121_"  style="overflow:visible;"/>
			</clipPath>
			<rect x="1" y="35.1" class="st60" width="70.2" height="0.6"/>
		</g>
		<g>
			<defs>
				<circle id="SVGID_123_" cx="36.1" cy="36" r="35.1"/>
			</defs>
			<clipPath id="SVGID_124_">
				<use xlink:href="#SVGID_123_"  style="overflow:visible;"/>
			</clipPath>
			<rect x="1" y="35.7" class="st61" width="70.2" height="0.6"/>
		</g>
		<g>
			<defs>
				<circle id="SVGID_125_" cx="36.1" cy="36" r="35.1"/>
			</defs>
			<clipPath id="SVGID_126_">
				<use xlink:href="#SVGID_125_"  style="overflow:visible;"/>
			</clipPath>
			<rect x="1" y="36.2" class="st62" width="70.2" height="0.6"/>
		</g>
		<g>
			<defs>
				<circle id="SVGID_127_" cx="36.1" cy="36" r="35.1"/>
			</defs>
			<clipPath id="SVGID_128_">
				<use xlink:href="#SVGID_127_"  style="overflow:visible;"/>
			</clipPath>
			<rect x="1" y="36.8" class="st63" width="70.2" height="0.6"/>
		</g>
		<g>
			<defs>
				<circle id="SVGID_129_" cx="36.1" cy="36" r="35.1"/>
			</defs>
			<clipPath id="SVGID_130_">
				<use xlink:href="#SVGID_129_"  style="overflow:visible;"/>
			</clipPath>
			<rect x="1" y="37.4" class="st64" width="70.2" height="0.6"/>
		</g>
		<g>
			<defs>
				<circle id="SVGID_131_" cx="36.1" cy="36" r="35.1"/>
			</defs>
			<clipPath id="SVGID_132_">
				<use xlink:href="#SVGID_131_"  style="overflow:visible;"/>
			</clipPath>
			<rect x="1" y="37.9" class="st65" width="70.2" height="0.6"/>
		</g>
		<g>
			<defs>
				<circle id="SVGID_133_" cx="36.1" cy="36" r="35.1"/>
			</defs>
			<clipPath id="SVGID_134_">
				<use xlink:href="#SVGID_133_"  style="overflow:visible;"/>
			</clipPath>
			<rect x="1" y="38.5" class="st66" width="70.2" height="0.6"/>
		</g>
		<g>
			<defs>
				<circle id="SVGID_135_" cx="36.1" cy="36" r="35.1"/>
			</defs>
			<clipPath id="SVGID_136_">
				<use xlink:href="#SVGID_135_"  style="overflow:visible;"/>
			</clipPath>
			<rect x="1" y="39.1" class="st67" width="70.2" height="0.6"/>
		</g>
		<g>
			<defs>
				<circle id="SVGID_137_" cx="36.1" cy="36" r="35.1"/>
			</defs>
			<clipPath id="SVGID_138_">
				<use xlink:href="#SVGID_137_"  style="overflow:visible;"/>
			</clipPath>
			<rect x="1" y="39.7" class="st68" width="70.2" height="0.6"/>
		</g>
		<g>
			<defs>
				<circle id="SVGID_139_" cx="36.1" cy="36" r="35.1"/>
			</defs>
			<clipPath id="SVGID_140_">
				<use xlink:href="#SVGID_139_"  style="overflow:visible;"/>
			</clipPath>
			<rect x="1" y="40.2" class="st69" width="70.2" height="0.6"/>
		</g>
		<g>
			<defs>
				<circle id="SVGID_141_" cx="36.1" cy="36" r="35.1"/>
			</defs>
			<clipPath id="SVGID_142_">
				<use xlink:href="#SVGID_141_"  style="overflow:visible;"/>
			</clipPath>
			<rect x="1" y="40.8" class="st70" width="70.2" height="0.6"/>
		</g>
		<g>
			<defs>
				<circle id="SVGID_143_" cx="36.1" cy="36" r="35.1"/>
			</defs>
			<clipPath id="SVGID_144_">
				<use xlink:href="#SVGID_143_"  style="overflow:visible;"/>
			</clipPath>
			<rect x="1" y="41.4" class="st71" width="70.2" height="0.6"/>
		</g>
		<g>
			<defs>
				<circle id="SVGID_145_" cx="36.1" cy="36" r="35.1"/>
			</defs>
			<clipPath id="SVGID_146_">
				<use xlink:href="#SVGID_145_"  style="overflow:visible;"/>
			</clipPath>
			<rect x="1" y="41.9" class="st72" width="70.2" height="0.6"/>
		</g>
		<g>
			<defs>
				<circle id="SVGID_147_" cx="36.1" cy="36" r="35.1"/>
			</defs>
			<clipPath id="SVGID_148_">
				<use xlink:href="#SVGID_147_"  style="overflow:visible;"/>
			</clipPath>
			<rect x="1" y="42.5" class="st73" width="70.2" height="0.6"/>
		</g>
		<g>
			<defs>
				<circle id="SVGID_149_" cx="36.1" cy="36" r="35.1"/>
			</defs>
			<clipPath id="SVGID_150_">
				<use xlink:href="#SVGID_149_"  style="overflow:visible;"/>
			</clipPath>
			<rect x="1" y="43.1" class="st74" width="70.2" height="0.6"/>
		</g>
		<g>
			<defs>
				<circle id="SVGID_151_" cx="36.1" cy="36" r="35.1"/>
			</defs>
			<clipPath id="SVGID_152_">
				<use xlink:href="#SVGID_151_"  style="overflow:visible;"/>
			</clipPath>
			<rect x="1" y="43.6" class="st75" width="70.2" height="0.6"/>
		</g>
		<g>
			<defs>
				<circle id="SVGID_153_" cx="36.1" cy="36" r="35.1"/>
			</defs>
			<clipPath id="SVGID_154_">
				<use xlink:href="#SVGID_153_"  style="overflow:visible;"/>
			</clipPath>
			<rect x="1" y="44.2" class="st76" width="70.2" height="0.6"/>
		</g>
		<g>
			<defs>
				<circle id="SVGID_155_" cx="36.1" cy="36" r="35.1"/>
			</defs>
			<clipPath id="SVGID_156_">
				<use xlink:href="#SVGID_155_"  style="overflow:visible;"/>
			</clipPath>
			<rect x="1" y="44.8" class="st77" width="70.2" height="0.6"/>
		</g>
		<g>
			<defs>
				<circle id="SVGID_157_" cx="36.1" cy="36" r="35.1"/>
			</defs>
			<clipPath id="SVGID_158_">
				<use xlink:href="#SVGID_157_"  style="overflow:visible;"/>
			</clipPath>
			<rect x="1" y="45.4" class="st78" width="70.2" height="0.6"/>
		</g>
		<g>
			<defs>
				<circle id="SVGID_159_" cx="36.1" cy="36" r="35.1"/>
			</defs>
			<clipPath id="SVGID_160_">
				<use xlink:href="#SVGID_159_"  style="overflow:visible;"/>
			</clipPath>
			<rect x="1" y="45.9" class="st79" width="70.2" height="0.6"/>
		</g>
		<g>
			<defs>
				<circle id="SVGID_161_" cx="36.1" cy="36" r="35.1"/>
			</defs>
			<clipPath id="SVGID_162_">
				<use xlink:href="#SVGID_161_"  style="overflow:visible;"/>
			</clipPath>
			<rect x="1" y="46.5" class="st80" width="70.2" height="0.6"/>
		</g>
		<g>
			<defs>
				<circle id="SVGID_163_" cx="36.1" cy="36" r="35.1"/>
			</defs>
			<clipPath id="SVGID_164_">
				<use xlink:href="#SVGID_163_"  style="overflow:visible;"/>
			</clipPath>
			<rect x="1" y="47.1" class="st81" width="70.2" height="0.6"/>
		</g>
		<g>
			<defs>
				<circle id="SVGID_165_" cx="36.1" cy="36" r="35.1"/>
			</defs>
			<clipPath id="SVGID_166_">
				<use xlink:href="#SVGID_165_"  style="overflow:visible;"/>
			</clipPath>
			<rect x="1" y="47.6" class="st82" width="70.2" height="0.6"/>
		</g>
		<g>
			<defs>
				<circle id="SVGID_167_" cx="36.1" cy="36" r="35.1"/>
			</defs>
			<clipPath id="SVGID_168_">
				<use xlink:href="#SVGID_167_"  style="overflow:visible;"/>
			</clipPath>
			<rect x="1" y="48.2" class="st83" width="70.2" height="0.6"/>
		</g>
		<g>
			<defs>
				<circle id="SVGID_169_" cx="36.1" cy="36" r="35.1"/>
			</defs>
			<clipPath id="SVGID_170_">
				<use xlink:href="#SVGID_169_"  style="overflow:visible;"/>
			</clipPath>
			<rect x="1" y="48.8" class="st84" width="70.2" height="0.6"/>
		</g>
		<g>
			<defs>
				<circle id="SVGID_171_" cx="36.1" cy="36" r="35.1"/>
			</defs>
			<clipPath id="SVGID_172_">
				<use xlink:href="#SVGID_171_"  style="overflow:visible;"/>
			</clipPath>
			<rect x="1" y="49.3" class="st85" width="70.2" height="0.6"/>
		</g>
		<g>
			<defs>
				<circle id="SVGID_173_" cx="36.1" cy="36" r="35.1"/>
			</defs>
			<clipPath id="SVGID_174_">
				<use xlink:href="#SVGID_173_"  style="overflow:visible;"/>
			</clipPath>
			<rect x="1" y="49.9" class="st86" width="70.2" height="0.6"/>
		</g>
		<g>
			<defs>
				<circle id="SVGID_175_" cx="36.1" cy="36" r="35.1"/>
			</defs>
			<clipPath id="SVGID_176_">
				<use xlink:href="#SVGID_175_"  style="overflow:visible;"/>
			</clipPath>
			<rect x="1" y="50.5" class="st87" width="70.2" height="0.6"/>
		</g>
		<g>
			<defs>
				<circle id="SVGID_177_" cx="36.1" cy="36" r="35.1"/>
			</defs>
			<clipPath id="SVGID_178_">
				<use xlink:href="#SVGID_177_"  style="overflow:visible;"/>
			</clipPath>
			<rect x="1" y="51.1" class="st88" width="70.2" height="0.6"/>
		</g>
		<g>
			<defs>
				<circle id="SVGID_179_" cx="36.1" cy="36" r="35.1"/>
			</defs>
			<clipPath id="SVGID_180_">
				<use xlink:href="#SVGID_179_"  style="overflow:visible;"/>
			</clipPath>
			<rect x="1" y="51.6" class="st89" width="70.2" height="0.6"/>
		</g>
		<g>
			<defs>
				<circle id="SVGID_181_" cx="36.1" cy="36" r="35.1"/>
			</defs>
			<clipPath id="SVGID_182_">
				<use xlink:href="#SVGID_181_"  style="overflow:visible;"/>
			</clipPath>
			<rect x="1" y="52.2" class="st90" width="70.2" height="0.6"/>
		</g>
		<g>
			<defs>
				<circle id="SVGID_183_" cx="36.1" cy="36" r="35.1"/>
			</defs>
			<clipPath id="SVGID_184_">
				<use xlink:href="#SVGID_183_"  style="overflow:visible;"/>
			</clipPath>
			<rect x="1" y="52.8" class="st91" width="70.2" height="0.6"/>
		</g>
		<g>
			<defs>
				<circle id="SVGID_185_" cx="36.1" cy="36" r="35.1"/>
			</defs>
			<clipPath id="SVGID_186_">
				<use xlink:href="#SVGID_185_"  style="overflow:visible;"/>
			</clipPath>
			<rect x="1" y="53.3" class="st92" width="70.2" height="0.6"/>
		</g>
		<g>
			<defs>
				<circle id="SVGID_187_" cx="36.1" cy="36" r="35.1"/>
			</defs>
			<clipPath id="SVGID_188_">
				<use xlink:href="#SVGID_187_"  style="overflow:visible;"/>
			</clipPath>
			<rect x="1" y="53.9" class="st93" width="70.2" height="0.6"/>
		</g>
		<g>
			<defs>
				<circle id="SVGID_189_" cx="36.1" cy="36" r="35.1"/>
			</defs>
			<clipPath id="SVGID_190_">
				<use xlink:href="#SVGID_189_"  style="overflow:visible;"/>
			</clipPath>
			<rect x="1" y="54.5" class="st94" width="70.2" height="0.6"/>
		</g>
		<g>
			<defs>
				<circle id="SVGID_191_" cx="36.1" cy="36" r="35.1"/>
			</defs>
			<clipPath id="SVGID_192_">
				<use xlink:href="#SVGID_191_"  style="overflow:visible;"/>
			</clipPath>
			<rect x="1" y="55" class="st95" width="70.2" height="0.6"/>
		</g>
		<g>
			<defs>
				<circle id="SVGID_193_" cx="36.1" cy="36" r="35.1"/>
			</defs>
			<clipPath id="SVGID_194_">
				<use xlink:href="#SVGID_193_"  style="overflow:visible;"/>
			</clipPath>
			<rect x="1" y="55.6" class="st96" width="70.2" height="0.6"/>
		</g>
		<g>
			<defs>
				<circle id="SVGID_195_" cx="36.1" cy="36" r="35.1"/>
			</defs>
			<clipPath id="SVGID_196_">
				<use xlink:href="#SVGID_195_"  style="overflow:visible;"/>
			</clipPath>
			<rect x="1" y="56.2" class="st97" width="70.2" height="0.6"/>
		</g>
		<g>
			<defs>
				<circle id="SVGID_197_" cx="36.1" cy="36" r="35.1"/>
			</defs>
			<clipPath id="SVGID_198_">
				<use xlink:href="#SVGID_197_"  style="overflow:visible;"/>
			</clipPath>
			<rect x="1" y="56.8" class="st98" width="70.2" height="0.6"/>
		</g>
		<g>
			<defs>
				<circle id="SVGID_199_" cx="36.1" cy="36" r="35.1"/>
			</defs>
			<clipPath id="SVGID_200_">
				<use xlink:href="#SVGID_199_"  style="overflow:visible;"/>
			</clipPath>
			<rect x="1" y="57.3" class="st99" width="70.2" height="0.6"/>
		</g>
		<g>
			<defs>
				<circle id="SVGID_201_" cx="36.1" cy="36" r="35.1"/>
			</defs>
			<clipPath id="SVGID_202_">
				<use xlink:href="#SVGID_201_"  style="overflow:visible;"/>
			</clipPath>
			<rect x="1" y="57.9" class="st100" width="70.2" height="0.6"/>
		</g>
		<g>
			<defs>
				<circle id="SVGID_203_" cx="36.1" cy="36" r="35.1"/>
			</defs>
			<clipPath id="SVGID_204_">
				<use xlink:href="#SVGID_203_"  style="overflow:visible;"/>
			</clipPath>
			<rect x="1" y="58.5" class="st101" width="70.2" height="0.6"/>
		</g>
		<g>
			<defs>
				<circle id="SVGID_205_" cx="36.1" cy="36" r="35.1"/>
			</defs>
			<clipPath id="SVGID_206_">
				<use xlink:href="#SVGID_205_"  style="overflow:visible;"/>
			</clipPath>
			<rect x="1" y="59" class="st102" width="70.2" height="0.6"/>
		</g>
		<g>
			<defs>
				<circle id="SVGID_207_" cx="36.1" cy="36" r="35.1"/>
			</defs>
			<clipPath id="SVGID_208_">
				<use xlink:href="#SVGID_207_"  style="overflow:visible;"/>
			</clipPath>
			<rect x="1" y="59.6" class="st103" width="70.2" height="0.6"/>
		</g>
		<g>
			<defs>
				<circle id="SVGID_209_" cx="36.1" cy="36" r="35.1"/>
			</defs>
			<clipPath id="SVGID_210_">
				<use xlink:href="#SVGID_209_"  style="overflow:visible;"/>
			</clipPath>
			<rect x="1" y="60.2" class="st104" width="70.2" height="0.6"/>
		</g>
		<g>
			<defs>
				<circle id="SVGID_211_" cx="36.1" cy="36" r="35.1"/>
			</defs>
			<clipPath id="SVGID_212_">
				<use xlink:href="#SVGID_211_"  style="overflow:visible;"/>
			</clipPath>
			<rect x="1" y="60.7" class="st105" width="70.2" height="0.6"/>
		</g>
		<g>
			<defs>
				<circle id="SVGID_213_" cx="36.1" cy="36" r="35.1"/>
			</defs>
			<clipPath id="SVGID_214_">
				<use xlink:href="#SVGID_213_"  style="overflow:visible;"/>
			</clipPath>
			<rect x="1" y="61.3" class="st106" width="70.2" height="0.6"/>
		</g>
		<g>
			<defs>
				<circle id="SVGID_215_" cx="36.1" cy="36" r="35.1"/>
			</defs>
			<clipPath id="SVGID_216_">
				<use xlink:href="#SVGID_215_"  style="overflow:visible;"/>
			</clipPath>
			<rect x="1" y="61.9" class="st107" width="70.2" height="0.6"/>
		</g>
		<g>
			<defs>
				<circle id="SVGID_217_" cx="36.1" cy="36" r="35.1"/>
			</defs>
			<clipPath id="SVGID_218_">
				<use xlink:href="#SVGID_217_"  style="overflow:visible;"/>
			</clipPath>
			<rect x="1" y="62.5" class="st108" width="70.2" height="0.6"/>
		</g>
		<g>
			<defs>
				<circle id="SVGID_219_" cx="36.1" cy="36" r="35.1"/>
			</defs>
			<clipPath id="SVGID_220_">
				<use xlink:href="#SVGID_219_"  style="overflow:visible;"/>
			</clipPath>
			<rect x="1" y="63" class="st109" width="70.2" height="0.6"/>
		</g>
		<g>
			<defs>
				<circle id="SVGID_221_" cx="36.1" cy="36" r="35.1"/>
			</defs>
			<clipPath id="SVGID_222_">
				<use xlink:href="#SVGID_221_"  style="overflow:visible;"/>
			</clipPath>
			<rect x="1" y="63.6" class="st110" width="70.2" height="0.6"/>
		</g>
		<g>
			<defs>
				<circle id="SVGID_223_" cx="36.1" cy="36" r="35.1"/>
			</defs>
			<clipPath id="SVGID_224_">
				<use xlink:href="#SVGID_223_"  style="overflow:visible;"/>
			</clipPath>
			<rect x="1" y="64.2" class="st111" width="70.2" height="0.6"/>
		</g>
		<g>
			<defs>
				<circle id="SVGID_225_" cx="36.1" cy="36" r="35.1"/>
			</defs>
			<clipPath id="SVGID_226_">
				<use xlink:href="#SVGID_225_"  style="overflow:visible;"/>
			</clipPath>
			<rect x="1" y="64.7" class="st112" width="70.2" height="0.6"/>
		</g>
		<g>
			<defs>
				<circle id="SVGID_227_" cx="36.1" cy="36" r="35.1"/>
			</defs>
			<clipPath id="SVGID_228_">
				<use xlink:href="#SVGID_227_"  style="overflow:visible;"/>
			</clipPath>
			<rect x="1" y="65.3" class="st113" width="70.2" height="0.6"/>
		</g>
		<g>
			<defs>
				<circle id="SVGID_229_" cx="36.1" cy="36" r="35.1"/>
			</defs>
			<clipPath id="SVGID_230_">
				<use xlink:href="#SVGID_229_"  style="overflow:visible;"/>
			</clipPath>
			<rect x="1" y="65.9" class="st114" width="70.2" height="0.6"/>
		</g>
		<g>
			<defs>
				<circle id="SVGID_231_" cx="36.1" cy="36" r="35.1"/>
			</defs>
			<clipPath id="SVGID_232_">
				<use xlink:href="#SVGID_231_"  style="overflow:visible;"/>
			</clipPath>
			<rect x="1" y="66.4" class="st115" width="70.2" height="0.6"/>
		</g>
		<g>
			<defs>
				<circle id="SVGID_233_" cx="36.1" cy="36" r="35.1"/>
			</defs>
			<clipPath id="SVGID_234_">
				<use xlink:href="#SVGID_233_"  style="overflow:visible;"/>
			</clipPath>
			<rect x="1" y="67" class="st116" width="70.2" height="0.6"/>
		</g>
		<g>
			<defs>
				<circle id="SVGID_235_" cx="36.1" cy="36" r="35.1"/>
			</defs>
			<clipPath id="SVGID_236_">
				<use xlink:href="#SVGID_235_"  style="overflow:visible;"/>
			</clipPath>
			<rect x="1" y="67.6" class="st117" width="70.2" height="0.6"/>
		</g>
		<g>
			<defs>
				<circle id="SVGID_237_" cx="36.1" cy="36" r="35.1"/>
			</defs>
			<clipPath id="SVGID_238_">
				<use xlink:href="#SVGID_237_"  style="overflow:visible;"/>
			</clipPath>
			<rect x="1" y="68.2" class="st118" width="70.2" height="0.6"/>
		</g>
		<g>
			<defs>
				<circle id="SVGID_239_" cx="36.1" cy="36" r="35.1"/>
			</defs>
			<clipPath id="SVGID_240_">
				<use xlink:href="#SVGID_239_"  style="overflow:visible;"/>
			</clipPath>
			<rect x="1" y="68.7" class="st119" width="70.2" height="0.6"/>
		</g>
		<g>
			<defs>
				<circle id="SVGID_241_" cx="36.1" cy="36" r="35.1"/>
			</defs>
			<clipPath id="SVGID_242_">
				<use xlink:href="#SVGID_241_"  style="overflow:visible;"/>
			</clipPath>
			<rect x="1" y="69.3" class="st120" width="70.2" height="0.6"/>
		</g>
		<g>
			<defs>
				<circle id="SVGID_243_" cx="36.1" cy="36" r="35.1"/>
			</defs>
			<clipPath id="SVGID_244_">
				<use xlink:href="#SVGID_243_"  style="overflow:visible;"/>
			</clipPath>
			<rect x="1" y="69.9" class="st121" width="70.2" height="0.6"/>
		</g>
		<g>
			<defs>
				<circle id="SVGID_245_" cx="36.1" cy="36" r="35.1"/>
			</defs>
			<clipPath id="SVGID_246_">
				<use xlink:href="#SVGID_245_"  style="overflow:visible;"/>
			</clipPath>
			<rect x="1" y="70.4" class="st122" width="70.2" height="0.6"/>
		</g>
		<g>
			<defs>
				<circle id="SVGID_247_" cx="36.1" cy="36" r="35.1"/>
			</defs>
			<clipPath id="SVGID_248_">
				<use xlink:href="#SVGID_247_"  style="overflow:visible;"/>
			</clipPath>
			<rect x="1" y="71" class="st123" width="70.2" height="0.1"/>
		</g>
	</g>
</g>
<g>
	<circle class="st124" cx="36.1" cy="36" r="31.8"/>
	<path class="st125" d="M36.1,68C18.4,68,4,53.7,4,36S18.4,4,36.1,4s32,14.4,32,32C68.1,53.7,53.8,68,36.1,68z M36.1,4.5
		C18.7,4.5,4.5,18.6,4.5,36s14.2,31.5,31.6,31.5S67.6,53.3,67.6,36S53.5,4.5,36.1,4.5z"/>
</g>
<g class="st126">
	<path class="st127" d="M17,54.4c0-2.1,1.6-3.6,3.8-3.6c1.2,0,2.2,0.4,2.9,1.2l-1,1c-0.5-0.5-1.1-0.8-1.8-0.8
		c-1.3,0-2.2,0.9-2.2,2.2s0.9,2.2,2.2,2.2c0.7,0,1.3-0.3,1.8-0.8l1,1c-0.7,0.8-1.7,1.3-2.9,1.3C18.7,58,17,56.5,17,54.4z"/>
	<path class="st127" d="M24.7,50.5h1.6v7.4h-1.6V50.5z"/>
	<path class="st127" d="M27.5,50.9c0-0.5,0.4-0.9,1-0.9s1,0.4,1,0.8c0,0.5-0.4,0.9-1,0.9S27.5,51.4,27.5,50.9z M27.7,52.5h1.6v5.4
		h-1.6V52.5z"/>
	<path class="st127" d="M36.2,52.5v7.3h-1.6v-2.5c-0.4,0.4-1,0.7-1.6,0.7c-1.5,0-2.7-1.1-2.7-2.8s1.2-2.8,2.7-2.8
		c0.7,0,1.3,0.2,1.7,0.7v-0.6C34.7,52.5,36.2,52.5,36.2,52.5z M34.7,55.2c0-0.9-0.6-1.5-1.4-1.5c-0.8,0-1.4,0.6-1.4,1.5
		s0.6,1.5,1.4,1.5S34.7,56.1,34.7,55.2z"/>
	<path class="st127" d="M43.1,52.5v5.4h-1.5v-0.6c-0.4,0.5-1,0.7-1.7,0.7c-1.4,0-2.3-0.8-2.3-2.4v-3h1.6v2.8c0,0.9,0.4,1.3,1.1,1.3
		c0.7,0,1.2-0.5,1.2-1.5v-2.7H43.1z"/>
	<path class="st127" d="M49.8,55.6h-4.1c0.2,0.7,0.7,1.1,1.5,1.1c0.6,0,1-0.2,1.4-0.5l0.8,0.9c-0.5,0.6-1.3,0.9-2.2,0.9
		c-1.9,0-3.1-1.2-3.1-2.8s1.2-2.8,2.9-2.8c1.6,0,2.8,1.1,2.8,2.8C49.8,55.3,49.8,55.5,49.8,55.6z M45.7,54.7h2.7
		c-0.1-0.7-0.6-1.1-1.3-1.1C46.3,53.6,45.8,54,45.7,54.7z"/>
	<path class="st127" d="M55.3,56.7v1.2h-4.8V57l2.7-3.2h-2.7v-1.2h4.7v0.9l-2.7,3.2H55.3z"/>
</g>
<g>
	<g>
		<circle class="st128" cx="36.1" cy="26" r="21.5"/>
	</g>
	<g id="Forme_2_1_">
		<g>
			<g>
				<ellipse class="st129" cx="36.1" cy="26" rx="19.4" ry="19.4"/>
			</g>
		</g>
	</g>
	<g>
		<g>
			<g>
				<path class="st130" d="M20.8,20.1c-0.1,0-0.3-0.1-0.3-0.1c-0.1-0.1-0.2-0.2-0.2-0.4c-0.3,0.2-0.7,0.5-0.9,0.5
					c-0.5,0-0.9-0.4-0.9-0.9c0-0.4,0.2-0.6,0.6-0.8c0.5-0.2,1-0.4,1.2-0.5v-0.1c0-0.6-0.3-0.9-0.7-0.9c-0.2,0-0.3,0.1-0.4,0.2
					S19,17.4,19,17.6c0,0.1-0.1,0.2-0.2,0.2s-0.3-0.1-0.3-0.3c0-0.1,0.1-0.2,0.2-0.3c0.2-0.1,0.7-0.4,1.1-0.5c0.2,0,0.4,0.1,0.6,0.2
					c0.2,0.2,0.3,0.5,0.3,0.9v1.5c0,0.3,0.1,0.5,0.3,0.5c0.1,0,0.2,0,0.3-0.1l0.1,0.2L20.8,20.1z M20.3,18.2
					c-0.2,0.1-0.6,0.3-0.8,0.3c-0.3,0.1-0.5,0.3-0.5,0.6c0,0.4,0.3,0.6,0.6,0.6c0.2,0,0.5-0.2,0.7-0.3L20.3,18.2L20.3,18.2z"/>
			</g>
			<g>
				<path class="st130" d="M28.1,16.7c-0.1,0.1-0.2,0.3-0.4,0.4h-0.4c0.1,0.2,0.2,0.4,0.2,0.7c0,0.8-0.7,1.2-1.3,1.2
					c-0.1,0-0.3,0-0.4,0c-0.1,0.1-0.2,0.2-0.2,0.3c0,0.2,0.1,0.3,0.5,0.3c0.3,0,0.6,0,0.9,0c0.5,0,1.1,0.2,1.1,0.9
					c0,0.8-0.9,1.5-1.9,1.5c-0.8,0-1.3-0.5-1.3-0.9c0-0.2,0.1-0.3,0.2-0.4c0.1-0.2,0.4-0.4,0.6-0.5c-0.3-0.1-0.5-0.2-0.6-0.4
					C25,19.7,25,19.6,25,19.5c0.3-0.1,0.5-0.3,0.7-0.5c-0.3-0.1-0.7-0.5-0.7-1c0-0.9,0.8-1.3,1.4-1.3l0,0c0.2,0,0.5,0.1,0.7,0.2
					C27.4,16.8,27.7,16.7,28.1,16.7L28.1,16.7z M26.4,20.1c-0.4,0-0.5,0-0.7,0.2s-0.4,0.4-0.4,0.6c0,0.4,0.4,0.7,1,0.7
					c0.7,0,1.1-0.4,1.1-0.9c0-0.2-0.1-0.4-0.3-0.5C26.9,20.1,26.7,20.1,26.4,20.1L26.4,20.1z M26.2,16.8c-0.3,0-0.7,0.3-0.7,0.9
					s0.3,1,0.8,1c0.4,0,0.7-0.3,0.7-0.9C26.9,17.2,26.6,16.8,26.2,16.8L26.2,16.8z"/>
			</g>
			<g>
				<path class="st130" d="M34.1,19.4c-0.5,0.6-1,0.7-1.2,0.7c-0.9,0-1.5-0.8-1.5-1.6c0-0.5,0.2-1,0.5-1.3s0.7-0.6,1.1-0.6l0,0
					c0.6,0,1.1,0.6,1.1,1.2c0,0.2,0,0.2-0.2,0.3c-0.1,0-1.1,0.1-2,0.1c0,1,0.6,1.5,1.1,1.5c0.3,0,0.6-0.1,0.9-0.4L34.1,19.4z
					 M32.8,16.9c-0.4,0-0.7,0.3-0.9,0.9c0.4,0,0.9,0,1.4,0c0.2,0,0.2,0,0.2-0.2C33.5,17.2,33.2,16.9,32.8,16.9L32.8,16.9z"/>
			</g>
			<g>
				<path class="st130" d="M39.8,20v-0.2c0.5,0,0.5-0.1,0.5-0.6v-1.3c0-0.5-0.2-0.9-0.7-0.9c-0.3,0-0.7,0.2-0.9,0.4v1.8
					c0,0.5,0,0.5,0.5,0.6V20h-1.6v-0.2c0.5,0,0.6-0.1,0.6-0.6v-1.6c0-0.5,0-0.5-0.5-0.6v-0.2c0.4-0.1,0.7-0.2,1-0.3v0.6
					c0.2-0.1,0.3-0.2,0.5-0.4c0.2-0.1,0.4-0.2,0.7-0.2c0.6,0,1,0.4,1,1.1v1.5c0,0.5,0,0.5,0.5,0.6v0.2L39.8,20L39.8,20z"/>
			</g>
			<g>
				<path class="st130" d="M47.7,19.4c-0.3,0.4-0.9,0.8-1.3,0.8c-1,0-1.5-0.8-1.5-1.6c0-0.6,0.2-1.1,0.8-1.5
					c0.4-0.3,0.8-0.4,1.1-0.4l0,0c0.3,0,0.6,0.1,0.7,0.2c0.1,0.1,0.1,0.1,0.1,0.2c0,0.2-0.2,0.3-0.2,0.3s-0.1,0-0.1-0.1
					C47,17.1,46.7,17,46.4,17c-0.5,0-1,0.5-1,1.3c0,1.1,0.7,1.4,1.2,1.4c0.3,0,0.6-0.1,0.9-0.4L47.7,19.4z"/>
			</g>
			<g>
				<path class="st130" d="M53.8,19.4c-0.5,0.6-1,0.7-1.2,0.7c-0.9,0-1.5-0.8-1.5-1.6c0-0.5,0.2-1,0.5-1.3s0.7-0.6,1.1-0.6l0,0
					c0.6,0,1.1,0.6,1.1,1.2c0,0.2,0,0.2-0.2,0.3c-0.1,0-1.1,0.1-2,0.1c0,1,0.6,1.5,1.1,1.5c0.3,0,0.6-0.1,0.9-0.4L53.8,19.4z
					 M52.5,16.9c-0.4,0-0.7,0.3-0.9,0.9c0.4,0,0.9,0,1.4,0c0.2,0,0.2,0,0.2-0.2C53.2,17.2,53,16.9,52.5,16.9L52.5,16.9z"/>
			</g>
		</g>
		<g>
			<g>
				<path class="st130" d="M18.3,35.4v-0.2c0.4,0,0.5-0.1,0.5-0.5v-1.5c0-0.4,0-0.4-0.5-0.5v-0.2c0.4-0.1,0.7-0.2,1-0.3v2.4
					c0,0.5,0,0.5,0.5,0.5v0.2L18.3,35.4L18.3,35.4z M18.7,31.3c0-0.2,0.2-0.4,0.4-0.4c0.2,0,0.3,0.2,0.3,0.4c0,0.2-0.1,0.3-0.3,0.3
					C18.9,31.6,18.7,31.5,18.7,31.3z"/>
			</g>
			<g>
				<path class="st130" d="M24.6,35.4v-0.2c0.4,0,0.5-0.1,0.5-0.6v-1.2c0-0.5-0.2-0.8-0.6-0.8c-0.3,0-0.6,0.2-0.8,0.4
					c0,0.1,0,0.2,0,0.3v1.3c0,0.4,0.1,0.5,0.5,0.5v0.2h-1.5v-0.2c0.4,0,0.5-0.1,0.5-0.5v-1.2c0-0.5-0.2-0.8-0.6-0.8
					c-0.3,0-0.6,0.2-0.8,0.4v1.6c0,0.5,0.1,0.5,0.4,0.5v0.2h-1.5v-0.2c0.5,0,0.5-0.1,0.5-0.5v-1.4c0-0.4,0-0.5-0.4-0.5v-0.2
					c0.3,0,0.7-0.1,0.9-0.3v0.6c0.1-0.1,0.3-0.2,0.5-0.4c0.2-0.1,0.3-0.2,0.6-0.2c0.3,0,0.6,0.2,0.8,0.6c0.2-0.2,0.4-0.3,0.6-0.4
					c0.1-0.1,0.3-0.2,0.5-0.2c0.5,0,0.9,0.4,0.9,1.1v1.3c0,0.5,0,0.5,0.5,0.5v0.2L24.6,35.4L24.6,35.4z"/>
			</g>
			<g>
				<path class="st130" d="M30.8,35.4v-0.2c0.4,0,0.5-0.1,0.5-0.6v-1.2c0-0.5-0.2-0.8-0.6-0.8c-0.3,0-0.6,0.2-0.8,0.4
					c0,0.1,0,0.2,0,0.3v1.3c0,0.4,0.1,0.5,0.5,0.5v0.2h-1.5v-0.2c0.4,0,0.5-0.1,0.5-0.5v-1.2c0-0.5-0.2-0.8-0.6-0.8
					c-0.3,0-0.6,0.2-0.8,0.4v1.6c0,0.5,0.1,0.5,0.4,0.5v0.2h-1.5v-0.2c0.5,0,0.5-0.1,0.5-0.5v-1.4c0-0.4,0-0.5-0.4-0.5v-0.2
					c0.3,0,0.7-0.1,0.9-0.3v0.6c0.1-0.1,0.3-0.2,0.5-0.4c0.2-0.1,0.3-0.2,0.6-0.2c0.3,0,0.6,0.2,0.8,0.6c0.2-0.2,0.4-0.3,0.6-0.4
					c0.1-0.1,0.3-0.2,0.5-0.2c0.5,0,0.9,0.4,0.9,1.1v1.3c0,0.5,0,0.5,0.5,0.5v0.2L30.8,35.4L30.8,35.4z"/>
			</g>
			<g>
				<path class="st130" d="M34.8,32.2c0.9,0,1.5,0.7,1.5,1.6c0,1.2-0.8,1.7-1.5,1.7c-0.9,0-1.5-0.8-1.5-1.6
					C33.2,32.8,34.1,32.2,34.8,32.2L34.8,32.2z M33.8,33.7c0,0.9,0.4,1.5,1,1.5c0.4,0,0.8-0.4,0.8-1.3c0-0.8-0.4-1.5-1-1.5
					C34.2,32.5,33.8,32.9,33.8,33.7z"/>
			</g>
			<g>
				<path class="st130" d="M38.7,32.3c0.1,0,0.2-0.1,0.3-0.1c0.7,0,1.4,0.7,1.4,1.5c0,1-0.8,1.8-1.8,1.8c-0.3,0-0.6-0.1-1-0.2v-3.9
					c0-0.4,0-0.5-0.5-0.5v-0.2c0.3,0,0.7-0.2,1-0.2v2.2L38.7,32.3z M38.1,34.6c0,0.1,0,0.2,0,0.2c0,0.1,0.3,0.4,0.7,0.4
					c0.6,0,1-0.5,1-1.3s-0.5-1.3-1.1-1.3c-0.2,0-0.4,0.1-0.6,0.2L38.1,34.6L38.1,34.6z"/>
			</g>
			<g>
				<path class="st130" d="M41.3,35.4v-0.2c0.4,0,0.5-0.1,0.5-0.5v-1.5c0-0.4,0-0.4-0.5-0.5v-0.2c0.4-0.1,0.7-0.2,1-0.3v2.4
					c0,0.5,0,0.5,0.5,0.5v0.2L41.3,35.4L41.3,35.4z M41.7,31.3c0-0.2,0.2-0.4,0.4-0.4s0.3,0.2,0.3,0.4c0,0.2-0.1,0.3-0.3,0.3
					C41.8,31.6,41.7,31.5,41.7,31.3z"/>
			</g>
			<g>
				<path class="st130" d="M43.5,35.4v-0.2c0.4,0,0.5-0.1,0.5-0.5v-3.3c0-0.5,0-0.5-0.5-0.5v-0.2c0.4,0,0.8-0.2,1-0.2v4.2
					c0,0.5,0.1,0.5,0.5,0.5v0.2H43.5z"/>
			</g>
			<g>
				<path class="st130" d="M45.9,35.4v-0.2c0.4,0,0.5-0.1,0.5-0.5v-1.5c0-0.4,0-0.4-0.5-0.5v-0.2c0.4-0.1,0.7-0.2,1-0.3v2.4
					c0,0.5,0,0.5,0.5,0.5v0.2L45.9,35.4L45.9,35.4z M46.3,31.3c0-0.2,0.2-0.4,0.4-0.4s0.3,0.2,0.3,0.4c0,0.2-0.1,0.3-0.3,0.3
					S46.3,31.5,46.3,31.3z"/>
			</g>
			<g>
				<path class="st130" d="M50.8,34.9c-0.4,0.5-0.9,0.7-1.1,0.7c-0.8,0-1.3-0.7-1.3-1.5c0-0.5,0.2-0.9,0.4-1.2
					c0.3-0.3,0.7-0.5,1-0.5l0,0c0.6,0,1.1,0.5,1.1,1.1c0,0.2,0,0.2-0.2,0.2c-0.1,0-1,0.1-1.9,0.1c0,1,0.6,1.3,1.1,1.3
					c0.3,0,0.5-0.1,0.8-0.4L50.8,34.9z M49.6,32.5c-0.3,0-0.7,0.3-0.8,0.9c0.4,0,0.8,0,1.3,0c0.1,0,0.2,0,0.2-0.2
					C50.3,32.8,50,32.5,49.6,32.5L49.6,32.5z"/>
			</g>
			<g>
				<path class="st130" d="M52.7,33c0.2-0.4,0.5-0.7,0.9-0.7c0.2,0,0.4,0.2,0.4,0.3s-0.1,0.2-0.2,0.3c-0.1,0-0.1,0-0.2,0
					c-0.1-0.1-0.2-0.1-0.3-0.1c-0.2,0-0.4,0.2-0.6,0.7v1.2c0,0.5,0,0.5,0.6,0.5v0.2h-1.6v-0.2c0.5,0,0.5-0.1,0.5-0.5v-1.4
					c0-0.5,0-0.5-0.4-0.5v-0.2c0.3,0,0.6-0.1,0.9-0.3L52.7,33L52.7,33z"/>
			</g>
		</g>
		<g>
			<g>
				<path class="st130" d="M21,22.2c1.3,0,2.3,0.2,2.9,0.9c0.5,0.5,0.9,1.3,0.9,2.2c0,1.2-0.5,2.2-1.3,2.8c-0.8,0.6-1.8,0.9-3.1,0.9
					H18v-0.3c0.9-0.1,1-0.1,1-1v-4.1c0-0.9-0.1-0.9-0.9-1v-0.3L21,22.2L21,22.2z M19.9,27.6c0,0.8,0.3,1,1.1,1c2,0,2.9-1.5,2.9-3.1
					c0-1-0.4-2-1.3-2.5c-0.5-0.3-1.1-0.4-1.8-0.4c-0.5,0-0.8,0-0.9,0.1s-0.1,0.2-0.1,0.6L19.9,27.6L19.9,27.6z"/>
			</g>
			<g>
				<path class="st130" d="M28.3,29v-0.3c0.7-0.1,0.8-0.2,0.7-0.6c-0.1-0.4-0.4-1-0.6-1.6h-2.3c-0.2,0.4-0.3,0.9-0.4,1.3
					c-0.2,0.7-0.1,0.8,0.7,0.9V29H24v-0.3c0.7-0.1,0.8-0.1,1.2-1.1l2.1-5.4l0.3-0.1c0.6,1.7,1.4,3.8,2,5.6c0.3,0.9,0.4,0.9,1.1,1V29
					H28.3L28.3,29z M27.3,23.4L27.3,23.4c-0.4,0.9-0.7,1.8-1,2.7h2L27.3,23.4z"/>
			</g>
			<g>
				<path class="st130" d="M37.7,29.1c-0.2,0-0.3,0-0.4,0c-0.7,0-1.1-0.2-1.6-0.9c-0.4-0.5-0.8-1.2-1.1-1.7
					c-0.2-0.3-0.4-0.4-0.9-0.4h-0.4v1.6c0,0.9,0.1,0.9,0.9,1V29h-2.7v-0.3c0.9,0,1-0.1,1-1v-4.1c0-0.9-0.1-0.9-0.9-1v-0.3h2.5
					c0.7,0,1.2,0.1,1.6,0.3c0.4,0.3,0.7,0.7,0.7,1.3c0,0.9-0.5,1.5-1.3,1.8c0.2,0.3,0.6,1,0.9,1.5c0.4,0.5,0.6,0.8,0.8,1.1
					c0.3,0.3,0.6,0.4,0.8,0.5L37.7,29.1z M33.9,25.7c0.5,0,0.9-0.1,1.1-0.3c0.4-0.3,0.6-0.7,0.6-1.3c0-1.1-0.8-1.5-1.6-1.5
					c-0.3,0-0.5,0-0.6,0.1s-0.1,0.2-0.1,0.5v2.5L33.9,25.7L33.9,25.7z"/>
			</g>
			<g>
				<path class="st130" d="M45.4,22.6c-0.6,0-0.9,0.2-0.9,0.6c0,0.3,0,0.8,0,1.8v4.1h-0.3l-4.4-5.4l0,0v2.6c0,0.9,0,1.4,0,1.8
					c0.1,0.5,0.3,0.7,1,0.7V29h-2.5v-0.3c0.6,0,0.9-0.2,0.9-0.7c0-0.3,0.1-0.8,0.1-1.8V24c0-0.8,0-0.8-0.2-1s-0.4-0.3-0.9-0.4v-0.3
					h1.5l4.3,5.3l0,0V25c0-1,0-1.5-0.1-1.7c-0.1-0.5-0.3-0.6-1-0.6v-0.3h2.5L45.4,22.6L45.4,22.6z"/>
			</g>
			<g>
				<path class="st130" d="M46.3,29v-0.3c0.9,0,1-0.1,1-1v-4.1c0-0.9-0.1-0.9-1-1v-0.3H49v0.3c-0.9,0.1-0.9,0.1-0.9,1v4.1
					c0,0.9,0.1,0.9,0.9,1V29H46.3z"/>
			</g>
			<g>
				<path class="st130" d="M53.5,23.8c-0.2-0.7-0.4-1.4-1.3-1.4c-0.8,0-1.2,0.6-1.2,1.1c0,0.8,0.5,1.1,1.3,1.6
					c0.7,0.4,1.8,0.8,1.8,2c0,1.1-0.9,2-2.3,2c-0.4,0-0.8-0.1-1-0.2s-0.4-0.2-0.5-0.2c-0.1-0.2-0.2-1.1-0.3-1.6l0.3-0.1
					c0.2,0.6,0.6,1.6,1.6,1.6c0.8,0,1.3-0.5,1.3-1.3s-0.6-1.2-1.3-1.6c-0.6-0.3-1.7-0.8-1.7-2c0-1,0.8-1.8,2.1-1.8
					c0.4,0,0.8,0.1,1.3,0.2c0,0.4,0.1,0.8,0.2,1.4L53.5,23.8z"/>
			</g>
		</g>
	</g>
</g>
</svg>
