<svg xmlns="http://www.w3.org/2000/svg" xmlns:xlink="http://www.w3.org/1999/xlink" version="1.1" style="enable-background:new 0 0 380.2 385.4;" xml:space="preserve" width="198" height="198"><rect id="backgroundrect" width="100%" height="100%" x="0" y="0" fill="none" stroke="none"/>
<style type="text/css">
	.st0{fill:none;}
	.st1{fill:#A0998E;}
	.st2{opacity:0.33;}
</style>



<g class="currentLayer"><title>Layer 1</title><g id="svg_1" class="">
	<path class="st0" d="M65.09999084472656,71.9 l17.1,-7.5 l-7.7,43.1 l39.7,-8.5 l11.8,-50.6 c-8,-4.2 -17.1,-6.6 -26.7,-6.6 c-31.7,0 -57.5,25.7 -57.5,57.5 c0,13.8 4.9,26.4 12.9,36.3 L65.09999084472656,71.9 z" id="svg_2"/>
	<path class="st0" d="M100.69999084472656,156.6 l11.7,-50.3 l-39.2,8.1 l-5.8,32.6 c9.1,6.1 20.1,9.6 31.9,9.6 C99.69999084472656,156.6 100.19999084472656,156.6 100.69999084472656,156.6 z" id="svg_3"/>
	<path class="st0" d="M124.19999084472656,150.9 c19.2,-9.3 32.5,-29 32.5,-51.8 c0,-12.3 -3.9,-23.7 -10.5,-33.1 L124.19999084472656,150.9 z" id="svg_4"/>
	<path class="st1" d="M99.19999084472656,0 c-54.8,0 -99.2,44.4 -99.2,99.2 c0,54.8 44.4,99.2 99.2,99.2 s99.2,-44.4 99.2,-99.2 C198.39999084472657,44.400000000000006 153.99999084472657,0 99.19999084472656,0 zM99.19999084472656,41.69999999999999 c9.6,0 18.7,2.4 26.7,6.6 l-11.8,50.6 l-39.7,8.5 l7.7,-43.1 l-17.1,7.5 L54.69999084472656,135.5 c-8.1,-9.9 -12.9,-22.5 -12.9,-36.3 C41.79999084472655,67.4 67.49999084472657,41.69999999999999 99.19999084472656,41.69999999999999 zM67.39999084472657,147 l5.8,-32.6 l39.2,-8.1 l-11.7,50.3 c-0.5,0 -1,0 -1.5,0 C87.49999084472657,156.6 76.49999084472657,153.1 67.39999084472657,147 zM124.19999084472656,150.9 l22,-84.8 c6.6,9.4 10.5,20.7 10.5,33.1 C156.69999084472656,122 143.39999084472657,141.6 124.19999084472656,150.9 z" id="svg_5"/>
</g><g id="HERACLEE" class="">
	<g id="svg_6">
		<path d="M23.299990844726565,57.69999999999999 c-0.30000000000000004,-0.1 -0.6000000000000001,0 -0.7000000000000001,0.30000000000000004 l-0.5,-0.2 l1.7000000000000002,-3.9 l0.5,0.2 c-0.1,0.1 -0.1,0.2 0,0.4 c0,0.1 0.1,0.2 0.30000000000000004,0.30000000000000004 L37.09999084472656,60.5 c0.2,0.1 0.30000000000000004,0.1 0.4,0 c0.1,-0.1 0.2,-0.1 0.30000000000000004,-0.30000000000000004 l0.5,0.2 l-1.7000000000000002,3.9 l-0.5,-0.2 c0.2,-0.4 0.1,-0.6000000000000001 -0.30000000000000004,-0.8 l-5.2,-2.3 l-3.6,8.1 l5.2,2.3 c0.2,0.1 0.30000000000000004,0.1 0.4,0 c0.1,-0.1 0.2,-0.1 0.30000000000000004,-0.30000000000000004 l0.5,0.2 l-1.7000000000000002,3.8 l-0.5,-0.2 c0.1,-0.30000000000000004 0,-0.6000000000000001 -0.30000000000000004,-0.7000000000000001 l-12.6,-5.6 c-0.30000000000000004,-0.1 -0.6000000000000001,-0.1 -0.7000000000000001,0.30000000000000004 l-0.5,-0.2 l1.7000000000000002,-3.8 l0.5,0.2 c-0.1,0.1 -0.1,0.2 0,0.4 c0,0.1 0.1,0.2 0.30000000000000004,0.30000000000000004 l4.7,2.1 l3.6,-8.1 L23.299990844726565,57.69999999999999 z" id="svg_7"/>
		<path d="M44.09999084472656,34.2 c-0.2,-0.2 -0.30000000000000004,-0.2 -0.5,-0.2 c-0.2,0 -0.4,0.2 -0.7000000000000001,0.5 l-6.2,6.4 l2.7,2.6 l3.8,-3.9 c0.30000000000000004,-0.30000000000000004 0.4,-0.5 0.5,-0.7000000000000001 c0.1,-0.2 -0.1,-0.5 -0.4,-0.8 l0.30000000000000004,-0.4 l3.4,3.3 l-0.30000000000000004,0.4 c-0.30000000000000004,-0.30000000000000004 -0.6000000000000001,-0.5 -0.9,-0.4 c-0.2,0.1 -0.5,0.2 -0.7000000000000001,0.5 l-3.8,3.9 l3,2.9 l6.4,-6.6 c0.2,-0.2 0.30000000000000004,-0.4 0.30000000000000004,-0.6000000000000001 c0,-0.2 -0.1,-0.4 -0.2,-0.6000000000000001 l0.30000000000000004,-0.4 l3,2.9 l-0.30000000000000004,0.4 c-0.2,-0.2 -0.4,-0.30000000000000004 -0.6000000000000001,-0.2 c-0.2,0.1 -0.30000000000000004,0.2 -0.5,0.4 l-8.9,9.3 l-0.4,-0.4 c0.1,-0.1 0.1,-0.2 0.1,-0.30000000000000004 c0,-0.1 -0.1,-0.30000000000000004 -0.2,-0.4 l-9.9,-9.6 c-0.1,-0.1 -0.30000000000000004,-0.2 -0.4,-0.2 c-0.1,0 -0.2,0.1 -0.30000000000000004,0.2 l-0.4,-0.4 l8.7,-9.1 c0.30000000000000004,-0.30000000000000004 0.4,-0.5 0.4,-0.7000000000000001 c0,-0.2 -0.1,-0.4 -0.2,-0.5 l0.30000000000000004,-0.4 l2.9,2.8 L44.09999084472656,34.2 z" id="svg_8"/>
		<path d="M61.49999084472657,19 c0.8,-0.4 1.5,-0.7000000000000001 2.3,-0.9 c0.7000000000000001,-0.2 1.4,-0.2 2,-0.1 c0.6000000000000001,0.1 1.2,0.4 1.7000000000000002,0.8 c0.5,0.4 1,1 1.4,1.8 c0.6000000000000001,1.2 0.7000000000000001,2.3 0.4,3.2 c-0.30000000000000004,1 -1,1.8 -1.9,2.6 l5.9,3.5 c0.2,0.1 0.4,0.2 0.6000000000000001,0.1 c0.2,0 0.30000000000000004,-0.1 0.5,-0.2 l0.2,0.5 l-4.6,2.3 l-0.2,-0.5 c0.1,-0.1 0.30000000000000004,-0.2 0.30000000000000004,-0.30000000000000004 c0.1,-0.1 0.1,-0.2 0,-0.30000000000000004 c0,-0.1 -0.1,-0.2 -0.30000000000000004,-0.30000000000000004 c-0.1,-0.1 -0.30000000000000004,-0.2 -0.5,-0.30000000000000004 l-4.9,-2.8 l-3.5,1.8 l2.4,4.8 c0.1,0.2 0.2,0.30000000000000004 0.30000000000000004,0.30000000000000004 c0.1,0 0.4,0 0.6000000000000001,-0.2 l0.2,0.5 l-4.3,2.2 l-0.2,-0.5 c0.5,-0.2 0.6000000000000001,-0.5 0.5,-0.9 l-6.2,-12.3 c-0.2,-0.30000000000000004 -0.5,-0.4 -1,-0.1 l-0.2,-0.5 L61.49999084472657,19 zM64.09999084472656,25.599999999999994 c0.6000000000000001,-0.30000000000000004 1.1,-0.6000000000000001 1.4,-0.9 c0.30000000000000004,-0.30000000000000004 0.6000000000000001,-0.6000000000000001 0.7000000000000001,-0.9 c0.1,-0.30000000000000004 0.2,-0.6000000000000001 0.2,-0.9 c0,-0.30000000000000004 -0.1,-0.6000000000000001 -0.30000000000000004,-0.9 c-0.1,-0.30000000000000004 -0.30000000000000004,-0.5 -0.6000000000000001,-0.7000000000000001 c-0.2,-0.2 -0.5,-0.30000000000000004 -0.8,-0.4 c-0.30000000000000004,-0.1 -0.7000000000000001,0 -1.1,0.1 c-0.4,0.1 -1,0.30000000000000004 -1.6,0.6000000000000001 l-4.3,2.2 l2,4 L64.09999084472656,25.599999999999994 z" id="svg_9"/>
		<path d="M80.89999084472657,27.599999999999994 c0.2,-0.1 0.4,-0.2 0.5,-0.5 c0.1,-0.2 0.2,-0.5 0.30000000000000004,-0.8 l3.5,-12.4 c0.1,-0.30000000000000004 0.2,-0.5 0.2,-0.8 c0.1,-0.2 0.1,-0.4 0.1,-0.6000000000000001 c0,-0.2 -0.1,-0.30000000000000004 -0.2,-0.4 c-0.1,-0.1 -0.30000000000000004,-0.1 -0.4,-0.1 l-0.1,-0.5 l4.6,-0.6000000000000001 l0.1,0.5 c-0.1,0.1 -0.2,0.1 -0.4,0.2 c-0.1,0.1 -0.2,0.2 -0.1,0.5 c0,0.2 0.1,0.30000000000000004 0.2,0.5 c0.1,0.2 0.2,0.4 0.4,0.6000000000000001 l7.3,11.5 c0.1,0.2 0.30000000000000004,0.4 0.4,0.4 c0.2,0.1 0.4,0.2 0.6000000000000001,0.2 l0.1,0.5 l-4.8,0.6000000000000001 l-0.1,-0.5 c0.1,0 0.2,-0.1 0.30000000000000004,-0.1 c0.1,-0.1 0.1,-0.2 0.1,-0.30000000000000004 c0,-0.2 -0.1,-0.5 -0.30000000000000004,-0.8 l-1.3,-2.1 l-6.7,0.9 l-0.7000000000000001,2.3 c-0.1,0.4 -0.2,0.8 -0.2,0.9 c0,0.2 0.2,0.30000000000000004 0.6000000000000001,0.30000000000000004 l0.1,0.5 l-3.9,0.5 L80.89999084472657,27.599999999999994 zM90.49999084472657,20.700000000000003 l-3,-5.3 l-1.8,5.9 L90.49999084472657,20.700000000000003 z" id="svg_10"/>
		<path d="M120.89999084472657,27.299999999999997 c-0.1,0 -0.1,0 -0.1,0 c0,0 -0.1,0 -0.1,0 c-0.1,0 -0.4,0 -0.8,0.2 c-0.5,0.2 -1,0.30000000000000004 -1.7000000000000002,0.5 c-0.7000000000000001,0.2 -1.4,0.30000000000000004 -2.3,0.30000000000000004 c-0.8,0.1 -1.7000000000000002,0 -2.6,-0.2 c-1.1,-0.2 -2.2,-0.6000000000000001 -3.2,-1.1 c-1,-0.5 -1.8,-1.2 -2.5,-2 c-0.7000000000000001,-0.8 -1.1,-1.8 -1.4,-2.9 c-0.30000000000000004,-1.1 -0.30000000000000004,-2.3 0,-3.6 c0.30000000000000004,-1.3 0.7000000000000001,-2.4 1.4,-3.3 c0.7000000000000001,-0.9 1.5,-1.6 2.4,-2.1 c0.9,-0.5 2,-0.8 3.1,-1 c1.1,-0.1 2.2,-0.1 3.4,0.2 c0.9,0.2 1.7000000000000002,0.4 2.5,0.7000000000000001 c0.7000000000000001,0.30000000000000004 1.3,0.6000000000000001 1.9,0.9 c0.5,0.30000000000000004 0.9,0.6000000000000001 1.2,0.8 c0.30000000000000004,0.2 0.5,0.30000000000000004 0.5,0.4 c0.1,0 0.2,0 0.30000000000000004,-0.1 c0.1,-0.1 0.1,-0.2 0.2,-0.2 l0.30000000000000004,0.4 l-2.8,3.2 l-0.2,-0.30000000000000004 c0,-0.1 0,-0.1 0,-0.2 c0,-0.1 0,-0.1 0,-0.2 c0,-0.2 -0.1,-0.5 -0.4,-0.8 c-0.30000000000000004,-0.30000000000000004 -0.6000000000000001,-0.6000000000000001 -1.1,-0.9 c-0.4,-0.30000000000000004 -0.9,-0.5 -1.4,-0.8 c-0.5,-0.2 -1,-0.4 -1.4,-0.5 c-0.8,-0.2 -1.5,-0.2 -2.2,-0.1 c-0.7000000000000001,0.1 -1.4,0.30000000000000004 -2,0.7000000000000001 c-0.6000000000000001,0.4 -1.1,0.8 -1.6,1.4 c-0.4,0.6000000000000001 -0.8,1.3 -0.9,2.2 c-0.2,0.9 -0.2,1.6 0,2.4 c0.2,0.7000000000000001 0.5,1.4 0.9,1.9 c0.4,0.6000000000000001 1,1 1.6,1.4 c0.6000000000000001,0.4 1.3,0.6000000000000001 2.1,0.8 c0.6000000000000001,0.1 1.2,0.2 1.9,0.1 c0.7000000000000001,0 1.3,-0.1 1.8,-0.2 c0.6000000000000001,-0.1 1.1,-0.30000000000000004 1.5,-0.5 c0.4,-0.2 0.6000000000000001,-0.5 0.7000000000000001,-0.7000000000000001 c0,-0.1 0,-0.30000000000000004 0,-0.4 l0.4,-0.2 l1.1,3.5 L120.89999084472657,27.299999999999997 z" id="svg_11"/>
		<path d="M139.99999084472657,40.099999999999994 c0.2,-0.30000000000000004 0.2,-0.5 0,-0.6000000000000001 c-0.1,-0.1 -0.30000000000000004,-0.30000000000000004 -0.6000000000000001,-0.4 l-11.4,-6.6 l0.30000000000000004,-0.5 c0.5,0.30000000000000004 0.8,0.30000000000000004 1,-0.1 l6.9,-11.9 c0.2,-0.30000000000000004 0,-0.6000000000000001 -0.4,-0.9 l0.30000000000000004,-0.5 l4.1,2.4 l-0.30000000000000004,0.5 c-0.4,-0.30000000000000004 -0.8,-0.2 -0.9,0.1 l-6.1,10.4 l7.9,4.6 c0.2,0.1 0.5,0.2 0.7000000000000001,0.2 c0.2,0 0.4,-0.2 0.5,-0.4 l0.4,0.30000000000000004 l-2.1,3.6 L139.99999084472657,40.099999999999994 z" id="svg_12"/>
		<path d="M164.79999084472655,46.30000000000001 c0.2,-0.1 0.2,-0.30000000000000004 0.2,-0.5 c0,-0.2 -0.2,-0.4 -0.4,-0.7000000000000001 l-6,-6.7 l-2.8,2.5 l3.6,4 c0.2,0.30000000000000004 0.5,0.4 0.7000000000000001,0.5 c0.2,0.1 0.5,0 0.8,-0.4 l0.30000000000000004,0.4 l-3.5,3.2 l-0.30000000000000004,-0.4 c0.30000000000000004,-0.30000000000000004 0.5,-0.6000000000000001 0.5,-0.8 c0,-0.2 -0.2,-0.5 -0.4,-0.8 l-3.6,-4 l-3.1,2.8 l6.2,6.9 c0.2,0.2 0.4,0.30000000000000004 0.6000000000000001,0.4 c0.2,0 0.4,0 0.6000000000000001,-0.2 l0.30000000000000004,0.4 l-3.1,2.8 l-0.30000000000000004,-0.4 c0.2,-0.2 0.30000000000000004,-0.4 0.2,-0.5 c-0.1,-0.2 -0.2,-0.30000000000000004 -0.4,-0.5 l-8.6,-9.6 l0.4,-0.4 c0.1,0.1 0.2,0.2 0.30000000000000004,0.2 c0.1,0 0.30000000000000004,0 0.4,-0.2 l10.3,-9.2 c0.1,-0.1 0.2,-0.30000000000000004 0.2,-0.4 c0,-0.1 0,-0.30000000000000004 -0.1,-0.30000000000000004 l0.4,-0.4 l8.4,9.4 c0.30000000000000004,0.30000000000000004 0.5,0.4 0.7000000000000001,0.5 c0.2,0 0.4,0 0.6000000000000001,-0.2 l0.30000000000000004,0.4 l-3,2.7 L164.79999084472655,46.30000000000001 z" id="svg_13"/>
		<path d="M177.29999084472655,69.9 c0.2,-0.1 0.30000000000000004,-0.2 0.4,-0.4 c0,-0.2 0,-0.5 -0.2,-0.8 l-3.5,-8.2 l-3.5,1.5 l2.1,5 c0.1,0.30000000000000004 0.30000000000000004,0.6000000000000001 0.5,0.7000000000000001 c0.2,0.1 0.5,0.1 0.9,-0.1 l0.2,0.5 l-4.4,1.9 l-0.2,-0.5 c0.4,-0.2 0.7000000000000001,-0.4 0.7000000000000001,-0.6000000000000001 c0,-0.2 0,-0.5 -0.2,-0.9 l-2.1,-5 l-3.9,1.7000000000000002 l3.6,8.5 c0.1,0.30000000000000004 0.30000000000000004,0.4 0.5,0.5 c0.2,0.1 0.4,0.1 0.6000000000000001,0 l0.2,0.5 l-3.8,1.6 l-0.2,-0.5 c0.30000000000000004,-0.1 0.4,-0.30000000000000004 0.4,-0.4 c0,-0.2 -0.1,-0.4 -0.2,-0.6000000000000001 l-5.1,-11.8 l0.5,-0.2 c0.1,0.1 0.1,0.2 0.30000000000000004,0.30000000000000004 c0.1,0.1 0.30000000000000004,0 0.4,0 l12.7,-5.4 c0.2,-0.1 0.30000000000000004,-0.2 0.30000000000000004,-0.30000000000000004 c0,-0.1 0,-0.30000000000000004 0,-0.4 l0.5,-0.2 l5,11.6 c0.2,0.4 0.30000000000000004,0.6000000000000001 0.5,0.7000000000000001 c0.2,0.1 0.4,0.1 0.6000000000000001,0 l0.2,0.5 l-3.7,1.6 L177.29999084472655,69.9 z" id="svg_14"/>
	</g>
	<rect x="176.3000030517578" y="94.19999694824219" width="4" height="4" id="svg_15"/>
	<rect x="17.29998779296875" y="94.19999694824219" width="4" height="4" id="svg_16"/>
</g><g id="LUXURY_REAL_ESTATE" class="">
	<g id="svg_17">
		<path d="M26.39999084472656,116.80000000000001 l-9.4,2.4 l1.3,5.2 l-1,0.30000000000000004 l-1.6,-6.4 l10.4,-2.7 L26.39999084472656,116.80000000000001 z" id="svg_18"/>
		<path d="M29.699990844726557,127.4 l-6.7,2.9 c-0.4,0.2 -0.7000000000000001,0.4 -1,0.7000000000000001 c-0.30000000000000004,0.30000000000000004 -0.4,0.6000000000000001 -0.6000000000000001,0.9 c-0.1,0.30000000000000004 -0.2,0.7000000000000001 -0.2,1 c0,0.4 0.1,0.7000000000000001 0.2,1 c0.1,0.30000000000000004 0.30000000000000004,0.6000000000000001 0.6000000000000001,0.9 c0.2,0.30000000000000004 0.5,0.5 0.9,0.7000000000000001 c0.30000000000000004,0.2 0.7000000000000001,0.30000000000000004 1.1,0.30000000000000004 c0.4,0 0.8,-0.1 1.2,-0.2 l6.7,-2.9 l0.5,1.1 l-6.6,2.9 c-0.4,0.2 -0.8,0.30000000000000004 -1.1,0.30000000000000004 c-0.4,0 -0.7000000000000001,0 -1.1,0 c-0.30000000000000004,-0.1 -0.7000000000000001,-0.2 -1,-0.30000000000000004 c-0.30000000000000004,-0.2 -0.6000000000000001,-0.30000000000000004 -0.8,-0.6000000000000001 c-0.30000000000000004,-0.2 -0.5,-0.5 -0.7000000000000001,-0.7000000000000001 c-0.2,-0.30000000000000004 -0.4,-0.6000000000000001 -0.5,-0.9 c-0.2,-0.4 -0.30000000000000004,-0.9 -0.30000000000000004,-1.4 c0,-0.5 0,-1 0.2,-1.4 c0.2,-0.5 0.4,-0.9 0.8,-1.3 c0.4,-0.4 0.8,-0.7000000000000001 1.4,-1 l6.6,-2.9 L29.699990844726557,127.4 z" id="svg_19"/>
		<path d="M32.19999084472656,143.9 c-0.4,1 -0.9,1.9 -1.3,2.9 c-0.5,1 -0.9,2 -1.3,2.9 l-0.7000000000000001,-1.1 l2.2,-4.7 l-5.2,0 l-0.7000000000000001,-1.1 l6.4,0 l2.7,-5.8 l0.7000000000000001,1.1 l-2.2,4.7 l5.2,0 l0.7000000000000001,1.1 L32.19999084472656,143.9 z" id="svg_20"/>
		<path d="M41.899990844726574,148 l-5.4,4.8 c-0.30000000000000004,0.30000000000000004 -0.6000000000000001,0.6000000000000001 -0.7000000000000001,1 c-0.2,0.4 -0.2,0.7000000000000001 -0.2,1.1 c0,0.4 0.1,0.7000000000000001 0.2,1 c0.1,0.30000000000000004 0.30000000000000004,0.6000000000000001 0.5,0.9 c0.2,0.30000000000000004 0.5,0.5 0.8,0.7000000000000001 c0.30000000000000004,0.2 0.7000000000000001,0.30000000000000004 1,0.30000000000000004 c0.4,0.1 0.7000000000000001,0 1.1,-0.1 c0.4,-0.1 0.7000000000000001,-0.30000000000000004 1.1,-0.6000000000000001 l5.4,-4.9 l0.8,0.9 l-5.4,4.8 c-0.30000000000000004,0.30000000000000004 -0.6000000000000001,0.5 -1,0.6000000000000001 c-0.30000000000000004,0.2 -0.7000000000000001,0.30000000000000004 -1,0.30000000000000004 c-0.30000000000000004,0 -0.7000000000000001,0 -1,0 c-0.30000000000000004,-0.1 -0.7000000000000001,-0.1 -1,-0.30000000000000004 c-0.30000000000000004,-0.1 -0.6000000000000001,-0.30000000000000004 -0.9,-0.5 c-0.30000000000000004,-0.2 -0.5,-0.4 -0.7000000000000001,-0.7000000000000001 c-0.30000000000000004,-0.30000000000000004 -0.6000000000000001,-0.7000000000000001 -0.7000000000000001,-1.2 c-0.2,-0.5 -0.30000000000000004,-0.9 -0.30000000000000004,-1.4 c0,-0.5 0.1,-1 0.30000000000000004,-1.5 c0.2,-0.5 0.5,-1 1,-1.4 l5.3,-4.8 L41.899990844726574,148 z" id="svg_21"/>
		<path d="M53.79999084472655,163.39999999999998 c-0.2,0.2 -0.4,0.4 -0.6000000000000001,0.6000000000000001 c-0.2,0.2 -0.4,0.30000000000000004 -0.7000000000000001,0.4 c-0.2,0.1 -0.5,0.2 -0.8,0.2 c-0.30000000000000004,0 -0.5,0 -0.8,0 c0.2,0.2 0.30000000000000004,0.5 0.30000000000000004,0.7000000000000001 c0,0.2 0,0.4 0,0.7000000000000001 c0,0.2 -0.1,0.4 -0.2,0.6000000000000001 c-0.1,0.2 -0.2,0.4 -0.4,0.6000000000000001 l-1,1.3 c-0.1,0.2 -0.30000000000000004,0.4 -0.30000000000000004,0.6000000000000001 c-0.1,0.2 -0.1,0.4 -0.2,0.6000000000000001 l-1,-0.8 c0,-0.1 0,-0.2 0.1,-0.30000000000000004 c0,-0.1 0.1,-0.2 0.1,-0.30000000000000004 c0.1,-0.1 0.1,-0.2 0.2,-0.30000000000000004 s0.1,-0.2 0.2,-0.2 l1.1,-1.3 c0.1,-0.2 0.2,-0.30000000000000004 0.30000000000000004,-0.5 c0.1,-0.2 0.1,-0.4 0.1,-0.6000000000000001 c0,-0.2 -0.1,-0.5 -0.2,-0.7000000000000001 c-0.1,-0.2 -0.30000000000000004,-0.5 -0.6000000000000001,-0.7000000000000001 l-2.5,-2 l-2.9,3.6 l-0.9,-0.7000000000000001 l6.7,-8.4 l3.4,2.8 c0.4,0.30000000000000004 0.7000000000000001,0.7000000000000001 0.9,1.1 c0.2,0.4 0.30000000000000004,0.8 0.4,1.2 c0,0.4 0,0.8 -0.1,1.2 C54.19999084472656,162.8 54.09999084472656,163.10000000000002 53.79999084472655,163.39999999999998 zM47.49999084472657,160.9 l2.5,2 c0.2,0.2 0.5,0.30000000000000004 0.7000000000000001,0.4 c0.30000000000000004,0.1 0.5,0.1 0.8,0.1 c0.30000000000000004,0 0.5,-0.1 0.8,-0.2 c0.2,-0.1 0.5,-0.30000000000000004 0.6000000000000001,-0.5 c0.2,-0.2 0.30000000000000004,-0.5 0.4,-0.7000000000000001 c0.1,-0.30000000000000004 0.1,-0.5 0.1,-0.8 c0,-0.30000000000000004 -0.1,-0.5 -0.30000000000000004,-0.7000000000000001 c-0.1,-0.2 -0.30000000000000004,-0.5 -0.6000000000000001,-0.6000000000000001 l-2.5,-2 L47.49999084472657,160.9 z" id="svg_22"/>
		<path d="M60.09999084472656,170 l5.3,-3.2 l1.2,0.6000000000000001 l-6.5,3.7 l-2.1,3.8 l-1,-0.6000000000000001 l2.1,-3.8 l-0.2,-7.5 l1.2,0.6000000000000001 L60.09999084472656,170 z" id="svg_23"/>
		<path d="M83.29999084472655,176.3 c-0.1,0.30000000000000004 -0.2,0.5 -0.30000000000000004,0.7000000000000001 c-0.1,0.2 -0.30000000000000004,0.4 -0.5,0.6000000000000001 c-0.2,0.2 -0.4,0.4 -0.6000000000000001,0.5 c-0.2,0.1 -0.5,0.2 -0.8,0.30000000000000004 c0.30000000000000004,0.1 0.4,0.30000000000000004 0.6000000000000001,0.5 c0.1,0.2 0.2,0.4 0.30000000000000004,0.6000000000000001 c0.1,0.2 0.1,0.4 0,0.7000000000000001 c0,0.2 -0.1,0.5 -0.1,0.7000000000000001 l-0.4,1.6 c-0.1,0.2 -0.1,0.5 -0.1,0.7000000000000001 c0,0.2 0,0.4 0.1,0.6000000000000001 l-1.2,-0.30000000000000004 c0,-0.1 0,-0.2 0,-0.30000000000000004 c0,-0.1 0,-0.2 0,-0.30000000000000004 c0,-0.1 0,-0.2 0.1,-0.30000000000000004 c0,-0.1 0,-0.2 0.1,-0.30000000000000004 l0.4,-1.7000000000000002 c0.1,-0.2 0.1,-0.4 0.1,-0.6000000000000001 c0,-0.2 -0.1,-0.4 -0.2,-0.6000000000000001 c-0.1,-0.2 -0.30000000000000004,-0.4 -0.5,-0.5 c-0.2,-0.2 -0.5,-0.30000000000000004 -0.9,-0.4 l-3.1,-0.8 l-1.2,4.5 l-1.1,-0.30000000000000004 l2.7,-10.4 l4.3,1.1 c0.5,0.1 0.9,0.30000000000000004 1.3,0.6000000000000001 c0.30000000000000004,0.30000000000000004 0.6000000000000001,0.6000000000000001 0.8,0.9 c0.2,0.4 0.30000000000000004,0.7000000000000001 0.4,1.1 C83.39999084472657,175.60000000000002 83.39999084472657,176 83.29999084472655,176.3 zM76.49999084472657,176.7 l3.1,0.8 c0.30000000000000004,0.1 0.5,0.1 0.8,0 c0.30000000000000004,0 0.5,-0.1 0.8,-0.30000000000000004 c0.2,-0.1 0.4,-0.30000000000000004 0.6000000000000001,-0.5 s0.30000000000000004,-0.5 0.4,-0.8 c0.1,-0.30000000000000004 0.1,-0.6000000000000001 0,-0.8 c0,-0.30000000000000004 -0.1,-0.5 -0.30000000000000004,-0.7000000000000001 c-0.1,-0.2 -0.30000000000000004,-0.4 -0.5,-0.6000000000000001 c-0.2,-0.2 -0.5,-0.30000000000000004 -0.8,-0.4 l-3.1,-0.8 L76.49999084472657,176.7 z" id="svg_24"/>
		<path d="M95.89999084472657,174.8 l-0.1,1 l-6,-0.5 l-0.30000000000000004,3.6 l5.7,0.5 l-0.1,1 l-5.7,-0.5 l-0.4,4 l6.3,0.6000000000000001 l-0.1,1 l-7.4,-0.7000000000000001 l1,-10.7 L95.89999084472657,174.8 z" id="svg_25"/>
		<path d="M105.29999084472655,174.5 l4.7,10.5 l-1.2,0.1 l-1.4,-3.2 l-4.6,0.30000000000000004 l-1,3.4 l-1.2,0.1 l3.2,-11 L105.29999084472655,174.5 zM104.49999084472657,175.7 l-1.5,5.5 l3.8,-0.30000000000000004 L104.49999084472657,175.7 z" id="svg_26"/>
		<path d="M114.19999084472656,173.3 l2.2,9.5 l5.3,-1.2 l0.2,1 l-6.4,1.5 L113.09999084472656,173.5 L114.19999084472656,173.3 z" id="svg_27"/>
		<path d="M136.69999084472656,164.7 l0.5,0.9 l-5.4,2.8 l1.7000000000000002,3.2 l5,-2.6 l0.5,0.9 l-5,2.6 l1.9,3.6 l5.6,-2.9 l0.5,0.9 l-6.6,3.4 l-5,-9.6 L136.69999084472656,164.7 z" id="svg_28"/>
		<path d="M146.19999084472656,167.39999999999998 c0.30000000000000004,0.30000000000000004 0.5,0.5 0.8,0.7000000000000001 c0.30000000000000004,0.2 0.6000000000000001,0.30000000000000004 1,0.30000000000000004 c0.30000000000000004,0 0.7000000000000001,0 1,-0.1 c0.30000000000000004,-0.1 0.7000000000000001,-0.30000000000000004 1,-0.5 c0.30000000000000004,-0.2 0.5,-0.5 0.8,-0.7000000000000001 c0.2,-0.30000000000000004 0.4,-0.5 0.5,-0.8 c0.1,-0.30000000000000004 0.1,-0.6000000000000001 0.1,-0.9 c0,-0.30000000000000004 -0.2,-0.6000000000000001 -0.4,-0.9 c-0.2,-0.30000000000000004 -0.4,-0.4 -0.7000000000000001,-0.5 c-0.30000000000000004,-0.1 -0.6000000000000001,-0.1 -0.9,-0.1 c-0.30000000000000004,0 -0.6000000000000001,0.1 -1,0.2 c-0.30000000000000004,0.1 -0.7000000000000001,0.2 -1,0.30000000000000004 c-0.30000000000000004,0.1 -0.6000000000000001,0.2 -0.9,0.30000000000000004 c-0.30000000000000004,0.1 -0.6000000000000001,0.2 -0.9,0.2 c-0.30000000000000004,0.1 -0.6000000000000001,0.1 -0.9,0.1 c-0.30000000000000004,0 -0.6000000000000001,0 -0.8,-0.1 c-0.30000000000000004,-0.1 -0.5,-0.2 -0.8,-0.30000000000000004 c-0.2,-0.2 -0.5,-0.4 -0.7000000000000001,-0.7000000000000001 c-0.30000000000000004,-0.4 -0.4,-0.7000000000000001 -0.5,-1.1 c-0.1,-0.4 0,-0.8 0.1,-1.1 c0.1,-0.4 0.30000000000000004,-0.7000000000000001 0.6000000000000001,-1.1 c0.30000000000000004,-0.4 0.6000000000000001,-0.7000000000000001 1.1,-1 c0.6000000000000001,-0.4 1.1,-0.7000000000000001 1.6,-0.8 c0.5,-0.1 0.9,-0.1 1.4,-0.1 c0.4,0.1 0.8,0.2 1.1,0.5 c0.30000000000000004,0.2 0.6000000000000001,0.5 0.8,0.7000000000000001 l-0.9,0.7000000000000001 c-0.2,-0.30000000000000004 -0.5,-0.5 -0.8,-0.6000000000000001 c-0.30000000000000004,-0.1 -0.6000000000000001,-0.2 -0.9,-0.2 c-0.30000000000000004,0 -0.6000000000000001,0 -0.9,0.1 c-0.30000000000000004,0.1 -0.6000000000000001,0.2 -0.8,0.4 c-0.2,0.2 -0.5,0.4 -0.7000000000000001,0.6000000000000001 c-0.2,0.2 -0.30000000000000004,0.5 -0.4,0.7000000000000001 c-0.1,0.2 -0.1,0.5 -0.1,0.8 c0,0.30000000000000004 0.1,0.5 0.30000000000000004,0.8 c0.2,0.30000000000000004 0.4,0.4 0.7000000000000001,0.5 c0.30000000000000004,0.1 0.6000000000000001,0.1 0.9,0.1 c0.30000000000000004,0 0.6000000000000001,-0.1 1,-0.2 c0.30000000000000004,-0.1 0.7000000000000001,-0.2 1.1,-0.4 c0.30000000000000004,-0.1 0.6000000000000001,-0.2 0.9,-0.30000000000000004 c0.30000000000000004,-0.1 0.6000000000000001,-0.2 0.9,-0.2 s0.6000000000000001,-0.1 0.8,-0.1 c0.30000000000000004,0 0.5,0 0.8,0.1 c0.30000000000000004,0.1 0.5,0.2 0.8,0.30000000000000004 c0.2,0.2 0.5,0.4 0.7000000000000001,0.7000000000000001 c0.30000000000000004,0.4 0.5,0.8 0.6000000000000001,1.3 c0.1,0.4 0.1,0.9 0,1.3 c-0.1,0.4 -0.30000000000000004,0.8 -0.6000000000000001,1.2 c-0.30000000000000004,0.4 -0.7000000000000001,0.8 -1.1,1.1 c-0.4,0.30000000000000004 -0.9,0.5 -1.3,0.7000000000000001 c-0.5,0.2 -1,0.2 -1.5,0.2 c-0.5,0 -1,-0.2 -1.4,-0.4 c-0.5,-0.2 -0.9,-0.6000000000000001 -1.2,-1 L146.19999084472656,167.39999999999998 z" id="svg_29"/>
		<path d="M156.19999084472656,148.4 l0.8,0.7000000000000001 l-2.5,2.6 l7.1,6.7 l-0.8,0.8 l-7.1,-6.7 l-2.5,2.6 l-0.8,-0.7000000000000001 L156.19999084472656,148.4 z" id="svg_30"/>
		<path d="M161.49999084472657,141.1 l11.1,2.7 l-0.7000000000000001,1 l-3.4,-0.8 l-2.6,3.8 l2.1,2.8 l-0.7000000000000001,1 l-6.7,-9.3 L161.49999084472657,141.1 zM161.89999084472657,142.3 l3.4,4.6 l2.1,-3.2 L161.89999084472657,142.3 z" id="svg_31"/>
		<path d="M168.89999084472657,126.80000000000001 l1,0.4 l-1.5,3.2 l8.9,4 l-0.5,1 l-8.9,-4 l-1.5,3.3 l-1,-0.4 L168.89999084472657,126.80000000000001 z" id="svg_32"/>
		<path d="M172.19999084472659,115.6 l1,0.30000000000000004 l-1.5,5.8 l3.5,0.9 l1.4,-5.5 l1,0.30000000000000004 l-1.4,5.5 l3.9,1 l1.6,-6.1 l1,0.30000000000000004 l-1.9,7.2 l-10.4,-2.7 L172.19999084472659,115.6 z" id="svg_33"/>
	</g>
	<g class="st2" id="svg_34">
		<path d="M99.19999084472656,163.5 c-35.4,0 -64.3,-28.8 -64.3,-64.3 c0,-35.4 28.8,-64.3 64.3,-64.3 c35.4,0 64.3,28.8 64.3,64.3 C163.49999084472657,134.7 134.59999084472656,163.5 99.19999084472656,163.5 zM99.19999084472656,35.69999999999999 c-35,0 -63.5,28.5 -63.5,63.5 c0,35 28.5,63.5 63.5,63.5 c35,0 63.5,-28.5 63.5,-63.5 C162.69999084472656,64.19999999999999 134.19999084472656,35.69999999999999 99.19999084472656,35.69999999999999 z" id="svg_35"/>
	</g>
</g></g></svg>