<svg xmlns="http://www.w3.org/2000/svg" xmlns:xlink="http://www.w3.org/1999/xlink" preserveAspectRatio="xMidYMid" width="42" height="60" viewBox="0 0 42 60">
  <defs>
    <style>
      .cls-1, .cls-3 {
        fill: #272727;
      }

      .cls-1, .cls-2 {
        fill-rule: evenodd;
      }

      .cls-2 {
        fill: #ccac83;
      }
    </style>
  </defs>
  <g>
    <path d="M37.799,35.720 L21.000,59.995 L4.175,35.686 C-2.102,27.316 -1.190,13.501 6.151,6.158 C10.117,2.190 15.390,0.004 21.000,0.004 C26.608,0.004 31.882,2.190 35.849,6.158 C43.189,13.501 44.101,27.316 37.799,35.720 ZM21.176,14.055 C17.334,14.055 14.206,17.210 14.206,21.085 C14.206,24.961 17.334,28.115 21.176,28.115 C25.018,28.115 28.146,24.961 28.146,21.085 C28.146,17.210 25.018,14.055 21.176,14.055 Z" class="cls-1"/>
    <path d="M34.501,7.645 C30.895,4.007 26.099,2.004 21.000,2.004 C15.899,2.004 11.105,4.007 7.499,7.645 C0.825,14.376 -0.005,27.040 5.702,34.712 L21.000,56.995 L36.274,34.743 C42.004,27.040 41.175,14.376 34.501,7.645 ZM21.176,28.115 C17.334,28.115 14.206,24.961 14.206,21.085 C14.206,17.210 17.334,14.055 21.176,14.055 C25.018,14.055 28.146,17.210 28.146,21.085 C28.146,24.961 25.018,28.115 21.176,28.115 Z" class="cls-2"/>
    <circle cx="21" cy="21" r="7" class="cls-3"/>
  </g>
</svg>
