<svg xmlns="http://www.w3.org/2000/svg" xmlns:xlink="http://www.w3.org/1999/xlink" preserveAspectRatio="xMidYMid" width="63" height="78.999" viewBox="0 0 63 78.999">
  <defs>
    <style>
      .cls-1 {
        fill: #fff;
        stroke: #c70628;
        stroke-width: 2px;
        fill-rule: evenodd;
      }

      .cls-2 {
        fill: #c70628;
      }
    </style>
  </defs>
  <g>
    <path d="M30.413,1.017 C15.223,1.554 2.603,13.489 1.146,28.725 C0.848,31.772 1.020,34.724 1.553,37.550 L1.553,37.550 C1.553,37.550 1.600,37.882 1.757,38.513 C2.227,40.629 2.933,42.681 3.810,44.608 C6.867,51.902 13.937,64.106 29.801,77.384 C30.773,78.205 32.200,78.205 33.187,77.384 C49.051,64.122 56.121,51.917 59.194,44.592 C60.087,42.666 60.777,40.629 61.247,38.498 C61.389,37.882 61.451,37.535 61.451,37.535 L61.451,37.535 C61.812,35.640 62.000,33.698 62.000,31.709 C62.000,14.374 47.750,0.401 30.413,1.017 ZM31.494,46.992 C23.311,46.992 16.681,40.313 16.681,32.072 C16.681,23.831 23.311,17.152 31.494,17.152 C39.677,17.152 46.308,23.831 46.308,32.072 C46.308,40.313 39.677,46.992 31.494,46.992 Z" class="cls-1"/>
    <circle cx="31.5" cy="32.469" r="16.5" class="cls-2"/>
  </g>
</svg>
