<svg xmlns="http://www.w3.org/2000/svg" width="370" height="220" viewBox="0 0 370 220">
  <defs>
    <style>
      .cls-1 {
        fill: #272727;
        fill-opacity: 0;
      }

      .cls-2 {
        fill: #ccac83;
        fill-rule: evenodd;
        opacity: 0.5;
      }
    </style>
  </defs>
  <rect id="Base" class="cls-1" y="-13" width="370" height="247"/>
  <path id="default_icn" class="cls-2" d="M202.95,78.2h-3.5a9,9,0,0,0-8.467-5.991H179.017a8.985,8.985,0,0,0-8.61,6.459,3,3,0,0,0-.515,4.649l8.144,8.154A20.691,20.691,0,0,1,185,90.187a20.978,20.978,0,0,1,20.941,20.97,20.76,20.76,0,0,1-1.28,6.973l13.073,13.091a2.98,2.98,0,0,0,2.118.875,2.782,2.782,0,0,0,.664-0.078,2.991,2.991,0,0,0,2.16-1.923,20.952,20.952,0,0,0,1.227-6.962V99.168A21,21,0,0,0,202.95,78.2ZM185,42.25a68.9,68.9,0,1,0,68.807,68.9A68.933,68.933,0,0,0,185,42.25Zm0,131.809A62.82,62.82,0,0,1,138.582,68.906l14.659,14.679a20.992,20.992,0,0,0-7.132,15.583v23.965A20.978,20.978,0,0,0,167.051,144.1h35.9a20.92,20.92,0,0,0,8.7-2.031l15.538,15.56A62.478,62.478,0,0,1,185,174.059ZM164.059,111.15a20.6,20.6,0,0,1,4.29-12.438l29.078,29.118A20.549,20.549,0,0,1,185,132.12,20.979,20.979,0,0,1,164.059,111.15ZM231.418,153.4l-88.6-88.719A62.758,62.758,0,0,1,231.418,153.4Z"/>
</svg>
