<svg xmlns="http://www.w3.org/2000/svg" width="212" height="212" viewBox="0 0 212 212">
  <defs>
    <style>
      .cls-1 {
        fill: #ccac83;
        fill-rule: evenodd;
        opacity: 0.5;
      }
    </style>
  </defs>
  <path id="default_icn" class="cls-1" d="M687.652,1491.3H682.26a13.863,13.863,0,0,0-13.043-9.21H650.783a13.838,13.838,0,0,0-13.264,9.93,4.622,4.622,0,0,0-.793,7.16l12.545,12.54A31.875,31.875,0,0,1,660,1509.75a32.3,32.3,0,0,1,32.261,32.26,31.909,31.909,0,0,1-1.972,10.73l20.14,20.14a4.612,4.612,0,0,0,3.262,1.34,4.46,4.46,0,0,0,1.024-.11,4.639,4.639,0,0,0,3.327-2.96,32.262,32.262,0,0,0,1.889-10.71v-36.87A32.331,32.331,0,0,0,687.652,1491.3ZM660,1436a106,106,0,1,0,106,106A106.12,106.12,0,0,0,660,1436Zm0,202.78a96.616,96.616,0,0,1-71.508-161.77l22.582,22.58a32.277,32.277,0,0,0-10.987,23.98v36.86a32.3,32.3,0,0,0,32.261,32.27h55.305a32.227,32.227,0,0,0,13.4-3.13l23.938,23.94A96.327,96.327,0,0,1,660,1638.78ZM627.74,1542a31.686,31.686,0,0,1,6.608-19.14l44.8,44.8a31.661,31.661,0,0,1-19.145,6.6A32.3,32.3,0,0,1,627.74,1542Zm103.769,64.99L595.018,1470.5A96.612,96.612,0,0,1,731.509,1606.99Z" transform="translate(-554 -1436)"/>
</svg>
