<svg xmlns="http://www.w3.org/2000/svg" width="570" height="380" viewBox="0 0 570 380">
  <defs>
    <style>
      .cls-1 {
        fill: #272727;
        fill-opacity: 0;
      }

      .cls-2 {
        fill: #ccac83;
        fill-rule: evenodd;
        opacity: 0.5;
      }
    </style>
  </defs>
  <rect id="Base" class="cls-1" width="570" height="380"/>
  <path id="default_icn" class="cls-2" d="M312.652,140.305H307.26a13.863,13.863,0,0,0-13.043-9.218H275.783a13.84,13.84,0,0,0-13.264,9.937,4.615,4.615,0,0,0-.793,7.152l12.545,12.545A31.926,31.926,0,0,1,285,158.749a32.3,32.3,0,0,1,32.261,32.261,31.926,31.926,0,0,1-1.972,10.729l20.14,20.14a4.593,4.593,0,0,0,3.262,1.346,4.313,4.313,0,0,0,1.024-.12,4.609,4.609,0,0,0,3.327-2.959,32.218,32.218,0,0,0,1.889-10.71v-36.87A32.323,32.323,0,0,0,312.652,140.305ZM285,85A106,106,0,1,0,391,191,106.122,106.122,0,0,0,285,85Zm0,202.783a96.62,96.62,0,0,1-71.508-161.775l22.582,22.583a32.275,32.275,0,0,0-10.987,23.975v36.869A32.3,32.3,0,0,0,257.348,241.7h55.305a32.268,32.268,0,0,0,13.4-3.125l23.938,23.938A96.321,96.321,0,0,1,285,287.783ZM252.74,191a31.665,31.665,0,0,1,6.608-19.135l44.8,44.8a31.681,31.681,0,0,1-19.145,6.6A32.3,32.3,0,0,1,252.74,191Zm103.769,64.992L220.018,119.5A96.612,96.612,0,0,1,356.509,255.992Z"/>
</svg>
