<svg xmlns="http://www.w3.org/2000/svg" xmlns:xlink="http://www.w3.org/1999/xlink" preserveAspectRatio="xMidYMid" width="21.938" height="12.44" viewBox="0 0 21.938 12.44">
  <defs>
    <style>
      .cls-1 {
        fill: #2989a5;
        fill-rule: evenodd;
      }
    </style>
  </defs>
  <path d="M21.529,11.176 C20.988,12.042 20.020,12.438 19.122,12.438 C18.789,12.438 18.466,12.384 18.178,12.279 L15.238,11.103 C15.556,10.926 15.859,10.718 16.140,10.471 L16.164,10.450 L18.646,7.862 C19.255,7.226 19.612,6.436 19.724,5.616 C20.444,6.451 21.065,7.359 21.574,8.329 C22.090,9.203 22.077,10.299 21.529,11.176 ZM15.658,9.921 C14.912,10.575 14.006,10.938 13.063,10.991 C13.083,10.939 13.108,10.890 13.125,10.837 L15.587,3.079 C15.774,2.492 15.768,1.868 15.591,1.294 C16.583,1.544 17.493,2.080 18.183,2.841 C19.344,4.123 19.315,6.106 18.118,7.355 L15.658,9.921 ZM12.428,10.615 C12.217,11.279 11.646,11.707 10.973,11.707 C10.299,11.707 9.728,11.279 9.517,10.615 L7.055,2.858 C6.838,2.175 6.959,1.426 7.378,0.854 C7.776,0.310 8.382,-0.002 9.039,-0.002 L12.906,-0.002 C13.563,-0.002 14.169,0.310 14.567,0.854 C14.986,1.426 15.107,2.175 14.890,2.858 L12.428,10.615 ZM8.820,10.837 C8.837,10.890 8.862,10.939 8.882,10.991 C7.940,10.939 7.039,10.581 6.310,9.943 L3.827,7.355 C2.630,6.106 2.601,4.124 3.762,2.841 C4.451,2.080 5.362,1.544 6.353,1.294 C6.177,1.868 6.171,2.492 6.357,3.079 L8.820,10.837 ZM5.804,10.473 L5.828,10.494 C6.100,10.732 6.394,10.933 6.702,11.105 L3.777,12.275 C3.466,12.391 3.139,12.447 2.811,12.447 C1.859,12.447 0.915,11.975 0.416,11.176 C-0.132,10.299 -0.146,9.203 0.380,8.312 C0.883,7.355 1.502,6.450 2.220,5.616 C2.332,6.435 2.690,7.227 3.299,7.862 L5.804,10.473 Z" class="cls-1"/>
</svg>
