<svg xmlns="http://www.w3.org/2000/svg" xmlns:xlink="http://www.w3.org/1999/xlink" preserveAspectRatio="xMidYMid" width="28" height="28" viewBox="0 0 28 28">
  <defs>
    <style>
      .cls-1 {
        fill: #fff;
        filter: url(#drop-shadow-1);
      }

      .cls-2 {
        fill: #2989a5;
        fill-rule: evenodd;
      }
    </style>

    <filter id="drop-shadow-1" filterUnits="userSpaceOnUse">
      <feOffset in="SourceAlpha"/>
      <feGaussianBlur stdDeviation="1" result="dropBlur"/>
      <feFlood flood-opacity="0.3"/>
      <feComposite operator="in" in2="dropBlur" result="dropShadowComp"/>
      <feComposite in="SourceGraphic" result="shadowed"/>
    </filter>
  </defs>
  <g>
    <rect x="2" y="2" width="24" height="24" class="cls-1"/>
    <path d="M22.565,17.658 C22.132,18.351 21.356,18.668 20.635,18.668 C20.369,18.668 20.110,18.625 19.879,18.540 L17.522,17.600 C17.777,17.459 18.020,17.292 18.245,17.095 L18.264,17.078 L20.254,15.008 C20.742,14.499 21.029,13.867 21.119,13.211 C21.696,13.879 22.193,14.605 22.602,15.381 C23.016,16.080 23.005,16.957 22.565,17.658 ZM17.858,16.654 C17.261,17.178 16.534,17.468 15.778,17.510 C15.794,17.469 15.814,17.430 15.828,17.387 L17.802,11.182 C17.951,10.712 17.947,10.213 17.805,9.754 C18.601,9.955 19.330,10.383 19.883,10.992 C20.814,12.017 20.791,13.603 19.831,14.602 L17.858,16.654 ZM15.269,17.210 C15.100,17.741 14.642,18.083 14.102,18.083 C13.562,18.083 13.104,17.741 12.935,17.210 L10.961,11.005 C10.788,10.459 10.885,9.860 11.220,9.402 C11.540,8.967 12.025,8.717 12.552,8.717 L15.652,8.717 C16.179,8.717 16.665,8.967 16.984,9.402 C17.320,9.860 17.417,10.459 17.243,11.005 L15.269,17.210 ZM12.376,17.387 C12.390,17.430 12.410,17.469 12.426,17.510 C11.671,17.469 10.949,17.183 10.364,16.672 L8.373,14.602 C7.414,13.603 7.391,12.017 8.321,10.992 C8.874,10.383 9.604,9.955 10.399,9.754 C10.257,10.213 10.253,10.712 10.402,11.182 L12.376,17.387 ZM9.959,17.096 L9.978,17.113 C10.196,17.303 10.431,17.465 10.678,17.602 L8.333,18.538 C8.084,18.631 7.821,18.675 7.559,18.675 C6.796,18.675 6.039,18.298 5.638,17.658 C5.199,16.957 5.188,16.080 5.610,15.368 C6.013,14.602 6.509,13.878 7.085,13.211 C7.175,13.867 7.462,14.500 7.950,15.008 L9.959,17.096 Z" class="cls-2"/>
  </g>
</svg>
