<svg xmlns="http://www.w3.org/2000/svg" xmlns:xlink="http://www.w3.org/1999/xlink" preserveAspectRatio="xMidYMid" width="28" height="28" viewBox="0 0 28 28">
  <defs>
    <style>
      .cls-1 {
        fill: #fff;
        filter: url(#drop-shadow-1);
      }

      .cls-2 {
        fill: #424f89;
        fill-rule: evenodd;
      }
    </style>

    <filter id="drop-shadow-1" filterUnits="userSpaceOnUse">
      <feOffset in="SourceAlpha"/>
      <feGaussianBlur stdDeviation="1" result="dropBlur"/>
      <feFlood flood-opacity="0.3"/>
      <feComposite operator="in" in2="dropBlur" result="dropShadowComp"/>
      <feComposite in="SourceGraphic" result="shadowed"/>
    </filter>
  </defs>
  <g>
    <rect x="2" y="2" width="24" height="24" class="cls-1"/>
    <path d="M17.613,20.011 C17.074,20.011 16.556,19.972 16.071,19.902 C16.191,19.665 16.253,19.415 16.253,19.156 L16.253,18.693 L16.253,18.589 C16.685,18.644 17.141,18.674 17.613,18.674 C19.965,18.674 21.929,17.946 22.390,16.977 C22.457,17.118 22.493,17.265 22.493,17.415 L22.493,17.877 C22.493,19.055 20.308,20.011 17.613,20.011 ZM17.613,17.628 C17.141,17.628 16.685,17.599 16.253,17.544 L16.253,16.207 C16.685,16.262 17.141,16.292 17.613,16.292 C19.965,16.292 21.929,15.564 22.390,14.595 C22.457,14.736 22.492,14.882 22.492,15.032 L22.492,15.495 C22.492,16.673 20.308,17.628 17.613,17.628 ZM17.613,15.247 C17.141,15.247 16.685,15.217 16.253,15.162 L16.253,10.601 C16.685,10.546 17.141,10.517 17.613,10.517 C20.308,10.517 22.492,11.472 22.492,12.650 L22.492,13.113 C22.492,14.291 20.308,15.247 17.613,15.247 ZM10.578,21.290 C7.883,21.290 5.699,20.334 5.699,19.156 L5.699,18.693 C5.699,18.543 5.734,18.397 5.801,18.256 C6.262,19.225 8.226,19.953 10.578,19.953 C12.930,19.953 14.893,19.225 15.355,18.256 C15.422,18.397 15.457,18.543 15.457,18.693 L15.457,19.156 C15.457,20.334 13.273,21.290 10.578,21.290 ZM10.578,18.907 C7.883,18.907 5.699,17.952 5.699,16.774 L5.699,16.311 C5.699,16.162 5.734,16.016 5.801,15.875 C6.262,16.843 8.226,17.571 10.578,17.571 C12.930,17.571 14.893,16.843 15.355,15.875 C15.422,16.016 15.457,16.162 15.457,16.311 L15.457,16.774 C15.457,17.952 13.273,18.907 10.578,18.907 ZM10.578,16.397 C7.883,16.397 5.699,15.442 5.699,14.264 L5.699,13.801 C5.699,13.651 5.734,13.505 5.801,13.364 C6.262,14.332 8.226,15.060 10.578,15.060 C12.930,15.060 14.893,14.332 15.355,13.364 C15.422,13.505 15.457,13.651 15.457,13.801 L15.457,14.264 C15.457,15.442 13.273,16.397 10.578,16.397 ZM10.578,14.015 C7.883,14.015 5.699,13.060 5.699,11.882 L5.699,11.419 C5.699,11.269 5.734,11.123 5.801,10.982 C6.262,11.950 8.226,12.679 10.578,12.679 C12.930,12.679 14.893,11.950 15.355,10.982 C15.422,11.123 15.457,11.269 15.457,11.419 L15.457,11.882 C15.457,13.060 13.273,14.015 10.578,14.015 ZM10.578,11.633 C7.883,11.633 5.699,10.678 5.699,9.500 L5.699,9.037 C5.699,7.859 7.883,6.904 10.578,6.904 C13.273,6.904 15.457,7.859 15.457,9.037 L15.457,9.500 C15.457,10.678 13.273,11.633 10.578,11.633 Z" class="cls-2"/>
  </g>
</svg>
