<svg xmlns="http://www.w3.org/2000/svg" xmlns:xlink="http://www.w3.org/1999/xlink" preserveAspectRatio="xMidYMid" width="20.938" height="18" viewBox="0 0 20.938 18">
  <defs>
    <style>
      .cls-1 {
        fill: #424f89;
        fill-rule: evenodd;
      }
    </style>
  </defs>
  <path d="M14.853,16.391 C14.181,16.391 13.534,16.342 12.930,16.254 C13.079,15.958 13.157,15.646 13.157,15.322 L13.157,14.743 L13.157,14.614 C13.695,14.682 14.264,14.719 14.853,14.719 C17.787,14.719 20.236,13.809 20.811,12.598 C20.895,12.775 20.939,12.958 20.939,13.145 L20.939,13.723 C20.939,15.196 18.214,16.391 14.853,16.391 ZM14.853,13.412 C14.264,13.412 13.695,13.376 13.157,13.307 L13.157,11.636 C13.695,11.705 14.264,11.741 14.853,11.741 C17.787,11.741 20.236,10.831 20.811,9.621 C20.895,9.797 20.939,9.979 20.939,10.167 L20.939,10.745 C20.939,12.218 18.214,13.412 14.853,13.412 ZM14.853,10.435 C14.264,10.435 13.695,10.398 13.157,10.330 L13.157,4.627 C13.695,4.559 14.264,4.522 14.853,4.522 C18.214,4.522 20.939,5.716 20.939,7.189 L20.939,7.768 C20.939,9.240 18.214,10.435 14.853,10.435 ZM6.078,17.990 C2.717,17.990 -0.008,16.795 -0.008,15.322 L-0.008,14.743 C-0.008,14.556 0.036,14.374 0.120,14.197 C0.695,15.408 3.144,16.318 6.078,16.318 C9.012,16.318 11.461,15.408 12.036,14.197 C12.119,14.374 12.164,14.556 12.164,14.743 L12.164,15.322 C12.164,16.795 9.439,17.990 6.078,17.990 ZM6.078,15.011 C2.717,15.011 -0.008,13.817 -0.008,12.344 L-0.008,11.766 C-0.008,11.579 0.036,11.396 0.120,11.220 C0.695,12.431 3.144,13.341 6.078,13.341 C9.012,13.341 11.461,12.431 12.036,11.220 C12.119,11.396 12.164,11.579 12.164,11.766 L12.164,12.344 C12.164,13.817 9.439,15.011 6.078,15.011 ZM6.078,11.873 C2.717,11.873 -0.008,10.679 -0.008,9.206 L-0.008,8.627 C-0.008,8.440 0.036,8.258 0.120,8.081 C0.695,9.292 3.144,10.202 6.078,10.202 C9.012,10.202 11.461,9.292 12.036,8.081 C12.119,8.258 12.164,8.440 12.164,8.627 L12.164,9.206 C12.164,10.679 9.439,11.873 6.078,11.873 ZM6.078,8.895 C2.717,8.895 -0.008,7.701 -0.008,6.228 L-0.008,5.649 C-0.008,5.462 0.036,5.280 0.120,5.103 C0.695,6.314 3.144,7.224 6.078,7.224 C9.012,7.224 11.461,6.314 12.036,5.103 C12.119,5.280 12.164,5.462 12.164,5.649 L12.164,6.228 C12.164,7.701 9.439,8.895 6.078,8.895 ZM6.078,5.917 C2.717,5.917 -0.008,4.723 -0.008,3.250 L-0.008,2.672 C-0.008,1.199 2.717,0.004 6.078,0.004 C9.439,0.004 12.164,1.199 12.164,2.672 L12.164,3.250 C12.164,4.723 9.439,5.917 6.078,5.917 Z" class="cls-1"/>
</svg>
