<svg xmlns="http://www.w3.org/2000/svg" xmlns:xlink="http://www.w3.org/1999/xlink" preserveAspectRatio="xMidYMid" width="21.563" height="22" viewBox="0 0 21.563 22">
  <defs>
    <style>
      .cls-1 {
        fill: #0294c3;
        fill-rule: evenodd;
      }
    </style>
  </defs>
  <path d="M19.244,6.091 C18.837,6.091 18.437,5.984 18.087,5.781 C17.914,5.680 17.701,5.680 17.528,5.781 C17.177,5.984 16.777,6.091 16.370,6.091 C15.511,6.091 14.375,5.800 14.005,4.981 C13.897,4.742 13.637,4.610 13.379,4.665 C13.123,4.721 12.939,4.948 12.939,5.211 C12.939,6.490 11.900,7.530 10.624,7.530 C9.642,7.530 8.763,6.906 8.438,5.979 C8.381,5.816 8.252,5.688 8.088,5.634 C8.031,5.615 7.971,5.605 7.912,5.605 C7.803,5.605 7.694,5.637 7.601,5.699 C7.220,5.956 6.775,6.091 6.314,6.091 C5.037,6.091 3.998,5.051 3.998,3.773 C3.998,2.494 5.037,1.454 6.314,1.454 C6.775,1.454 7.220,1.589 7.601,1.846 C7.745,1.942 7.925,1.966 8.088,1.911 C8.252,1.857 8.381,1.729 8.438,1.566 C8.763,0.638 9.642,0.015 10.624,0.015 C11.287,0.015 11.920,0.302 12.360,0.801 C12.466,0.921 12.619,0.990 12.779,0.990 C12.939,0.990 13.091,0.921 13.197,0.801 C13.637,0.302 14.270,0.015 14.934,0.015 C15.856,0.015 16.797,0.617 17.171,1.446 C17.236,1.590 17.359,1.699 17.509,1.748 C17.659,1.796 17.823,1.778 17.959,1.699 C18.228,1.543 18.696,1.454 19.244,1.454 C20.520,1.454 21.559,2.494 21.559,3.773 C21.559,5.051 20.520,6.091 19.244,6.091 ZM6.314,7.208 C6.779,7.208 7.234,7.115 7.656,6.935 C8.261,7.980 9.387,8.647 10.624,8.647 C12.077,8.647 13.322,7.737 13.821,6.458 C14.549,6.997 15.527,7.208 16.370,7.208 C16.867,7.208 17.358,7.100 17.807,6.892 C18.256,7.100 18.747,7.208 19.244,7.208 C19.509,7.208 19.767,7.177 20.015,7.120 L20.015,18.328 C20.015,20.352 18.371,21.999 16.349,21.999 L8.939,21.999 C6.917,21.999 5.273,20.352 5.273,18.328 L5.273,18.049 L3.440,18.049 C1.551,18.049 0.014,16.402 0.014,14.378 L0.014,10.722 C0.014,8.698 1.551,7.051 3.440,7.051 L5.273,7.051 C5.601,7.156 5.951,7.208 6.314,7.208 ZM16.004,18.567 C16.004,18.876 16.254,19.126 16.562,19.126 C16.870,19.126 17.120,18.876 17.120,18.567 L17.120,10.588 C17.120,10.279 16.870,10.029 16.562,10.029 C16.254,10.029 16.004,10.279 16.004,10.588 L16.004,18.567 ZM12.086,18.567 C12.086,18.876 12.336,19.126 12.644,19.126 C12.952,19.126 13.202,18.876 13.202,18.567 L13.202,10.588 C13.202,10.279 12.952,10.029 12.644,10.029 C12.336,10.029 12.086,10.279 12.086,10.588 L12.086,18.567 ZM8.168,18.567 C8.168,18.876 8.418,19.126 8.726,19.126 C9.034,19.126 9.284,18.876 9.284,18.567 L9.284,10.588 C9.284,10.279 9.034,10.029 8.726,10.029 C8.418,10.029 8.168,10.279 8.168,10.588 L8.168,18.567 ZM1.607,10.722 L1.607,14.378 C1.607,15.522 2.430,16.453 3.440,16.453 L5.273,16.453 L5.273,8.647 L3.440,8.647 C2.430,8.647 1.607,9.578 1.607,10.722 Z" class="cls-1"/>
</svg>
