<svg xmlns="http://www.w3.org/2000/svg" xmlns:xlink="http://www.w3.org/1999/xlink" preserveAspectRatio="xMidYMid" width="28" height="28" viewBox="0 0 28 28">
  <defs>
    <style>
      .cls-1 {
        fill: #fff;
        filter: url(#drop-shadow-1);
      }

      .cls-2 {
        fill: #b3d540;
        fill-rule: evenodd;
      }
    </style>

    <filter id="drop-shadow-1" filterUnits="userSpaceOnUse">
      <feOffset in="SourceAlpha"/>
      <feGaussianBlur stdDeviation="1" result="dropBlur"/>
      <feFlood flood-opacity="0.3"/>
      <feComposite operator="in" in2="dropBlur" result="dropShadowComp"/>
      <feComposite in="SourceGraphic" result="shadowed"/>
    </filter>
  </defs>
  <g>
    <rect x="2" y="2" width="24" height="24" class="cls-1"/>
    <path d="M18.642,14.448 C17.389,14.448 16.373,15.468 16.373,16.725 C16.373,17.708 16.994,18.545 17.863,18.864 C17.689,19.945 16.752,20.772 15.624,20.772 C14.373,20.772 13.356,19.753 13.356,18.501 L13.356,15.859 L17.754,11.571 L17.779,11.547 C18.386,10.897 18.718,9.969 18.691,9.000 C18.663,8.028 18.276,7.122 17.629,6.512 L17.411,6.306 L14.862,6.303 L14.860,7.821 L16.777,7.823 C17.022,8.148 17.166,8.579 17.179,9.043 C17.195,9.609 17.016,10.137 16.687,10.496 L12.593,14.487 L8.499,10.496 C8.170,10.137 7.990,9.609 8.007,9.043 C8.020,8.579 8.164,8.149 8.408,7.823 L10.324,7.823 L10.324,6.306 L7.775,6.306 L7.557,6.512 C6.910,7.122 6.523,8.028 6.495,9.000 C6.467,9.969 6.800,10.897 7.407,11.546 L11.844,15.872 L11.844,18.501 C11.844,20.590 13.540,22.290 15.624,22.290 C17.583,22.290 19.198,20.789 19.386,18.875 C20.273,18.566 20.910,17.721 20.910,16.725 C20.910,15.468 19.895,14.448 18.642,14.448 ZM18.642,17.484 C18.225,17.484 17.886,17.144 17.886,16.725 C17.886,16.307 18.225,15.966 18.642,15.966 C19.059,15.966 19.398,16.307 19.398,16.725 C19.398,17.144 19.059,17.484 18.642,17.484 Z" class="cls-2"/>
  </g>
</svg>
