<svg xmlns="http://www.w3.org/2000/svg" xmlns:xlink="http://www.w3.org/1999/xlink" preserveAspectRatio="xMidYMid" width="19.938" height="22.03" viewBox="0 0 19.938 22.03">
  <defs>
    <style>
      .cls-1 {
        fill: #b3d540;
        fill-rule: evenodd;
      }
    </style>
  </defs>
  <path d="M16.810,11.220 C15.076,11.220 13.670,12.624 13.670,14.355 C13.670,15.708 14.529,16.861 15.733,17.300 C15.492,18.788 14.194,19.928 12.633,19.928 C10.902,19.928 9.493,18.525 9.493,16.800 L9.493,13.162 L15.582,7.258 L15.615,7.224 C16.456,6.330 16.916,5.052 16.878,3.718 C16.839,2.380 16.304,1.131 15.408,0.291 L15.107,0.009 L11.578,0.004 L11.575,2.094 L14.229,2.097 C14.568,2.545 14.767,3.138 14.785,3.777 C14.808,4.556 14.560,5.284 14.104,5.778 L8.437,11.273 L2.769,5.778 C2.314,5.284 2.066,4.556 2.088,3.777 C2.107,3.138 2.305,2.546 2.644,2.098 L5.297,2.098 L5.297,0.008 L1.767,0.008 L1.465,0.291 C0.570,1.131 0.034,2.380 -0.004,3.718 C-0.043,5.052 0.418,6.330 1.258,7.224 L7.400,13.180 L7.400,16.800 C7.400,19.677 9.747,22.017 12.633,22.017 C15.344,22.017 17.580,19.952 17.841,17.316 C19.069,16.890 19.950,15.726 19.950,14.355 C19.950,12.624 18.544,11.220 16.810,11.220 ZM16.810,15.400 C16.233,15.400 15.763,14.931 15.763,14.355 C15.763,13.779 16.233,13.310 16.810,13.310 C17.387,13.310 17.857,13.779 17.857,14.355 C17.857,14.931 17.387,15.400 16.810,15.400 Z" class="cls-1"/>
</svg>
