<svg xmlns="http://www.w3.org/2000/svg" xmlns:xlink="http://www.w3.org/1999/xlink" preserveAspectRatio="xMidYMid" width="21.938" height="22.63" viewBox="0 0 21.938 22.63">
  <defs>
    <style>
      .cls-1 {
        fill: #ff78ce;
        fill-rule: evenodd;
      }
    </style>
  </defs>
  <path d="M20.600,3.874 C20.693,3.780 20.856,3.633 21.090,3.430 C21.323,3.229 21.486,3.080 21.579,2.988 L21.952,2.708 L21.020,1.635 L20.693,1.915 C20.134,2.412 19.738,2.785 19.505,3.034 C19.272,3.283 19.031,3.609 18.782,4.013 C18.533,4.418 18.347,4.853 18.223,5.320 C17.912,6.439 17.787,7.885 17.850,9.657 C17.881,11.181 18.052,12.332 18.362,13.109 L18.502,13.482 C19.155,15.099 19.481,16.529 19.481,17.774 C19.481,20.043 18.564,21.178 16.731,21.178 C15.084,21.178 14.198,20.090 14.073,17.913 C14.042,17.292 14.213,16.157 14.586,14.508 C14.928,13.078 15.130,11.974 15.192,11.196 C15.348,9.891 15.177,8.974 14.679,8.445 C14.213,7.916 13.390,7.652 12.208,7.652 L11.929,7.652 L11.929,1.029 C11.929,0.749 11.836,0.508 11.649,0.305 C11.463,0.103 11.229,0.003 10.950,0.003 L1.113,0.003 C0.833,0.003 0.577,0.103 0.344,0.305 C0.110,0.508 -0.006,0.749 -0.006,1.029 L-0.006,22.018 L11.929,22.018 L11.929,9.098 L12.208,9.098 C12.954,9.098 13.420,9.191 13.607,9.378 C13.825,9.626 13.887,10.171 13.794,11.010 C13.700,11.756 13.498,12.814 13.187,14.182 C12.783,15.954 12.612,17.229 12.675,18.007 C12.737,19.468 13.125,20.603 13.840,21.411 C14.555,22.220 15.519,22.624 16.731,22.624 C18.036,22.624 19.054,22.197 19.784,21.342 C20.515,20.486 20.880,19.297 20.880,17.774 C20.880,16.343 20.523,14.726 19.808,12.922 L19.668,12.550 C19.450,11.990 19.326,11.104 19.295,9.891 C19.916,9.860 20.336,9.844 20.554,9.844 C21.082,9.844 21.408,9.549 21.532,8.958 C21.564,8.771 21.571,8.639 21.556,8.562 C21.540,8.484 21.525,8.313 21.509,8.048 C21.494,7.784 21.486,7.559 21.486,7.372 L21.486,7.139 C21.486,6.144 21.416,5.421 21.276,4.970 C21.136,4.519 20.911,4.153 20.600,3.874 L20.600,3.874 ZM10.530,8.165 L1.439,8.165 L1.439,1.915 L10.530,1.915 L10.530,8.165 ZM20.087,7.372 C20.087,7.496 20.103,7.683 20.134,7.932 C20.165,8.180 20.181,8.351 20.181,8.445 L19.202,8.445 C19.233,7.450 19.357,6.532 19.574,5.693 C19.574,5.631 19.590,5.521 19.621,5.366 C19.652,5.211 19.683,5.102 19.714,5.040 C19.963,5.258 20.087,5.957 20.087,7.139 L20.087,7.372 L20.087,7.372 Z" class="cls-1"/>
</svg>
