<svg xmlns="http://www.w3.org/2000/svg" xmlns:xlink="http://www.w3.org/1999/xlink" preserveAspectRatio="xMidYMid" width="28" height="28" viewBox="0 0 28 28">
  <defs>
    <style>
      .cls-1 {
        fill: #fff;
        filter: url(#drop-shadow-1);
      }

      .cls-2 {
        fill: #ff78ce;
        fill-rule: evenodd;
      }
    </style>

    <filter id="drop-shadow-1" filterUnits="userSpaceOnUse">
      <feOffset in="SourceAlpha"/>
      <feGaussianBlur stdDeviation="1" result="dropBlur"/>
      <feFlood flood-opacity="0.3"/>
      <feComposite operator="in" in2="dropBlur" result="dropShadowComp"/>
      <feComposite in="SourceGraphic" result="shadowed"/>
    </filter>
  </defs>
  <g>
    <rect x="2" y="2" width="24" height="24" class="cls-1"/>
    <path d="M20.901,9.039 C20.967,8.972 21.082,8.868 21.247,8.725 C21.412,8.582 21.527,8.478 21.593,8.412 L21.856,8.214 L21.198,7.455 L20.967,7.653 C20.572,8.005 20.292,8.269 20.128,8.445 C19.963,8.621 19.793,8.852 19.617,9.137 C19.442,9.423 19.310,9.731 19.222,10.061 C19.003,10.853 18.915,11.875 18.959,13.129 C18.981,14.206 19.102,15.020 19.321,15.569 L19.420,15.833 C19.881,16.977 20.111,17.988 20.111,18.868 C20.111,20.474 19.464,21.276 18.169,21.276 C17.006,21.276 16.380,20.506 16.292,18.967 C16.270,18.527 16.391,17.725 16.654,16.559 C16.896,15.548 17.038,14.767 17.082,14.217 C17.192,13.294 17.071,12.645 16.720,12.271 C16.391,11.897 15.809,11.710 14.975,11.710 L14.778,11.710 L14.778,7.027 C14.778,6.828 14.712,6.658 14.580,6.515 C14.448,6.372 14.284,6.301 14.086,6.301 L7.139,6.301 C6.941,6.301 6.760,6.372 6.596,6.515 C6.431,6.658 6.349,6.828 6.349,7.027 L6.349,21.870 L14.778,21.870 L14.778,12.733 L14.975,12.733 C15.502,12.733 15.831,12.799 15.963,12.931 C16.117,13.107 16.160,13.492 16.095,14.086 C16.029,14.613 15.886,15.361 15.666,16.328 C15.381,17.582 15.260,18.483 15.304,19.033 C15.348,20.067 15.623,20.869 16.127,21.441 C16.632,22.013 17.313,22.298 18.169,22.298 C19.091,22.298 19.809,21.996 20.325,21.391 C20.841,20.787 21.099,19.946 21.099,18.868 C21.099,17.857 20.847,16.713 20.342,15.437 L20.243,15.174 C20.089,14.778 20.001,14.151 19.980,13.294 C20.419,13.272 20.715,13.261 20.869,13.261 C21.242,13.261 21.472,13.052 21.560,12.634 C21.582,12.502 21.587,12.409 21.577,12.354 C21.565,12.299 21.554,12.178 21.544,11.991 C21.533,11.804 21.527,11.644 21.527,11.512 L21.527,11.347 C21.527,10.644 21.478,10.132 21.379,9.814 C21.280,9.495 21.121,9.236 20.901,9.039 L20.901,9.039 ZM13.790,12.073 L7.369,12.073 L7.369,7.653 L13.790,7.653 L13.790,12.073 ZM20.539,11.512 C20.539,11.600 20.550,11.732 20.572,11.908 C20.594,12.084 20.605,12.205 20.605,12.271 L19.914,12.271 C19.936,11.568 20.023,10.919 20.177,10.325 C20.177,10.281 20.188,10.204 20.210,10.094 C20.232,9.984 20.254,9.907 20.276,9.863 C20.451,10.017 20.539,10.512 20.539,11.347 L20.539,11.512 L20.539,11.512 Z" class="cls-2"/>
  </g>
</svg>
