<svg xmlns="http://www.w3.org/2000/svg" xmlns:xlink="http://www.w3.org/1999/xlink" preserveAspectRatio="xMidYMid" width="28" height="28" viewBox="0 0 28 28">
  <defs>
    <style>
      .cls-1 {
        fill: #fff;
        filter: url(#drop-shadow-1);
      }

      .cls-2 {
        fill: #1aa56f;
        fill-rule: evenodd;
      }
    </style>

    <filter id="drop-shadow-1" filterUnits="userSpaceOnUse">
      <feOffset in="SourceAlpha"/>
      <feGaussianBlur stdDeviation="1" result="dropBlur"/>
      <feFlood flood-opacity="0.3"/>
      <feComposite operator="in" in2="dropBlur" result="dropShadowComp"/>
      <feComposite in="SourceGraphic" result="shadowed"/>
    </filter>
  </defs>
  <g>
    <rect x="2" y="2" width="24" height="24" class="cls-1"/>
    <path d="M21.635,13.762 C21.634,13.766 21.632,13.769 21.630,13.773 L17.897,13.773 L16.598,10.165 C16.469,9.803 15.969,9.779 15.805,10.127 L13.521,14.973 L12.045,12.312 C11.882,12.016 11.457,12.017 11.294,12.313 L10.489,13.774 L6.981,13.774 C6.980,13.771 6.978,13.767 6.976,13.764 C6.270,12.149 5.967,10.374 6.851,8.765 C7.593,7.410 9.001,6.495 10.551,6.495 C12.170,6.495 13.578,7.401 14.307,8.737 C15.034,7.401 16.443,6.495 18.062,6.495 C19.611,6.495 21.020,7.410 21.763,8.763 C22.644,10.373 22.344,12.147 21.635,13.762 ZM11.374,14.857 L11.672,14.319 L13.208,17.089 C13.380,17.396 13.824,17.382 13.973,17.063 L16.087,12.577 L16.885,14.795 C16.947,14.966 17.108,15.081 17.290,15.081 L20.857,15.081 C19.080,17.534 15.630,20.062 14.602,20.789 C14.425,20.913 14.188,20.913 14.011,20.789 C12.983,20.064 9.534,17.536 7.757,15.081 L10.998,15.081 C11.154,15.081 11.299,14.994 11.374,14.857 Z" class="cls-2"/>
  </g>
</svg>
