<svg xmlns="http://www.w3.org/2000/svg" xmlns:xlink="http://www.w3.org/1999/xlink" preserveAspectRatio="xMidYMid" width="22.344" height="20" viewBox="0 0 22.344 20">
  <defs>
    <style>
      .cls-1 {
        fill: #1aa56f;
        fill-rule: evenodd;
      }
    </style>
  </defs>
  <path d="M21.423,10.086 C21.421,10.091 21.419,10.096 21.416,10.101 L16.200,10.101 L14.384,5.089 C14.204,4.586 13.505,4.553 13.277,5.037 L10.085,11.769 L8.022,8.071 C7.793,7.660 7.200,7.662 6.972,8.074 L5.848,10.103 L0.946,10.103 C0.944,10.098 0.941,10.094 0.939,10.089 C-0.048,7.845 -0.471,5.380 0.764,3.144 C1.801,1.262 3.768,-0.009 5.935,-0.009 C8.197,-0.009 10.164,1.250 11.182,3.106 C12.198,1.250 14.168,-0.009 16.430,-0.009 C18.594,-0.009 20.564,1.262 21.601,3.142 C22.833,5.378 22.413,7.843 21.423,10.086 ZM7.085,11.607 L7.501,10.859 L9.648,14.707 C9.888,15.134 10.507,15.115 10.716,14.671 L13.671,8.439 L14.785,11.521 C14.871,11.759 15.097,11.918 15.352,11.918 L20.335,11.918 C17.852,15.326 13.032,18.838 11.595,19.846 C11.348,20.020 11.017,20.020 10.769,19.846 C9.333,18.840 4.513,15.328 2.029,11.918 L6.559,11.918 C6.778,11.918 6.979,11.797 7.085,11.607 Z" class="cls-1"/>
</svg>
