<svg xmlns="http://www.w3.org/2000/svg" xmlns:xlink="http://www.w3.org/1999/xlink" preserveAspectRatio="xMidYMid" width="21" height="21" viewBox="0 0 21 21">
  <defs>
    <style>
      .cls-1 {
        fill: #ccac83;
        fill-rule: evenodd;
      }
    </style>
  </defs>
  <path d="M18.667,21.000 L2.333,21.000 C1.050,21.000 -0.000,19.950 -0.000,18.667 L-0.000,2.333 C-0.000,1.050 1.050,0.000 2.333,0.000 L18.667,0.000 C19.950,0.000 21.000,1.050 21.000,2.333 L21.000,18.667 C21.000,19.950 19.950,21.000 18.667,21.000 ZM14.117,5.717 C13.417,5.017 12.600,4.667 10.850,4.667 L5.833,4.667 L5.833,16.333 L7.933,16.333 L7.933,12.133 L7.933,12.017 L10.850,12.017 C12.600,12.017 13.417,11.667 14.117,11.083 C14.817,10.500 15.167,9.567 15.167,8.400 C15.167,7.350 14.933,6.417 14.117,5.717 ZM10.733,10.500 L7.933,10.500 L7.933,6.300 L10.617,6.300 C11.433,6.300 12.017,6.533 12.367,7.000 C12.717,7.467 12.950,7.817 12.950,8.400 C12.950,9.100 12.717,9.450 12.367,9.917 C12.017,10.267 11.550,10.500 10.733,10.500 Z" class="cls-1"/>
</svg>
