<svg xmlns="http://www.w3.org/2000/svg" xmlns:xlink="http://www.w3.org/1999/xlink" preserveAspectRatio="xMidYMid" width="28" height="28" viewBox="0 0 28 28">
  <defs>
    <style>
      .cls-1 {
        fill: #fff;
        filter: url(#drop-shadow-1);
      }

      .cls-2 {
        fill: #fcb926;
        fill-rule: evenodd;
      }
    </style>

    <filter id="drop-shadow-1" filterUnits="userSpaceOnUse">
      <feOffset in="SourceAlpha"/>
      <feGaussianBlur stdDeviation="1" result="dropBlur"/>
      <feFlood flood-opacity="0.3"/>
      <feComposite operator="in" in2="dropBlur" result="dropShadowComp"/>
      <feComposite in="SourceGraphic" result="shadowed"/>
    </filter>
  </defs>
  <g>
    <rect x="2" y="2" width="24" height="24" class="cls-1"/>
    <path d="M19.920,22.095 L7.475,22.095 C6.497,22.095 5.697,21.295 5.697,20.318 L5.697,7.883 C5.697,6.906 6.497,6.107 7.475,6.107 L19.920,6.107 C20.897,6.107 21.697,6.906 21.697,7.883 L21.697,20.318 C21.697,21.295 20.897,22.095 19.920,22.095 ZM16.453,10.459 C15.920,9.926 15.297,9.659 13.964,9.659 L10.142,9.659 L10.142,18.542 L11.742,18.542 L11.742,15.344 L11.742,15.255 L13.964,15.255 C15.297,15.255 15.920,14.989 16.453,14.545 C16.986,14.101 17.253,13.390 17.253,12.502 C17.253,11.703 17.075,10.992 16.453,10.459 ZM13.875,14.101 L11.742,14.101 L11.742,10.903 L13.786,10.903 C14.408,10.903 14.853,11.081 15.120,11.436 C15.386,11.791 15.564,12.058 15.564,12.502 C15.564,13.035 15.386,13.301 15.120,13.657 C14.853,13.923 14.497,14.101 13.875,14.101 Z" class="cls-2"/>
  </g>
</svg>
