<svg xmlns="http://www.w3.org/2000/svg" xmlns:xlink="http://www.w3.org/1999/xlink" preserveAspectRatio="xMidYMid" width="28" height="28" viewBox="0 0 28 28">
  <defs>
    <style>
      .cls-1 {
        fill: #fff;
        filter: url(#drop-shadow-1);
      }

      .cls-2 {
        fill: #f36426;
        fill-rule: evenodd;
      }
    </style>

    <filter id="drop-shadow-1" filterUnits="userSpaceOnUse">
      <feOffset in="SourceAlpha"/>
      <feGaussianBlur stdDeviation="1" result="dropBlur"/>
      <feFlood flood-opacity="0.3"/>
      <feComposite operator="in" in2="dropBlur" result="dropShadowComp"/>
      <feComposite in="SourceGraphic" result="shadowed"/>
    </filter>
  </defs>
  <g>
    <rect x="2" y="2" width="24" height="24" class="cls-1"/>
    <path d="M21.123,12.071 C20.491,14.210 18.510,15.728 16.277,15.728 L14.383,15.728 L14.383,13.879 L16.277,13.879 C17.878,13.879 19.288,12.627 19.485,11.035 C19.723,9.108 18.317,7.160 16.294,7.160 C15.663,7.160 15.058,7.359 14.564,7.674 L12.011,7.674 C12.209,7.363 12.423,7.075 12.702,6.828 C13.156,6.423 13.685,6.102 14.252,5.880 C15.337,5.455 16.559,5.399 17.680,5.712 C19.182,6.132 20.362,7.270 20.942,8.678 C21.118,9.105 21.237,9.555 21.294,10.014 C21.379,10.702 21.319,11.407 21.123,12.071 ZM17.563,8.266 C17.861,8.266 18.096,8.526 18.062,8.824 C17.812,11.099 16.054,12.920 13.813,13.258 L13.813,16.496 C13.243,16.300 12.722,16.157 12.304,16.056 L12.304,13.258 C10.062,12.920 8.305,11.099 8.055,8.824 C8.022,8.526 8.255,8.266 8.555,8.266 L11.813,8.266 L14.120,8.266 L17.563,8.266 ZM11.714,13.882 L11.714,15.740 C11.238,15.847 11.238,16.416 11.976,16.579 C12.142,16.614 12.309,16.656 12.474,16.698 C12.925,16.813 13.370,16.949 13.810,17.104 C15.219,17.600 16.577,18.297 17.715,19.276 C17.990,19.513 18.092,19.876 18.009,20.206 C17.998,20.243 17.987,20.282 17.972,20.319 C17.965,20.334 17.958,20.350 17.952,20.366 C17.930,20.413 17.905,20.458 17.874,20.502 C17.856,20.529 17.838,20.554 17.816,20.579 C17.633,20.793 17.375,20.902 17.115,20.902 C16.902,20.902 16.689,20.828 16.515,20.678 C15.223,19.567 13.556,18.874 11.917,18.462 C11.915,18.462 11.915,18.462 11.915,18.462 C11.553,18.371 11.190,18.294 10.868,18.094 C10.206,17.685 9.788,16.937 9.788,16.157 C9.788,14.933 10.506,13.931 11.714,13.882 ZM11.966,20.106 C12.019,20.065 12.075,20.024 12.133,19.989 C12.187,19.956 12.244,19.923 12.301,19.897 L12.301,19.081 C12.747,19.209 13.278,19.330 13.810,19.552 L13.810,19.897 C13.867,19.925 13.924,19.956 13.977,19.989 C14.036,20.026 14.091,20.065 14.145,20.106 C14.480,20.372 14.716,20.757 14.790,21.198 C14.815,21.353 14.698,21.492 14.542,21.492 L11.568,21.492 C11.413,21.492 11.295,21.351 11.320,21.198 C11.394,20.757 11.631,20.372 11.966,20.106 Z" class="cls-2"/>
  </g>
</svg>
