<svg xmlns="http://www.w3.org/2000/svg" xmlns:xlink="http://www.w3.org/1999/xlink" preserveAspectRatio="xMidYMid" width="18.156" height="21.85" viewBox="0 0 18.156 21.85">
  <defs>
    <style>
      .cls-1 {
        fill: #f36426;
        fill-rule: evenodd;
      }
    </style>
  </defs>
  <path d="M17.860,8.975 C16.996,11.895 14.287,13.968 11.235,13.968 L8.645,13.968 L8.645,11.443 L11.235,11.443 C13.423,11.443 15.350,9.734 15.621,7.561 C15.946,4.930 14.024,2.269 11.258,2.269 C10.396,2.269 9.569,2.542 8.893,2.972 L5.403,2.972 C5.673,2.547 5.966,2.154 6.347,1.817 C6.968,1.264 7.692,0.826 8.467,0.522 C9.949,-0.058 11.620,-0.134 13.153,0.293 C15.206,0.867 16.819,2.421 17.612,4.342 C17.853,4.925 18.015,5.541 18.093,6.167 C18.210,7.106 18.128,8.068 17.860,8.975 ZM12.992,3.780 C13.400,3.780 13.721,4.136 13.675,4.542 C13.334,7.648 10.930,10.134 7.866,10.596 L7.866,15.017 C7.087,14.748 6.374,14.553 5.804,14.415 L5.804,10.596 C2.738,10.134 0.336,7.648 -0.005,4.542 C-0.051,4.136 0.267,3.780 0.678,3.780 L5.132,3.780 L8.285,3.780 L12.992,3.780 ZM4.997,11.447 L4.997,13.984 C4.346,14.130 4.346,14.907 5.355,15.129 C5.581,15.177 5.811,15.235 6.035,15.292 C6.652,15.448 7.261,15.634 7.862,15.846 C9.789,16.523 11.645,17.475 13.201,18.811 C13.577,19.135 13.716,19.631 13.602,20.081 C13.588,20.131 13.572,20.184 13.551,20.234 C13.542,20.255 13.533,20.278 13.524,20.299 C13.494,20.363 13.460,20.425 13.419,20.485 C13.393,20.521 13.368,20.556 13.338,20.590 C13.089,20.882 12.736,21.031 12.381,21.031 C12.089,21.031 11.798,20.930 11.560,20.726 C9.793,19.209 7.516,18.262 5.274,17.700 C5.272,17.700 5.272,17.700 5.272,17.700 C4.777,17.576 4.280,17.470 3.840,17.197 C2.935,16.640 2.364,15.618 2.364,14.553 C2.364,12.882 3.345,11.514 4.997,11.447 ZM5.341,19.945 C5.414,19.888 5.490,19.833 5.570,19.785 C5.643,19.739 5.721,19.695 5.799,19.658 L5.799,18.545 C6.409,18.719 7.135,18.885 7.862,19.187 L7.862,19.658 C7.940,19.697 8.017,19.739 8.091,19.785 C8.171,19.835 8.247,19.888 8.320,19.945 C8.778,20.308 9.101,20.834 9.202,21.435 C9.236,21.646 9.076,21.837 8.863,21.837 L4.798,21.837 C4.585,21.837 4.424,21.644 4.459,21.435 C4.560,20.834 4.883,20.308 5.341,19.945 Z" class="cls-1"/>
</svg>
