<svg xmlns="http://www.w3.org/2000/svg" xmlns:xlink="http://www.w3.org/1999/xlink" preserveAspectRatio="xMidYMid" width="21.938" height="17.97" viewBox="0 0 21.938 17.97">
  <defs>
    <style>
      .cls-1 {
        fill: #a72223;
        fill-rule: evenodd;
      }
    </style>
  </defs>
  <path d="M21.736,8.223 C22.063,7.853 22.009,7.321 21.606,7.041 L11.712,0.175 C11.309,-0.105 10.652,-0.105 10.249,0.174 L0.352,7.036 C-0.051,7.315 -0.127,7.847 0.200,8.218 L2.233,10.538 L2.233,13.572 C1.881,13.649 1.529,14.023 1.529,14.472 L1.529,15.660 C1.529,16.163 1.923,16.636 2.402,16.710 L10.102,17.903 C10.581,17.978 11.366,17.978 11.845,17.903 L19.531,16.710 C20.011,16.636 20.379,16.163 20.379,15.660 L20.379,14.472 C20.379,14.024 20.115,13.649 19.674,13.572 L19.674,10.540 L21.736,8.223 ZM3.643,13.535 L3.643,12.071 L18.177,12.071 L18.177,13.535 L3.643,13.535 ZM8.047,5.236 C8.047,5.236 8.524,5.229 8.641,5.229 C9.665,5.229 10.888,3.839 10.976,3.693 C11.064,3.839 12.268,5.229 13.292,5.229 C13.409,5.229 13.860,5.236 13.860,5.236 L13.860,7.556 C13.860,7.747 13.814,7.935 13.746,8.116 C13.655,8.362 13.506,8.597 13.329,8.819 C13.112,9.090 12.840,9.335 12.571,9.561 C11.952,10.081 10.981,10.539 10.981,10.539 C10.981,10.539 10.009,10.081 9.391,9.561 C9.121,9.335 8.844,9.090 8.628,8.819 C8.451,8.597 8.281,8.362 8.189,8.116 C8.121,7.935 8.047,7.747 8.047,7.556 L8.047,5.236 L8.047,5.236 Z" class="cls-1"/>
</svg>
