<svg xmlns="http://www.w3.org/2000/svg" xmlns:xlink="http://www.w3.org/1999/xlink" preserveAspectRatio="xMidYMid" width="28" height="28" viewBox="0 0 28 28">
  <defs>
    <style>
      .cls-1 {
        fill: #fff;
        filter: url(#drop-shadow-1);
      }

      .cls-2 {
        fill: #a72223;
        fill-rule: evenodd;
      }
    </style>

    <filter id="drop-shadow-1" filterUnits="userSpaceOnUse">
      <feOffset in="SourceAlpha"/>
      <feGaussianBlur stdDeviation="1" result="dropBlur"/>
      <feFlood flood-opacity="0.3"/>
      <feComposite operator="in" in2="dropBlur" result="dropShadowComp"/>
      <feComposite in="SourceGraphic" result="shadowed"/>
    </filter>
  </defs>
  <g>
    <rect x="2" y="2" width="24" height="24" class="cls-1"/>
    <path d="M21.553,13.143 C21.792,12.873 21.752,12.484 21.458,12.280 L14.241,7.265 C13.948,7.061 13.468,7.061 13.174,7.264 L5.955,12.276 C5.662,12.480 5.606,12.868 5.845,13.139 L7.328,14.834 L7.328,17.050 C7.071,17.106 6.814,17.380 6.814,17.707 L6.814,18.575 C6.814,18.942 7.101,19.288 7.451,19.342 L13.067,20.213 C13.417,20.268 13.989,20.268 14.339,20.213 L19.945,19.342 C20.295,19.288 20.563,18.942 20.563,18.575 L20.563,17.707 C20.563,17.380 20.370,17.106 20.049,17.050 L20.049,14.835 L21.553,13.143 ZM8.356,17.023 L8.356,15.954 L18.957,15.954 L18.957,17.023 L8.356,17.023 ZM11.568,10.961 C11.568,10.961 11.916,10.956 12.002,10.956 C12.748,10.956 13.640,9.941 13.705,9.834 C13.769,9.941 14.647,10.956 15.394,10.956 C15.480,10.956 15.809,10.961 15.809,10.961 L15.809,12.656 C15.809,12.795 15.775,12.932 15.726,13.065 C15.659,13.244 15.550,13.416 15.421,13.578 C15.263,13.776 15.065,13.955 14.868,14.120 C14.417,14.500 13.709,14.834 13.709,14.834 C13.709,14.834 13.000,14.500 12.548,14.120 C12.352,13.955 12.150,13.776 11.992,13.578 C11.863,13.416 11.739,13.244 11.672,13.065 C11.623,12.932 11.568,12.795 11.568,12.656 L11.568,10.961 L11.568,10.961 Z" class="cls-2"/>
  </g>
</svg>
