<svg xmlns="http://www.w3.org/2000/svg" xmlns:xlink="http://www.w3.org/1999/xlink" preserveAspectRatio="xMidYMid" width="21.969" height="22.65" viewBox="0 0 21.969 22.65">
  <defs>
    <style>
      .cls-1 {
        fill: #e5232b;
        fill-rule: evenodd;
      }
    </style>
  </defs>
  <path d="M20.969,22.669 L1.003,22.669 C0.451,22.669 0.004,22.221 0.004,21.669 L0.004,9.600 L0.539,9.886 C0.539,9.886 0.539,9.886 0.539,9.886 L1.003,10.133 L2.001,10.667 L3.187,11.301 L3.191,11.303 L10.516,15.216 C10.519,15.219 10.522,15.220 10.525,15.221 C10.535,15.227 10.546,15.232 10.556,15.237 C10.566,15.241 10.576,15.246 10.586,15.250 C10.594,15.254 10.603,15.258 10.612,15.261 C10.615,15.262 10.618,15.263 10.621,15.265 C10.624,15.266 10.627,15.267 10.630,15.268 C10.637,15.271 10.643,15.273 10.649,15.275 C10.656,15.278 10.663,15.280 10.669,15.283 C10.684,15.288 10.699,15.292 10.714,15.296 C10.719,15.298 10.725,15.299 10.730,15.300 C10.733,15.301 10.736,15.302 10.739,15.303 C10.744,15.304 10.750,15.305 10.755,15.306 C10.763,15.309 10.772,15.311 10.780,15.313 C10.784,15.314 10.788,15.315 10.792,15.315 C10.810,15.319 10.829,15.322 10.847,15.324 C10.850,15.325 10.853,15.325 10.856,15.326 C10.876,15.329 10.896,15.331 10.916,15.332 C10.917,15.332 10.919,15.332 10.921,15.332 C10.942,15.334 10.964,15.335 10.985,15.335 C10.985,15.335 10.985,15.334 10.986,15.334 C10.986,15.334 10.986,15.335 10.987,15.335 C11.008,15.335 11.029,15.334 11.051,15.332 C11.053,15.332 11.054,15.332 11.056,15.332 C11.076,15.331 11.096,15.329 11.116,15.326 C11.119,15.325 11.122,15.325 11.125,15.324 C11.143,15.322 11.161,15.319 11.180,15.315 C11.184,15.315 11.187,15.314 11.191,15.313 C11.201,15.311 11.210,15.308 11.220,15.306 C11.224,15.305 11.229,15.304 11.233,15.303 C11.236,15.302 11.239,15.301 11.242,15.300 C11.247,15.299 11.252,15.298 11.257,15.296 C11.272,15.292 11.287,15.288 11.302,15.282 C11.309,15.280 11.315,15.278 11.322,15.275 C11.326,15.274 11.330,15.272 11.335,15.271 C11.340,15.269 11.345,15.267 11.351,15.264 C11.354,15.263 11.357,15.262 11.360,15.261 C11.368,15.258 11.377,15.254 11.386,15.250 C11.396,15.246 11.406,15.241 11.415,15.236 C11.426,15.232 11.436,15.227 11.447,15.221 C11.450,15.220 11.453,15.218 11.456,15.216 L18.780,11.303 C18.781,11.302 18.783,11.301 18.785,11.300 L19.971,10.667 L20.969,10.133 L21.968,9.600 L21.968,21.669 C21.968,22.221 21.521,22.669 20.969,22.669 ZM20.493,8.121 C20.495,8.120 20.496,8.119 20.497,8.118 L20.493,8.121 C20.493,8.121 20.493,8.121 20.493,8.121 ZM18.307,9.289 L17.309,9.822 L16.186,10.422 L10.986,13.201 L8.263,11.746 L5.786,10.422 L4.663,9.822 L3.665,9.289 L3.124,9.000 L2.666,8.755 L2.666,0.998 C2.666,0.446 3.114,-0.002 3.665,-0.002 L18.307,-0.002 C18.858,-0.002 19.305,0.446 19.305,0.998 L19.305,8.755 L18.848,9.000 L18.307,9.289 Z" class="cls-1"/>
</svg>
