<svg xmlns="http://www.w3.org/2000/svg" xmlns:xlink="http://www.w3.org/1999/xlink" preserveAspectRatio="xMidYMid" width="28" height="28" viewBox="0 0 28 28">
  <defs>
    <style>
      .cls-1 {
        fill: #fff;
        filter: url(#drop-shadow-1);
      }

      .cls-2 {
        fill: #e5232b;
        fill-rule: evenodd;
      }
    </style>

    <filter id="drop-shadow-1" filterUnits="userSpaceOnUse">
      <feOffset in="SourceAlpha"/>
      <feGaussianBlur stdDeviation="1" result="dropBlur"/>
      <feFlood flood-opacity="0.3"/>
      <feComposite operator="in" in2="dropBlur" result="dropShadowComp"/>
      <feComposite in="SourceGraphic" result="shadowed"/>
    </filter>
  </defs>
  <g>
    <rect x="2" y="2" width="24" height="24" class="cls-1"/>
    <path d="M20.242,22.111 L7.160,22.111 C6.798,22.111 6.506,21.795 6.506,21.404 L6.506,12.881 L6.856,13.083 C6.856,13.083 6.856,13.083 6.856,13.083 L7.160,13.258 L7.814,13.635 L8.591,14.082 L8.594,14.084 L13.393,16.848 C13.395,16.849 13.397,16.850 13.399,16.851 C13.406,16.855 13.412,16.859 13.419,16.862 C13.426,16.865 13.432,16.869 13.439,16.872 C13.444,16.874 13.450,16.877 13.456,16.879 C13.458,16.880 13.460,16.881 13.462,16.882 C13.464,16.883 13.466,16.883 13.468,16.885 C13.472,16.886 13.476,16.888 13.480,16.889 C13.485,16.891 13.489,16.893 13.493,16.894 C13.503,16.898 13.513,16.901 13.523,16.904 C13.526,16.905 13.530,16.906 13.533,16.907 C13.535,16.908 13.537,16.908 13.539,16.909 C13.542,16.910 13.546,16.910 13.549,16.911 C13.555,16.913 13.560,16.914 13.566,16.916 C13.569,16.916 13.571,16.917 13.574,16.918 C13.586,16.920 13.598,16.922 13.610,16.924 C13.612,16.924 13.613,16.925 13.615,16.925 C13.628,16.927 13.642,16.928 13.655,16.929 C13.656,16.930 13.657,16.930 13.658,16.930 C13.672,16.931 13.686,16.931 13.700,16.931 C13.700,16.931 13.700,16.931 13.701,16.931 C13.701,16.931 13.701,16.931 13.701,16.931 C13.715,16.931 13.729,16.931 13.743,16.930 C13.744,16.930 13.746,16.930 13.747,16.929 C13.760,16.928 13.773,16.927 13.786,16.925 C13.788,16.925 13.790,16.924 13.792,16.924 C13.804,16.922 13.816,16.920 13.828,16.918 C13.830,16.917 13.833,16.916 13.835,16.916 C13.842,16.914 13.848,16.912 13.854,16.911 C13.857,16.910 13.860,16.909 13.863,16.909 C13.865,16.908 13.867,16.908 13.869,16.907 C13.872,16.906 13.875,16.905 13.878,16.904 C13.888,16.901 13.898,16.898 13.908,16.894 C13.912,16.893 13.917,16.891 13.921,16.889 C13.924,16.889 13.926,16.887 13.929,16.886 C13.933,16.885 13.936,16.883 13.940,16.882 C13.942,16.881 13.944,16.880 13.946,16.879 C13.951,16.877 13.957,16.874 13.963,16.871 C13.969,16.869 13.976,16.865 13.982,16.862 C13.989,16.858 13.996,16.855 14.003,16.851 C14.005,16.850 14.007,16.849 14.009,16.848 L18.807,14.084 C18.808,14.084 18.810,14.083 18.811,14.082 L19.588,13.635 L20.242,13.258 L20.896,12.881 L20.896,21.404 C20.896,21.795 20.603,22.111 20.242,22.111 ZM19.930,11.837 C19.931,11.836 19.932,11.836 19.932,11.835 L19.930,11.837 L19.930,11.837 ZM18.498,12.661 L17.843,13.038 L17.108,13.462 L13.701,15.424 L11.917,14.397 L10.294,13.462 L9.558,13.038 L8.904,12.661 L8.550,12.457 L8.250,12.285 L8.250,6.807 C8.250,6.417 8.543,6.100 8.904,6.100 L18.498,6.100 C18.859,6.100 19.152,6.417 19.152,6.807 L19.152,12.285 L18.852,12.457 L18.498,12.661 Z" class="cls-2"/>
  </g>
</svg>
