<svg xmlns="http://www.w3.org/2000/svg" xmlns:xlink="http://www.w3.org/1999/xlink" preserveAspectRatio="xMidYMid" width="28" height="28" viewBox="0 0 28 28">
  <defs>
    <style>
      .cls-1 {
        fill: #fff;
        filter: url(#drop-shadow-1);
      }

      .cls-2 {
        fill: #f25b8e;
        fill-rule: evenodd;
      }
    </style>

    <filter id="drop-shadow-1" filterUnits="userSpaceOnUse">
      <feOffset in="SourceAlpha"/>
      <feGaussianBlur stdDeviation="1" result="dropBlur"/>
      <feFlood flood-opacity="0.3"/>
      <feComposite operator="in" in2="dropBlur" result="dropShadowComp"/>
      <feComposite in="SourceGraphic" result="shadowed"/>
    </filter>
  </defs>
  <g>
    <rect x="2" y="2" width="24" height="24" class="cls-1"/>
    <path d="M17.556,6.094 L8.422,6.094 C8.131,6.094 7.895,6.333 7.895,6.628 L7.895,20.143 C7.895,20.438 8.131,20.677 8.422,20.677 L9.300,20.677 L9.300,21.566 C9.300,21.861 9.536,22.099 9.827,22.099 C10.118,22.099 10.354,21.861 10.354,21.566 L10.354,20.677 L17.556,20.677 C18.621,20.677 19.488,19.799 19.488,18.720 L19.488,8.051 C19.488,6.972 18.621,6.094 17.556,6.094 ZM15.975,15.099 L15.975,16.373 C15.975,16.667 15.739,16.907 15.448,16.907 L11.935,16.907 C11.644,16.907 11.408,16.667 11.408,16.373 L11.408,15.099 C9.320,14.499 9.660,11.377 11.831,11.262 C12.355,9.370 15.028,9.368 15.552,11.262 C17.722,11.377 18.063,14.499 15.975,15.099 Z" class="cls-2"/>
  </g>
</svg>
