<svg xmlns="http://www.w3.org/2000/svg" xmlns:xlink="http://www.w3.org/1999/xlink" preserveAspectRatio="xMidYMid" width="28.938" height="22" viewBox="0 0 28.938 22">
  <defs>
    <style>
      .cls-1 {
        fill: #477764;
        fill-rule: evenodd;
      }
    </style>
  </defs>
  <path d="M28.555,21.784 C28.307,21.981 27.987,22.053 27.677,21.982 C25.196,21.420 20.842,20.766 16.712,21.772 C19.100,19.523 22.472,19.126 24.516,19.121 C25.973,19.117 27.158,17.938 27.158,16.491 L27.158,3.572 L27.909,3.572 C28.480,3.572 28.944,4.034 28.944,4.603 L28.944,20.978 C28.944,21.294 28.802,21.587 28.555,21.784 ZM24.513,17.521 C22.102,17.527 18.063,18.027 15.276,20.928 L15.276,4.757 C15.276,4.565 15.325,4.385 15.418,4.235 C17.706,0.571 22.100,0.015 24.517,0.009 C24.517,0.009 24.518,0.009 24.519,0.009 C24.793,0.009 25.050,0.115 25.245,0.308 C25.441,0.503 25.550,0.763 25.550,1.039 L25.550,16.491 C25.550,17.057 25.084,17.519 24.513,17.521 ZM4.432,17.521 C3.860,17.519 3.395,17.058 3.395,16.491 L3.395,1.039 C3.395,0.763 3.503,0.503 3.699,0.308 C3.894,0.115 4.151,0.009 4.425,0.009 C4.426,0.009 4.427,0.009 4.427,0.009 C6.844,0.015 11.239,0.571 13.526,4.235 C13.619,4.385 13.668,4.565 13.668,4.757 L13.668,20.928 C10.882,18.027 6.842,17.527 4.432,17.521 ZM12.232,21.772 C8.102,20.766 3.749,21.420 1.267,21.982 C0.957,22.053 0.637,21.980 0.389,21.783 C0.142,21.587 -0.000,21.293 -0.000,20.978 L-0.000,4.603 C-0.000,4.034 0.465,3.572 1.035,3.572 L1.786,3.572 L1.786,16.491 C1.786,17.938 2.971,19.117 4.428,19.121 C6.472,19.126 9.844,19.523 12.232,21.772 Z" class="cls-1"/>
</svg>
