<svg xmlns="http://www.w3.org/2000/svg" xmlns:xlink="http://www.w3.org/1999/xlink" preserveAspectRatio="xMidYMid" width="28" height="28" viewBox="0 0 28 28">
  <defs>
    <style>
      .cls-1 {
        fill: #fff;
        filter: url(#drop-shadow-1);
      }

      .cls-2 {
        fill: #477764;
        fill-rule: evenodd;
      }
    </style>

    <filter id="drop-shadow-1" filterUnits="userSpaceOnUse">
      <feOffset in="SourceAlpha"/>
      <feGaussianBlur stdDeviation="1" result="dropBlur"/>
      <feFlood flood-opacity="0.3"/>
      <feComposite operator="in" in2="dropBlur" result="dropShadowComp"/>
      <feComposite in="SourceGraphic" result="shadowed"/>
    </filter>
  </defs>
  <g>
    <rect x="2" y="2" width="24" height="24" class="cls-1"/>
    <path d="M21.489,19.968 C21.351,20.075 21.174,20.115 21.003,20.076 C19.631,19.770 17.224,19.413 14.940,19.962 C16.261,18.735 18.125,18.518 19.256,18.516 C20.061,18.514 20.716,17.870 20.716,17.082 L20.716,10.036 L21.131,10.036 C21.447,10.036 21.704,10.288 21.704,10.598 L21.704,19.529 C21.704,19.701 21.625,19.861 21.489,19.968 ZM19.253,17.643 C17.920,17.646 15.687,17.919 14.146,19.501 L14.146,10.682 C14.146,10.577 14.174,10.479 14.225,10.398 C15.490,8.399 17.920,8.096 19.256,8.093 C19.256,8.093 19.257,8.093 19.257,8.093 C19.408,8.093 19.551,8.150 19.658,8.255 C19.767,8.362 19.827,8.504 19.827,8.654 L19.827,17.082 C19.827,17.390 19.570,17.642 19.253,17.643 ZM8.150,17.643 C7.834,17.642 7.577,17.391 7.577,17.082 L7.577,8.654 C7.577,8.504 7.637,8.362 7.746,8.255 C7.853,8.150 7.995,8.093 8.147,8.093 C8.147,8.093 8.148,8.093 8.148,8.093 C9.484,8.096 11.914,8.399 13.179,10.398 C13.230,10.479 13.257,10.577 13.257,10.682 L13.257,19.501 C11.717,17.919 9.483,17.646 8.150,17.643 ZM12.463,19.961 C10.180,19.413 7.773,19.769 6.401,20.076 C6.229,20.115 6.052,20.075 5.915,19.968 C5.778,19.860 5.700,19.701 5.700,19.529 L5.700,10.598 C5.700,10.288 5.957,10.036 6.273,10.036 L6.688,10.036 L6.688,17.082 C6.688,17.870 7.343,18.514 8.148,18.516 C9.279,18.518 11.143,18.735 12.463,19.961 Z" class="cls-2"/>
  </g>
</svg>
