<svg xmlns="http://www.w3.org/2000/svg" xmlns:xlink="http://www.w3.org/1999/xlink" preserveAspectRatio="xMidYMid" width="22" height="17.94" viewBox="0 0 22 17.94">
  <defs>
    <style>
      .cls-1 {
        fill: #d462fa;
        fill-rule: evenodd;
      }
    </style>
  </defs>
  <path d="M21.616,6.174 L11.889,12.154 C11.399,12.456 10.596,12.456 10.105,12.154 L0.378,6.174 C-0.112,5.873 -0.112,5.379 0.378,5.077 L10.105,0.202 C10.596,-0.100 11.399,-0.100 11.889,0.202 L21.616,5.077 C22.107,5.379 22.107,5.873 21.616,6.174 ZM3.202,9.297 L9.587,13.222 C9.978,13.462 10.479,13.595 10.997,13.595 C11.516,13.595 12.017,13.462 12.408,13.222 L18.959,9.194 C18.959,9.194 19.369,8.880 19.369,9.524 C19.369,10.490 19.369,13.388 19.369,13.388 C19.369,13.424 19.369,13.607 19.369,13.664 C19.369,15.729 15.621,17.955 10.997,17.955 C6.374,17.955 2.626,15.729 2.626,13.664 C2.626,13.607 2.626,13.424 2.626,13.388 C2.626,13.388 2.626,10.655 2.626,9.744 C2.626,8.942 3.202,9.297 3.202,9.297 ZM20.278,15.037 C20.278,13.539 20.278,9.041 20.278,9.041 C20.278,9.041 20.244,8.751 20.392,8.622 C20.521,8.510 20.885,8.306 21.033,8.224 C21.219,8.120 21.214,8.433 21.214,8.433 C21.214,8.433 21.214,13.387 21.214,15.037 C21.214,15.123 21.284,15.162 21.318,15.182 C21.656,15.379 21.884,15.746 21.884,16.167 C21.884,16.797 21.375,17.308 20.746,17.308 C20.117,17.308 19.608,16.797 19.608,16.167 C19.608,15.748 19.834,15.382 20.170,15.184 C20.205,15.163 20.278,15.123 20.278,15.037 Z" class="cls-1"/>
</svg>
