<svg xmlns="http://www.w3.org/2000/svg" xmlns:xlink="http://www.w3.org/1999/xlink" preserveAspectRatio="xMidYMid" width="28" height="28" viewBox="0 0 28 28">
  <defs>
    <style>
      .cls-1 {
        fill: #fff;
        filter: url(#drop-shadow-1);
      }

      .cls-2 {
        fill: #d462fa;
        fill-rule: evenodd;
      }
    </style>

    <filter id="drop-shadow-1" filterUnits="userSpaceOnUse">
      <feOffset in="SourceAlpha"/>
      <feGaussianBlur stdDeviation="1" result="dropBlur"/>
      <feFlood flood-opacity="0.3"/>
      <feComposite operator="in" in2="dropBlur" result="dropShadowComp"/>
      <feComposite in="SourceGraphic" result="shadowed"/>
    </filter>
  </defs>
  <g>
    <rect x="2" y="2" width="24" height="24" class="cls-1"/>
    <path d="M21.421,12.462 L14.346,16.818 C13.990,17.038 13.406,17.038 13.049,16.818 L5.974,12.462 C5.617,12.243 5.617,11.884 5.974,11.664 L13.049,8.113 C13.406,7.893 13.990,7.893 14.346,8.113 L21.421,11.664 C21.778,11.884 21.778,12.243 21.421,12.462 ZM8.028,14.737 L12.672,17.596 C12.956,17.771 13.321,17.867 13.698,17.867 C14.075,17.867 14.439,17.771 14.723,17.596 L19.488,14.662 C19.488,14.662 19.786,14.433 19.786,14.902 C19.786,15.606 19.786,17.717 19.786,17.717 C19.786,17.743 19.786,17.877 19.786,17.918 C19.786,19.422 17.060,21.043 13.698,21.043 C10.335,21.043 7.609,19.422 7.609,17.918 C7.609,17.877 7.609,17.743 7.609,17.717 C7.609,17.717 7.609,15.726 7.609,15.063 C7.609,14.479 8.028,14.737 8.028,14.737 ZM20.448,18.918 C20.448,17.826 20.448,14.550 20.448,14.550 C20.448,14.550 20.423,14.339 20.531,14.246 C20.624,14.164 20.889,14.016 20.997,13.956 C21.132,13.880 21.128,14.108 21.128,14.108 C21.128,14.108 21.128,17.716 21.128,18.918 C21.128,18.980 21.180,19.009 21.204,19.023 C21.450,19.167 21.616,19.434 21.616,19.741 C21.616,20.200 21.245,20.572 20.788,20.572 C20.331,20.572 19.960,20.200 19.960,19.741 C19.960,19.435 20.125,19.169 20.369,19.025 C20.394,19.010 20.448,18.980 20.448,18.918 Z" class="cls-2"/>
  </g>
</svg>
